<svg width="21" height="19" viewBox="0 0 21 19" fill="none" xmlns="http://www.w3.org/2000/svg">
<path d="M18.4264 15.306C17.1983 14.2417 15.9831 13.1538 14.786 12.0477C13.5889 10.9416 12.3699 9.86827 11.1911 8.74399C8.84782 6.49175 6.73179 4.06634 4.43404 1.76859L4.41783 1.75237C4.14209 1.47664 3.27462 1.84672 2.81964 2.3017C2.36466 2.75668 2.21324 3.35143 2.48357 3.62175C2.48897 3.62716 2.49979 3.63797 2.5052 3.64338C4.97214 5.78274 7.33899 8.02219 9.75134 10.2162C10.9575 11.3131 12.1182 12.4556 13.2971 13.5799C14.485 14.6951 14.614 15.7339 16.0811 17.1647C16.3568 17.4404 17.6866 17.3325 18.1282 16.6639C18.4821 16.1261 18.7346 15.6141 18.4733 15.3347C18.4679 15.3293 18.4571 15.3185 18.4517 15.3131L18.4264 15.306Z" fill="#333333"/>
<path d="M16.3147 1.55278C15.2497 2.78019 14.1614 3.99496 13.0549 5.19167C11.9485 6.38838 10.8745 7.60677 9.75002 8.78542C7.49741 11.1283 5.07323 13.2456 2.77549 15.5433L2.75927 15.5595C2.48354 15.8353 2.84867 16.6978 3.30001 17.1491C3.75136 17.6005 4.34313 17.7489 4.61345 17.4786C4.61886 17.4732 4.62967 17.4624 4.63508 17.457C6.77575 14.9913 9.01571 12.625 11.2105 10.2135C12.308 9.00777 13.4505 7.84717 14.575 6.66851C15.6905 5.48082 16.7257 5.34827 18.1566 3.88128C18.4323 3.60555 18.3301 2.2815 17.666 1.8444C17.1317 1.49399 16.6228 1.24461 16.3435 1.50591C16.3381 1.51131 16.3273 1.52213 16.3219 1.52753L16.3147 1.55278Z" fill="#333333"/>
</svg>
