<svg width="21" height="19" viewBox="0 0 21 19" fill="none" xmlns="http://www.w3.org/2000/svg">
<g clip-path="url(#clip0_480_414)">
<path d="M20.231 2.98723C18.6101 2.87234 16.9815 2.78298 15.353 2.71915C13.7244 2.65532 12.1035 2.55319 10.4749 2.51489C7.22537 2.45106 4.0141 2.66808 0.764589 2.66808L0.741653 2.66808C0.351711 2.66808 -7.86804e-08 1.8 -5.07796e-08 1.1617C-2.28787e-08 0.523403 0.313484 -9.04236e-07 0.69578 -8.87526e-07C0.703424 -8.87191e-07 0.718718 -8.86523e-07 0.726364 -8.86189e-07C3.98351 0.229786 7.24066 0.319147 10.4978 0.472338C12.1264 0.548934 13.755 0.561703 15.3835 0.600001C17.0121 0.651065 17.8379 0.0127691 19.887 0.0383011C20.2769 0.0383011 21.1409 1.04681 20.9803 1.82553C20.8504 2.45106 20.6669 2.98724 20.2846 3C20.2769 3 20.2616 3 20.254 3L20.231 2.98723Z" fill="#333333"/>
<path d="M0.768958 10.9872C2.38989 10.8723 4.01847 10.783 5.64704 10.7191C7.27562 10.6553 8.89655 10.5532 10.5251 10.5149C13.7746 10.4511 16.9859 10.6681 20.2354 10.6681L20.2583 10.6681C20.6483 10.6681 21 9.8 21 9.1617C21 8.5234 20.6865 8 20.3042 8C20.2966 8 20.2813 8 20.2736 8C17.0165 8.22979 13.7593 8.31915 10.5022 8.47234C8.87361 8.54893 7.24503 8.5617 5.61646 8.6C3.98788 8.65106 3.16213 8.01277 1.11303 8.0383C0.723086 8.0383 -0.1409 9.04681 0.0196635 9.82553C0.149644 10.4511 0.333142 10.9872 0.715437 11C0.723083 11 0.738375 11 0.746021 11L0.768958 10.9872Z" fill="#333333"/>
<path d="M20.231 16.0128C18.6101 16.1277 16.9815 16.217 15.353 16.2809C13.7244 16.3447 12.1035 16.4468 10.4749 16.4851C7.22537 16.5489 4.0141 16.3319 0.764589 16.3319L0.741653 16.3319C0.351711 16.3319 -7.86804e-08 17.2 -5.07796e-08 17.8383C-2.28787e-08 18.4766 0.313484 19 0.69578 19C0.703424 19 0.718718 19 0.726364 19C3.98351 18.7702 7.24066 18.6809 10.4978 18.5277C12.1264 18.4511 13.755 18.4383 15.3835 18.4C17.0121 18.3489 17.8379 18.9872 19.887 18.9617C20.2769 18.9617 21.1409 17.9532 20.9803 17.1745C20.8504 16.5489 20.6669 16.0128 20.2846 16C20.2769 16 20.2616 16 20.254 16L20.231 16.0128Z" fill="#333333"/>
</g>
<defs>
<clipPath id="clip0_480_414">
<rect width="21" height="19" fill="white" transform="matrix(-1 0 0 1 21 0)"/>
</clipPath>
</defs>
</svg>
