<svg width="34" height="36" viewBox="0 0 34 36" fill="none" xmlns="http://www.w3.org/2000/svg">
<path d="M2.96653 28.0679C3.49917 30.1673 5.15037 32.1375 6.93853 33.2633C7.27333 33.4687 7.60813 33.7045 7.95816 33.9251C7.88967 34.0164 7.92772 34.1837 8.06468 34.1761C8.14078 34.1685 8.20927 34.1533 8.27775 34.1305C8.90171 34.526 9.54087 34.9064 10.1877 35.1574C11.5269 35.6747 13.1248 35.766 14.5477 35.8877C16.8914 36.0854 19.3948 36.0474 21.7765 35.5682C21.7841 35.5682 21.7917 35.5682 21.7917 35.5606C24.8354 34.952 27.6812 33.636 29.7433 31.1867C33.4414 26.7975 33.837 20.0275 33.3501 14.5125C33.2511 13.3791 33.0685 12.086 32.7641 10.7852C32.7641 10.77 32.7565 10.7548 32.7489 10.7395C31.9043 7.14913 30.139 3.51308 26.517 3.04145C25.1017 1.88522 23.4429 1.03326 21.7004 0.470352C19.1741 -0.33597 16.5337 0.0367639 13.9846 0.531207C11.4204 1.04086 8.87127 1.78633 6.77874 3.45222C2.38823 6.93614 0.737038 12.3522 0.501153 17.8367C0.364187 21.2217 0.957697 25.2001 2.96653 28.0679ZM29.5911 5.5441C29.1878 5.3235 28.7693 5.11811 28.4041 4.80623C28.2823 4.70735 28.1378 4.56282 27.978 4.4335C27.9323 4.38025 27.8942 4.3194 27.8486 4.27376C27.6964 4.10641 27.529 3.94666 27.3616 3.78692C28.2367 4.22051 28.9672 4.82145 29.5911 5.5441ZM31.2271 8.27494C30.8162 7.93263 30.2759 7.75768 29.8346 7.4534C29.7661 7.40776 29.7052 7.36212 29.6368 7.30127C29.3248 6.53298 28.9595 5.78751 28.503 5.12572C28.9519 5.50606 29.515 5.70384 29.9868 6.04614C30.489 6.71554 30.8923 7.46862 31.2271 8.27494ZM31.8586 10.1082C31.5847 9.86476 31.3336 9.60613 31.0597 9.36271C30.7401 9.08887 30.4129 8.82263 30.0933 8.55639C29.9868 8.23691 29.8803 7.93263 29.7661 7.62075C29.7737 7.62836 29.7889 7.63597 29.7889 7.64357C30.1542 7.90981 30.6183 8.09998 30.9684 8.38904C30.9684 8.41947 30.9912 8.46511 31.0292 8.48032C31.0901 8.51836 31.1586 8.564 31.2119 8.60203C31.2651 8.63246 31.3184 8.62485 31.3488 8.58682C31.5467 9.07366 31.7141 9.58331 31.8586 10.1082ZM32.1706 11.3633C31.8967 11.1655 31.6456 10.9449 31.3793 10.7395C31.0825 10.5113 30.7934 10.2907 30.527 10.0321C30.4205 9.65177 30.314 9.27904 30.1922 8.89109C30.4738 9.14211 30.7705 9.38553 31.0368 9.65177C31.3488 9.96365 31.638 10.2907 31.9804 10.5722C32.0489 10.8308 32.1174 11.0971 32.1706 11.3633ZM32.4522 12.9607C32.3989 12.9227 32.3532 12.8695 32.3 12.839C31.813 12.4359 31.3717 11.9795 30.9303 11.5383C30.8466 11.1655 30.7553 10.7928 30.6564 10.4353C30.8542 10.6254 31.0597 10.7928 31.2727 10.9678C31.5771 11.2264 31.8663 11.5002 32.1782 11.7284C32.125 11.8121 32.1554 11.949 32.2848 11.9566C32.3532 12.2837 32.4065 12.6184 32.4522 12.9607ZM32.6652 15.1667C32.4826 14.8777 32.2924 14.5962 32.0793 14.33C31.851 14.0485 31.5315 13.7747 31.2803 13.4704C31.1966 12.9075 31.0977 12.3446 30.976 11.7969C31.2803 12.124 31.5847 12.4587 31.9119 12.7706C32.0793 12.9227 32.3076 13.0977 32.4902 13.2954C32.5739 13.9268 32.6272 14.5582 32.6652 15.1667ZM32.7261 17.1141C32.5891 16.8858 32.4065 16.6729 32.2467 16.437C32.0032 16.0719 31.7826 15.6916 31.501 15.3645C31.4554 14.8244 31.3945 14.2843 31.3184 13.7518C31.3793 13.8279 31.4478 13.904 31.5086 13.9724C31.9956 14.5353 32.3685 15.1287 32.688 15.7905C32.6957 16.0035 32.7033 16.2317 32.7109 16.437C32.7261 16.6576 32.7261 16.8935 32.7261 17.1141ZM32.7109 19.1299C32.6272 19.0082 32.5359 18.8864 32.4598 18.7723C32.2924 18.5289 31.8663 18.0345 31.6228 17.5629C31.6152 16.9239 31.5923 16.2773 31.5391 15.6383C31.7065 15.8665 31.851 16.1176 31.9956 16.3762C32.2543 16.8174 32.6196 17.2205 32.7337 17.7226C32.7337 18.1942 32.7185 18.6582 32.7109 19.1299ZM32.5663 21.488C32.5283 21.3891 32.4826 21.2902 32.4446 21.2141C32.2011 20.6893 31.8891 20.1872 31.5543 19.7156C31.5923 19.0994 31.6228 18.4909 31.6228 17.8747C31.6456 17.9052 31.6608 17.9508 31.6836 17.9736C31.9347 18.43 32.4217 18.9701 32.6957 19.5178C32.6728 20.1796 32.6272 20.8338 32.5663 21.488ZM32.2543 23.8004C32.1782 23.6331 32.1021 23.4733 32.026 23.2984C31.7749 22.7811 31.5619 22.241 31.3641 21.701C31.4401 21.1381 31.5086 20.5599 31.5543 19.9818C31.7141 20.2252 31.8663 20.4687 32.0032 20.7197C32.163 21.0087 32.4978 21.5488 32.5359 21.9976C32.5206 22.0965 32.513 22.1954 32.5054 22.2943C32.4826 22.3475 32.4674 22.3932 32.4293 22.4464C32.3761 22.5149 32.4065 22.5986 32.4598 22.629C32.3837 23.0093 32.3228 23.4049 32.2543 23.8004ZM31.7065 25.9912C31.6608 25.7706 31.5695 25.5424 31.5086 25.3751C31.326 24.9186 31.1206 24.4774 30.8999 24.0439C31.0597 23.4125 31.189 22.7659 31.2956 22.1117C31.4097 22.4236 31.5238 22.7355 31.638 23.0322C31.7978 23.4429 32.0413 23.8385 32.1097 24.2797C32.0717 24.2569 32.0337 24.2416 31.9956 24.2188C31.8663 24.0743 31.676 24.2797 31.7978 24.4242C31.8891 24.5459 31.9804 24.6068 32.0793 24.6372C31.9652 25.1012 31.8434 25.5424 31.7065 25.9912ZM30.9988 27.8625C30.9075 27.5962 30.8466 27.3148 30.7629 27.0485C30.626 26.5921 30.489 26.1357 30.4205 25.6565C30.5955 25.1545 30.7477 24.6296 30.8771 24.1047C31.2575 24.8274 31.9195 26.1586 31.4401 26.4552C31.3488 26.5085 31.4097 26.6454 31.4858 26.653C31.3412 27.0714 31.1738 27.4669 30.9988 27.8625ZM30.1466 28.9883C29.964 28.4482 29.8118 27.8549 29.7889 27.2768C29.964 26.8888 30.1237 26.4856 30.2759 26.0749C30.3444 26.4248 30.4281 26.7671 30.527 27.117C30.626 27.4745 30.6792 27.8549 30.839 28.1896C30.6564 28.5623 30.4586 28.9274 30.2455 29.2773C30.2227 29.1785 30.1846 29.0796 30.1466 28.9883ZM29.1954 29.8479C29.1498 29.4903 29.0204 29.1556 28.99 28.7981C29.1802 28.5167 29.3552 28.2124 29.5226 27.8777C29.5683 27.7864 29.6063 27.6875 29.652 27.5962C29.6824 27.8929 29.7357 28.182 29.7966 28.4786C29.8422 28.7144 30.0553 29.2089 30.0781 29.5664C29.8194 29.9696 29.5378 30.3575 29.2259 30.7226C29.2259 30.4336 29.2259 30.1369 29.1954 29.8479ZM28.0388 30.6085C28.0769 30.3271 28.1378 30.0532 28.1682 29.7794C28.4117 29.5284 28.6476 29.2697 28.8606 28.9655C28.8987 29.2317 28.9748 29.4903 29.0128 29.7718C29.0661 30.1749 29.0356 30.5781 29.0052 30.9889C28.7008 31.3388 28.366 31.6583 28.0236 31.9549C28.0084 31.5061 27.978 31.0573 28.0388 30.6085ZM26.692 32.9438C26.7301 32.6928 26.7757 32.4418 26.8061 32.1984C26.867 31.6355 26.9203 31.1334 27.179 30.6237V30.6161C27.4681 30.4108 27.7421 30.1978 28.0008 29.9544C27.9551 30.2282 27.879 30.5096 27.841 30.7987C27.7725 31.2475 27.7801 31.7039 27.7953 32.1527C27.4453 32.4342 27.0725 32.7004 26.692 32.9438ZM25.1169 33.7882C25.2843 33.4991 25.3452 33.1872 25.3984 32.8525C25.4593 32.3581 25.5278 31.8941 25.6648 31.4301C26.1365 31.2247 26.5779 31.0041 26.9964 30.7379C26.8137 31.1334 26.7224 31.5442 26.6616 31.9854C26.6083 32.3581 26.5094 32.7308 26.4561 33.096C26.0224 33.3546 25.5734 33.5828 25.1169 33.7882ZM23.7472 34.3207C23.869 34.0468 23.9146 33.6893 23.9451 33.4839C24.0364 32.9819 24.0897 32.4646 24.1505 31.9549C24.5995 31.8256 25.0408 31.6887 25.4593 31.5137C25.3832 31.7724 25.3147 32.0234 25.2691 32.2972C25.1778 32.8069 25.1473 33.3242 24.8354 33.7501C24.7897 33.811 24.8125 33.8643 24.8506 33.9023C24.4777 34.0544 24.1201 34.1913 23.7472 34.3207ZM20.3155 35.0661C20.3764 34.952 20.422 34.8151 20.4525 34.6858C20.6123 34.024 20.6731 33.3394 21.2286 32.8754C21.2666 32.8449 21.2514 32.7841 21.2286 32.7613C21.9743 32.5863 22.72 32.3885 23.4505 32.1527C23.6027 32.1147 23.7549 32.069 23.8994 32.031C23.9451 32.0158 23.9831 32.0006 24.0288 31.993C23.9679 32.3505 23.907 32.7156 23.8386 33.0731C23.7777 33.3622 23.7092 33.6513 23.6103 33.9327C23.5798 34.024 23.5342 34.2598 23.4429 34.3054C23.3363 34.3739 23.3592 34.3055 23.2298 34.1457C23.1461 34.0468 22.9939 34.1761 23.0472 34.2902C23.0852 34.3587 23.1233 34.4272 23.1689 34.4956C22.8798 34.5869 22.583 34.6554 22.2939 34.7238C22.4765 34.0392 22.4156 33.1796 22.4461 32.6167C22.4537 32.495 22.2635 32.495 22.2558 32.6167C22.2102 33.2937 22.2634 34.1229 22.0123 34.7847C21.4569 34.8988 20.8862 34.9901 20.3155 35.0661ZM18.4132 35.2335C18.5273 34.9672 18.5958 34.6706 18.6947 34.4196C18.8621 33.986 19.0828 33.598 19.2046 33.1568C19.6307 33.0884 20.0568 33.0123 20.4753 32.921C20.6731 32.883 20.8634 32.8297 21.0688 32.7841C20.734 33.0731 20.5438 33.4535 20.3992 33.8795C20.2851 34.2142 20.2318 35.0889 19.7676 35.0889C19.7144 35.0889 19.6839 35.1118 19.6535 35.1422C19.2502 35.1878 18.8317 35.2183 18.4132 35.2335ZM16.6022 35.2563C16.8685 34.9901 17.0588 34.6934 17.2186 34.3435C17.3631 34.024 17.4316 33.4991 17.7664 33.3318C18.1849 33.2937 18.5958 33.2405 19.0143 33.1796C18.885 33.598 18.6339 33.9784 18.4665 34.3815C18.3371 34.6782 18.2382 34.9748 18.086 35.2487C17.5762 35.2715 17.0892 35.2715 16.6022 35.2563ZM15.1945 35.2031C15.3391 34.5641 15.8946 34.0772 16.0467 33.4307C16.5033 33.4231 16.9598 33.4002 17.4164 33.3698C17.3327 33.4763 17.2718 33.6056 17.2109 33.7425C16.9979 34.2522 16.7696 34.7619 16.3207 35.1042C16.2598 35.1498 16.2446 35.2031 16.2522 35.2563C16.1761 35.2563 16.1 35.2563 16.0239 35.2487C15.75 35.2259 15.4684 35.2183 15.1945 35.2031ZM13.3987 35.0509C13.8553 34.6554 14.251 34.0088 14.426 33.385C14.913 33.4155 15.3923 33.4307 15.8793 33.4231C15.6891 34.0696 15.0804 34.526 14.9206 35.1802C14.4108 35.1574 13.9086 35.1118 13.3987 35.0509ZM11.8541 34.7999C12.1128 34.5337 12.3258 34.2142 12.5008 33.8947C12.6226 33.6893 12.7367 33.4459 12.8204 33.2101C13.2922 33.2785 13.764 33.3318 14.2357 33.3622C14.0227 33.9707 13.5738 34.4804 13.14 34.9292C13.1172 34.9596 13.1096 34.9825 13.102 35.0129C12.6835 34.9672 12.265 34.8912 11.8541 34.7999ZM10.3018 34.3283C10.3551 34.1837 10.3855 34.0392 10.4388 33.8871C10.5681 33.4991 10.7431 33.1568 10.979 32.8449C11.5421 32.9819 12.1128 33.1036 12.6835 33.1796C12.4856 33.773 11.9758 34.3587 11.5497 34.7162C11.5497 34.7162 11.5497 34.7162 11.5421 34.7238C11.4736 34.7086 11.4127 34.6934 11.3519 34.6858C10.979 34.6021 10.629 34.4728 10.3018 34.3283ZM8.92453 33.5752C9.16041 33.2177 9.33542 32.7689 9.47239 32.419C9.90611 32.5635 10.3322 32.6852 10.7736 32.8069C10.6518 32.9666 10.5453 33.134 10.4464 33.3166C10.317 33.5524 10.2181 33.9403 10.0583 34.2066C9.65501 34.024 9.28977 33.8034 8.92453 33.5752ZM7.43313 32.6472C7.50922 32.3277 7.59292 32.0158 7.6614 31.6963C8.19404 31.9397 8.7343 32.1603 9.28216 32.3581C9.17563 32.6091 9.06149 32.8525 8.92453 33.0884C8.86365 33.1949 8.78756 33.3242 8.69625 33.4459C8.48319 33.3166 8.27014 33.1796 8.04947 33.0503C7.85163 32.921 7.63858 32.7841 7.43313 32.6472ZM6.18522 31.6659C6.27653 31.4681 6.37545 31.2855 6.45916 31.0954C6.80157 31.2855 7.15159 31.4605 7.50161 31.6278C7.43313 31.9321 7.34182 32.2212 7.25051 32.5178C6.88526 32.2516 6.52764 31.9702 6.18522 31.6659ZM4.54924 29.8022C4.83078 30.0456 5.12754 30.2738 5.44713 30.4868C5.72106 30.6618 5.99499 30.8215 6.27653 30.9889C6.20044 31.1638 6.09391 31.3312 5.99499 31.4909C5.44713 30.9889 4.95253 30.4184 4.54924 29.8022ZM2.21322 13.8051C3.06545 9.07366 5.96455 4.54 10.5225 2.80564C14.9738 1.10932 20.0263 0.576847 24.2875 3.00342C24.7288 3.25444 25.1245 3.5359 25.4974 3.83256C25.5582 3.88581 25.6115 3.93145 25.6724 3.99231C27.3768 5.67341 28.5106 7.96306 29.1954 10.2527C29.8042 12.2761 30.2531 14.5049 30.4433 16.7641C30.5727 20.134 30.2683 23.7016 28.9443 26.7595C27.9171 28.8057 25.9387 30.2282 23.6712 31.141C23.3516 31.2323 23.0244 31.3312 22.6896 31.4225C20.2851 32.0919 16.9522 32.5559 14.5021 31.8637C14.2053 31.78 14.0379 32.0462 14.076 32.282C10.1496 31.8332 5.81237 30.4336 3.68179 26.9725C1.3762 23.2071 1.46752 17.9964 2.21322 13.8051Z" fill="#333333"/>
<path d="M24.0971 16.4216C24.0971 16.5433 24.2036 16.6574 24.2036 16.6574C24.2189 16.6727 24.2341 16.6879 24.2493 16.6955V16.7031C24.2645 16.7107 24.2341 16.7031 24.2265 16.6955L24.0667 16.6727L23.6862 16.6042C23.4199 16.5585 23.146 16.5129 22.8644 16.4444L22.8188 16.4216C22.6894 16.3912 22.5981 16.2847 22.5829 16.163C22.4763 15.4251 22.2252 14.7253 21.8144 14.1168C21.7306 13.9951 21.7535 13.8277 21.8524 13.7288L21.8676 13.706L22.385 13.1507C22.4687 13.0594 22.5524 12.9757 22.6209 12.8845C22.6514 12.8388 22.6818 12.8008 22.7046 12.7704C22.7046 12.7628 22.7198 12.7399 22.7046 12.7627C22.7198 12.7551 22.6133 12.8769 22.7731 13.0975L22.7351 13.0518C22.3927 12.5345 21.9741 12.0629 21.5176 11.6445L21.335 11.4924C21.2056 11.3783 21.2056 11.3327 21.198 11.3327C21.198 11.3327 21.2056 11.3479 21.2665 11.3859C21.3274 11.424 21.4567 11.4544 21.5785 11.4011C21.6926 11.3327 21.6241 11.3631 21.6241 11.3783L21.548 11.462C21.5328 11.4772 21.5176 11.5 21.4567 11.5533L21.4111 11.5913L21.3121 11.6674C21.0534 11.8804 20.7795 12.0781 20.5056 12.2759L20.498 12.2835H20.4827C20.3686 12.3672 20.224 12.3596 20.1175 12.2835C19.4859 11.8271 18.7555 11.5304 17.9793 11.3859H17.9717C17.8652 11.3707 17.7891 11.2946 17.7586 11.1957L17.7206 11.074C17.6293 10.7926 17.6293 10.5111 17.6293 10.2373C17.6293 10.1004 17.6293 9.97105 17.6217 9.84934C17.6141 9.78849 17.6141 9.73524 17.6065 9.6896C17.6065 9.68199 17.5989 9.64396 17.5989 9.66678C17.5989 9.66678 17.5989 9.67438 17.6369 9.72002C17.6369 9.72763 17.751 9.83413 17.8652 9.83413L17.8119 9.82652C17.2945 9.69721 16.7162 9.75045 16.1075 9.79609L15.8868 9.81131C15.8792 9.81131 15.8944 9.81131 15.9401 9.78088C15.9933 9.74285 16.0314 9.66678 16.0238 9.65917L15.9705 10.0547L15.8411 10.9751V10.9828V10.998C15.8183 11.1425 15.7118 11.249 15.5748 11.2642C14.8215 11.3707 14.091 11.7206 13.4442 12.1694C13.3149 12.2607 13.1475 12.2379 13.0409 12.1314C12.8355 11.9184 12.6377 11.7054 12.4398 11.5152C12.3409 11.424 12.2344 11.3327 12.1431 11.2718C12.105 11.2414 12.0441 11.2186 12.067 11.2338C12.067 11.2338 12.1355 11.2338 12.1735 11.2034C12.1963 11.1957 12.2192 11.1577 12.2268 11.1501C12.2344 11.1425 12.242 11.1349 12.242 11.1273V11.1197L12.1126 11.2946C11.6865 11.6293 11.3898 12.0857 11.0473 12.6106L10.9104 12.8008C10.8647 12.854 10.8191 12.9453 10.8495 12.8769C10.8647 12.8464 10.8647 12.7247 10.8419 12.6943C10.8267 12.6563 10.8191 12.6563 10.8343 12.6715L10.9941 12.8236C11.1919 13.0518 11.4735 13.2039 11.58 13.531L11.5876 13.5463L11.6485 13.6756C11.6941 13.7668 11.6789 13.8733 11.6256 13.9494C11.3898 14.2917 11.1767 14.6492 11.0093 15.0296C10.8419 15.4099 10.7125 15.7903 10.6212 16.2162V16.2315C10.5908 16.3684 10.4766 16.4597 10.3397 16.4673H10.3169L9.33527 16.5205L9.09177 16.5281H9.00807C8.93959 16.5205 8.93198 16.5205 8.90154 16.5129L8.80262 16.4977C8.79501 16.4977 8.7798 16.4977 8.79502 16.4977C8.80263 16.4977 8.81024 16.4977 8.84829 16.4901C8.87111 16.4901 8.97764 16.4444 9.0309 16.376C9.09938 16.2695 9.07656 16.2999 9.08417 16.2923C9.08417 16.2847 9.08417 16.2847 9.08417 16.2923L9.07655 16.3303L9.04612 16.5509C9.02329 16.7031 9.00808 16.8628 9.00047 17.0074V17.0758C9.00808 17.053 8.95481 16.9161 8.97764 16.9769L9.00047 17.0378C9.01569 17.0758 9.02329 17.1138 9.0309 17.1519C9.05373 17.2812 9.05373 17.3725 9.05373 17.4562C9.06134 17.7832 9.07656 18.0419 9.14504 18.3157L9.16025 18.407C9.16025 18.3461 9.13743 18.2777 9.09938 18.2244C9.04612 18.1636 9.05373 18.1712 9.0309 18.1484C9.01568 18.1332 8.99285 18.1256 8.97002 18.1179L8.96242 18.1103C8.93959 18.1027 8.97003 18.1103 8.97764 18.1179C9.01569 18.1256 9.06895 18.1256 9.12982 18.1332C9.24396 18.1408 9.37331 18.1408 9.49506 18.1484C9.75377 18.1484 10.0125 18.1484 10.2864 18.1712H10.3093H10.3245C10.4766 18.1864 10.5908 18.2929 10.6212 18.4374C10.644 18.5744 10.7125 18.7873 10.781 18.9623C10.8495 19.1449 10.9256 19.3198 11.0093 19.4948C11.1767 19.8447 11.3745 20.2022 11.58 20.5521L11.5876 20.5673C11.6485 20.6814 11.6332 20.8108 11.5648 20.9096L11.5572 20.9173L11.0245 21.6095L10.7582 21.9594L10.6745 22.0583C10.606 22.1267 10.5908 22.1343 10.5604 22.1648L10.4995 22.2256C10.4919 22.2332 10.4843 22.2408 10.4919 22.2332C10.4919 22.218 10.5147 22.2484 10.5527 22.0735V22.0431C10.5527 21.9974 10.5451 21.9442 10.5299 21.9137L10.5223 21.8985L10.5527 21.9366L10.6441 22.0355C10.7125 22.1039 10.7886 22.1724 10.8495 22.2256C10.8647 22.2408 10.8875 22.256 10.8799 22.2484C10.918 22.2637 10.7658 22.1952 10.8495 22.2332C10.8875 22.2484 10.918 22.2713 10.956 22.2865C11.0397 22.3473 11.093 22.4006 11.1386 22.4462C11.23 22.5451 11.2984 22.6288 11.3669 22.7125C11.6256 23.0396 11.8844 23.3438 12.1659 23.496L12.2344 23.5492C12.1887 23.5036 12.1126 23.4655 12.0365 23.4579C11.9528 23.4579 11.968 23.4579 11.93 23.4579C11.8615 23.4807 11.8615 23.4807 11.8615 23.4807C11.8463 23.496 11.8767 23.4655 11.8843 23.4655C11.9224 23.4275 11.9604 23.3895 11.9985 23.3362L12.2572 23.0243C12.4322 22.8037 12.6148 22.5831 12.8507 22.3854L12.8735 22.3702L12.9268 22.3245C13.0333 22.2332 13.1855 22.2332 13.2921 22.3093C13.4747 22.431 13.6497 22.5527 13.8323 22.6668C14.0225 22.7809 14.1747 22.8646 14.3802 22.9483C14.7758 23.108 15.1715 23.2297 15.59 23.2982L15.6129 23.3058C15.7574 23.3286 15.864 23.4503 15.8716 23.5872V23.6101C15.902 23.9448 15.9248 24.2871 15.9401 24.6218C15.9401 24.7967 15.9781 24.9413 15.9401 25.1923C15.9324 25.2303 15.9324 25.2683 15.9324 25.276C15.9324 25.2836 15.94 25.2836 15.9248 25.2303C15.9172 25.2227 15.902 25.101 15.7726 25.0173C15.6889 24.9717 15.7042 24.9793 15.6889 24.9793L15.6585 24.9717H15.8259L16.0618 24.9565L16.1531 24.9489L16.2596 24.926C16.427 24.8956 16.6097 24.8576 16.7999 24.8424C17.1956 24.8119 17.5608 24.8728 17.8956 24.9108H17.8271C17.7586 24.9108 17.6673 24.9413 17.6141 24.9945C17.5684 25.0401 17.5684 25.0325 17.5532 25.063C17.5228 25.1238 17.5304 25.1086 17.5304 25.1162C17.5304 25.1314 17.538 25.101 17.538 25.0858C17.5456 25.0401 17.5532 24.9793 17.5532 24.9184C17.5608 24.7967 17.5608 24.6674 17.5608 24.5305C17.5608 24.2642 17.5684 23.9904 17.576 23.709L17.8956 24.0208H17.888L17.8347 24.0132C17.675 23.998 17.5532 23.8535 17.5684 23.6937C17.5684 23.6785 17.576 23.6633 17.576 23.6481V23.6405V23.6329H18.2V23.7013L17.8424 23.3895C18.238 23.3362 18.6337 23.2145 18.9913 23.0319C19.3414 22.857 19.6838 22.5831 20.049 22.3245L20.0718 22.3093C20.1784 22.2332 20.3229 22.2408 20.4219 22.3169L20.4903 22.3625C20.7871 22.5831 21.023 22.8418 21.2513 23.1232L21.4187 23.3286L21.4643 23.3819C21.4948 23.4199 21.5252 23.4655 21.5404 23.4807L21.6089 23.5872C21.6241 23.6177 21.6546 23.6481 21.6317 23.6253C21.6241 23.6177 21.6089 23.6025 21.5632 23.5796C21.4872 23.534 21.3806 23.5264 21.335 23.534C21.2969 23.5416 21.3045 23.5416 21.3198 23.534C21.3654 23.5188 21.4491 23.4807 21.5176 23.4427L21.7383 23.3286C21.7763 23.3134 21.8524 23.2525 21.9057 23.2145C22.0274 23.1232 22.1263 23.0243 22.2176 22.9102C22.4079 22.682 22.5829 22.3549 22.8035 22.0507L22.8416 22.005C22.7959 22.0507 22.7579 22.1191 22.7503 22.1876C22.7503 22.2561 22.7427 22.2408 22.7503 22.2713C22.7655 22.3245 22.7655 22.3169 22.7655 22.3169C22.7731 22.3245 22.7503 22.2865 22.7427 22.2713C22.7122 22.2256 22.6742 22.1724 22.6285 22.1191L22.3546 21.7844L21.7611 21.0998L21.7383 21.077L21.7306 21.0694C21.6393 20.9629 21.6317 20.8031 21.7078 20.6967C22.1415 20.0425 22.4383 19.297 22.5372 18.5211L22.5448 18.4907C22.5601 18.3614 22.659 18.2625 22.7883 18.232L22.872 18.2168C23.1992 18.1484 23.5188 18.1484 23.8384 18.1636L24.1123 18.1788C24.2645 18.2016 24.3102 18.2168 24.3482 18.2168C24.3482 18.2168 24.3482 18.2168 24.3102 18.2168C24.2949 18.2168 24.2721 18.2244 24.2569 18.232C24.2265 18.2397 24.1808 18.2625 24.1504 18.2853C24.0971 18.3157 24.0438 18.3842 24.021 18.4298C23.9525 18.6276 23.9982 18.582 23.983 18.5287C23.983 18.4983 23.9754 18.4374 23.9982 18.3461L24.0134 18.2853L24.0362 18.1864C24.0971 17.8973 24.1275 17.6007 24.1352 17.2964C24.158 17.0226 24.1428 16.7639 24.0971 16.4216ZM24.9341 16.3456C24.9874 16.6346 25.0178 17.0226 25.0102 17.3573C25.0102 17.7072 24.9722 18.0495 24.9113 18.3918L24.8809 18.5287L24.8656 18.5896C24.8732 18.5363 24.8733 18.5211 24.8733 18.5287C24.858 18.5591 24.9189 18.5896 24.82 18.871C24.7895 18.9395 24.7211 19.0155 24.6526 19.0612C24.6145 19.084 24.5613 19.1144 24.5232 19.122C24.4928 19.1297 24.4623 19.1373 24.4395 19.1373C24.3558 19.1449 24.3178 19.1373 24.2797 19.1373C24.158 19.122 24.0515 19.0916 24.0362 19.0916L23.8308 19.0764C23.5036 19.0536 23.184 19.0079 22.8644 18.8938L23.1916 18.62L23.184 18.658C23.0699 19.5328 22.7351 20.3696 22.2481 21.0998L22.2176 20.7119L22.2405 20.7347L22.8872 21.3661C22.9938 21.4725 23.1079 21.5867 23.2144 21.7084C23.2677 21.7692 23.321 21.8377 23.3742 21.9137C23.4047 21.967 23.4275 21.9898 23.4655 22.0659C23.4808 22.0963 23.496 22.1267 23.5112 22.218C23.5188 22.2637 23.5264 22.2713 23.5188 22.3549C23.5036 22.4386 23.4656 22.5299 23.4123 22.5907L23.4503 22.5451C23.2677 22.8266 23.1155 23.1384 22.872 23.4807C22.7427 23.6481 22.5905 23.8002 22.4307 23.9295C22.347 23.998 22.2785 24.0513 22.1568 24.1197L21.9057 24.2566C21.8143 24.3023 21.7383 24.3403 21.6165 24.386C21.5861 24.3936 21.548 24.4088 21.4719 24.424C21.4035 24.4392 21.2741 24.4316 21.1752 24.3707C21.1143 24.3327 21.0763 24.3023 21.061 24.2795C20.9849 24.1958 20.9621 24.1501 20.9241 24.1045L20.848 23.9904C20.8328 23.9676 20.8404 23.9752 20.8404 23.9828L20.7947 23.9295L20.6197 23.7242C20.3914 23.4503 20.1784 23.1613 20.0186 22.8266L20.4371 22.8798L20.4143 22.895L19.8816 23.2754C19.699 23.4047 19.4935 23.5416 19.2805 23.6481C18.862 23.8611 18.3978 24.0056 17.9261 24.0665C17.751 24.0893 17.5989 23.9676 17.576 23.8002V23.7622V23.6937C17.576 23.5188 17.713 23.3819 17.888 23.3819C18.063 23.3819 18.2 23.5188 18.2 23.6937V23.7394V23.8154L17.888 23.4427H17.8956C18.0554 23.4275 18.1924 23.5416 18.2076 23.7013L18.2152 23.7546C18.2456 24.0208 18.2837 24.2871 18.2989 24.5685C18.3065 24.7054 18.3217 24.85 18.3217 24.9945C18.3217 25.0706 18.3217 25.1466 18.3141 25.2379C18.3065 25.2912 18.3065 25.3292 18.2837 25.4053C18.2685 25.4433 18.2761 25.4661 18.2228 25.5498C18.1924 25.5878 18.1924 25.603 18.1315 25.6563C18.063 25.7171 17.9565 25.7552 17.8728 25.7628C17.8576 25.7628 17.8347 25.7628 17.8195 25.7628H17.8043C17.4619 25.7248 17.1575 25.6867 16.876 25.7248C16.7314 25.74 16.5792 25.7552 16.4118 25.7856L16.2749 25.8084L16.1151 25.8236L15.8411 25.8313C15.7422 25.8313 15.6737 25.8389 15.4987 25.8084L15.4378 25.7932C15.415 25.7856 15.415 25.7932 15.3237 25.74C15.1715 25.6411 15.1487 25.5042 15.1411 25.4737C15.1183 25.3748 15.1259 25.3368 15.1259 25.2988C15.1335 25.2227 15.1411 25.1771 15.1487 25.1314C15.1791 25.0478 15.1639 24.85 15.1791 24.6902C15.1867 24.3555 15.2096 24.0132 15.2324 23.6785L15.4987 23.9828L15.4759 23.9752C15.0117 23.8991 14.5552 23.7622 14.1291 23.5872C13.9236 23.5036 13.6801 23.3819 13.4899 23.2601C13.292 23.1384 13.1018 23.0167 12.9192 22.8874L13.3377 22.8266L13.3301 22.8494C13.2084 23.1004 13.0486 23.3438 12.8735 23.5796C12.7898 23.7013 12.6909 23.8154 12.5844 23.9295C12.5311 23.9904 12.4703 24.0513 12.4094 24.1121C12.3637 24.1501 12.3409 24.173 12.2572 24.2262C12.2268 24.2414 12.1963 24.2719 12.0898 24.2947C12.0365 24.3023 12.0289 24.3175 11.93 24.3023C11.8387 24.2947 11.7474 24.249 11.6789 24.1958L11.7474 24.249C11.2832 23.9752 10.9941 23.5872 10.7277 23.2525L10.5451 23.0243C10.5223 22.9939 10.4995 22.9711 10.4919 22.9711C10.4995 22.9787 10.5147 22.9863 10.5223 22.9863C10.5832 23.0091 10.4082 22.9331 10.4234 22.9331C10.3701 22.895 10.3549 22.8798 10.3245 22.857C10.2255 22.7733 10.1495 22.6896 10.0734 22.606L9.95162 22.469L9.88314 22.3854C9.86792 22.3625 9.8603 22.3549 9.83747 22.3169L9.81465 22.2637C9.79182 22.218 9.7766 22.1496 9.7766 22.0963V22.0811V22.0659C9.81464 21.8605 9.86031 21.8605 9.88314 21.8149C9.91357 21.7768 9.92879 21.7616 9.95162 21.7388L10.0505 21.6551C10.0734 21.6399 10.119 21.6019 10.0962 21.6171L10.1571 21.5486L10.4462 21.2215L11.0245 20.5673L10.9941 20.9173L10.9865 20.902C10.7886 20.5521 10.5832 20.187 10.4006 19.8067C10.3092 19.6165 10.2255 19.4187 10.1495 19.2209C10.0734 19.0079 10.0125 18.833 9.95922 18.5744L10.2712 18.8406H10.256C10.0125 18.871 9.74616 18.9091 9.47984 18.9319C9.34287 18.9395 9.21353 18.9547 9.06134 18.9547C8.98525 18.9547 8.90915 18.9547 8.81784 18.9395C8.76458 18.9319 8.72654 18.9319 8.64283 18.9014L8.58956 18.8862C8.55913 18.871 8.52109 18.8482 8.49065 18.8254C8.45261 18.795 8.445 18.795 8.38412 18.7189C8.33847 18.6504 8.30803 18.5667 8.30042 18.4907L8.31563 18.582C8.2015 18.2244 8.17867 17.8289 8.18628 17.5094C8.18628 17.4333 8.18628 17.3573 8.17867 17.3268C8.17867 17.3192 8.17867 17.3192 8.17867 17.3192V17.3268C8.19389 17.3649 8.14063 17.2127 8.14063 17.1671C8.14063 17.0834 8.14062 17.0454 8.14823 16.9921C8.16345 16.8096 8.18628 16.6498 8.2091 16.4749C8.22432 16.3912 8.23955 16.3075 8.26237 16.2086L8.2852 16.1326L8.30042 16.0793C8.31564 16.0565 8.29281 16.0641 8.37651 15.9348C8.43738 15.8435 8.56674 15.7903 8.61239 15.7903C8.66566 15.775 8.6961 15.775 8.72654 15.775C8.7798 15.775 8.81023 15.7827 8.84067 15.7827L8.97764 15.8055C8.99286 15.8055 9.02329 15.8131 8.99285 15.8131C8.97002 15.8131 9.02329 15.8131 9.0309 15.8131L9.2744 15.8207L10.256 15.8587L9.95162 16.0945V16.0793C10.0429 15.6533 10.1875 15.2045 10.3777 14.7862C10.5604 14.3678 10.7886 13.9722 11.0549 13.5995L11.093 14.0027L11.0778 13.9951C10.7506 13.8962 10.5984 13.6147 10.3701 13.4093L10.2027 13.242C10.1647 13.2039 10.1038 13.1431 10.0581 13.029C10.0049 12.9301 9.99727 12.7323 10.0429 12.6258C10.1266 12.4204 10.1799 12.39 10.2255 12.3216L10.3625 12.139C10.7201 11.675 11.1234 11.1045 11.7322 10.7698L11.6028 10.9447L11.6104 10.9143C11.6409 10.8382 11.6789 10.7469 11.8006 10.6633C11.9072 10.5948 12.0517 10.5872 12.1202 10.6024C12.2876 10.6328 12.3637 10.6861 12.4398 10.7393C12.592 10.8382 12.7061 10.9447 12.8203 11.0512C13.0486 11.2642 13.2464 11.4772 13.4442 11.6826L13.0409 11.6445C13.7486 11.1577 14.5476 10.7622 15.4455 10.6328L15.1791 10.9219V10.9143L15.2248 9.99387L15.24 9.76567C15.2476 9.67438 15.24 9.65156 15.2704 9.469C15.2857 9.38533 15.3541 9.23319 15.4759 9.15712C15.59 9.08105 15.6813 9.06584 15.7498 9.05823L15.9857 9.0278C16.5944 8.94413 17.2717 8.86046 17.9641 9.0202L17.9108 9.01259C17.9793 9.0202 18.0554 9.05063 18.1163 9.08866C18.1924 9.1343 18.1848 9.14952 18.2228 9.18755C18.2837 9.25601 18.2989 9.30165 18.3141 9.33208C18.3522 9.41575 18.3522 9.45379 18.3674 9.51464C18.3826 9.60592 18.3978 9.6896 18.4054 9.77327C18.4207 9.93301 18.4207 10.0775 18.4283 10.2221C18.4359 10.5111 18.4207 10.7926 18.3217 11.0664L18.063 10.7546H18.0706C18.9152 10.9067 19.7523 11.249 20.4599 11.751L20.0795 11.7663L20.0871 11.7586C20.3153 11.5152 20.5512 11.2794 20.7871 11.0512L20.8784 10.9675L20.9241 10.9219C20.9012 10.9447 20.9089 10.9371 20.9165 10.9219L21.0002 10.8154C21.0534 10.7698 21.0458 10.7317 21.2284 10.6328C21.3882 10.5568 21.5632 10.6024 21.6622 10.6557C21.7611 10.7165 21.7915 10.7622 21.822 10.7926C21.8676 10.8534 21.9057 10.8839 21.8372 10.823L22.0426 10.9904C22.5905 11.4392 23.0623 11.9792 23.4199 12.5954L23.3818 12.5498C23.5721 12.8236 23.4579 13.0214 23.4427 13.067C23.4047 13.1507 23.3742 13.1811 23.3438 13.2268C23.2905 13.3028 23.2297 13.3561 23.184 13.4093C23.0775 13.5158 22.9786 13.5995 22.872 13.6908C22.6666 13.8581 22.4535 14.0179 22.2481 14.1624L22.3013 13.7516C22.7655 14.4362 23.0546 15.2426 23.1688 16.0565L22.8796 15.7903C23.1536 15.7674 23.4351 15.7522 23.7243 15.7598C23.8688 15.7598 24.0134 15.7598 24.1732 15.7903C24.2493 15.8055 24.333 15.8207 24.4243 15.8511C24.4776 15.8663 24.5156 15.8815 24.5917 15.9196L24.645 15.95C24.6754 15.9652 24.7058 15.9956 24.7363 16.0185C24.7667 16.0565 24.7819 16.0489 24.8276 16.125C24.9037 16.1934 24.9265 16.2695 24.9341 16.3456Z" fill="#333333"/>
<path d="M20.1937 17.563C20.2621 17.8064 20.0034 18.0042 19.9882 18.2172L19.7904 18.8485C19.7219 19.0539 19.6762 19.2897 19.5697 19.4951C19.4708 19.6853 19.311 19.845 19.1208 19.9896C18.9305 20.1265 18.7403 20.271 18.5349 20.3851C18.3218 20.5144 18.1011 20.5525 17.9109 20.697C17.8272 20.8187 17.7055 20.7959 17.5989 20.8263C17.4924 20.8415 17.3783 20.8567 17.2717 20.8567C17.0511 20.8644 16.838 20.8567 16.6097 20.8339C15.7118 20.7426 14.89 20.3699 14.1672 19.7994C14.1291 19.7538 14.0606 19.7385 14.0987 19.6321C14.1215 19.5408 14.053 19.5256 14.0302 19.4723L13.8476 19.1832C13.7258 18.9931 13.6269 18.7877 13.5356 18.5747C13.3606 18.1563 13.2389 17.6847 13.3986 17.2511C13.4976 16.8175 13.5356 16.4068 13.6954 15.9732C13.8248 15.5396 14.0682 15.1212 14.4031 14.8093C14.852 14.6268 15.1792 14.3529 15.6053 14.178C16.0086 13.9878 16.4728 13.8204 16.9217 13.965C17.1424 13.9954 17.3554 14.0715 17.5761 14.1019C17.7815 14.1856 18.0022 14.216 18.2153 14.2921C18.4892 14.2464 18.6566 14.429 18.8468 14.5659C19.0371 14.6952 19.174 14.9006 19.3262 15.0604C19.6001 15.4407 19.7752 15.821 19.9502 16.2698C19.9578 16.3839 20.0871 16.4676 20.1328 16.5741C20.1556 16.6806 20.1784 16.7871 20.1937 16.8936C20.2013 17.1142 20.2013 17.3272 20.1937 17.563ZM19.3566 17.5326C19.3643 17.3652 19.3338 17.1751 19.311 16.9925C19.3034 16.9012 19.2958 16.8023 19.2882 16.711C19.3034 16.6198 19.3871 16.5057 19.349 16.422C19.2882 16.0949 19.0294 15.7754 18.7936 15.532C18.6414 15.4331 18.5272 15.3038 18.3674 15.2277L18.1468 15.0908C18.0555 15.0756 18.0098 14.9767 17.9489 14.893C17.6446 14.6876 17.2565 14.6268 16.8989 14.68C16.7162 14.7028 16.5412 14.7485 16.3662 14.7561C16.1912 14.7561 16.0086 14.7713 15.826 14.7941C15.651 14.8474 15.476 14.893 15.3238 14.9995C15.2477 15.0451 15.1716 15.0908 15.1031 15.1592C15.027 15.2125 15.0194 15.3418 14.9585 15.4027C14.715 15.6385 14.4715 15.8971 14.3194 16.2242C14.1519 16.5361 14.053 16.9392 14.0835 17.3044C14.1824 17.6771 14.1291 18.0194 14.19 18.3769C14.228 18.5519 14.2889 18.7192 14.3726 18.879C14.4183 18.955 14.4715 19.0311 14.5324 19.092C14.5705 19.1148 14.5705 19.1756 14.6618 19.1604C14.7607 19.1376 14.7607 19.1909 14.7911 19.2213C15.1792 19.8298 15.9325 20.195 16.6554 20.1645C16.8304 20.1569 17.0206 20.1189 17.2032 20.0809L17.4772 20.02C17.5685 20.0124 17.6446 19.9439 17.7587 20.0124C18.1544 20.0352 18.4207 19.7994 18.5957 19.4875C18.6794 19.3278 18.7631 19.168 18.8849 19.0159C18.999 18.879 19.1512 18.7573 19.2425 18.5975C19.3338 18.4378 19.4023 18.2628 19.4251 18.0803C19.4708 17.8977 19.2729 17.6999 19.3566 17.5326Z" fill="#333333"/>
<path d="M17.903 24.0668C17.8117 24.0668 17.7204 24.0287 17.6595 23.9527C17.5987 23.8842 17.5758 23.7929 17.5834 23.7016C17.5834 23.7016 17.5834 23.694 17.5834 23.6864V23.6788C17.5834 23.5039 17.7204 23.3669 17.8954 23.3669C18.0704 23.3669 18.2074 23.5039 18.2074 23.6788V23.7473C18.215 23.9222 18.0704 24.0668 17.903 24.0668Z" fill="#333333"/>
<path d="M16.7316 20.8107C15.7044 20.8107 14.7076 20.3239 14.0456 19.5023C13.3988 18.696 13.2314 17.5626 13.5814 16.3075C13.9467 14.9915 15.1185 14.0863 16.5566 14.0026C18.0404 13.9113 19.334 14.7177 19.8666 16.0336C20.0188 16.414 20.0949 17.1823 20.0797 17.5626C20.0569 18.2168 19.8362 18.8786 19.4557 19.4415C19.197 19.8218 18.8698 20.2478 18.3752 20.4836C17.8198 20.7423 17.1197 20.7955 16.8458 20.8107C16.8153 20.8107 16.7697 20.8107 16.7316 20.8107ZM16.7697 14.6188C16.7088 14.6188 16.6555 14.6188 16.5947 14.6264C15.4305 14.6948 14.4869 15.4175 14.1902 16.4748C13.8934 17.5322 14.0228 18.4678 14.5402 19.1068C15.1033 19.8142 15.9555 20.2174 16.8306 20.1793C17.3252 20.1565 17.8045 20.0576 18.1165 19.9131C18.4741 19.7458 18.7405 19.4035 18.9459 19.0916C19.2579 18.6276 19.4405 18.0723 19.4633 17.5398C19.4786 17.1975 19.3949 16.5357 19.2959 16.2694C18.8774 15.2577 17.9035 14.6188 16.7697 14.6188Z" fill="#333333"/>
<path d="M17.903 24.0668C17.8117 24.0668 17.7204 24.0287 17.6595 23.9527C17.5987 23.8842 17.5758 23.7929 17.5834 23.7016C17.5834 23.7016 17.5834 23.694 17.5834 23.6864V23.6788C17.5834 23.5039 17.7204 23.3669 17.8954 23.3669C18.0704 23.3669 18.2074 23.5039 18.2074 23.6788V23.7473C18.215 23.9222 18.0704 24.0668 17.903 24.0668Z" fill="#333333"/>
<path d="M8.47559 18.3157C8.84083 18.0267 9.2289 17.7833 9.63979 17.5779C9.32021 17.8974 9.04628 18.2473 8.81039 18.62L8.47559 18.3157Z" fill="#333333"/>
<path d="M8.86328 18.468L10.2253 17.4106L9.18287 18.7799L8.86328 18.468Z" fill="#333333"/>
<path d="M10.6292 12.6562H12.3564L10.69 13.0974L10.6292 12.6562Z" fill="#333333"/>
<path d="M24.8502 16.6805L23.4578 17.8519L24.523 16.3762L24.8502 16.6805Z" fill="#333333"/>
<path d="M9.64697 18.4606L10.659 17.8445L9.94373 18.7953L9.64697 18.4606Z" fill="#333333"/>
<path d="M12.0365 23.6483C12.0669 23.6331 12.1278 23.6027 12.2191 23.6255C12.3104 23.6559 12.3485 23.7168 12.3637 23.7548C12.3941 23.8233 12.3865 23.8613 12.3789 23.907C12.3713 23.945 12.3485 24.0058 12.2648 24.0591C12.2191 24.0819 12.1735 24.0895 12.1354 24.0895C12.1126 24.0895 12.0898 24.0819 12.0669 24.0743C11.8995 23.9754 11.93 23.8994 11.9148 23.8765L11.9071 23.7624L11.8919 23.5342L11.8539 23.0778L11.7854 22.1726L12.0745 23.0322L12.2191 23.4582L12.2876 23.6711L12.3256 23.7776C12.318 23.7852 12.3637 23.7548 12.2267 23.6711C12.2115 23.6635 12.1963 23.6635 12.1735 23.6559C12.1354 23.6559 12.0974 23.6635 12.0593 23.6788C11.9832 23.7244 11.968 23.7776 11.9604 23.8081C11.9528 23.8461 11.9452 23.8689 11.968 23.9298C11.9832 23.9602 12.0137 24.0211 12.105 24.0515C12.1963 24.0743 12.2496 24.0515 12.2724 24.0363L12.0365 23.6483Z" fill="#333333"/>
<path d="M12.303 23.0399L12.4247 21.8684L12.7443 22.9866L12.303 23.0399Z" fill="#333333"/>
<path d="M17.7513 25.1618C17.3404 24.8575 17.0132 24.4772 16.7773 24.0664C17.1274 24.3935 17.5383 24.6293 17.9568 24.7738L17.7513 25.1618Z" fill="#333333"/>
<path d="M17.5685 24.4395C17.2793 24.2113 17.0739 23.9147 16.9597 23.6028C17.2032 23.831 17.4848 23.9755 17.7739 24.044L17.5685 24.4395Z" fill="#333333"/>
<path d="M22.3621 21.6553C21.9969 21.5868 21.6012 21.5945 21.2131 21.6933C21.5403 21.4575 21.9284 21.2902 22.3621 21.2141V21.6553Z" fill="#333333"/>
<path d="M22.7354 22.1647C22.3017 22.2332 21.8756 22.256 21.4495 22.2408C21.8528 22.1115 22.2332 21.9441 22.5984 21.7463L22.7354 22.1647Z" fill="#333333"/>
<path d="M23.6024 16.5435L22.4534 17.4639L23.2752 16.2468L23.6024 16.5435Z" fill="#333333"/>
<path d="M24.2493 16.5206L23.3362 17.403L23.8916 16.262L24.2493 16.5206Z" fill="#333333"/>
<path d="M21.6474 11.6294L21.168 12.6563L21.2136 11.5305L21.6474 11.6294Z" fill="#333333"/>
<path d="M20.954 11.9033C20.9388 12.2837 20.8475 12.6412 20.6953 12.9531C20.7029 12.6031 20.6421 12.2761 20.5127 11.9794L20.954 11.9033Z" fill="#333333"/>
<path d="M16.161 9.43115C16.4425 9.87235 16.6708 10.3364 16.8534 10.808C16.5414 10.4048 16.199 10.0473 15.8262 9.72021L16.161 9.43115Z" fill="#333333"/>
<path d="M15.8256 9.99414L16.3049 10.8081L15.4832 10.2832L15.8256 9.99414Z" fill="#333333"/>
<path d="M10.4995 12.3751C10.918 12.4055 11.3365 12.3827 11.7702 12.3142C11.3898 12.5196 10.9865 12.6869 10.5528 12.8163L10.4995 12.3751Z" fill="#333333"/>
<path d="M11.1462 13.1434C11.1766 13.151 11.1766 13.1434 11.2375 13.1814C11.2756 13.189 11.3516 13.326 11.3288 13.3944C11.2908 13.5313 11.2451 13.5237 11.2299 13.5466C11.1766 13.5694 11.1538 13.5998 11.0321 13.577C10.9712 13.5694 10.8799 13.4781 10.8799 13.4248C10.8647 13.3564 10.8723 13.3564 10.8799 13.3183C10.8951 13.2575 10.9331 13.2042 10.9636 13.189C11.0853 13.113 11.1234 13.1358 11.1386 13.1358H11.2984H11.618L12.2571 13.1282L11.656 13.3488L11.3593 13.4629L11.2071 13.5161C11.1766 13.5237 11.1538 13.5465 11.2375 13.5085C11.2527 13.4933 11.2908 13.4629 11.2984 13.4096C11.2984 13.3792 11.306 13.3792 11.2984 13.3183C11.2984 13.2727 11.2147 13.1814 11.1614 13.1738C11.0473 13.151 11.0397 13.1814 11.0016 13.1966C10.9864 13.2195 10.9484 13.2042 10.9103 13.3412C10.8875 13.4096 10.9636 13.5389 10.994 13.5466C11.0473 13.5846 11.0473 13.577 11.0701 13.5846L11.1462 13.1434Z" fill="#333333"/>
</svg>
