<svg width="14" height="17" viewBox="0 0 14 17" fill="none" xmlns="http://www.w3.org/2000/svg">
<path d="M13.202 15.68C13.202 15.4133 13.0953 15.1333 12.882 14.84C12.6686 14.5467 12.2953 14.1867 11.762 13.76C11.202 13.3333 10.7486 13 10.402 12.76C10.0286 12.4933 9.44196 12.0933 8.64196 11.56C5.60196 9.50667 4.08196 8.32 4.08196 8C4.08196 7.92 4.22863 7.8 4.52196 7.64C4.78863 7.45333 5.12196 7.25333 5.52196 7.04C5.89529 6.82667 6.13529 6.68 6.24196 6.6C10.0553 4.17333 11.962 2.61333 11.962 1.92C11.962 1.54667 11.8286 1.22667 11.562 0.959999C11.2953 0.666666 10.9886 0.52 10.642 0.52C10.082 0.52 8.25529 1.65333 5.16196 3.92C2.06863 6.16 0.521961 7.54667 0.521961 8.08C0.521961 8.4 0.681961 8.77333 1.00196 9.2C1.32196 9.62667 1.80196 10.1067 2.44196 10.64C3.08196 11.1733 3.62863 11.6 4.08196 11.92C4.53529 12.24 5.14863 12.68 5.92196 13.24C6.56196 13.6667 7.12196 14.0667 7.60196 14.44C8.24196 14.9467 8.90863 15.4 9.60196 15.8C10.2686 16.1733 10.802 16.44 11.202 16.6C11.5753 16.76 11.8153 16.84 11.922 16.84C12.242 16.84 12.5353 16.7467 12.802 16.56C13.0686 16.3467 13.202 16.0533 13.202 15.68Z" fill="#333333"/>
</svg>
