<svg width="34" height="36" viewBox="0 0 34 36" fill="none" xmlns="http://www.w3.org/2000/svg">
<path d="M2.96653 28.0679C3.49917 30.1673 5.15037 32.1375 6.93853 33.2633C7.27334 33.4687 7.60814 33.7045 7.95817 33.9251C7.88968 34.0164 7.92773 34.1837 8.06469 34.1761C8.14079 34.1685 8.20927 34.1533 8.27775 34.1305C8.9017 34.526 9.54088 34.9064 10.1877 35.1574C11.5269 35.6747 13.1248 35.766 14.5477 35.8877C16.8914 36.0854 19.3948 36.0474 21.7765 35.5682C21.7841 35.5682 21.7917 35.5682 21.7917 35.5606C24.8354 34.952 27.6812 33.636 29.7433 31.1867C33.4414 26.7975 33.837 20.0275 33.35 14.5125C33.2511 13.3791 33.0685 12.086 32.7641 10.7852C32.7641 10.77 32.7565 10.7548 32.7489 10.7395C31.9043 7.14913 30.139 3.51308 26.517 3.04145C25.1017 1.88522 23.4429 1.03326 21.7004 0.470352C19.1741 -0.33597 16.5337 0.0367639 13.9846 0.531207C11.4203 1.04086 8.87127 1.78633 6.77874 3.45222C2.38823 6.93614 0.737038 12.3522 0.501153 17.8367C0.364187 21.2217 0.957703 25.2001 2.96653 28.0679ZM29.5911 5.5441C29.1878 5.3235 28.7693 5.11811 28.4041 4.80623C28.2823 4.70735 28.1377 4.56282 27.978 4.4335C27.9323 4.38025 27.8943 4.3194 27.8486 4.27376C27.6964 4.10641 27.529 3.94666 27.3616 3.78692C28.2367 4.22051 28.9672 4.82145 29.5911 5.5441ZM31.2271 8.27494C30.8162 7.93263 30.2759 7.75768 29.8346 7.4534C29.7661 7.40776 29.7052 7.36212 29.6368 7.30127C29.3248 6.53298 28.9595 5.78751 28.503 5.12572C28.9519 5.50606 29.515 5.70384 29.9868 6.04614C30.489 6.71554 30.8923 7.46862 31.2271 8.27494ZM31.8586 10.1082C31.5847 9.86476 31.3336 9.60613 31.0597 9.36271C30.7401 9.08887 30.4129 8.82263 30.0933 8.55639C29.9868 8.23691 29.8803 7.93263 29.7661 7.62075C29.7737 7.62836 29.7889 7.63597 29.7889 7.64357C30.1542 7.90981 30.6183 8.09998 30.9684 8.38904C30.9684 8.41947 30.9912 8.46511 31.0292 8.48032C31.0901 8.51836 31.1586 8.564 31.2119 8.60203C31.2651 8.63246 31.3184 8.62485 31.3488 8.58682C31.5467 9.07366 31.7141 9.58331 31.8586 10.1082ZM32.1706 11.3633C31.8967 11.1655 31.6456 10.9449 31.3793 10.7395C31.0825 10.5113 30.7934 10.2907 30.527 10.0321C30.4205 9.65177 30.314 9.27904 30.1922 8.89109C30.4738 9.14211 30.7705 9.38553 31.0369 9.65177C31.3488 9.96365 31.638 10.2907 31.9804 10.5722C32.0489 10.8308 32.1174 11.0971 32.1706 11.3633ZM32.4522 12.9607C32.3989 12.9227 32.3532 12.8695 32.3 12.839C31.813 12.4359 31.3717 11.9795 30.9303 11.5383C30.8466 11.1655 30.7553 10.7928 30.6564 10.4353C30.8542 10.6254 31.0597 10.7928 31.2727 10.9678C31.5771 11.2264 31.8663 11.5002 32.1782 11.7284C32.125 11.8121 32.1554 11.949 32.2848 11.9566C32.3532 12.2837 32.4065 12.6184 32.4522 12.9607ZM32.6652 15.1667C32.4826 14.8777 32.2924 14.5962 32.0793 14.33C31.851 14.0485 31.5315 13.7747 31.2803 13.4704C31.1966 12.9075 31.0977 12.3446 30.976 11.7969C31.2803 12.124 31.5847 12.4587 31.9119 12.7706C32.0793 12.9227 32.3076 13.0977 32.4902 13.2954C32.5739 13.9268 32.6272 14.5582 32.6652 15.1667ZM32.7261 17.1141C32.5891 16.8858 32.4065 16.6729 32.2467 16.437C32.0032 16.0719 31.7825 15.6916 31.501 15.3645C31.4554 14.8244 31.3945 14.2843 31.3184 13.7518C31.3793 13.8279 31.4478 13.904 31.5086 13.9724C31.9956 14.5353 32.3685 15.1287 32.688 15.7905C32.6957 16.0035 32.7033 16.2317 32.7109 16.437C32.7261 16.6576 32.7261 16.8935 32.7261 17.1141ZM32.7109 19.1299C32.6272 19.0082 32.5359 18.8864 32.4598 18.7723C32.2924 18.5289 31.8663 18.0345 31.6228 17.5629C31.6152 16.9239 31.5923 16.2773 31.5391 15.6383C31.7065 15.8665 31.851 16.1176 31.9956 16.3762C32.2543 16.8174 32.6196 17.2205 32.7337 17.7226C32.7337 18.1942 32.7185 18.6582 32.7109 19.1299ZM32.5663 21.488C32.5283 21.3891 32.4826 21.2902 32.4446 21.2141C32.2011 20.6893 31.8891 20.1872 31.5543 19.7156C31.5923 19.0994 31.6228 18.4909 31.6228 17.8747C31.6456 17.9052 31.6608 17.9508 31.6836 17.9736C31.9347 18.43 32.4217 18.9701 32.6957 19.5178C32.6728 20.1796 32.6272 20.8338 32.5663 21.488ZM32.2543 23.8004C32.1782 23.6331 32.1021 23.4733 32.026 23.2984C31.7749 22.7811 31.5619 22.241 31.364 21.701C31.4401 21.1381 31.5086 20.5599 31.5543 19.9818C31.7141 20.2252 31.8663 20.4687 32.0032 20.7197C32.163 21.0087 32.4978 21.5488 32.5359 21.9976C32.5206 22.0965 32.513 22.1954 32.5054 22.2943C32.4826 22.3475 32.4674 22.3932 32.4293 22.4464C32.3761 22.5149 32.4065 22.5986 32.4598 22.629C32.3837 23.0093 32.3228 23.4049 32.2543 23.8004ZM31.7065 25.9912C31.6608 25.7706 31.5695 25.5424 31.5086 25.3751C31.326 24.9186 31.1206 24.4774 30.8999 24.0439C31.0597 23.4125 31.189 22.7659 31.2956 22.1117C31.4097 22.4236 31.5238 22.7355 31.638 23.0322C31.7978 23.4429 32.0413 23.8385 32.1097 24.2797C32.0717 24.2569 32.0337 24.2416 31.9956 24.2188C31.8663 24.0743 31.676 24.2797 31.7978 24.4242C31.8891 24.5459 31.9804 24.6068 32.0793 24.6372C31.9652 25.1012 31.8434 25.5424 31.7065 25.9912ZM30.9988 27.8625C30.9075 27.5962 30.8466 27.3148 30.7629 27.0485C30.626 26.5921 30.489 26.1357 30.4205 25.6565C30.5955 25.1545 30.7477 24.6296 30.8771 24.1047C31.2575 24.8274 31.9195 26.1586 31.4401 26.4552C31.3488 26.5085 31.4097 26.6454 31.4858 26.653C31.3412 27.0714 31.1738 27.4669 30.9988 27.8625ZM30.1466 28.9883C29.964 28.4482 29.8118 27.8549 29.7889 27.2768C29.964 26.8888 30.1238 26.4856 30.2759 26.0749C30.3444 26.4248 30.4281 26.7671 30.527 27.117C30.626 27.4745 30.6792 27.8549 30.839 28.1896C30.6564 28.5623 30.4586 28.9274 30.2455 29.2773C30.2227 29.1785 30.1846 29.0796 30.1466 28.9883ZM29.1954 29.8479C29.1498 29.4903 29.0204 29.1556 28.99 28.7981C29.1802 28.5167 29.3552 28.2124 29.5226 27.8777C29.5683 27.7864 29.6063 27.6875 29.652 27.5962C29.6824 27.8929 29.7357 28.182 29.7966 28.4786C29.8422 28.7144 30.0553 29.2089 30.0781 29.5664C29.8194 29.9696 29.5378 30.3575 29.2259 30.7226C29.2259 30.4336 29.2259 30.1369 29.1954 29.8479ZM28.0388 30.6085C28.0769 30.3271 28.1377 30.0532 28.1682 29.7794C28.4117 29.5284 28.6476 29.2697 28.8606 28.9655C28.8987 29.2317 28.9748 29.4903 29.0128 29.7718C29.0661 30.1749 29.0356 30.5781 29.0052 30.9889C28.7008 31.3388 28.366 31.6583 28.0236 31.9549C28.0084 31.5061 27.978 31.0573 28.0388 30.6085ZM26.692 32.9438C26.73 32.6928 26.7757 32.4418 26.8061 32.1984C26.867 31.6355 26.9203 31.1334 27.179 30.6237V30.6161C27.4681 30.4108 27.7421 30.1978 28.0008 29.9544C27.9551 30.2282 27.879 30.5096 27.841 30.7987C27.7725 31.2475 27.7801 31.7039 27.7953 32.1527C27.4453 32.4342 27.0725 32.7004 26.692 32.9438ZM25.1169 33.7882C25.2843 33.4991 25.3452 33.1872 25.3984 32.8525C25.4593 32.3581 25.5278 31.8941 25.6648 31.4301C26.1365 31.2247 26.5779 31.0041 26.9964 30.7379C26.8137 31.1334 26.7224 31.5442 26.6616 31.9854C26.6083 32.3581 26.5094 32.7308 26.4561 33.096C26.0224 33.3546 25.5734 33.5828 25.1169 33.7882ZM23.7472 34.3207C23.869 34.0468 23.9146 33.6893 23.9451 33.4839C24.0364 32.9819 24.0897 32.4646 24.1505 31.9549C24.5995 31.8256 25.0408 31.6887 25.4593 31.5137C25.3832 31.7724 25.3147 32.0234 25.2691 32.2973C25.1778 32.8069 25.1473 33.3242 24.8277 33.7501C24.7821 33.811 24.8049 33.8643 24.843 33.9023C24.4777 34.0544 24.1201 34.1913 23.7472 34.3207ZM20.3155 35.0661C20.3764 34.952 20.422 34.8151 20.4525 34.6858C20.6123 34.024 20.6731 33.3394 21.2286 32.8754C21.2666 32.8449 21.2514 32.7841 21.2286 32.7613C21.9743 32.5863 22.72 32.3885 23.4505 32.1527C23.6027 32.1147 23.7549 32.069 23.8994 32.031C23.9451 32.0158 23.9831 32.0006 24.0288 31.993C23.9679 32.3505 23.907 32.7156 23.8386 33.0731C23.7777 33.3622 23.7092 33.6513 23.6103 33.9327C23.5798 34.024 23.5342 34.2598 23.4429 34.3054C23.3363 34.3739 23.3592 34.3054 23.2298 34.1457C23.1461 34.0468 22.9939 34.1761 23.0472 34.2902C23.0852 34.3587 23.1233 34.4272 23.1689 34.4956C22.8798 34.5869 22.583 34.6554 22.2939 34.7238C22.4765 34.0392 22.4156 33.1796 22.4461 32.6167C22.4537 32.495 22.2635 32.495 22.2558 32.6167C22.2102 33.2937 22.2635 34.1229 22.0123 34.7847C21.4569 34.8988 20.8862 34.9901 20.3155 35.0661ZM18.4132 35.2335C18.5273 34.9672 18.5958 34.6706 18.6947 34.4196C18.8621 33.986 19.0828 33.598 19.2046 33.1568C19.6307 33.0884 20.0568 33.0123 20.4753 32.921C20.6731 32.883 20.8634 32.8297 21.0688 32.7841C20.734 33.0731 20.5438 33.4535 20.3992 33.8795C20.2851 34.2142 20.2318 35.0889 19.7676 35.0889C19.7144 35.0889 19.6839 35.1118 19.6535 35.1422C19.2502 35.1878 18.8317 35.2183 18.4132 35.2335ZM16.6022 35.2563C16.8685 34.9901 17.0588 34.6934 17.2186 34.3435C17.3631 34.024 17.4316 33.4991 17.7664 33.3318C18.1849 33.2937 18.5958 33.2405 19.0143 33.1796C18.885 33.598 18.6339 33.9784 18.4665 34.3815C18.3371 34.6782 18.2382 34.9748 18.086 35.2487C17.5838 35.2715 17.0892 35.2715 16.6022 35.2563ZM15.1945 35.2031C15.3391 34.5641 15.8946 34.0772 16.0467 33.4307C16.5033 33.4231 16.9598 33.4002 17.4164 33.3698C17.3327 33.4763 17.2718 33.6056 17.2109 33.7425C16.9979 34.2522 16.7696 34.7619 16.3207 35.1042C16.2598 35.1498 16.2446 35.2031 16.2522 35.2563C16.1761 35.2563 16.1 35.2563 16.0239 35.2487C15.75 35.2259 15.4684 35.2183 15.1945 35.2031ZM13.3987 35.0509C13.8553 34.6554 14.251 34.0088 14.426 33.385C14.913 33.4155 15.3923 33.4307 15.8793 33.4231C15.6891 34.0696 15.0804 34.526 14.9206 35.1802C14.4108 35.1574 13.9086 35.1118 13.3987 35.0509ZM11.8541 34.7999C12.1128 34.5337 12.3258 34.2142 12.5009 33.8947C12.6226 33.6893 12.7367 33.4459 12.8204 33.2101C13.2922 33.2785 13.764 33.3318 14.2358 33.3622C14.0227 33.9707 13.5737 34.4804 13.14 34.9292C13.1172 34.9596 13.1096 34.9825 13.102 35.0129C12.6835 34.9672 12.265 34.8912 11.8541 34.7999ZM10.3018 34.3283C10.3551 34.1837 10.3855 34.0392 10.4388 33.8871C10.5681 33.4991 10.7431 33.1568 10.979 32.8449C11.5421 32.9819 12.1128 33.1036 12.6835 33.1796C12.4856 33.773 11.9758 34.3587 11.5497 34.7162C11.5497 34.7162 11.5497 34.7162 11.5421 34.7238C11.4736 34.7086 11.4127 34.6934 11.3519 34.6858C10.979 34.6021 10.6366 34.4728 10.3018 34.3283ZM8.92453 33.5752C9.16042 33.2177 9.33543 32.7689 9.47239 32.419C9.90612 32.5635 10.3322 32.6852 10.7736 32.8069C10.6518 32.9666 10.5453 33.134 10.4464 33.3166C10.317 33.5524 10.2181 33.9403 10.0583 34.2066C9.65502 34.024 9.28977 33.8034 8.92453 33.5752ZM7.44074 32.6472C7.51683 32.3277 7.60053 32.0158 7.66901 31.6963C8.20166 31.9397 8.74191 32.1603 9.28977 32.3581C9.18325 32.6091 9.06911 32.8525 8.93214 33.0884C8.87127 33.1949 8.79517 33.3242 8.70386 33.4459C8.49081 33.3166 8.27775 33.1796 8.05708 33.0503C7.85163 32.921 7.64619 32.7841 7.44074 32.6472ZM6.18522 31.6659C6.27653 31.4681 6.37545 31.2855 6.45915 31.0954C6.80157 31.2855 7.15159 31.4605 7.50162 31.6279C7.43313 31.9321 7.34182 32.2212 7.25051 32.5178C6.88527 32.2516 6.52764 31.9702 6.18522 31.6659ZM4.54924 29.8022C4.83078 30.0456 5.12754 30.2738 5.44713 30.4868C5.72106 30.6618 5.99499 30.8215 6.27653 30.9889C6.20044 31.1638 6.09391 31.3312 5.99499 31.4909C5.44713 30.9889 4.95253 30.4184 4.54924 29.8022ZM2.21322 13.8051C3.06545 9.07366 5.96455 4.54 10.5225 2.80564C14.9738 1.10932 20.0263 0.576847 24.2875 3.00342C24.7288 3.25444 25.1245 3.5359 25.4974 3.83256C25.5582 3.88581 25.6115 3.93145 25.6724 3.99231C27.3768 5.67341 28.5106 7.96306 29.1954 10.2527C29.8042 12.2761 30.2531 14.5049 30.4433 16.7641C30.5727 20.134 30.2683 23.7016 28.9443 26.7595C27.9171 28.8057 25.9387 30.2282 23.6712 31.141C23.3516 31.2323 23.0244 31.3312 22.6896 31.4225C20.2851 32.0919 16.9522 32.5559 14.5021 31.8637C14.2053 31.78 14.0379 32.0462 14.076 32.282C10.1496 31.8332 5.81237 30.4336 3.6818 26.9725C1.37621 23.2071 1.46752 17.9964 2.21322 13.8051Z" fill="#333333"/>
<path d="M16.4647 25.6793C16.3049 25.6793 16.1527 25.6565 16.0082 25.6108C15.5973 25.4815 15.2625 25.1848 15.0798 24.7893C14.92 24.4318 14.9124 24.0362 15.0646 23.7015C15.1179 23.5874 15.2168 23.4809 15.3309 23.4124C15.3842 23.3516 15.4527 23.2907 15.5212 23.2375C15.8788 22.9484 16.343 22.8191 16.7691 22.88C17.1952 22.9408 17.5909 23.2071 17.8268 23.5722C18.0398 23.9069 18.1007 24.2872 18.0018 24.6371C17.9028 24.9794 17.6441 25.2761 17.2865 25.4663C17.0278 25.6108 16.7386 25.6793 16.4647 25.6793ZM15.4907 24.2112C15.4907 24.3253 15.5136 24.447 15.5668 24.5687C15.681 24.8197 15.9016 25.0175 16.1603 25.1012C16.4267 25.1848 16.7539 25.1468 17.0278 25.0023C17.2561 24.8806 17.4235 24.6904 17.4843 24.4926C17.5376 24.2948 17.4996 24.0742 17.3702 23.8765C17.218 23.633 16.9593 23.4657 16.6854 23.4277C16.4571 23.3896 16.2136 23.4429 16.0005 23.5722C16.0005 23.5722 16.0005 23.5722 16.0005 23.5798L15.9625 23.595C15.9245 23.6178 15.894 23.6406 15.856 23.6711C15.6657 23.8232 15.544 24.0286 15.5364 24.2264L15.4907 24.2112Z" fill="#333333"/>
<path d="M16.1608 21.2826C15.8488 21.2826 15.5748 21.1608 15.3846 20.9402C15.0346 20.5295 14.9737 19.8068 15.2096 18.7799C15.3161 18.3311 15.7651 16.7489 17.1804 15.3949C17.7967 14.8016 18.4892 13.98 18.5653 13.4475C18.6185 13.0596 18.5044 12.7021 18.2381 12.4358C17.9109 12.1011 17.3934 11.949 16.8608 12.0175C16.0694 12.124 15.7803 12.7781 15.5977 13.4095C15.5596 13.5464 15.5292 13.7062 15.4988 13.8735C15.3922 14.4745 15.2324 15.296 14.4563 15.2656C13.4671 15.2199 12.6377 14.4821 12.3485 13.3715C12.067 12.3065 12.3029 10.7091 13.8932 9.72781C14.6161 9.27901 15.5368 9.03559 16.6477 8.99756C17.4924 8.96713 18.2 9.06602 18.8011 9.29422C20.9165 10.0929 22.1188 12.1163 21.6698 14.1017C21.3959 15.3188 20.6806 15.9882 19.9273 16.7033C19.4631 17.1444 18.9838 17.6009 18.5729 18.217C18.1924 18.7951 17.9565 19.3124 17.7435 19.7688C17.3782 20.5675 17.0815 21.2065 16.2597 21.2673C16.2292 21.2826 16.1912 21.2826 16.1608 21.2826ZM17.1043 11.4698C17.6902 11.4698 18.2381 11.6828 18.6185 12.0631C19.0066 12.451 19.174 12.9759 19.0979 13.5312C18.9838 14.3528 17.9794 15.3873 17.5532 15.7904C16.2445 17.038 15.826 18.4909 15.7346 18.9016C15.4759 20.0122 15.6585 20.4306 15.7955 20.5903C15.8944 20.7044 16.0314 20.7577 16.214 20.7425C16.701 20.7044 16.876 20.3697 17.2489 19.5558C17.4543 19.107 17.713 18.5517 18.1163 17.9356C18.5577 17.2662 19.0599 16.7869 19.5468 16.3229C20.2697 15.6383 20.8937 15.045 21.1296 13.9876C21.5176 12.2685 20.4523 10.5113 18.5957 9.80388C18.0631 9.59849 17.4239 9.51482 16.6554 9.54525C15.6433 9.57567 14.8063 9.79627 14.1671 10.1918C12.8355 11.021 12.6301 12.3522 12.866 13.2422C13.0942 14.1093 13.7258 14.6951 14.4715 14.7331C14.7607 14.7483 14.8368 14.4669 14.9585 13.7822C14.9889 13.5997 15.0194 13.4171 15.065 13.265C15.2629 12.5728 15.6509 11.6371 16.7771 11.485C16.8988 11.4774 17.0054 11.4698 17.1043 11.4698Z" fill="#333333"/>
<path d="M16.0161 21.1378C15.9171 20.6509 15.9171 20.1793 15.9552 19.7229C16.0922 20.1565 16.2748 20.5825 16.5107 20.9248L16.0161 21.1378Z" fill="#333333"/>
<path d="M16.5636 20.7956C16.4723 20.2479 16.4799 19.7231 16.518 19.2058C16.6549 19.7079 16.8299 20.1947 17.0734 20.6207L16.5636 20.7956Z" fill="#333333"/>
<path d="M16.9594 20.2861C16.8605 19.6396 16.792 18.993 16.8225 18.354C16.9747 18.9778 17.2182 19.5635 17.4769 20.134L16.9594 20.2861Z" fill="#333333"/>
<path d="M17.3931 19.4494C17.3779 18.8941 17.241 18.2703 17.317 17.6846C17.4236 18.2703 17.7203 18.7647 17.9258 19.3505L17.3931 19.4494Z" fill="#333333"/>
<path d="M17.8498 18.5136C17.8194 17.9051 17.8726 17.3193 17.9792 16.7412C18.0552 17.3193 18.1846 17.8822 18.3824 18.4071L17.8498 18.5136Z" fill="#333333"/>
<path d="M18.5806 17.4032C18.5578 16.7642 18.6187 16.1481 18.748 15.5471C18.8013 16.1557 18.923 16.749 19.1133 17.3043L18.5806 17.4032Z" fill="#333333"/>
<path d="M19.1814 16.8328C19.1966 16.1786 19.2803 15.5549 19.4249 14.9387C19.4629 15.5625 19.5619 16.1862 19.714 16.7644L19.1814 16.8328Z" fill="#333333"/>
<path d="M19.7905 16.224L20.0949 14.6038L20.3232 16.2088L19.7905 16.224Z" fill="#333333"/>
<path d="M20.4829 15.357L20.7568 13.9497L21.0232 15.3646L20.4829 15.357Z" fill="#333333"/>
</svg>
