<svg width="151" height="56" viewBox="0 0 151 56" fill="none" xmlns="http://www.w3.org/2000/svg">
<path d="M230.94 19.844C229.805 15.6185 227.632 12.8532 225.152 9.61333C219.347 2.02928 208.511 3.90019 200.71 3.90019C190.574 3.90932 180.438 3.9367 170.302 3.84544C159.208 3.74504 115.918 3.02406 104.824 3.51688C99.1726 3.77242 85.3735 4.45691 79.7219 4.05534C74.9155 3.71767 38.6546 4.5573 33.2364 4.2835C31.0144 4.17399 16.861 3.79068 13.053 7.10357C8.89072 10.1518 5.2598 13.8571 3.52082 19.2691C-0.0537405 30.3668 2.69964 44.2755 11.4992 51.0564C15.8225 54.3966 21.0475 55.8386 26.1275 55.4553C26.2483 55.7382 26.4818 55.939 26.8199 55.8934C31.4813 55.1906 108.576 56.2949 113.197 55.8112C117.859 55.3184 122.609 55.7474 127.286 55.939C132.189 56.1489 137.197 55.7565 142.108 55.6835C147.292 55.6013 152.461 55.3002 157.646 55.364C167.717 55.4827 177.773 56.0303 187.844 55.574C197.53 55.1359 207.174 55.6287 216.739 53.5296C224.411 51.8413 229.515 43.1438 231.23 34.9665C232.293 29.8648 232.309 24.9092 230.94 19.844Z" fill="black" fill-opacity="0.25"/>
<path d="M276.701 17.106C275.566 12.8805 273.392 10.1152 270.913 6.87529C265.108 -0.708759 254.272 1.16216 246.471 1.16216C236.335 1.17128 178.827 1.19866 168.691 1.1074C157.597 1.00701 114.308 0.286021 103.214 0.778847C97.5623 1.03439 83.7632 1.71887 78.1115 1.31731C73.3052 0.979628 37.0443 1.81926 31.6261 1.54547C29.404 1.43595 15.2507 1.05264 11.4426 4.36553C7.28037 7.41375 3.64945 11.1191 1.91047 16.531C-1.66409 27.6288 1.08929 41.5374 9.88884 48.3183C14.2121 51.6586 19.4371 53.1006 24.5172 52.7173C24.6379 53.0002 24.8714 53.201 25.2096 53.1553C29.871 52.4526 106.966 53.5569 111.587 53.0732C116.248 52.5804 120.998 53.0093 125.676 53.201C130.579 53.4109 135.586 53.0184 140.497 52.9454C145.682 52.8633 150.851 52.5621 156.035 52.626C166.107 52.7447 223.534 53.2922 233.605 52.8359C243.29 52.3979 252.935 52.8907 262.5 50.7916C270.172 49.1032 275.276 40.4057 276.991 32.2285C278.054 27.1268 278.07 22.1712 276.701 17.106Z" fill="white"/>
<path d="M277.701 17.106C276.566 12.8805 274.392 10.1152 271.913 6.87529C266.108 -0.708759 255.272 1.16216 247.471 1.16216C237.335 1.17128 178.827 1.19866 168.691 1.1074C157.597 1.00701 114.308 0.286021 103.214 0.778847C97.5623 1.03439 83.7632 1.71887 78.1115 1.31731C73.3052 0.979628 37.0443 1.81926 31.6261 1.54547C29.404 1.43595 15.2507 1.05264 11.4426 4.36553C7.28037 7.41375 3.64945 11.1191 1.91047 16.531C-1.66409 27.6288 1.08929 41.5374 9.88884 48.3183C14.2121 51.6586 19.4371 53.1006 24.5172 52.7173C24.6379 53.0002 24.8714 53.201 25.2096 53.1553C29.871 52.4526 106.966 53.5569 111.587 53.0732C116.248 52.5804 120.998 53.0093 125.676 53.201C130.579 53.4109 135.586 53.0184 140.497 52.9454C145.682 52.8633 150.851 52.5621 156.035 52.626C166.107 52.7447 224.534 53.2922 234.605 52.8359C244.29 52.3979 253.935 52.8907 263.5 50.7916C271.172 49.1032 276.276 40.4057 277.991 32.2285C279.054 27.1268 279.07 22.1712 277.701 17.106ZM33.1477 3.06958C33.8642 2.89618 72.9751 2.99657 75.6882 3.06045C80.3496 3.16084 92.9975 3.55328 97.6911 3.32512C106.837 2.87792 148.202 2.98744 157.356 3.33424C166.832 3.69017 176.332 3.58066 185.807 3.58978C190.525 3.59891 243.614 3.59891 248.332 3.59891C253.034 3.59891 258.186 2.89618 262.799 4.08261C271.454 6.31858 276.872 15.9926 276.687 25.8035C276.518 34.9481 271.414 46.5204 262.912 48.3822C262.848 48.4005 262.783 48.4096 262.719 48.4187C264.216 47.4513 265.706 46.4839 267.195 45.4892C267.606 45.2154 267.227 44.4761 266.817 44.759C264.82 46.128 262.807 47.4787 260.779 48.7929C260.215 48.8933 259.651 48.9846 259.08 49.0667C261.407 47.5335 263.669 45.8451 266.052 44.4305C266.438 44.2023 266.092 43.5361 265.714 43.7734C262.936 45.4618 260.32 47.5243 257.582 49.2766C257.099 49.3405 256.624 49.3953 256.141 49.4409C258.444 47.8803 260.754 46.3379 263.129 44.9233C263.492 44.7043 263.17 44.0746 262.807 44.2936C260.118 45.9363 257.526 47.7342 254.934 49.5504C253.501 49.6782 252.06 49.7694 250.618 49.8424C253.106 48.1997 255.594 46.5752 258.21 45.2154C258.637 44.9963 258.267 44.2845 257.84 44.5035C254.869 46.0824 252.06 47.9989 249.242 49.8972C248.082 49.9428 246.923 49.9794 245.764 50.0067C248.501 48.3457 251.319 46.8764 254.153 45.4344C254.539 45.2427 254.201 44.6039 253.823 44.7955C250.651 46.3835 247.535 48.0902 244.524 50.0341C244.113 50.0432 243.711 50.0524 243.3 50.0615C244.774 49.2492 246.207 48.364 247.624 47.4422C247.954 47.2323 247.656 46.6482 247.326 46.8672C245.579 48.0263 243.815 49.1306 241.98 50.0889C241.354 50.1025 240.725 50.1162 240.096 50.131C239.463 50.1458 190.458 50.1618 189.825 50.1801C190.453 49.7421 191.073 49.2766 191.725 48.8659C193.182 47.9442 194.663 47.1045 196.145 46.2284C196.555 45.982 196.193 45.2701 195.774 45.5165C194.309 46.4018 192.82 47.2597 191.378 48.1906C190.38 48.8294 189.446 49.596 188.448 50.2258C187.997 50.244 187.546 50.2623 187.087 50.2805C186.918 50.2896 186.741 50.2896 186.572 50.2988C188.295 49.1032 190.034 47.935 191.837 46.9037C192.159 46.7212 191.878 46.1736 191.556 46.3562C189.511 47.5608 187.554 48.9298 185.614 50.3353C184.527 50.3809 183.44 50.4174 182.345 50.4357C184.93 48.8842 187.426 47.1319 190.034 45.6169C190.34 45.4344 190.066 44.9051 189.76 45.0876C187.015 46.7851 184.39 48.729 181.653 50.4448C180.566 50.463 179.471 50.4813 178.384 50.4813C180.888 48.9389 183.384 47.3874 185.791 45.6626C186.137 45.4161 185.815 44.7955 185.469 45.042C182.772 46.995 179.962 48.729 177.161 50.4813C176.356 50.4813 175.551 50.4813 174.745 50.4722C176.79 49.0485 178.827 47.6247 180.84 46.1554C181.251 45.8542 181 45.334 180.284 45.982C178 47.5872 176 48.7222 173.852 50.4539C173.836 50.4539 173.836 50.4631 173.828 50.4722C172.652 50.4631 171.469 50.4448 170.293 50.4174C172.693 48.9116 175.124 47.4878 177.491 45.9272C177.853 45.6899 177.531 45.0876 177.169 45.2975C174.407 46.8946 171.702 48.6195 169.029 50.39C168.401 50.3809 167.773 50.3627 167.137 50.3535C169.223 48.9298 171.34 47.5609 173.449 46.1645C173.787 45.9363 173.482 45.334 173.143 45.5713C170.801 47.1593 168.442 48.7016 166.131 50.3353C163.619 50.2714 161.099 50.2075 158.587 50.1619C157.79 50.1436 156.985 50.1436 156.188 50.1436C158.161 48.802 160.069 47.3236 162.001 45.9181C162.323 45.6808 162.025 45.0967 161.695 45.334C159.505 46.9037 157.42 48.6286 155.206 50.1436C154.168 50.1436 153.129 50.1619 152.09 50.1801C154.345 48.5921 156.543 46.9037 158.845 45.3979C159.159 45.188 158.877 44.6404 158.555 44.8412C155.979 46.4383 153.612 48.4005 151.14 50.1893C150.07 50.2075 148.991 50.2349 147.92 50.2623C150.118 48.6743 152.348 47.1593 154.586 45.6626C154.916 45.4435 154.618 44.8503 154.28 45.0785C151.793 46.7668 149.329 48.4917 146.906 50.2896C145.054 50.3444 143.194 50.39 141.335 50.4265C141.335 50.4174 141.335 50.4265 141.335 50.4174C143.46 48.4279 145.948 46.7395 148.274 45.0876C148.54 44.9051 148.299 44.4305 148.033 44.613C145.545 46.3105 142.953 48.2636 140.755 50.4174C140.232 50.4265 139.708 50.4357 139.185 50.4357C140.795 49.0758 142.43 47.7616 144.048 46.4109C144.362 46.1463 144.056 45.5439 143.742 45.8177C141.922 47.3601 140.079 48.8751 138.275 50.4357C137.575 50.4357 136.874 50.4357 136.182 50.4357C137.671 49.3131 139.121 48.1267 140.513 46.849C140.803 46.5843 140.393 45.982 140.103 46.2558C138.613 47.6521 137.052 48.3001 135.449 49.9793C135.224 50.0524 135.031 50.1162 134.797 50.1984C134.049 50.0889 133.308 50.3079 132.559 50.3444C134.202 48.9572 135.876 47.6795 137.51 46.2832C137.792 46.0459 137.494 45.626 137.213 45.8725C135.466 47.424 133.67 48.9298 131.915 50.4904C130.104 50.5908 128.292 50.7551 126.481 50.7003C126.119 50.6912 125.756 50.6821 125.394 50.6638C127.141 49.2675 128.824 47.7616 130.546 46.3197C130.78 46.128 130.555 45.6808 130.321 45.8816C128.477 47.424 126.738 49.1215 124.895 50.6547C123.945 50.6182 122.987 50.5817 122.037 50.5361C123.454 49.3861 124.879 48.2636 126.32 47.1593C126.626 46.922 126.336 46.3562 126.03 46.5934C124.404 47.8711 122.794 49.1671 121.208 50.5087C120.402 50.4722 119.605 50.4448 118.8 50.4265C120.394 49.0576 121.988 47.6795 123.583 46.3105C123.808 46.1189 123.566 45.7629 123.349 45.9637C121.715 47.4513 120.08 48.9389 118.43 50.4174C117.504 50.3992 116.578 50.39 115.652 50.4083C117.247 48.8477 119.412 46.347 119.171 46.5296C117.271 47.9624 116.78 48.7017 115.081 50.4265C114.147 50.4539 113.205 50.4996 112.271 50.5908C114.638 48.5921 116.924 46.5296 115.95 47.4422C114.437 48.8659 113.342 49.3314 111.74 50.6365C111.691 50.6456 111.643 50.6456 111.587 50.6456C110.959 50.7186 110.331 50.7368 109.703 50.7368C111.893 48.4187 110.902 49.8151 112.988 47.3783C113.213 47.1137 113.133 46.9859 112.601 47.4148C109.671 49.7786 111.152 49.1032 109.872 50.2896C109.357 50.7642 109.051 50.5178 109.075 50.7186C108.56 50.7003 108.052 50.673 107.537 50.6456C110.146 47.8985 107.143 50.7368 109.961 48.2545C110.21 48.0354 109.365 47.3966 106.909 50.4813C106.877 50.5178 106.861 50.5543 106.853 50.5999C106.185 50.5634 105.525 50.5269 104.856 50.5178C94.2131 51.0836 18.3342 49.9794 14.8079 48.2545C5.72656 43.8099 1.58039 32.9586 2.68335 22.4815C3.35157 16.1203 5.95199 11.256 10.4604 7.432C10.4685 7.42288 10.4765 7.42288 10.4765 7.41375C10.541 7.37724 10.6054 7.34074 10.6698 7.27685C10.8308 7.12171 10.9999 6.97568 11.1689 6.83879C11.2333 6.78403 11.2977 6.7384 11.3621 6.68364C12.8435 5.55196 14.7354 4.88573 16.3536 4.13737C18.5113 3.16084 30.2091 3.76319 33.1477 3.06958Z" fill="#333333"/>
<path d="M134.588 45.6716C132.583 47.2322 130.57 48.7654 128.574 50.3352C128.445 50.4356 128.566 50.6911 128.703 50.5816C130.707 49.0301 132.76 47.5699 134.805 46.0823C135.031 45.918 134.805 45.4982 134.588 45.6716Z" fill="#333333"/>
<path d="M149.386 45.6445C147.518 47.1321 145.497 48.355 143.798 50.0891C143.67 50.226 143.863 50.4359 143.992 50.3081C145.714 48.6471 147.743 47.5154 149.627 46.1099C149.877 45.9183 149.635 45.4528 149.386 45.6445Z" fill="#333333"/>
</svg>
