<svg width="256" height="256" viewBox="0 0 256 256" fill="none" xmlns="http://www.w3.org/2000/svg">
<rect width="256" height="256" fill="url(#paint0_linear_484_1039)"/>
<g clip-path="url(#clip0_484_1039)">
<path d="M178.83 106.263C178.537 103.754 177.838 101.336 177.288 98.8789C176.282 94.3821 175.119 89.9263 173.977 85.4633C173.503 83.6128 172.976 81.7748 172.499 79.9243C172.395 79.5193 172.279 79.1249 172.144 78.7395C173.48 78.7252 174.803 78.4468 175.773 77.7651C177.126 76.8122 177.899 75.3365 177.844 73.693C177.795 72.2797 176.698 71.0056 175.651 70.1687C175.629 70.1508 175.604 70.1348 175.581 70.1169C175.812 69.9563 176.033 69.7743 176.241 69.5655C177.25 68.543 177.558 67.2207 177.444 65.8289C177.318 64.3156 176.442 62.8774 175.524 61.7139C174.778 60.7699 173.896 59.9116 172.876 59.2817C174.543 57.2706 175.194 54.2102 174.324 51.7655C173.374 49.0977 170.628 47.6256 167.87 47.6702C166.711 47.6898 165.581 47.9325 164.497 48.3215C164.676 47.8379 164.821 47.3418 164.918 46.8297C165.368 44.4421 164.418 42.1508 162.537 40.6394C160.751 39.2029 158.552 38.5944 156.293 39.0816C154.952 39.3724 153.751 40.0701 152.682 40.9267C152.924 38.5623 152.035 36.1104 149.835 34.8863C147.844 33.7781 145.379 33.903 143.333 34.7792C142.259 35.2414 141.286 35.9498 140.44 36.7475C139.982 37.1793 139.577 37.6629 139.203 38.1661C139.19 38.184 139.179 38.2 139.167 38.2179C139.068 37.3595 138.98 36.4745 138.64 35.6768C137.82 33.7621 135.592 33.1446 133.688 33.307C131.661 33.4801 129.714 34.3884 128.064 35.534C127.397 35.998 126.7 36.5833 126.108 37.2596C125.8 36.5672 125.433 35.9034 124.929 35.3128C123.735 33.9066 121.955 33.448 120.162 33.6996C117.704 34.0422 116.035 35.857 115.339 38.0573C114.642 37.0151 113.792 36.0854 112.729 35.377C111.003 34.2278 108.955 34.1743 107.064 34.9255C105.99 35.352 105.078 36.0801 104.188 36.7939C103.226 37.5665 102.451 38.5444 101.867 39.624C101.302 40.6733 100.972 41.8582 100.841 43.0377C100.816 43.2661 100.804 43.4945 100.797 43.7247C100.347 43.3054 99.8625 42.9306 99.3265 42.6326C97.6341 41.6922 95.7912 42.0402 94.2297 43.068C92.3348 44.3172 90.6657 46.2801 89.8375 48.3893C89.3947 49.5224 89.2405 50.7091 89.3463 51.9172C89.3803 52.3009 89.4413 52.6774 89.513 53.0503C89.0791 53.1895 88.6794 53.4679 88.3459 53.7605C87.6485 54.3744 87.091 55.1042 86.5747 55.868C85.6173 57.2866 84.9128 58.8659 84.28 60.4487C83.38 62.6989 83.4929 65.6701 84.8626 67.6918C85.9347 69.2765 87.722 70.1901 89.5901 70.7344C89.2817 71.1252 89.0451 71.5766 88.9142 72.1066C88.7833 72.6295 88.769 73.1826 88.8084 73.7198C88.8282 73.9981 88.8497 74.2747 88.8748 74.5531C88.5808 74.5906 88.3047 74.7458 88.1272 75.0528C85.6173 79.4122 84.0666 84.3766 82.7812 89.216C81.5514 93.8521 80.6963 98.6005 80.0813 103.354C79.7658 105.799 79.4503 108.258 79.3822 110.726C79.3194 112.992 79.4001 115.258 79.5543 117.519C79.8752 122.182 80.698 126.75 82.1573 131.194C82.9139 133.499 83.6256 135.914 84.8232 138.037C86.0942 140.295 87.5768 142.368 89.1078 144.456C89.4879 144.973 89.9683 145.412 90.3412 145.939C90.6442 146.365 90.94 146.797 91.2287 147.233C91.8023 148.093 92.3294 148.958 92.7812 149.886C93.708 151.795 94.3265 153.814 94.841 155.866C95.1064 156.929 95.3018 158.025 95.4344 159.113C95.5187 159.811 95.4398 160.559 95.4093 161.258C95.3753 162.051 95.4022 162.839 95.3842 163.632C95.3179 166.539 94.7568 169.429 94.1293 172.261C92.9676 177.515 91.987 182.806 91.0332 188.102C89.9182 194.294 88.8335 200.49 87.7184 206.682C87.5876 207.053 87.5033 207.438 87.5051 207.87C87.5105 208.552 87.7633 209.185 88.1971 209.644C88.3871 210.262 88.6758 210.856 89.0325 211.423C89.4682 214.339 90.4757 217.139 91.9529 219.701C93.1523 221.784 95.2874 223.261 97.4011 224.32C99.5829 225.412 101.897 226.115 104.289 226.582C113.62 228.404 123.186 227.954 132.593 227.075C138.971 226.479 145.458 225.57 151.551 223.541C154.441 222.578 157.367 221.389 159.644 219.316C160.511 218.525 161.253 217.589 161.831 216.57C162.195 215.929 162.501 215.253 162.749 214.559C163.071 213.968 163.315 213.35 163.476 212.706C163.606 212.223 163.631 211.723 163.681 211.227C163.749 210.536 163.367 209.858 163.046 209.273C162.944 209.087 162.797 208.927 162.623 208.793C162.663 208.668 162.695 208.547 162.718 208.424C162.908 208.15 163.025 207.808 163.026 207.392C163.028 206.473 163.028 205.552 163.03 204.633C163.032 203.923 162.55 203.318 161.922 203.047C161.806 202.023 161.694 200.997 161.589 199.971C161.366 197.826 161.167 195.675 160.99 193.525C160.61 188.928 160.305 184.328 160.108 179.719C159.988 176.912 159.938 174.105 159.791 171.3C159.678 169.119 159.48 166.947 159.409 164.765C159.364 163.46 159.272 162.16 159.235 160.857C159.213 160.161 159.122 159.476 159.14 158.776C159.161 157.929 159.244 157.113 159.174 156.269C159.077 155.107 159.511 153.871 159.857 152.779C160.205 151.685 160.714 150.648 161.209 149.613C161.646 148.701 162.152 147.816 162.657 146.94C163.38 145.689 164.326 144.6 165.21 143.464C166.786 141.437 168.887 139.854 170.789 138.142C172.61 136.504 174.045 134.595 175.221 132.464C176.305 130.501 176.924 128.178 177.505 126.022C178.69 121.629 179.168 117.161 179.201 112.621C179.215 110.499 179.075 108.369 178.83 106.263ZM87.4657 67.1155C86.4868 66.4927 85.75 65.8539 85.3072 64.801C84.8716 63.766 85.0634 62.5026 85.2785 61.4391C85.5223 60.2381 86.2914 59.0426 86.9153 58.0094C87.3599 57.2724 87.8439 56.5622 88.4051 55.9073C88.6328 55.6414 88.8784 55.3915 89.1562 55.1756C89.271 55.0864 89.6439 55.0061 89.6439 55.0043C89.6528 55.0043 89.66 55.0025 89.669 55.0025C89.7873 55.2167 89.9092 55.4433 89.9881 55.6628C90.4918 57.0743 92.5374 56.7959 92.584 55.2756C92.6109 54.3708 92.3706 53.5607 92.1914 52.6827C92.0121 51.8012 91.9906 50.884 92.1716 50.0025C92.5499 48.1573 94.1096 46.4014 95.6012 45.329C95.8432 45.1559 96.1372 44.9631 96.3989 44.8543C96.6607 44.7454 96.926 44.6848 97.0658 44.6741C97.5875 44.6312 97.8098 44.7365 98.31 45.0506C99.4502 45.7679 100.386 47.0902 101.293 48.1645C102.077 49.0906 103.878 48.4018 103.534 47.1223C103.358 46.4728 103.007 45.8786 102.896 45.213C102.826 44.7883 102.787 44.36 102.765 43.9317C102.718 43.0788 102.778 42.2097 102.942 41.3728C103.324 39.4563 104.497 37.7611 106.114 36.6743C107.67 35.6304 109.504 35.2378 111.239 36.0622C113.097 36.9473 114.267 39.0548 115.052 40.8482C115.363 41.5566 116.553 41.3532 116.569 40.5644C116.612 38.4873 117.326 35.7857 119.678 35.2396C121.064 34.9184 122.625 35.3502 123.358 36.6083C124.108 37.8913 124.308 39.4599 124.689 40.8749C125.036 42.1615 126.938 42.0652 127.25 40.8125C127.887 38.2607 131.309 36.3317 133.919 35.9926C135.074 35.8428 136.124 36.0908 136.453 37.265C136.868 38.7604 136.517 40.5109 137.684 41.7279C138.197 42.265 139.165 42.2293 139.556 41.5548C139.873 41.0052 139.859 40.3682 140.176 39.8007C140.429 39.3457 140.73 38.9227 141.058 38.5194C141.637 37.8057 142.335 37.1918 143.095 36.6743C144.714 35.5733 146.712 35.2432 148.584 35.8213C152.295 36.9687 151.433 41.1605 150.536 43.9603C150.391 44.4153 151.106 44.7883 151.39 44.3957C152.001 43.5516 152.406 42.5559 152.596 41.5209C153.627 40.7179 154.76 40.0648 156.04 39.7204C157.926 39.2136 159.669 39.9756 160.961 41.3585C162.435 42.9324 163.061 44.8668 162.295 46.9225C161.702 48.5124 160.714 49.8615 159.615 51.1445C158.597 52.333 160.194 53.9907 161.456 53.1146C163.118 51.96 164.988 50.9679 166.994 50.5913C167.913 50.4182 168.831 50.5039 169.708 50.818C170.475 51.091 171.078 51.6888 171.388 52.2116C171.544 52.4775 171.569 52.5525 171.684 52.9611C171.807 53.3929 171.798 53.4215 171.815 53.9265C171.84 54.7081 171.702 55.3112 171.393 56.1517C171.196 56.6924 170.737 57.3562 170.262 57.8363C170.079 58.0218 169.934 58.1325 169.66 58.3002C169.194 58.3127 168.727 58.3912 168.304 58.534C167.152 58.923 167.037 60.5736 168.025 61.1982C168.797 61.6871 169.737 61.5158 170.595 61.0965C170.671 61.1215 170.744 61.1447 170.812 61.1661C171.512 61.3838 172.153 61.9441 172.673 62.433C173.566 63.2717 174.33 64.2835 174.758 65.4363C174.9 65.8217 174.925 66.2339 174.914 66.5498C174.909 66.6408 174.902 66.7318 174.889 66.821C174.887 66.8442 174.885 66.8621 174.884 66.8799C174.877 66.896 174.864 66.9317 174.844 66.9995C174.817 67.1012 174.776 67.1976 174.737 67.2939C174.755 67.2279 174.617 67.4902 174.606 67.5045C174.05 68.3575 172.7 68.452 171.775 68.4324C170.258 68.4021 169.609 70.7415 171.214 71.1519C172.083 71.375 172.912 71.6337 173.672 72.1245C174.323 72.5438 174.961 73.138 175.081 73.7501C175.151 74.1141 175.081 74.2801 174.914 74.6495C174.665 75.2027 174.063 75.5185 173.491 75.6077C172.89 75.7005 172.277 75.6309 171.676 75.5756C171.275 75.5381 170.873 75.4703 170.472 75.4221C170.359 75.4079 170.249 75.4043 170.142 75.4061C170.133 75.3954 170.124 75.3847 170.113 75.3757C169.602 74.869 168.86 75.2027 168.58 75.7344C168.285 75.8593 168.078 76.0985 167.962 76.3822C167.668 76.4214 167.383 76.5535 167.125 76.7462C165.047 78.2951 162.218 78.3933 159.796 79.091C159.81 79.0767 159.739 79.0821 159.439 79.1374C159.145 79.1927 158.851 79.248 158.557 79.3033C157.976 79.414 157.397 79.5282 156.815 79.6299C155.658 79.828 154.507 80.0582 153.353 80.2598C148.946 81.0325 144.507 81.6178 140.051 82.0193C131.458 82.7938 122.792 82.7991 114.188 82.1567C109.357 81.7962 104.56 81.1324 99.7926 80.2794C98.0572 79.9689 96.3165 79.6317 94.6367 79.0839C93.8246 78.8198 93.0286 78.4861 92.2882 78.0596C91.5316 77.626 90.94 77.0995 90.3592 76.5107C90.6532 75.9057 90.906 75.3294 90.9024 74.6405C90.9006 74.1302 90.888 73.6002 90.9741 73.0952C91.0422 72.683 91.1677 72.4332 91.3846 72.153C91.7234 71.7158 92.5015 71.4464 93.0519 71.2608C94.2476 70.8593 94.0397 69.1283 92.8511 68.8946C91.0243 68.5341 89.0558 68.1255 87.4657 67.1155ZM85.1297 95.3475C85.6191 92.0373 86.2771 88.7556 87.0695 85.5044C87.5768 83.4183 88.2366 81.3858 88.9196 79.3569C91.4617 82.8134 97.021 83.8448 100.866 84.7924C105.465 85.9237 110.268 86.4466 114.977 86.8498C124.011 87.6261 133.079 87.6207 142.103 86.7196C146.711 86.2592 151.297 85.5775 155.848 84.7228C158.053 84.3088 160.198 83.7895 162.354 83.1774C165.165 82.3815 168.234 81.3269 169.378 78.4129C169.453 78.4325 169.531 78.4504 169.608 78.4682C169.979 79.5228 170.137 80.6702 170.314 81.7641C170.703 84.1428 171.226 86.4947 171.721 88.8538C171.791 89.1875 171.861 89.523 171.933 89.8584C172.071 90.5151 172.211 91.1718 172.351 91.8285C172.424 92.1765 172.498 92.5244 172.569 92.8742C172.643 93.2239 172.716 93.5755 172.788 93.927C172.974 94.8282 173.155 95.7293 173.328 96.6323C173.362 96.8089 173.396 96.9874 173.428 97.164C173.467 97.3675 173.505 97.5709 173.541 97.7743C173.579 97.9795 173.614 98.183 173.65 98.3864C173.722 98.7932 173.792 99.2019 173.858 99.6105C170.206 99.0074 166.495 99.8497 163.01 100.999C158.528 102.478 153.269 105.467 148.563 104.138C146.314 103.501 144.181 102.778 141.807 102.865C139.757 102.939 137.754 103.658 135.83 104.305C133.826 104.98 131.811 105.515 129.726 105.876C127.993 106.174 126.279 106.313 124.57 106.313C124.423 106.313 124.276 106.311 124.129 106.309C123.957 106.308 123.783 106.304 123.609 106.299C123.484 106.295 123.358 106.29 123.233 106.284C123.045 106.277 122.856 106.268 122.67 106.256C122.525 106.249 122.378 106.238 122.232 106.227C122.13 106.22 122.026 106.213 121.924 106.204C121.84 106.197 121.754 106.19 121.668 106.183C121.306 106.151 120.943 106.113 120.581 106.069C120.461 106.056 120.339 106.04 120.217 106.024C119.905 105.983 119.592 105.938 119.278 105.89C119.149 105.87 119.02 105.849 118.893 105.828C118.851 105.82 118.808 105.813 118.767 105.806C118.168 105.704 117.57 105.588 116.969 105.46C110.632 104.098 104.518 101.843 98.0285 101.218C95.5187 100.977 92.9909 100.929 90.4829 100.674C88.4373 100.465 86.3882 99.9567 84.6403 98.8539C84.7927 97.6833 84.9576 96.5145 85.1297 95.3475ZM158.948 213.184C158.747 213.859 158.511 214.368 158.234 214.821C158.066 215.099 157.862 215.358 157.659 215.611C157.636 215.642 157.519 215.772 157.465 215.833C157.381 215.918 157.297 216.002 157.213 216.084C156.962 216.327 156.694 216.552 156.424 216.771C156.309 216.864 156.191 216.953 156.072 217.041C156.078 217.035 156.08 217.032 156.081 217.03C156.056 217.037 155.678 217.296 155.63 217.326C154.009 218.352 152.161 219.013 150.352 219.63C148.437 220.283 146.476 220.793 144.5 221.227C136.368 223.013 127.81 223.583 119.391 223.884C116.139 224 112.871 223.909 109.628 223.638C106.843 223.404 104.054 223.142 101.32 222.551C100.155 222.3 99.0181 221.969 97.9084 221.532C96.4706 220.966 95.2623 220.151 94.0558 219.216C92.2792 217.842 91.4205 215.765 90.836 213.593C91.5478 214.28 92.3204 214.887 93.0644 215.394C94.5345 216.395 96.148 217.18 97.7991 217.837C100.84 219.05 104.101 219.692 107.299 220.344C115.528 222.021 124.17 222.499 132.53 221.702C138.082 221.172 143.45 219.883 148.668 217.944C150.938 217.1 153.139 216.065 155.291 214.956C156.381 214.393 157.456 213.802 158.523 213.197C158.656 213.122 158.803 213.045 158.955 212.965C158.957 213.076 158.955 213.161 158.948 213.184ZM171.974 128.39C171.309 130.321 170.517 132.179 169.348 133.869C168.776 134.697 168.163 135.487 167.508 136.253C166.687 137.207 165.757 138.043 164.932 138.988C164.238 139.781 163.744 140.667 163.145 141.524C162.503 142.441 161.949 143.432 161.454 144.433C160.431 146.506 159.342 148.514 158.541 150.689C158.156 151.735 157.788 152.784 157.487 153.856C157.322 154.445 157.157 155.041 156.922 155.607C156.472 156.687 156.236 157.722 156.006 158.855C155.683 160.45 155.422 161.995 155.31 163.619C155.223 164.918 155.275 166.237 155.282 167.538C155.293 170.006 155.357 172.468 155.332 174.936C155.307 177.402 155.33 179.867 155.393 182.331C155.499 186.51 155.714 190.69 156.045 194.854C156.209 196.883 156.393 198.912 156.594 200.938C156.811 203.12 156.945 205.356 157.363 207.512C157.471 207.451 157.58 207.39 157.688 207.331C157.7 207.667 157.734 208.004 157.747 208.333C157.749 208.409 157.756 208.482 157.767 208.552C157.286 208.809 156.836 209.111 156.386 209.36C155.438 209.887 154.48 210.395 153.516 210.89C151.65 211.848 149.744 212.726 147.793 213.493C143.724 215.096 139.934 215.977 135.78 216.618C135.305 216.691 134.828 216.759 134.351 216.819C134.167 216.844 133.984 216.868 133.799 216.889C133.638 216.909 133.477 216.928 133.315 216.944C133.095 216.971 132.874 216.994 132.654 217.017C132.396 217.044 132.137 217.071 131.877 217.094C131.87 217.096 131.863 217.096 131.858 217.096C131.671 217.114 131.487 217.13 131.3 217.144C131.124 217.16 130.949 217.175 130.773 217.189C130.764 217.189 130.755 217.191 130.746 217.191C130.545 217.207 130.345 217.221 130.144 217.235C130.11 217.237 130.076 217.241 130.042 217.242C129.866 217.253 129.689 217.266 129.513 217.276C128.503 217.34 127.492 217.378 126.481 217.401C125.364 217.426 124.438 217.423 123.545 217.405C119.368 217.316 115.203 216.898 111.074 216.282C107.356 215.729 103.59 215.012 100.015 213.834C98.5216 213.341 97.0605 212.808 95.6783 212.05C94.85 211.595 94.063 211.059 93.319 210.477C92.7991 210.072 92.3473 209.612 91.9027 209.148C92.0748 208.838 92.1949 208.488 92.2613 208.118C93.8945 198.839 95.3986 189.526 96.7252 180.199C97.1322 177.329 97.5194 174.46 97.9031 171.587C98.0465 170.523 98.1469 169.451 98.1791 168.378C98.2311 166.726 98.0787 165.1 97.9299 163.457C97.8062 162.11 97.4943 160.848 97.1089 159.554C96.7754 158.432 96.5244 157.284 96.2197 156.153C95.6675 154.11 94.9952 152.077 94.1813 150.122C93.4248 148.31 92.532 146.553 91.6571 144.797C91.3129 144.11 91.0727 143.374 90.7177 142.689C90.3986 142.074 90.0831 141.458 89.7604 140.844C89.1598 139.697 88.5933 138.501 88.086 137.307C86.0745 132.577 85.1835 127.375 84.3768 122.327C83.1971 114.95 83.57 107.534 84.4736 100.166C85.3054 101.133 86.5962 101.666 87.8475 102.039C89.5686 102.55 91.4008 102.728 93.1845 102.874C96.8113 103.171 100.395 103.599 103.932 104.48C108.014 105.497 112.001 106.863 116.105 107.801C116.399 107.869 116.693 107.933 116.987 107.992C117.114 108.019 117.243 108.044 117.371 108.071C117.559 108.106 117.747 108.144 117.935 108.178C118.253 108.237 118.568 108.292 118.885 108.34C119.043 108.365 119.203 108.39 119.36 108.413C119.642 108.454 119.923 108.494 120.207 108.527C120.398 108.552 120.592 108.574 120.786 108.595C120.943 108.613 121.103 108.629 121.261 108.643C121.393 108.658 121.526 108.668 121.661 108.679C121.704 108.685 121.747 108.688 121.791 108.69C121.931 108.702 122.071 108.713 122.211 108.722H122.213C122.356 108.733 122.5 108.742 122.643 108.749C122.69 108.752 122.736 108.754 122.785 108.758C122.898 108.763 123.011 108.768 123.125 108.774C123.156 108.776 123.186 108.776 123.217 108.777C123.358 108.783 123.5 108.788 123.643 108.792C123.803 108.797 123.961 108.801 124.12 108.802C124.282 108.804 124.445 108.806 124.606 108.806C124.965 108.806 125.325 108.801 125.685 108.788C126.257 108.77 126.831 108.736 127.406 108.686C127.942 108.642 128.48 108.583 129.02 108.51C131.003 108.242 132.969 107.803 134.887 107.236C136.686 106.704 138.426 105.994 140.264 105.603C141.107 105.423 141.972 105.319 142.835 105.365C144.154 105.439 145.309 106.165 146.506 106.647C148.498 107.446 150.499 107.662 152.637 107.55C156.644 107.337 160.472 105.767 164.229 104.496C165.846 103.949 167.374 103.522 169.075 103.274C170.85 103.014 172.499 103.16 174.28 103.378C174.314 103.381 174.348 103.385 174.384 103.386C174.394 103.481 174.405 103.574 174.416 103.668C175.307 111.964 174.701 120.462 171.974 128.39Z" fill="#404040"/>
<path d="M158.947 213.183C158.747 213.857 158.51 214.366 158.234 214.819C158.065 215.098 157.861 215.356 157.658 215.61C157.635 215.64 157.518 215.77 157.465 215.831C157.38 215.917 157.296 216.001 157.212 216.083C156.961 216.325 156.694 216.55 156.423 216.77C156.308 216.862 156.19 216.952 156.072 217.039C156.077 217.034 156.079 217.03 156.081 217.028C156.056 217.036 155.677 217.294 155.629 217.325C154.008 218.351 152.16 219.011 150.351 219.628C148.436 220.281 146.475 220.792 144.5 221.225C136.368 223.012 127.809 223.581 119.39 223.883C116.138 223.998 112.87 223.907 109.627 223.636C106.843 223.402 104.053 223.14 101.319 222.55C100.154 222.298 99.0175 221.968 97.9078 221.531C96.47 220.965 95.2617 220.149 94.0552 219.214C92.2786 217.84 91.4198 215.763 90.8354 213.592C91.5471 214.279 92.3198 214.885 93.0638 215.392C94.5338 216.393 96.1473 217.178 97.7984 217.835C100.839 219.048 104.1 219.691 107.298 220.342C115.527 222.02 124.17 222.498 132.529 221.7C138.081 221.17 143.449 219.882 148.668 217.942C150.937 217.098 153.139 216.063 155.29 214.955C156.38 214.391 157.456 213.8 158.522 213.195C158.655 213.12 158.802 213.044 158.954 212.963C158.956 213.074 158.954 213.16 158.947 213.183Z" fill="white"/>
<path d="M174.415 103.667C174.404 103.572 174.394 103.48 174.383 103.385C174.347 103.383 174.313 103.38 174.279 103.376C172.499 103.158 170.849 103.012 169.075 103.273C167.373 103.521 165.846 103.947 164.229 104.495C160.471 105.765 156.644 107.336 152.637 107.548C150.498 107.661 148.497 107.445 146.506 106.645C145.308 106.163 144.154 105.437 142.834 105.364C141.972 105.318 141.106 105.421 140.263 105.601C138.426 105.992 136.685 106.702 134.887 107.234C132.969 107.802 131.002 108.241 129.019 108.508C124.955 109.058 120.971 108.817 116.986 107.991C116.692 107.932 116.398 107.868 116.104 107.8C112.001 106.861 108.013 105.496 103.931 104.479C100.394 103.597 96.8106 103.169 93.1839 102.873C91.4001 102.727 89.5679 102.548 87.8468 102.038C86.5955 101.665 85.3047 101.131 84.4729 100.164C83.5693 107.532 83.1965 114.948 84.3761 122.325C85.1828 127.374 86.0738 132.575 88.0853 137.306C88.5926 138.5 89.1591 139.695 89.7597 140.843C90.0824 141.457 90.3979 142.072 90.717 142.688C91.072 143.373 91.3122 144.108 91.6564 144.795C92.5313 146.551 93.4241 148.309 94.1806 150.12C94.9945 152.076 95.6668 154.108 96.219 156.152C96.5238 157.283 96.7747 158.43 97.1082 159.553C97.4936 160.847 97.8056 162.108 97.9293 163.455C98.0781 165.099 98.2305 166.725 98.1785 168.377C98.1462 169.449 98.0458 170.522 97.9024 171.585C97.5187 174.458 97.1315 177.328 96.7245 180.197C95.3979 189.525 93.8938 198.838 92.2606 208.117C92.1943 208.486 92.0742 208.836 91.902 209.147C92.3466 209.611 92.7984 210.071 93.3183 210.476C94.0623 211.058 94.8493 211.593 95.6776 212.048C97.0598 212.807 98.5209 213.34 100.014 213.833C103.589 215.01 107.356 215.728 111.074 216.281C115.202 216.897 119.367 217.314 123.544 217.403C124.437 217.421 125.364 217.425 126.481 217.4C127.492 217.377 128.503 217.339 129.512 217.275C129.688 217.264 129.865 217.252 130.041 217.241C131.961 217.109 133.877 216.909 135.78 216.616C139.933 215.976 143.723 215.094 147.793 213.492C149.743 212.724 151.649 211.846 153.515 210.888C154.48 210.394 155.437 209.885 156.385 209.359C156.835 209.109 157.285 208.808 157.766 208.551C157.755 208.481 157.748 208.408 157.746 208.331C157.734 208.003 157.7 207.665 157.687 207.33C157.579 207.389 157.47 207.45 157.363 207.51C156.945 205.355 156.81 203.119 156.593 200.936C156.393 198.911 156.208 196.882 156.045 194.853C155.713 190.688 155.498 186.509 155.392 182.33C155.33 179.865 155.306 177.401 155.331 174.935C155.356 172.467 155.292 170.004 155.281 167.536C155.274 166.236 155.222 164.917 155.31 163.618C155.421 161.994 155.683 160.449 156.005 158.853C156.235 157.72 156.472 156.685 156.921 155.606C157.156 155.04 157.321 154.444 157.486 153.855C157.787 152.783 158.155 151.733 158.54 150.688C159.342 148.512 160.43 146.505 161.454 144.431C161.948 143.43 162.502 142.44 163.144 141.523C163.743 140.666 164.238 139.779 164.932 138.987C165.756 138.041 166.687 137.206 167.508 136.251C168.162 135.486 168.775 134.695 169.347 133.867C170.516 132.177 171.308 130.32 171.973 128.389C174.7 120.461 175.306 111.963 174.415 103.667ZM97.2911 119.108C97.2265 119.388 97.1458 119.779 97.0186 119.981C96.9576 120.054 96.8984 120.127 96.8375 120.2C96.8249 120.214 96.8106 120.227 96.798 120.241C96.4323 120.603 95.7959 120.614 95.3818 120.341C95.2312 120.254 95.0949 120.145 94.9766 120.014C94.7722 119.895 94.7256 119.79 94.8368 119.7C94.5266 119.343 94.5087 118.753 94.6952 118.339C94.8906 117.907 95.3119 117.6 95.7851 117.547C96.271 117.491 96.7586 117.705 97.0454 118.096C97.2444 118.367 97.3717 118.772 97.2911 119.108ZM123.727 119.019C124.711 119.019 125.548 119.795 125.565 120.787C125.581 121.754 124.774 122.616 123.788 122.616C122.804 122.616 121.968 121.84 121.95 120.848C121.934 119.881 122.743 119.019 123.727 119.019ZM125.955 197.921C126.364 197.99 126.737 198.219 126.983 198.554C127.027 198.616 127.069 198.682 127.103 198.75C127.354 199.096 127.472 199.527 127.427 199.953C127.377 200.41 127.146 200.835 126.785 201.124C126.54 201.322 126.26 201.443 125.948 201.491C125.333 200.736 124.718 199.982 124.103 199.227C124.234 198.367 125.104 197.776 125.955 197.921ZM119.374 152.918C119.573 152.672 119.821 152.492 120.116 152.379C120.262 152.344 120.407 152.31 120.554 152.276C120.853 152.247 121.142 152.292 121.42 152.411C121.547 152.488 121.676 152.565 121.803 152.642C122.165 152.927 122.402 153.355 122.449 153.814C122.494 154.256 122.361 154.71 122.081 155.058C121.882 155.304 121.635 155.484 121.339 155.597C121.194 155.632 121.049 155.666 120.903 155.7C120.604 155.729 120.314 155.684 120.037 155.565C119.908 155.488 119.781 155.413 119.654 155.336C119.292 155.049 119.055 154.621 119.008 154.162C118.964 153.719 119.096 153.266 119.374 152.918ZM103.406 187.053C103.437 186.769 103.533 186.512 103.697 186.279C103.867 186.04 104.086 185.858 104.354 185.734C104.735 185.561 105.213 185.527 105.604 185.688C105.986 186.038 106.368 186.386 106.75 186.734C106.872 187.001 106.92 187.282 106.891 187.572C106.861 187.708 106.828 187.844 106.798 187.979C106.649 188.377 106.339 188.722 105.946 188.893C105.889 188.92 105.83 188.945 105.773 188.97C105.367 189.148 104.867 189.127 104.464 188.961C104.175 188.839 103.935 188.656 103.745 188.408C103.49 188.015 103.377 187.563 103.406 187.053ZM106.21 169.31C106.067 169.323 105.923 169.333 105.78 169.346C105.36 169.346 104.926 169.125 104.643 168.825C104.34 168.502 104.177 168.061 104.197 167.619C104.216 167.192 104.406 166.78 104.722 166.487C104.944 166.282 105.206 166.146 105.504 166.079C105.645 166.068 105.789 166.055 105.932 166.043C106.353 166.043 106.787 166.264 107.069 166.566C107.372 166.889 107.537 167.328 107.515 167.77C107.495 168.198 107.305 168.609 106.992 168.902C106.768 169.107 106.508 169.244 106.21 169.31ZM107.158 145.848C106.915 145.393 106.841 144.884 106.94 144.324C106.981 144.135 107.053 143.957 107.151 143.796C107.359 143.45 107.687 143.18 108.085 143.052C108.372 142.961 108.662 142.945 108.956 143.005C109.093 143.052 109.231 143.098 109.369 143.146C109.679 143.437 109.991 143.728 110.301 144.017C110.466 144.276 110.554 144.558 110.568 144.861C110.577 145.158 110.516 145.436 110.382 145.7C110.24 145.971 110.041 146.189 109.783 146.353L109.774 146.358L109.369 146.544C109.331 146.56 109.294 146.574 109.256 146.589C108.831 146.758 108.284 146.689 107.883 146.491C107.583 146.341 107.341 146.126 107.158 145.848ZM118.815 171.939C121.133 171.939 121.104 175.513 118.786 175.513C116.468 175.513 116.497 171.939 118.815 171.939ZM118.316 189.451C118.404 190.313 117.716 191.338 116.773 191.338C115.832 191.338 114.98 190.804 114.878 189.799C114.79 188.938 115.478 187.913 116.421 187.913C117.363 187.913 118.214 188.447 118.316 189.451ZM101.294 128.1C101.151 127.995 101.007 127.891 100.864 127.788C100.477 127.424 100.242 126.913 100.22 126.383C100.199 125.835 100.403 125.291 100.782 124.895C101.137 124.522 101.669 124.256 102.192 124.256C102.569 124.242 102.924 124.324 103.257 124.502C103.401 124.606 103.544 124.709 103.689 124.813C103.804 124.922 103.905 125.041 103.989 125.172C104.195 125.48 104.317 125.844 104.331 126.217C104.353 126.765 104.148 127.309 103.77 127.707C103.566 127.921 103.302 128.102 103.015 128.216C102.804 128.298 102.581 128.346 102.359 128.346C101.983 128.359 101.628 128.276 101.294 128.1ZM103.915 203.17C103.284 203.062 102.691 202.598 102.495 201.98C102.361 201.555 102.347 201.058 102.494 200.631C102.651 200.174 102.936 199.794 103.374 199.566C103.804 199.341 104.251 199.33 104.713 199.437C104.794 199.455 104.874 199.473 104.953 199.493C104.957 199.493 104.962 199.493 104.966 199.494C105.002 199.503 105.039 199.512 105.075 199.521C104.951 199.505 104.826 199.487 104.7 199.471C104.679 199.469 104.659 199.468 104.638 199.466C105.023 199.51 105.36 199.614 105.667 199.894C106.002 200.199 106.203 200.635 106.217 201.086C106.228 201.454 106.115 201.816 105.903 202.114C105.902 202.119 105.902 202.126 105.898 202.132C105.756 202.435 105.545 202.683 105.269 202.876L104.844 203.092C104.541 203.197 104.231 203.222 103.915 203.17ZM165.009 122.741C162.613 123.881 159.901 124.32 157.305 124.768C157.233 124.781 157.162 124.793 157.092 124.806C157.346 124.77 156.622 124.968 156.631 124.966C156.111 125.116 155.591 125.264 155.068 125.409C154.012 125.698 152.954 125.976 151.893 126.248C149.514 126.852 147.135 127.452 144.765 128.093C144.431 128.182 144.098 128.273 143.765 128.362C143.745 128.362 143.655 128.382 143.626 128.392C143.341 128.503 143.053 128.608 142.761 128.699C142.251 128.856 141.737 128.999 141.224 129.146C141.17 129.162 141.131 129.174 141.106 129.179C141.115 129.176 141.127 129.172 141.142 129.167C141.056 129.192 140.97 129.219 140.885 129.244C140.728 129.294 140.572 129.342 140.414 129.392C140.079 129.499 139.743 129.611 139.405 129.711C138.745 129.906 138.001 130.082 137.397 130.446C137.449 130.475 137.504 130.502 137.569 130.53C138.085 130.753 138.612 130.841 139.171 130.88C141.025 131.01 142.857 131.348 144.718 131.46C149.686 131.763 154.756 131.53 159.652 130.596C160.116 130.509 160.783 130.732 161.039 131.151C161.057 131.182 161.077 131.212 161.095 131.242C161.645 132.138 161.42 133.012 160.518 133.544C158.431 134.774 156.199 135.691 153.913 136.487C150.444 137.693 146.866 138.532 143.363 139.627C141.635 140.168 139.915 140.766 138.261 141.505C137.461 141.862 136.665 142.236 135.909 142.681C135.452 142.95 134.795 143.337 134.353 143.667C134.677 143.735 135.005 143.791 135.335 143.828C135.482 143.846 135.629 143.862 135.778 143.874C135.814 143.878 135.841 143.88 135.864 143.883C135.885 143.883 135.912 143.885 135.95 143.887C136.696 143.924 137.443 143.951 138.189 143.971C142.676 144.09 147.146 143.6 151.601 143.12C152.443 143.029 153.141 143.93 153.128 144.694C153.117 145.416 152.624 145.946 151.963 146.166C146.909 147.834 141.947 149.822 137.176 152.17C135.066 153.209 132.657 154.305 130.859 155.463C130.308 155.818 129.763 156.187 129.258 156.603C129.069 156.757 128.885 156.915 128.709 157.081C128.664 157.128 128.578 157.213 128.562 157.231C128.483 157.32 128.404 157.41 128.333 157.502C128.266 157.588 128.202 157.674 128.141 157.763C128.117 157.808 128.085 157.868 128.073 157.895C128.055 157.936 128.037 157.975 128.021 158.016C128.015 158.041 128.01 158.07 128.004 158.097L128.013 158.106C128.618 158.596 129.903 158.775 130.824 158.839C132.002 158.923 133.182 158.923 134.362 158.905C138.307 158.848 142.264 159.199 146.158 159.822C146.593 159.892 146.97 160.349 147.067 160.754C147.078 160.804 147.09 160.854 147.103 160.904C147.228 161.425 146.991 162.137 146.455 162.354C144.559 163.122 142.662 163.885 140.785 164.697C139.017 165.459 137.291 166.296 135.561 167.14C134.342 167.736 133.11 168.348 132.027 169.175C131.554 169.535 131.077 169.921 130.771 170.44C130.758 170.458 130.749 170.474 130.74 170.486C130.735 170.504 130.728 170.525 130.717 170.554C130.704 170.593 130.685 170.69 130.672 170.743C130.672 170.779 130.672 170.815 130.67 170.836C130.672 170.838 130.674 170.841 130.674 170.843C130.681 170.85 130.686 170.857 130.692 170.863C130.708 170.879 130.731 170.9 130.755 170.92C130.78 170.939 130.807 170.959 130.835 170.977C130.903 171.022 131.192 171.168 131.192 171.177C131.332 171.236 131.47 171.291 131.611 171.339C133.775 172.051 136.163 172.09 138.42 172.142C140.45 172.187 142.517 172.019 144.537 172.214C146.013 172.355 146.479 174.441 145.086 175.088C143.139 175.993 141.237 176.985 139.317 177.943C136.728 179.234 133.955 180.392 131.59 182.085C131.059 182.465 130.534 182.869 130.131 183.386C130.077 183.454 130.025 183.523 129.975 183.593C129.975 183.606 129.923 183.704 129.896 183.757C129.907 183.768 129.917 183.779 129.928 183.788C130 183.838 130.077 183.886 130.156 183.927C130.163 183.932 130.168 183.934 130.174 183.937C130.262 183.973 130.348 184.009 130.435 184.039C132.601 184.783 134.955 184.733 137.262 184.721C139.295 184.708 141.326 184.558 143.358 184.557C145.066 184.555 145.846 187.21 144.154 187.906C143.824 188.042 143.494 188.172 143.16 188.3C141.99 188.756 140.815 189.203 139.666 189.712C139.001 190.006 138.343 190.313 137.701 190.652C137.406 190.809 137.11 190.97 136.821 191.14C136.678 191.223 136.536 191.309 136.395 191.397C136.368 191.414 136.124 191.575 136.117 191.575C135.6 191.935 135.098 192.323 134.652 192.767C134.582 192.835 134.514 192.903 134.448 192.972C134.405 193.024 134.301 193.145 134.275 193.177C134.105 193.4 133.94 193.631 133.804 193.879C133.795 193.893 133.79 193.905 133.782 193.918C133.757 193.973 133.732 194.03 133.709 194.087C133.661 194.214 133.61 194.343 133.575 194.473C133.562 194.519 133.553 194.55 133.546 194.571C133.533 194.655 133.517 194.742 133.508 194.83C133.519 194.869 133.537 195.026 133.555 195.16C133.587 195.142 133.759 195.487 133.72 195.488C133.858 195.638 134.026 195.81 133.965 195.772C134.107 195.883 134.25 195.988 134.405 196.079C134.453 196.108 134.611 196.191 134.63 196.204C134.682 196.227 134.734 196.252 134.786 196.273C135.034 196.379 135.283 196.475 135.539 196.559C136.66 196.921 137.85 197.101 139.055 197.244C140.195 197.378 141.341 197.428 142.484 197.519C143.356 197.587 144.222 197.548 145.097 197.589C146.26 197.642 147.856 197.733 148.68 198.681C149.975 200.173 148.924 201.689 147.425 202.441C144.973 203.67 142.372 204.213 139.81 205.18C139.283 205.38 138.757 205.59 138.254 205.842C138.06 205.94 137.868 206.04 137.682 206.15C138.284 206.372 138.967 206.49 139.586 206.611C140.392 206.766 141.326 206.991 142.144 206.912C143.503 206.779 144.851 206.582 146.197 206.368C147.323 206.19 148.243 207.744 147.391 208.584C145.966 209.989 144.189 210.264 142.262 210.369C140.471 210.467 138.675 210.481 136.884 210.574C133.234 210.765 129.582 210.592 125.932 210.551C125.832 210.549 125.733 210.549 125.633 210.547C121.972 210.513 118.311 210.394 114.65 210.422C111.504 210.447 108.23 210.385 105.816 208.094C104.926 207.25 105.172 205.683 106.031 204.935C107.004 204.088 108.284 204.305 109.168 205.117C109.105 205.058 109.077 205.03 109.069 205.021C109.089 205.033 109.32 205.239 109.363 205.267C109.43 205.312 109.498 205.353 109.564 205.396C109.605 205.405 110.009 205.603 110.073 205.628C110.109 205.64 110.43 205.738 110.45 205.754C110.444 205.754 110.427 205.753 110.398 205.745C110.491 205.769 110.582 205.792 110.676 205.813C110.941 205.869 111.206 205.92 111.475 205.958C112.694 206.131 113.922 206.099 115.15 206.122C117.295 206.163 119.439 206.254 121.581 206.34C122.82 206.388 124.059 206.436 125.297 206.47C128.248 206.552 131.188 206.761 134.136 206.909C133.947 206.299 133.985 205.635 134.36 205.051C134.944 204.138 135.864 203.547 136.836 203.101C138.16 202.491 139.553 202.039 140.952 201.632C141.807 201.382 142.764 201.236 143.574 200.86C143.612 200.842 143.653 200.824 143.693 200.808C142.969 200.813 142.251 200.818 141.516 200.788C139.032 200.685 136.42 200.606 134.059 199.742C131.637 198.856 129.501 196.805 130.084 194.018C130.622 191.441 132.56 189.633 134.724 188.284C133.062 188.236 131.387 188.074 129.837 187.581C128.858 187.269 127.753 186.791 127.121 185.94C126.357 184.91 126.127 183.518 126.732 182.342C128.003 179.88 130.875 178.465 133.272 177.303C134.65 176.635 136.054 176.025 137.436 175.368C137.658 175.263 137.879 175.158 138.099 175.051C136.371 174.99 134.645 174.867 132.945 174.574C131.038 174.248 128.641 173.661 127.961 171.607C127.583 170.461 128.132 169.126 128.915 168.282C130.048 167.062 131.447 166.209 132.92 165.449C135.518 164.109 138.203 162.965 140.903 161.849C138.716 161.689 136.52 161.637 134.336 161.717C132.327 161.792 130.156 161.905 128.2 161.357C127.015 161.025 125.817 160.475 125.276 159.296C124.743 158.139 125.116 156.84 125.833 155.857C127.334 153.798 129.892 152.476 132.099 151.317C134.969 149.811 137.9 148.412 140.876 147.124C139.858 147.147 138.84 147.144 137.82 147.103C136.455 147.045 135.057 147.072 133.716 146.772C132.545 146.51 131.045 145.966 130.715 144.656C130.265 142.879 131.73 141.546 133.096 140.668C134.665 139.658 136.341 138.798 138.071 138.095C142.734 136.201 147.739 135.263 152.513 133.712C151.726 133.735 150.941 133.762 150.152 133.78C147.318 133.846 144.464 133.807 141.644 133.482C140.674 133.369 139.713 133.26 138.745 133.164C137.936 133.082 137.119 132.971 136.36 132.673C135.38 132.288 134.591 131.462 134.55 130.371C134.507 129.19 135.509 128.275 136.441 127.704C138.017 126.738 139.7 126.249 141.445 125.684C143.004 125.177 144.552 124.658 146.135 124.213C148.472 123.555 150.815 122.918 153.144 122.227C154.711 121.763 156.251 121.283 157.85 120.942C158.969 120.705 160.086 120.45 161.181 120.123C161.106 120.111 161.03 120.1 160.955 120.089C160.45 120.027 159.944 119.973 159.437 119.929C158.286 119.825 157.131 119.754 155.975 119.702C153.775 119.604 151.572 119.595 149.372 119.525C148.573 119.501 147.771 119.476 146.974 119.431C146.724 119.415 146.475 119.402 146.228 119.374C146.203 119.37 146.178 119.367 146.152 119.365C146.565 119.431 145.749 119.354 145.722 119.354C145.165 119.351 144.607 119.347 144.05 119.347C141.671 119.34 139.292 119.354 136.913 119.399C133.858 119.456 130.785 119.311 127.73 119.19C126.42 119.138 126.515 117.099 127.759 116.959C131.269 116.565 134.751 116.098 138.282 115.948C139.919 115.88 141.558 115.808 143.194 115.757C144.365 115.721 145.564 115.634 146.732 115.714C148.879 115.866 151.065 115.746 153.219 115.8C155.516 115.858 157.82 115.939 160.107 116.178C161.932 116.367 164.06 116.515 165.697 117.445C166.561 117.936 167.31 118.819 167.276 119.865C167.23 121.223 166.168 122.19 165.009 122.741Z" fill="#C27600"/>
<path d="M173.858 99.6093C170.206 99.0061 166.495 99.8484 163.01 100.998C158.528 102.477 153.268 105.466 148.562 104.136C146.314 103.499 144.18 102.777 141.807 102.864C139.756 102.937 137.753 103.656 135.83 104.304C133.826 104.979 131.81 105.514 129.726 105.875C126.027 106.512 122.409 106.422 118.766 105.805C118.168 105.703 117.569 105.587 116.968 105.459C110.631 104.097 104.518 101.842 98.0279 101.217C95.5181 100.976 92.9903 100.928 90.4822 100.673C88.4367 100.464 86.3876 99.9554 84.6396 98.8526C84.792 97.682 84.957 96.5132 85.1291 95.3462C85.6185 92.036 86.2764 88.7544 87.0688 85.5031C87.5762 83.417 88.2359 81.3845 88.9189 79.3556C91.4611 82.8121 97.0204 83.8435 100.866 84.7911C105.464 85.9224 110.267 86.4453 114.977 86.8486C124.01 87.6248 133.078 87.6194 142.103 86.7183C146.71 86.2579 151.296 85.5762 155.848 84.7215C158.053 84.3075 160.197 83.7882 162.354 83.1761C165.165 82.3803 168.234 81.3256 169.378 78.4116C169.453 78.4313 169.53 78.4491 169.607 78.4669C169.978 79.5216 170.136 80.669 170.313 81.7628C170.702 84.1415 171.226 86.4935 171.721 88.8525C171.791 89.1862 171.86 89.5217 171.932 89.8572C172.615 93.0924 173.325 96.3419 173.858 99.6093Z" fill="#FFDF9E"/>
<path d="M174.913 74.6482C174.664 75.2013 174.062 75.5172 173.49 75.6064C172.889 75.6992 172.276 75.6296 171.676 75.5743C171.274 75.5368 170.873 75.469 170.471 75.4208C170.358 75.4065 170.249 75.403 170.141 75.4048C170.132 75.3941 170.123 75.3834 170.113 75.3744C169.602 74.8676 168.859 75.2013 168.58 75.7331C168.284 75.858 168.078 76.0971 167.961 76.3809C167.667 76.4201 167.382 76.5522 167.124 76.7449C165.046 78.2938 162.217 78.392 159.795 79.0897C159.81 79.0754 159.738 79.0808 159.438 79.1361C159.144 79.1914 158.85 79.2467 158.556 79.302C157.976 79.4127 157.397 79.5269 156.814 79.6286C155.658 79.8267 154.507 80.0569 153.352 80.2585C148.946 81.0312 144.507 81.6165 140.05 82.018C131.457 82.7924 122.791 82.7978 114.188 82.1554C109.356 81.7949 104.559 81.1311 99.7919 80.2781C98.0565 79.9676 96.3158 79.6304 94.636 79.0825C93.8239 78.8184 93.0279 78.4847 92.2875 78.0583C91.5309 77.6246 90.9393 77.0982 90.3585 76.5093C90.6525 75.9044 90.9053 75.328 90.9017 74.6392C90.8999 74.1289 90.8873 73.5989 90.9734 73.0939C91.0415 72.6817 91.167 72.4319 91.3839 72.1517C91.7228 71.7145 92.5008 71.445 93.0512 71.2595C94.247 70.858 94.039 69.127 92.8504 68.8933C91.0236 68.5328 89.0551 68.1242 87.465 67.1142C86.4861 66.4914 85.7493 65.8525 85.3065 64.7997C84.8709 63.7647 85.0627 62.5013 85.2778 61.4378C85.5216 60.2368 86.2907 59.0412 86.9146 58.008C87.3592 57.2711 87.8433 56.5608 88.4044 55.9059C88.6321 55.6401 88.8777 55.3902 89.1555 55.1743C89.2703 55.0851 89.6432 55.0048 89.6432 55.003C89.6521 55.003 89.6593 55.0012 89.6683 55.0012C89.7866 55.2154 89.9085 55.442 89.9874 55.6615C90.4911 57.073 92.5367 56.7946 92.5833 55.2742C92.6102 54.3695 92.3699 53.5594 92.1907 52.6814C92.0114 51.7999 91.9899 50.8827 92.1709 50.0011C92.5492 48.156 94.1089 46.4001 95.6005 45.3276C95.8425 45.1545 96.1365 44.9618 96.3983 44.853C96.66 44.7441 96.9253 44.6834 97.0652 44.6727C97.5868 44.6299 97.8091 44.7352 98.3093 45.0493C99.4495 45.7666 100.385 47.0889 101.292 48.1632C102.076 49.0893 103.878 48.4005 103.533 47.121C103.358 46.4715 103.006 45.8773 102.895 45.2117C102.825 44.7869 102.786 44.3587 102.764 43.9304C102.718 43.0774 102.777 42.2084 102.942 41.3715C103.324 39.455 104.496 37.7597 106.113 36.673C107.669 35.6291 109.503 35.2365 111.239 36.0609C113.096 36.946 114.267 39.0535 115.052 40.8469C115.362 41.5553 116.552 41.3519 116.568 40.5631C116.611 38.486 117.325 35.7843 119.677 35.2383C121.063 34.9171 122.624 35.3489 123.358 36.607C124.107 37.89 124.308 39.4585 124.688 40.8736C125.036 42.1602 126.938 42.0639 127.25 40.8112C127.886 38.2594 131.308 36.3304 133.919 35.9913C135.073 35.8414 136.124 36.0895 136.452 37.2637C136.868 38.759 136.516 40.5096 137.683 41.7266C138.196 42.2637 139.164 42.228 139.555 41.5535C139.872 41.0039 139.858 40.3668 140.175 39.7994C140.428 39.3443 140.729 38.9214 141.057 38.5181C141.636 37.8043 142.334 37.1905 143.094 36.673C144.713 35.572 146.712 35.2419 148.583 35.82C152.294 36.9674 151.432 41.1591 150.536 43.959C150.39 44.414 151.106 44.7869 151.389 44.3944C152 43.5503 152.406 42.5546 152.596 41.5196C153.626 40.7166 154.759 40.0635 156.039 39.7191C157.925 39.2123 159.668 39.9743 160.961 41.3572C162.434 42.9311 163.06 44.8655 162.294 46.9212C161.701 48.5111 160.713 49.8602 159.614 51.1432C158.596 52.3317 160.193 53.9894 161.455 53.1133C163.117 51.9587 164.987 50.9665 166.993 50.59C167.913 50.4169 168.831 50.5026 169.707 50.8166C170.475 51.0897 171.077 51.6875 171.387 52.2103C171.543 52.4762 171.568 52.5511 171.683 52.9598C171.807 53.3916 171.798 53.4202 171.814 53.9252C171.839 54.7068 171.701 55.3099 171.393 56.1504C171.195 56.6911 170.736 57.3549 170.261 57.8349C170.078 58.0205 169.933 58.1312 169.659 58.2989C169.193 58.3114 168.727 58.3899 168.304 58.5327C167.151 58.9217 167.036 60.5723 168.024 61.1969C168.797 61.6858 169.736 61.5145 170.595 61.0952C170.67 61.1201 170.744 61.1433 170.812 61.1647C171.511 61.3825 172.153 61.9428 172.673 62.4317C173.565 63.2704 174.329 64.2822 174.758 65.435C174.899 65.8204 174.924 66.2326 174.913 66.5485C174.908 66.6395 174.901 66.7305 174.888 66.8197C174.887 66.8429 174.885 66.8608 174.883 66.8786C174.876 66.8947 174.863 66.9304 174.844 66.9982C174.815 67.1052 174.772 67.2069 174.731 67.3087C174.772 67.1927 174.616 67.4871 174.605 67.5032C174.049 68.3561 172.699 68.4507 171.774 68.4311C170.258 68.4007 169.609 70.7402 171.213 71.1506C172.083 71.3737 172.911 71.6324 173.671 72.1231C174.322 72.5425 174.96 73.1367 175.08 73.7488C175.15 74.1128 175.08 74.2788 174.913 74.6482Z" fill="white"/>
<path d="M167.276 119.865C167.23 121.223 166.169 122.19 165.009 122.741C162.614 123.882 159.901 124.321 157.305 124.768C157.233 124.781 157.162 124.793 157.092 124.806C157.346 124.77 156.622 124.968 156.631 124.966C156.111 125.116 155.591 125.265 155.068 125.409C154.012 125.698 152.954 125.977 151.893 126.248C149.514 126.853 147.135 127.452 144.765 128.093C144.426 128.184 144.089 128.275 143.75 128.368C143.822 128.344 143.668 128.378 143.626 128.393C143.341 128.503 143.053 128.609 142.761 128.7C142.251 128.857 141.737 128.999 141.224 129.146C141.147 129.169 141.101 129.183 141.083 129.187C141.093 129.183 141.113 129.176 141.142 129.167C141.056 129.192 140.97 129.219 140.885 129.244C140.728 129.294 140.572 129.342 140.414 129.392C140.079 129.499 139.743 129.611 139.405 129.711C138.745 129.906 138.001 130.083 137.397 130.447C137.449 130.475 137.504 130.502 137.569 130.53C138.085 130.754 138.612 130.841 139.172 130.88C141.025 131.01 142.857 131.348 144.718 131.46C149.686 131.764 154.756 131.53 159.652 130.596C160.116 130.509 160.783 130.732 161.039 131.151C161.057 131.182 161.077 131.212 161.095 131.242C161.645 132.138 161.42 133.013 160.518 133.544C158.431 134.774 156.199 135.691 153.913 136.487C150.444 137.693 146.866 138.532 143.363 139.628C141.635 140.168 139.916 140.766 138.261 141.505C137.461 141.862 136.665 142.237 135.909 142.681C135.452 142.95 134.795 143.338 134.353 143.668C134.677 143.735 135.005 143.791 135.335 143.828C135.482 143.846 135.629 143.862 135.778 143.875C135.814 143.878 135.841 143.88 135.864 143.884C135.885 143.884 135.912 143.885 135.95 143.887C136.696 143.925 137.443 143.951 138.189 143.971C142.676 144.091 147.146 143.6 151.601 143.12C152.443 143.029 153.141 143.93 153.128 144.694C153.117 145.416 152.624 145.946 151.963 146.166C146.909 147.834 141.947 149.822 137.176 152.171C135.066 153.209 132.657 154.305 130.859 155.463C130.308 155.818 129.763 156.187 129.258 156.603C129.069 156.757 128.885 156.916 128.709 157.081C128.664 157.128 128.578 157.214 128.562 157.231C128.483 157.321 128.404 157.41 128.333 157.503C128.266 157.588 128.202 157.674 128.141 157.763C128.117 157.808 128.085 157.868 128.073 157.895C128.055 157.936 128.037 157.976 128.021 158.017C128.015 158.042 128.01 158.07 128.004 158.097L128.013 158.106C128.618 158.596 129.903 158.775 130.824 158.839C132.002 158.923 133.182 158.923 134.362 158.905C138.307 158.848 142.264 159.2 146.158 159.822C146.593 159.892 146.97 160.349 147.067 160.754C147.078 160.804 147.09 160.854 147.103 160.904C147.228 161.425 146.991 162.137 146.455 162.355C144.559 163.122 142.662 163.886 140.785 164.698C139.017 165.46 137.291 166.296 135.561 167.141C134.342 167.737 133.11 168.349 132.027 169.175C131.554 169.535 131.077 169.921 130.771 170.44C130.758 170.458 130.749 170.474 130.74 170.486C130.735 170.504 130.728 170.526 130.717 170.554C130.704 170.593 130.685 170.69 130.672 170.743C130.672 170.779 130.672 170.815 130.67 170.836C130.672 170.838 130.674 170.841 130.674 170.843C130.681 170.85 130.686 170.858 130.692 170.863C130.708 170.879 130.731 170.9 130.755 170.92C130.78 170.94 130.807 170.959 130.835 170.977C130.903 171.022 131.192 171.168 131.192 171.177C131.332 171.236 131.47 171.291 131.611 171.339C133.775 172.051 136.163 172.091 138.42 172.142C140.45 172.187 142.517 172.019 144.537 172.214C146.013 172.355 146.479 174.441 145.086 175.088C143.139 175.993 141.237 176.985 139.317 177.944C136.728 179.234 133.955 180.392 131.59 182.085C131.059 182.465 130.534 182.869 130.131 183.386C130.077 183.454 130.025 183.524 129.975 183.593C129.975 183.606 129.923 183.704 129.896 183.757C129.907 183.768 129.917 183.779 129.928 183.788C130 183.838 130.077 183.886 130.156 183.927C130.163 183.932 130.168 183.934 130.174 183.938C130.262 183.973 130.348 184.009 130.435 184.039C132.601 184.783 134.955 184.734 137.262 184.721C139.295 184.709 141.326 184.559 143.358 184.557C145.066 184.555 145.846 187.21 144.154 187.906C143.824 188.042 143.494 188.172 143.16 188.301C141.99 188.756 140.815 189.204 139.666 189.712C139.001 190.007 138.343 190.314 137.701 190.653C137.406 190.81 137.11 190.97 136.821 191.14C136.678 191.224 136.536 191.309 136.395 191.397C136.368 191.415 136.124 191.575 136.117 191.575C135.6 191.936 135.098 192.323 134.652 192.767C134.582 192.835 134.514 192.903 134.448 192.972C134.405 193.024 134.301 193.145 134.276 193.178C134.105 193.401 133.94 193.631 133.804 193.879C133.795 193.893 133.79 193.906 133.783 193.918C133.757 193.973 133.732 194.031 133.709 194.088C133.661 194.214 133.61 194.343 133.575 194.473C133.562 194.52 133.553 194.55 133.546 194.571C133.533 194.655 133.517 194.743 133.508 194.83C133.519 194.869 133.537 195.026 133.555 195.16C133.587 195.142 133.759 195.487 133.72 195.488C133.858 195.638 134.026 195.81 133.965 195.772C134.107 195.883 134.25 195.988 134.405 196.079C134.453 196.108 134.611 196.192 134.63 196.204C134.682 196.227 134.734 196.252 134.786 196.274C135.034 196.379 135.283 196.475 135.539 196.559C136.66 196.921 137.85 197.102 139.055 197.244C140.195 197.378 141.341 197.428 142.485 197.519C143.356 197.587 144.222 197.548 145.097 197.589C146.26 197.642 147.856 197.733 148.68 198.681C149.975 200.173 148.924 201.689 147.425 202.441C144.973 203.67 142.372 204.213 139.81 205.18C139.283 205.38 138.757 205.59 138.254 205.842C138.06 205.94 137.868 206.04 137.682 206.151C138.284 206.372 138.967 206.49 139.586 206.611C140.392 206.766 141.326 206.991 142.144 206.913C143.503 206.779 144.851 206.582 146.197 206.368C147.323 206.19 148.243 207.744 147.391 208.585C145.966 209.989 144.189 210.264 142.262 210.369C140.471 210.467 138.675 210.482 136.884 210.574C133.134 210.771 129.383 210.583 125.633 210.548C121.972 210.514 118.311 210.394 114.65 210.423C111.504 210.448 108.23 210.385 105.816 208.094C104.926 207.25 105.172 205.683 106.031 204.935C107.004 204.088 108.284 204.306 109.168 205.117C109.105 205.059 109.077 205.03 109.069 205.021C109.089 205.034 109.32 205.239 109.363 205.267C109.43 205.312 109.498 205.353 109.564 205.396C109.605 205.405 110.009 205.603 110.073 205.628C110.109 205.64 110.43 205.738 110.45 205.755C110.444 205.755 110.427 205.753 110.398 205.746C110.491 205.769 110.583 205.792 110.676 205.813C110.941 205.869 111.206 205.92 111.475 205.958C112.694 206.131 113.922 206.099 115.15 206.122C118.535 206.186 121.915 206.375 125.297 206.47C128.248 206.552 131.188 206.761 134.136 206.909C133.947 206.299 133.985 205.635 134.36 205.051C134.944 204.138 135.864 203.547 136.836 203.101C138.16 202.491 139.553 202.039 140.952 201.632C141.807 201.383 142.764 201.236 143.575 200.86C143.612 200.842 143.653 200.824 143.693 200.808C142.969 200.813 142.251 200.819 141.516 200.788C139.032 200.685 136.42 200.606 134.059 199.743C131.637 198.856 129.501 196.805 130.084 194.018C130.622 191.441 132.56 189.634 134.724 188.285C133.062 188.236 131.387 188.074 129.837 187.582C128.858 187.269 127.753 186.791 127.121 185.94C126.357 184.91 126.127 183.518 126.732 182.342C128.003 179.88 130.875 178.465 133.272 177.303C134.65 176.636 136.054 176.025 137.436 175.369C137.658 175.263 137.879 175.158 138.099 175.051C136.371 174.99 134.645 174.867 132.945 174.575C131.038 174.248 128.641 173.661 127.961 171.607C127.583 170.461 128.132 169.127 128.915 168.283C130.048 167.062 131.447 166.209 132.92 165.449C135.518 164.109 138.203 162.965 140.903 161.85C138.716 161.689 136.52 161.637 134.336 161.718C132.327 161.792 130.156 161.905 128.2 161.357C127.015 161.025 125.817 160.476 125.276 159.296C124.743 158.14 125.116 156.841 125.833 155.857C127.334 153.798 129.892 152.476 132.099 151.318C134.969 149.812 137.9 148.413 140.876 147.124C139.858 147.147 138.84 147.144 137.82 147.103C136.455 147.046 135.057 147.072 133.716 146.773C132.546 146.51 131.045 145.966 130.715 144.656C130.265 142.879 131.73 141.546 133.096 140.668C134.665 139.658 136.341 138.798 138.071 138.095C142.734 136.201 147.739 135.263 152.513 133.712C151.726 133.735 150.941 133.762 150.152 133.78C147.318 133.846 144.464 133.807 141.644 133.482C140.674 133.37 139.713 133.261 138.745 133.164C137.936 133.082 137.119 132.972 136.36 132.674C135.38 132.288 134.591 131.462 134.55 130.372C134.507 129.19 135.509 128.275 136.441 127.704C138.017 126.738 139.7 126.25 141.445 125.684C143.004 125.177 144.552 124.658 146.135 124.213C148.472 123.555 150.815 122.918 153.144 122.227C154.711 121.763 156.251 121.283 157.85 120.943C158.969 120.705 160.086 120.45 161.181 120.123C161.106 120.111 161.031 120.1 160.955 120.09C160.45 120.027 159.944 119.974 159.437 119.929C158.286 119.825 157.131 119.754 155.975 119.702C153.775 119.604 151.572 119.595 149.372 119.526C148.573 119.501 147.771 119.476 146.974 119.431C146.724 119.415 146.475 119.403 146.228 119.374C146.203 119.37 146.178 119.367 146.152 119.365C146.565 119.431 145.749 119.354 145.722 119.354C145.165 119.351 144.607 119.347 144.05 119.347C141.671 119.34 139.292 119.354 136.913 119.399C133.858 119.456 130.785 119.312 127.73 119.19C126.42 119.138 126.515 117.099 127.759 116.96C131.269 116.565 134.751 116.098 138.282 115.948C139.919 115.88 141.558 115.809 143.194 115.757C144.365 115.721 145.564 115.634 146.732 115.714C148.879 115.866 151.065 115.746 153.219 115.8C155.516 115.859 157.82 115.939 160.107 116.178C161.932 116.367 164.06 116.515 165.697 117.445C166.561 117.936 167.311 118.819 167.276 119.865Z" fill="#404040"/>
<path d="M97.2911 119.108C97.2265 119.388 97.1458 119.779 97.0186 119.981C96.9576 120.054 96.8984 120.127 96.8375 120.2C96.8249 120.214 96.8106 120.227 96.798 120.241C96.4323 120.603 95.7959 120.614 95.3818 120.341C95.2312 120.254 95.0949 120.145 94.9766 120.015C94.7722 119.895 94.7256 119.79 94.8368 119.701C94.5266 119.344 94.5087 118.753 94.6952 118.339C94.8906 117.907 95.3119 117.6 95.7851 117.547C96.271 117.491 96.7586 117.706 97.0454 118.096C97.2444 118.368 97.3717 118.773 97.2911 119.108Z" fill="#404040"/>
<path d="M104.331 126.217C104.353 126.765 104.148 127.309 103.77 127.707C103.415 128.078 102.883 128.346 102.359 128.346C101.983 128.358 101.628 128.276 101.294 128.1C101.151 127.994 101.007 127.891 100.864 127.787C100.477 127.423 100.242 126.913 100.22 126.383C100.199 125.835 100.403 125.291 100.782 124.895C101.137 124.522 101.669 124.256 102.192 124.256C102.569 124.242 102.924 124.324 103.257 124.502C103.401 124.606 103.544 124.709 103.689 124.813C104.075 125.179 104.31 125.687 104.331 126.217Z" fill="#404040"/>
<path d="M125.564 120.787C125.581 121.754 124.774 122.616 123.788 122.616C122.804 122.616 121.968 121.84 121.95 120.848C121.934 119.88 122.743 119.019 123.727 119.019C124.711 119.019 125.548 119.795 125.564 120.787Z" fill="#404040"/>
<path d="M110.568 144.861C110.577 145.157 110.516 145.436 110.382 145.7C110.24 145.971 110.041 146.189 109.783 146.353L109.369 146.544C109.331 146.56 109.294 146.574 109.256 146.589C108.831 146.758 108.284 146.688 107.883 146.49C107.583 146.34 107.341 146.126 107.158 145.848C106.915 145.393 106.841 144.884 106.94 144.324C107.069 143.73 107.503 143.239 108.085 143.052C108.372 142.961 108.662 142.945 108.956 143.005C109.093 143.052 109.231 143.098 109.369 143.146C109.679 143.437 109.991 143.728 110.301 144.017C110.466 144.276 110.554 144.558 110.568 144.861Z" fill="#404040"/>
<path d="M122.081 155.058C121.882 155.304 121.635 155.484 121.339 155.597C121.194 155.632 121.049 155.666 120.903 155.7C120.604 155.729 120.314 155.684 120.037 155.565C119.908 155.488 119.781 155.413 119.654 155.336C119.292 155.049 119.055 154.621 119.008 154.162C118.964 153.72 119.096 153.266 119.374 152.918C119.573 152.672 119.821 152.492 120.116 152.379C120.262 152.344 120.407 152.31 120.554 152.276C120.853 152.247 121.142 152.292 121.42 152.412C121.547 152.488 121.676 152.565 121.803 152.642C122.165 152.927 122.402 153.356 122.449 153.814C122.494 154.257 122.361 154.71 122.081 155.058Z" fill="#404040"/>
<path d="M107.515 167.77C107.495 168.199 107.305 168.609 106.992 168.902C106.768 169.107 106.508 169.244 106.21 169.31C106.067 169.323 105.923 169.334 105.78 169.346C105.36 169.346 104.926 169.125 104.643 168.825C104.34 168.502 104.177 168.061 104.197 167.619C104.216 167.192 104.406 166.78 104.722 166.487C104.944 166.282 105.206 166.146 105.504 166.079C105.645 166.068 105.789 166.055 105.932 166.043C106.353 166.043 106.787 166.264 107.069 166.566C107.372 166.889 107.537 167.328 107.515 167.77Z" fill="#404040"/>
<path d="M118.786 175.513C116.468 175.513 116.497 171.939 118.815 171.939C121.133 171.939 121.104 175.513 118.786 175.513Z" fill="#404040"/>
<path d="M106.891 187.573C106.861 187.708 106.829 187.844 106.798 187.979C106.649 188.377 106.339 188.722 105.946 188.893C105.889 188.92 105.83 188.945 105.773 188.97C105.367 189.148 104.867 189.127 104.464 188.961C104.175 188.84 103.935 188.656 103.745 188.408C103.49 188.015 103.377 187.564 103.406 187.053C103.437 186.77 103.533 186.513 103.697 186.279C103.867 186.04 104.086 185.858 104.355 185.735C104.735 185.562 105.213 185.528 105.604 185.688C105.986 186.038 106.368 186.386 106.75 186.734C106.872 187.002 106.92 187.282 106.891 187.573Z" fill="#404040"/>
<path d="M116.773 191.337C115.832 191.337 114.98 190.804 114.878 189.799C114.79 188.937 115.478 187.913 116.421 187.913C117.363 187.913 118.214 188.447 118.316 189.451C118.404 190.313 117.716 191.337 116.773 191.337Z" fill="#404040"/>
<path d="M127.427 199.953C127.377 200.41 127.146 200.835 126.785 201.124C126.54 201.322 126.26 201.443 125.948 201.491C125.333 200.737 124.718 199.982 124.103 199.227C124.234 198.367 125.104 197.776 125.955 197.921C126.364 197.99 126.737 198.219 126.983 198.554C127.027 198.617 127.069 198.683 127.103 198.75C127.354 199.097 127.472 199.527 127.427 199.953Z" fill="#404040"/>
<path d="M106.217 201.086C106.228 201.454 106.115 201.816 105.903 202.114C105.902 202.119 105.902 202.127 105.898 202.132C105.756 202.435 105.545 202.683 105.269 202.876L104.844 203.092C104.541 203.197 104.231 203.222 103.915 203.17C103.284 203.062 102.691 202.598 102.495 201.98C102.361 201.556 102.347 201.058 102.494 200.631C102.651 200.174 102.936 199.794 103.374 199.566C103.804 199.341 104.251 199.33 104.713 199.437C104.794 199.455 104.874 199.473 104.953 199.493C104.957 199.493 104.962 199.493 104.966 199.495C105.002 199.503 105.039 199.512 105.075 199.521C104.952 199.505 104.826 199.487 104.701 199.471C104.679 199.47 104.659 199.468 104.638 199.466C105.023 199.511 105.36 199.614 105.667 199.894C106.002 200.199 106.203 200.635 106.217 201.086Z" fill="#404040"/>
<path d="M174.415 103.667C174.404 103.572 174.394 103.479 174.383 103.385C174.347 103.383 174.313 103.38 174.279 103.376C172.499 103.158 170.849 103.012 169.075 103.272C167.373 103.521 165.846 103.947 164.229 104.495C160.471 105.765 156.644 107.336 152.637 107.548C150.498 107.66 148.497 107.445 146.506 106.645C145.308 106.163 144.154 105.437 142.834 105.364C141.972 105.317 141.106 105.421 140.263 105.601C138.426 105.992 136.685 106.702 134.887 107.234C132.969 107.801 131.002 108.24 129.019 108.508C128.48 108.581 127.942 108.64 127.406 108.685C126.83 108.735 126.257 108.769 125.685 108.786C125.324 108.799 124.964 108.804 124.605 108.804C124.444 108.804 124.281 108.803 124.12 108.801C123.96 108.799 123.802 108.795 123.643 108.79C123.499 108.786 123.358 108.781 123.216 108.776C123.186 108.774 123.155 108.774 123.125 108.772C123.01 108.767 122.897 108.761 122.784 108.756C122.736 108.753 122.689 108.751 122.642 108.747C122.499 108.74 122.356 108.731 122.212 108.72H122.21C122.07 108.712 121.931 108.701 121.791 108.688C121.746 108.687 121.703 108.683 121.66 108.678C121.525 108.667 121.393 108.656 121.26 108.642C121.102 108.628 120.943 108.612 120.785 108.594C120.591 108.572 120.398 108.551 120.206 108.526C119.923 108.492 119.641 108.453 119.36 108.412C119.202 108.389 119.043 108.364 118.885 108.339C118.567 108.289 118.252 108.235 117.935 108.176C117.746 108.142 117.558 108.105 117.37 108.069C117.243 108.042 117.114 108.017 116.986 107.991C112.194 113.651 106.615 118.69 103.989 125.171C103.593 126.151 103.263 127.163 103.015 128.216C102.531 130.255 102.35 132.445 102.565 134.838C102.944 139.047 104.83 141.464 107.151 143.796C107.359 143.45 107.687 143.18 108.085 143.052C108.372 142.961 108.662 142.945 108.956 143.005C109.093 143.052 109.231 143.098 109.369 143.146C109.679 143.437 109.991 143.728 110.301 144.017C110.466 144.276 110.554 144.558 110.568 144.861C110.577 145.157 110.516 145.436 110.382 145.7C110.24 145.971 110.041 146.189 109.783 146.353L109.774 146.358C110.484 147.069 111.199 147.822 111.895 148.658C115.407 152.886 115.848 157.274 115.841 162.647C115.833 168.455 115.369 174.271 113.609 179.797C112.248 184.064 110.496 188.036 110.106 192.556C109.783 196.27 109.686 198.575 112.605 200.754C115.396 202.84 118.754 204.241 121.581 206.339C122.82 206.388 124.059 206.436 125.297 206.47C128.248 206.552 131.188 206.761 134.136 206.909C133.947 206.298 133.985 205.635 134.36 205.051C134.944 204.137 135.864 203.547 136.836 203.101C138.16 202.49 139.553 202.039 140.952 201.632C141.807 201.382 142.764 201.236 143.574 200.859C143.612 200.842 143.653 200.824 143.693 200.808C142.969 200.813 142.251 200.818 141.516 200.788C139.032 200.685 136.42 200.606 134.059 199.742C131.637 198.855 129.501 196.805 130.084 194.018C130.622 191.441 132.56 189.633 134.724 188.284C133.062 188.236 131.387 188.074 129.837 187.581C128.858 187.269 127.753 186.791 127.121 185.939C126.357 184.91 126.127 183.518 126.732 182.342C128.003 179.879 130.875 178.464 133.272 177.303C134.65 176.635 136.054 176.025 137.436 175.368C137.658 175.263 137.879 175.158 138.099 175.051C136.371 174.99 134.645 174.867 132.945 174.574C131.038 174.248 128.641 173.661 127.961 171.607C127.583 170.461 128.132 169.126 128.915 168.282C130.048 167.062 131.447 166.209 132.92 165.449C135.518 164.108 138.203 162.965 140.903 161.849C138.716 161.689 136.52 161.637 134.336 161.717C132.327 161.792 130.156 161.905 128.2 161.357C127.015 161.025 125.817 160.475 125.276 159.296C124.743 158.139 125.116 156.84 125.833 155.857C127.334 153.798 129.892 152.475 132.099 151.317C134.969 149.811 137.9 148.412 140.876 147.124C139.858 147.147 138.84 147.143 137.82 147.102C136.455 147.045 135.057 147.072 133.716 146.772C132.545 146.51 131.045 145.966 130.715 144.656C130.265 142.879 131.73 141.546 133.096 140.668C134.665 139.658 136.341 138.798 138.071 138.094C142.734 136.201 147.739 135.263 152.513 133.712C151.726 133.735 150.941 133.762 150.152 133.78C147.318 133.846 144.464 133.806 141.644 133.482C140.674 133.369 139.713 133.26 138.745 133.164C137.936 133.082 137.119 132.971 136.36 132.673C135.38 132.288 134.591 131.462 134.55 130.371C134.507 129.19 135.509 128.275 136.441 127.704C138.017 126.738 139.7 126.249 141.445 125.684C143.004 125.177 144.552 124.657 146.135 124.213C148.472 123.555 150.815 122.918 153.144 122.227C154.711 121.763 156.251 121.283 157.85 120.942C158.969 120.705 160.086 120.45 161.181 120.123C161.106 120.111 161.03 120.1 160.955 120.089C160.45 120.027 159.944 119.973 159.437 119.929C158.286 119.825 157.131 119.754 155.975 119.702C153.775 119.604 151.572 119.595 149.372 119.525C148.573 119.5 147.771 119.475 146.974 119.431C146.724 119.415 146.475 119.402 146.228 119.374C146.203 119.37 146.178 119.367 146.152 119.365C146.565 119.431 145.749 119.354 145.722 119.354C145.165 119.35 144.607 119.347 144.05 119.347C141.671 119.34 139.292 119.354 136.913 119.399C133.858 119.456 130.785 119.311 127.73 119.19C126.42 119.138 126.515 117.098 127.759 116.959C131.269 116.565 134.751 116.097 138.282 115.948C139.919 115.88 141.558 115.808 143.194 115.757C144.365 115.721 145.564 115.633 146.732 115.714C148.879 115.865 151.065 115.746 153.219 115.799C155.516 115.858 157.82 115.939 160.107 116.178C161.932 116.367 164.06 116.515 165.697 117.445C166.561 117.935 167.31 118.819 167.276 119.864C167.23 121.222 166.169 122.19 165.009 122.741C162.613 123.881 159.901 124.32 157.305 124.768C157.233 124.781 157.162 124.793 157.092 124.806C157.346 124.77 156.622 124.968 156.631 124.966C156.111 125.116 155.591 125.264 155.068 125.409C154.012 125.698 152.954 125.976 151.893 126.247C149.514 126.852 147.135 127.452 144.765 128.093C144.431 128.182 144.098 128.273 143.765 128.362C143.745 128.362 143.655 128.382 143.626 128.392C143.341 128.503 143.053 128.608 142.761 128.699C142.251 128.856 141.737 128.999 141.224 129.145C141.17 129.161 141.131 129.174 141.106 129.179C141.115 129.176 141.127 129.172 141.142 129.167C141.056 129.192 140.97 129.219 140.885 129.244C140.728 129.294 140.572 129.342 140.414 129.392C140.079 129.499 139.743 129.611 139.405 129.711C138.745 129.906 138.001 130.082 137.397 130.446C137.449 130.475 137.504 130.502 137.569 130.53C138.085 130.753 138.612 130.841 139.171 130.88C141.025 131.01 142.857 131.347 144.718 131.46C149.686 131.763 154.756 131.529 159.652 130.596C160.116 130.509 160.783 130.732 161.039 131.151C161.057 131.181 161.077 131.212 161.095 131.242C161.645 132.138 161.42 133.012 160.518 133.544C158.431 134.774 156.199 135.691 153.913 136.487C150.444 137.693 146.866 138.532 143.363 139.627C141.635 140.168 139.915 140.766 138.261 141.505C137.461 141.861 136.665 142.236 135.909 142.681C135.452 142.95 134.795 143.337 134.353 143.667C134.677 143.735 135.005 143.79 135.335 143.828C135.482 143.846 135.629 143.862 135.778 143.874C135.814 143.878 135.841 143.88 135.864 143.883C135.885 143.883 135.912 143.885 135.95 143.887C136.696 143.924 137.443 143.951 138.189 143.971C142.676 144.09 147.146 143.6 151.601 143.12C152.443 143.029 153.141 143.93 153.128 144.693C153.117 145.416 152.624 145.946 151.963 146.166C146.909 147.834 141.947 149.822 137.176 152.17C135.066 153.209 132.657 154.305 130.859 155.463C130.308 155.818 129.763 156.187 129.258 156.603C129.069 156.756 128.885 156.915 128.709 157.081C128.664 157.128 128.578 157.213 128.562 157.231C128.483 157.32 128.404 157.41 128.333 157.502C128.266 157.588 128.202 157.674 128.141 157.763C128.117 157.807 128.085 157.868 128.073 157.895C128.055 157.936 128.037 157.975 128.021 158.016C128.015 158.041 128.01 158.07 128.004 158.097L128.013 158.105C128.618 158.596 129.903 158.775 130.824 158.839C132.002 158.923 133.182 158.923 134.362 158.905C138.307 158.848 142.264 159.199 146.158 159.822C146.593 159.892 146.97 160.349 147.067 160.754C147.078 160.804 147.09 160.854 147.103 160.903C147.228 161.425 146.991 162.137 146.455 162.354C144.559 163.122 142.662 163.885 140.785 164.697C139.017 165.459 137.291 166.296 135.561 167.14C134.342 167.736 133.11 168.348 132.027 169.174C131.554 169.535 131.077 169.92 130.771 170.44C130.758 170.457 130.749 170.474 130.74 170.486C130.735 170.504 130.728 170.525 130.717 170.554C130.704 170.593 130.685 170.689 130.672 170.743C130.672 170.779 130.672 170.814 130.67 170.836C130.672 170.838 130.674 170.841 130.674 170.843C130.681 170.85 130.686 170.857 130.692 170.863C130.708 170.879 130.731 170.9 130.755 170.92C130.78 170.939 130.807 170.959 130.835 170.977C130.903 171.021 131.192 171.168 131.192 171.177C131.332 171.236 131.47 171.291 131.611 171.339C133.775 172.051 136.163 172.09 138.42 172.142C140.45 172.187 142.517 172.019 144.537 172.213C146.013 172.354 146.479 174.44 145.086 175.088C143.139 175.993 141.237 176.985 139.317 177.943C136.728 179.233 133.955 180.392 131.59 182.085C131.059 182.465 130.534 182.868 130.131 183.386C130.077 183.454 130.025 183.523 129.975 183.593C129.975 183.605 129.923 183.704 129.896 183.757C129.907 183.768 129.917 183.779 129.928 183.787C130 183.837 130.077 183.886 130.156 183.927C130.163 183.932 130.168 183.934 130.174 183.937C130.262 183.973 130.348 184.009 130.435 184.039C132.601 184.783 134.955 184.733 137.262 184.721C139.295 184.708 141.326 184.558 143.358 184.557C145.066 184.555 145.846 187.21 144.154 187.906C143.824 188.042 143.494 188.172 143.16 188.3C141.99 188.755 140.815 189.203 139.666 189.712C139.001 190.006 138.343 190.313 137.701 190.652C137.406 190.809 137.11 190.97 136.821 191.139C136.678 191.223 136.536 191.309 136.395 191.396C136.368 191.414 136.124 191.575 136.117 191.575C135.6 191.935 135.098 192.323 134.652 192.767C134.582 192.835 134.514 192.902 134.448 192.972C134.405 193.024 134.301 193.145 134.275 193.177C134.105 193.4 133.94 193.631 133.804 193.879C133.795 193.893 133.79 193.905 133.782 193.918C133.757 193.973 133.732 194.03 133.709 194.087C133.661 194.214 133.61 194.343 133.575 194.473C133.562 194.519 133.553 194.55 133.546 194.571C133.533 194.655 133.517 194.742 133.508 194.83C133.519 194.869 133.537 195.026 133.555 195.16C133.587 195.142 133.759 195.486 133.72 195.488C133.858 195.638 134.026 195.809 133.965 195.772C134.107 195.883 134.25 195.988 134.405 196.079C134.453 196.107 134.611 196.191 134.63 196.204C134.682 196.227 134.734 196.252 134.786 196.273C135.034 196.379 135.283 196.475 135.539 196.559C136.66 196.921 137.85 197.101 139.055 197.244C140.195 197.378 141.341 197.428 142.484 197.519C143.356 197.587 144.222 197.547 145.097 197.588C146.26 197.642 147.856 197.733 148.68 198.681C149.975 200.172 148.924 201.689 147.425 202.44C144.973 203.67 142.372 204.212 139.81 205.18C139.283 205.379 138.757 205.59 138.254 205.842C138.06 205.94 137.868 206.04 137.682 206.15C138.284 206.372 138.967 206.489 139.586 206.611C140.392 206.766 141.326 206.991 142.144 206.912C143.503 206.778 144.851 206.582 146.197 206.368C147.323 206.19 148.243 207.744 147.391 208.584C145.966 209.989 144.189 210.264 142.262 210.369C140.471 210.467 138.675 210.481 136.884 210.574C133.234 210.765 129.582 210.592 125.932 210.551C127.606 212.598 129.005 214.894 130.041 217.241C130.075 217.239 130.109 217.235 130.143 217.234C130.344 217.219 130.545 217.205 130.746 217.189C130.755 217.189 130.763 217.187 130.772 217.187C130.948 217.173 131.124 217.159 131.3 217.143C131.486 217.128 131.671 217.112 131.857 217.094C131.862 217.094 131.87 217.094 131.877 217.093C132.137 217.069 132.395 217.043 132.653 217.016C132.874 216.993 133.094 216.97 133.315 216.943C133.476 216.927 133.637 216.907 133.799 216.887C133.983 216.866 134.166 216.843 134.351 216.818C134.828 216.757 135.305 216.689 135.78 216.616C139.933 215.976 143.723 215.094 147.793 213.492C149.743 212.724 151.649 211.846 153.515 210.888C154.48 210.394 155.437 209.885 156.385 209.359C156.835 209.109 157.285 208.807 157.766 208.55C157.755 208.481 157.748 208.408 157.746 208.331C157.734 208.003 157.7 207.665 157.687 207.33C157.579 207.389 157.47 207.449 157.363 207.51C156.945 205.354 156.81 203.119 156.593 200.936C156.393 198.911 156.208 196.882 156.045 194.853C155.713 190.688 155.498 186.509 155.392 182.33C155.33 179.865 155.306 177.401 155.331 174.935C155.356 172.467 155.292 170.004 155.281 167.536C155.274 166.235 155.222 164.917 155.31 163.618C155.421 161.994 155.683 160.448 156.005 158.853C156.235 157.72 156.472 156.685 156.922 155.605C157.156 155.04 157.321 154.444 157.486 153.855C157.787 152.782 158.155 151.733 158.54 150.687C159.342 148.512 160.43 146.505 161.454 144.431C161.948 143.43 162.502 142.44 163.144 141.522C163.743 140.666 164.238 139.779 164.932 138.987C165.756 138.041 166.687 137.206 167.508 136.251C168.162 135.486 168.775 134.695 169.347 133.867C170.516 132.177 171.308 130.32 171.973 128.389C174.7 120.46 175.306 111.963 174.415 103.667ZM116.773 191.337C115.832 191.337 114.98 190.804 114.878 189.799C114.79 188.937 115.479 187.913 116.422 187.913C117.363 187.913 118.214 188.447 118.316 189.451C118.404 190.313 117.716 191.337 116.773 191.337ZM118.786 175.513C116.468 175.513 116.497 171.939 118.815 171.939C121.133 171.939 121.104 175.513 118.786 175.513ZM122.081 155.058C121.882 155.304 121.635 155.484 121.339 155.596C121.194 155.632 121.049 155.666 120.903 155.7C120.604 155.729 120.314 155.684 120.037 155.564C119.908 155.488 119.781 155.413 119.654 155.336C119.292 155.049 119.055 154.62 119.008 154.162C118.964 153.719 119.096 153.266 119.374 152.918C119.573 152.672 119.821 152.492 120.116 152.379C120.262 152.343 120.407 152.31 120.554 152.276C120.853 152.247 121.142 152.292 121.42 152.411C121.547 152.488 121.676 152.565 121.803 152.641C122.165 152.927 122.402 153.355 122.449 153.814C122.494 154.256 122.361 154.71 122.081 155.058ZM125.955 197.92C126.364 197.99 126.737 198.218 126.983 198.554C127.027 198.616 127.069 198.682 127.103 198.75C127.354 199.096 127.472 199.526 127.427 199.953C127.377 200.41 127.146 200.834 126.785 201.123C126.54 201.322 126.26 201.443 125.948 201.491C125.333 200.736 124.718 199.981 124.103 199.227C124.234 198.366 125.104 197.776 125.955 197.92ZM123.788 122.616C122.804 122.616 121.968 121.84 121.95 120.848C121.934 119.88 122.743 119.019 123.727 119.019C124.711 119.019 125.548 119.795 125.565 120.787C125.581 121.754 124.774 122.616 123.788 122.616Z" fill="#E08800"/>
<path d="M173.858 99.609C170.206 99.0059 166.495 99.8481 163.01 100.997C158.528 102.477 153.268 105.466 148.562 104.136C146.314 103.499 144.18 102.776 141.807 102.864C139.756 102.937 137.753 103.656 135.83 104.304C133.826 104.978 131.81 105.514 129.725 105.874C127.992 106.172 126.278 106.311 124.57 106.311C124.423 106.311 124.276 106.31 124.129 106.308C123.956 106.306 123.783 106.303 123.609 106.297C123.483 106.294 123.358 106.288 123.232 106.283C123.044 106.276 122.856 106.267 122.669 106.254C122.524 106.247 122.377 106.237 122.232 106.226C122.13 106.219 122.026 106.212 121.923 106.203C121.839 106.195 121.753 106.188 121.667 106.181C121.305 106.149 120.943 106.112 120.581 106.067C120.459 106.053 120.339 106.038 120.217 106.022C119.905 105.981 119.591 105.937 119.277 105.889C119.148 105.869 119.019 105.848 118.892 105.826C118.851 105.819 118.808 105.812 118.766 105.805C118.992 105.51 119.216 105.216 119.437 104.918C127.017 94.675 137.612 94.9052 149.265 93.7667C155.887 93.1189 162.174 93.06 168.628 91.0079C169.65 90.6831 170.769 90.2995 171.932 89.8569C172.07 90.5136 172.21 91.1703 172.35 91.827C172.423 92.175 172.497 92.5229 172.569 92.8727C172.642 93.2224 172.716 93.574 172.787 93.9255C172.974 94.8267 173.155 95.7278 173.327 96.6308C173.361 96.8074 173.395 96.9841 173.427 97.1625C173.467 97.366 173.504 97.5694 173.54 97.7728C173.578 97.9762 173.614 98.1815 173.65 98.3849C173.721 98.7917 173.791 99.2004 173.858 99.609Z" fill="#CCB37F"/>
</g>
<defs>
<linearGradient id="paint0_linear_484_1039" x1="0" y1="0" x2="256" y2="256" gradientUnits="userSpaceOnUse">
<stop stop-color="#E0A953"/>
<stop offset="1" stop-color="white"/>
</linearGradient>
<clipPath id="clip0_484_1039">
<rect width="99.84" height="194.56" fill="white" transform="translate(79.36 33.2798)"/>
</clipPath>
</defs>
</svg>
