<svg width="64" height="64" viewBox="0 0 64 64" fill="none" xmlns="http://www.w3.org/2000/svg">
<rect width="64" height="64" fill="url(#paint0_linear_484_1016)"/>
<g clip-path="url(#clip0_484_1016)">
<path d="M44.7074 26.5655C44.6343 25.9383 44.4596 25.3338 44.322 24.7195C44.0705 23.5953 43.7797 22.4813 43.4942 21.3656C43.3758 20.903 43.2441 20.4435 43.1249 19.9808C43.0989 19.8796 43.0697 19.781 43.0361 19.6846C43.37 19.6811 43.7008 19.6115 43.9432 19.441C44.2816 19.2028 44.4748 18.8339 44.4609 18.423C44.4488 18.0697 44.1745 17.7512 43.9128 17.5419C43.9074 17.5375 43.9011 17.5335 43.8953 17.529C43.9531 17.4888 44.0082 17.4433 44.0602 17.3911C44.3125 17.1355 44.3896 16.8049 44.361 16.457C44.3296 16.0787 44.1104 15.7191 43.8809 15.4282C43.6945 15.1922 43.474 14.9777 43.219 14.8202C43.6358 14.3174 43.7985 13.5523 43.5811 12.9411C43.3436 12.2742 42.6569 11.9061 41.9676 11.9173C41.6777 11.9222 41.3953 11.9829 41.1241 12.0801C41.169 11.9592 41.2053 11.8352 41.2295 11.7072C41.342 11.1103 41.1044 10.5375 40.6343 10.1596C40.1879 9.80048 39.638 9.64835 39.0732 9.77014C38.738 9.84286 38.4377 10.0173 38.1706 10.2314C38.2311 9.64032 38.0088 9.02736 37.4589 8.72133C36.9609 8.44429 36.3447 8.47552 35.8333 8.69456C35.5648 8.8101 35.3215 8.98721 35.1099 9.18663C34.9956 9.29459 34.8943 9.41548 34.8007 9.54129C34.7975 9.54575 34.7948 9.54976 34.7917 9.55422C34.7671 9.33964 34.7451 9.11837 34.6599 8.91896C34.4551 8.44027 33.898 8.28592 33.422 8.32651C32.9151 8.36979 32.4284 8.59686 32.0161 8.88327C31.8494 8.99926 31.675 9.14558 31.5271 9.31466C31.45 9.14157 31.3581 8.97561 31.2322 8.82795C30.9337 8.47641 30.4887 8.36176 30.0405 8.42466C29.426 8.51031 29.0087 8.96401 28.8348 9.51407C28.6605 9.25354 28.4481 9.02112 28.1823 8.84401C27.7507 8.55671 27.2389 8.54333 26.766 8.73114C26.4976 8.83776 26.2694 9.01978 26.0471 9.19822C25.8064 9.39139 25.6128 9.63586 25.4667 9.90576C25.3255 10.1681 25.2431 10.4643 25.2104 10.7592C25.2041 10.8163 25.2009 10.8734 25.1992 10.9309C25.0867 10.8261 24.9656 10.7324 24.8316 10.6579C24.4086 10.4228 23.9478 10.5098 23.5574 10.7668C23.0837 11.079 22.6664 11.5698 22.4594 12.0971C22.3487 12.3804 22.3101 12.677 22.3366 12.9791C22.3451 13.075 22.3603 13.1691 22.3783 13.2623C22.2698 13.2971 22.1699 13.3667 22.0865 13.4399C21.9121 13.5934 21.7728 13.7758 21.6437 13.9668C21.4044 14.3214 21.2282 14.7162 21.07 15.1119C20.845 15.6745 20.8732 16.4173 21.2157 16.9227C21.4837 17.3189 21.9305 17.5473 22.3975 17.6833C22.3204 17.781 22.2613 17.8939 22.2286 18.0264C22.1959 18.1571 22.1923 18.2954 22.2021 18.4297C22.2071 18.4993 22.2124 18.5684 22.2187 18.638C22.1452 18.6474 22.0762 18.6862 22.0318 18.7629C21.4044 19.8528 21.0167 21.0939 20.6953 22.3038C20.3879 23.4628 20.1741 24.6499 20.0203 25.8383C19.9415 26.4495 19.8626 27.0643 19.8456 27.6812C19.8299 28.2478 19.85 28.8144 19.8886 29.3796C19.9688 30.5453 20.1745 31.6874 20.5394 32.7982C20.7285 33.3746 20.9064 33.9782 21.2058 34.509C21.5236 35.0734 21.8942 35.5918 22.277 36.1137C22.372 36.2431 22.4921 36.3528 22.5853 36.4844C22.6611 36.5911 22.735 36.699 22.8072 36.8079C22.9506 37.0229 23.0824 37.2393 23.1953 37.4713C23.427 37.9486 23.5816 38.4532 23.7103 38.9662C23.7766 39.2321 23.8255 39.506 23.8586 39.7781C23.8797 39.9526 23.86 40.1395 23.8524 40.3144C23.8438 40.5124 23.8506 40.7096 23.8461 40.9077C23.8295 41.6344 23.6892 42.3571 23.5323 43.0651C23.2419 44.3785 22.9968 45.7012 22.7583 47.0253C22.4796 48.5733 22.2084 50.1222 21.9296 51.6702C21.8969 51.763 21.8758 51.8594 21.8763 51.9673C21.8776 52.1378 21.9408 52.2961 22.0493 52.4108C22.0968 52.5651 22.169 52.7137 22.2581 52.8556C22.3671 53.5845 22.6189 54.2845 22.9882 54.9251C23.2881 55.4457 23.8219 55.8151 24.3503 56.0796C24.8957 56.3527 25.4743 56.5284 26.0722 56.6453C28.405 57.1008 30.7966 56.9884 33.1482 56.7684C34.7429 56.6194 36.3644 56.3924 37.8878 55.8851C38.6103 55.6442 39.3417 55.3471 39.9109 54.8287C40.1278 54.6311 40.3134 54.3969 40.4577 54.1422C40.5487 53.982 40.6253 53.8129 40.6872 53.6394C40.7678 53.4917 40.8288 53.3374 40.8691 53.1763C40.9014 53.0554 40.9077 52.9305 40.9202 52.8065C40.9373 52.6338 40.8418 52.4643 40.7616 52.318C40.736 52.2716 40.6993 52.2314 40.6558 52.198C40.6656 52.1668 40.6737 52.1364 40.6795 52.1056C40.7271 52.0374 40.7562 51.9517 40.7566 51.8478C40.7571 51.618 40.7571 51.3878 40.7575 51.1581C40.758 50.9805 40.6374 50.8293 40.4805 50.7615C40.4514 50.5054 40.4236 50.2489 40.3972 49.9924C40.3416 49.4562 40.2919 48.9186 40.2475 48.381C40.1525 47.2318 40.0763 46.0817 40.027 44.9294C39.997 44.2277 39.9844 43.5259 39.9477 42.8246C39.9194 42.2795 39.8701 41.7366 39.8522 41.191C39.841 40.8649 39.8181 40.5396 39.8087 40.214C39.8033 40.04 39.7805 39.8687 39.785 39.6938C39.7903 39.4819 39.811 39.278 39.7935 39.067C39.7693 38.7766 39.8777 38.4674 39.9642 38.1944C40.0512 37.9209 40.1785 37.6617 40.3022 37.403C40.4115 37.175 40.5379 36.9538 40.6643 36.7347C40.8449 36.422 41.0816 36.1499 41.3025 35.8657C41.6965 35.3589 42.2218 34.9632 42.6973 34.5354C43.1526 34.1258 43.5112 33.6485 43.8052 33.1158C44.0764 32.6251 44.231 32.0443 44.3762 31.5054C44.6724 30.407 44.7921 29.2899 44.8002 28.155C44.8038 27.6246 44.7688 27.0919 44.7074 26.5655ZM21.8664 16.7786C21.6217 16.6229 21.4375 16.4632 21.3268 16.2C21.2179 15.9413 21.2659 15.6254 21.3196 15.3595C21.3806 15.0593 21.5729 14.7604 21.7288 14.5021C21.84 14.3178 21.961 14.1403 22.1013 13.9766C22.1582 13.9101 22.2196 13.8476 22.2891 13.7937C22.3178 13.7714 22.411 13.7513 22.411 13.7508C22.4132 13.7508 22.415 13.7504 22.4173 13.7504C22.4468 13.8039 22.4773 13.8606 22.497 13.9155C22.623 14.2683 23.1344 14.1987 23.146 13.8186C23.1527 13.5925 23.0927 13.3899 23.0479 13.1704C23.003 12.9501 22.9977 12.7208 23.0429 12.5004C23.1375 12.0391 23.5274 11.6001 23.9003 11.332C23.9608 11.2887 24.0343 11.2405 24.0998 11.2133C24.1652 11.1861 24.2315 11.1709 24.2665 11.1683C24.3969 11.1576 24.4525 11.1839 24.5775 11.2624C24.8626 11.4417 25.0965 11.7723 25.3233 12.0409C25.5192 12.2724 25.9696 12.1002 25.8835 11.7803C25.8396 11.618 25.7518 11.4694 25.724 11.303C25.7065 11.1968 25.6966 11.0898 25.6913 10.9827C25.6796 10.7694 25.6944 10.5522 25.7356 10.343C25.8311 9.86383 26.1242 9.44002 26.5285 9.16833C26.9175 8.90736 27.376 8.80921 27.8098 9.01532C28.2742 9.23659 28.5668 9.76345 28.7631 10.2118C28.8407 10.3889 29.1383 10.338 29.1423 10.1409C29.1531 9.62159 29.3314 8.94617 29.9195 8.80966C30.2659 8.72936 30.6563 8.83732 30.8396 9.15183C31.0269 9.47259 31.0771 9.86472 31.1721 10.2185C31.2591 10.5401 31.7346 10.516 31.8126 10.2029C31.9717 9.56493 32.8273 9.08268 33.4799 8.99792C33.7685 8.96044 34.0311 9.02245 34.1132 9.316C34.2171 9.68984 34.1293 10.1275 34.4211 10.4317C34.5492 10.566 34.7913 10.5571 34.889 10.3885C34.9683 10.2511 34.9647 10.0918 35.044 9.94993C35.1072 9.83617 35.1825 9.73044 35.2645 9.62962C35.4093 9.45117 35.5837 9.29771 35.7737 9.16833C36.1784 8.89308 36.6781 8.81055 37.146 8.95509C38.0738 9.24194 37.8582 10.2899 37.6341 10.9898C37.5978 11.1036 37.7766 11.1968 37.8474 11.0987C38.0003 10.8877 38.1016 10.6387 38.1491 10.38C38.4068 10.1792 38.69 10.016 39.01 9.92985C39.4815 9.80316 39.9172 9.99365 40.2403 10.3394C40.6087 10.7329 40.7651 11.2165 40.5738 11.7304C40.4254 12.1279 40.1785 12.4651 39.9037 12.7859C39.6492 13.083 40.0485 13.4974 40.364 13.2784C40.7795 12.9898 41.2469 12.7417 41.7485 12.6476C41.9784 12.6043 42.2079 12.6257 42.427 12.7042C42.6188 12.7725 42.7694 12.922 42.847 13.0527C42.886 13.1191 42.8922 13.1379 42.9209 13.24C42.9519 13.348 42.9496 13.3551 42.9536 13.4814C42.9599 13.6768 42.9254 13.8276 42.8483 14.0377C42.799 14.1729 42.6843 14.3388 42.5655 14.4588C42.5198 14.5052 42.4835 14.5329 42.4149 14.5748C42.2984 14.5779 42.1819 14.5976 42.0761 14.6333C41.7879 14.7305 41.7592 15.1432 42.0062 15.2993C42.1993 15.4215 42.4342 15.3787 42.6489 15.2739C42.6677 15.2801 42.6861 15.2859 42.7031 15.2913C42.8779 15.3457 43.0384 15.4858 43.1683 15.608C43.3915 15.8177 43.5825 16.0706 43.6896 16.3588C43.725 16.4552 43.7312 16.5582 43.7286 16.6372C43.7272 16.66 43.7254 16.6827 43.7223 16.705C43.7218 16.7108 43.7214 16.7153 43.7209 16.7197C43.7191 16.7238 43.716 16.7327 43.7111 16.7496C43.7044 16.7751 43.694 16.7991 43.6842 16.8232C43.6887 16.8067 43.6542 16.8723 43.6515 16.8759C43.5125 17.0891 43.175 17.1128 42.9438 17.1079C42.5646 17.1003 42.4024 17.6851 42.8035 17.7877C43.0209 17.8435 43.2279 17.9082 43.418 18.0309C43.5807 18.1357 43.7402 18.2843 43.7702 18.4373C43.7877 18.5283 43.7702 18.5698 43.7286 18.6621C43.6663 18.8004 43.5157 18.8794 43.3727 18.9017C43.2226 18.9249 43.0693 18.9075 42.9191 18.8937C42.8187 18.8843 42.7183 18.8673 42.618 18.8553C42.5897 18.8517 42.5624 18.8508 42.5355 18.8513C42.5332 18.8486 42.531 18.8459 42.5283 18.8437C42.4006 18.717 42.215 18.8004 42.1451 18.9334C42.0712 18.9646 42.0196 19.0244 41.9905 19.0953C41.917 19.1051 41.8457 19.1381 41.7812 19.1863C41.2617 19.5735 40.5545 19.5981 39.949 19.7725C39.9526 19.7689 39.9347 19.7703 39.8598 19.7841C39.7863 19.7979 39.7128 19.8118 39.6393 19.8256C39.4941 19.8533 39.3493 19.8818 39.2037 19.9072C38.9146 19.9568 38.6268 20.0143 38.3382 20.0647C37.2366 20.2579 36.1269 20.4042 35.0127 20.5046C32.8645 20.6982 30.698 20.6995 28.5471 20.5389C27.3392 20.4488 26.1399 20.2829 24.9482 20.0696C24.5143 19.992 24.0791 19.9077 23.6592 19.7707C23.4562 19.7047 23.2572 19.6213 23.0721 19.5146C22.8829 19.4062 22.735 19.2746 22.5898 19.1274C22.6633 18.9762 22.7265 18.8321 22.7256 18.6599C22.7252 18.5323 22.722 18.3998 22.7435 18.2736C22.7606 18.1705 22.7919 18.108 22.8462 18.038C22.9309 17.9287 23.1254 17.8613 23.263 17.8149C23.5619 17.7146 23.5099 17.2818 23.2128 17.2234C22.7561 17.1333 22.264 17.0311 21.8664 16.7786ZM21.2824 23.8366C21.4048 23.0091 21.5693 22.1887 21.7674 21.3758C21.8942 20.8543 22.0592 20.3462 22.2299 19.839C22.8654 20.7031 24.2553 20.961 25.2166 21.1978C26.3662 21.4807 27.5669 21.6114 28.7443 21.7122C31.0027 21.9063 33.2697 21.9049 35.5258 21.6796C36.6777 21.5646 37.8241 21.3941 38.9621 21.1804C39.5134 21.0769 40.0494 20.9471 40.5886 20.7941C41.2913 20.5951 42.0586 20.3315 42.3446 19.603C42.3634 19.6079 42.3827 19.6123 42.4019 19.6168C42.4947 19.8805 42.5341 20.1673 42.5785 20.4408C42.6758 21.0355 42.8066 21.6234 42.9303 22.2132C42.9478 22.2966 42.9653 22.3805 42.9832 22.4644C43.0177 22.6285 43.0527 22.7927 43.0877 22.9569C43.106 23.0439 43.1244 23.1309 43.1423 23.2183C43.1607 23.3057 43.1791 23.3936 43.197 23.4815C43.2436 23.7068 43.2889 23.9321 43.3319 24.1578C43.3404 24.202 43.3489 24.2466 43.357 24.2908C43.3669 24.3416 43.3763 24.3925 43.3852 24.4433C43.3947 24.4946 43.4036 24.5455 43.4126 24.5964C43.4305 24.6981 43.448 24.8002 43.4646 24.9024C42.5516 24.7516 41.6239 24.9622 40.7526 25.2495C39.6321 25.6193 38.3171 26.3665 37.1407 26.0342C36.5786 25.8749 36.0453 25.6942 35.4519 25.7161C34.9392 25.7344 34.4385 25.9142 33.9576 26.0761C33.4566 26.2448 32.9528 26.3786 32.4316 26.4687C31.9982 26.5432 31.5697 26.578 31.1426 26.578C31.1058 26.578 31.0691 26.5776 31.0323 26.5771C30.9893 26.5767 30.9458 26.5758 30.9023 26.5744C30.871 26.5735 30.8396 26.5722 30.8082 26.5709C30.7612 26.5691 30.7141 26.5668 30.6675 26.5637C30.6312 26.5619 30.5944 26.5593 30.5581 26.5566C30.5326 26.5548 30.5066 26.553 30.481 26.5508C30.46 26.549 30.4385 26.5472 30.417 26.5454C30.3264 26.5374 30.2359 26.528 30.1453 26.5169C30.1153 26.5138 30.0848 26.5097 30.0544 26.5057C29.9764 26.4955 29.8979 26.4843 29.8195 26.4723C29.7872 26.4674 29.755 26.462 29.7232 26.4567C29.7128 26.4549 29.7021 26.4531 29.6918 26.4513C29.5421 26.4259 29.3924 26.3969 29.2423 26.3648C27.6579 26.0244 26.1296 25.4605 24.5072 25.3043C23.8797 25.2441 23.2477 25.2321 22.6207 25.1683C22.1094 25.1161 21.5971 24.9889 21.1601 24.7132C21.1982 24.4206 21.2394 24.1284 21.2824 23.8366ZM39.737 53.2959C39.6868 53.4645 39.6276 53.5916 39.5586 53.705C39.5165 53.7746 39.4654 53.8392 39.4148 53.9026C39.4089 53.9102 39.3798 53.9427 39.3664 53.9579C39.3453 53.9793 39.3242 54.0003 39.3032 54.0208C39.2404 54.0815 39.1736 54.1377 39.106 54.1926C39.0773 54.2158 39.0477 54.2381 39.0181 54.2599C39.0195 54.2586 39.0199 54.2577 39.0204 54.2573C39.0141 54.259 38.9195 54.3237 38.9074 54.3313C38.5022 54.5878 38.0402 54.7529 37.5879 54.9072C37.1093 55.0705 36.619 55.1981 36.1251 55.3065C34.0921 55.7531 31.9524 55.8954 29.8478 55.9708C29.0347 55.9998 28.2177 55.977 27.4069 55.9092C26.7109 55.8508 26.0135 55.7852 25.33 55.6375C25.0387 55.5746 24.7546 55.4921 24.4771 55.3828C24.1177 55.2414 23.8156 55.0375 23.514 54.8037C23.0698 54.4602 22.8551 53.941 22.709 53.398C22.887 53.5698 23.0801 53.7215 23.2661 53.8482C23.6336 54.0984 24.037 54.2947 24.4498 54.4589C25.2099 54.7623 26.0252 54.9229 26.8247 55.0857C28.8819 55.505 31.0426 55.6246 33.1325 55.4252C34.5206 55.2927 35.8624 54.9706 37.1671 54.4857C37.7345 54.2746 38.2849 54.0159 38.8227 53.7389C39.0952 53.5979 39.3641 53.4502 39.6308 53.299C39.664 53.2803 39.7007 53.2611 39.7388 53.241C39.7392 53.2687 39.7388 53.2901 39.737 53.2959ZM42.9935 32.0973C42.8273 32.58 42.6292 33.0444 42.3369 33.4669C42.194 33.6739 42.0407 33.8715 41.8771 34.0629C41.6718 34.3016 41.4392 34.5104 41.2331 34.7468C41.0596 34.9449 40.9359 35.1666 40.7862 35.3808C40.6258 35.6101 40.4873 35.8577 40.3636 36.1079C40.1077 36.6263 39.8356 37.1282 39.6353 37.672C39.5389 37.9334 39.447 38.1957 39.3717 38.4639C39.3305 38.6111 39.2893 38.7601 39.2306 38.9015C39.1181 39.1714 39.0589 39.4302 39.0015 39.7134C38.9209 40.1123 38.8554 40.4986 38.8276 40.9046C38.8057 41.2293 38.8187 41.559 38.8205 41.8842C38.8232 42.5012 38.8393 43.1169 38.833 43.7338C38.8267 44.3504 38.8326 44.9664 38.8482 45.5825C38.8747 46.6273 38.9285 47.6721 39.0114 48.7134C39.0522 49.2206 39.0983 49.7278 39.1485 50.2342C39.2028 50.7798 39.2364 51.3388 39.3408 51.8777C39.3677 51.8625 39.395 51.8473 39.4219 51.8326C39.4251 51.9165 39.4336 52.0008 39.4367 52.0829C39.4372 52.1021 39.439 52.1204 39.4416 52.1378C39.3215 52.202 39.209 52.2774 39.0965 52.3398C38.8595 52.4714 38.6201 52.5986 38.379 52.7222C37.9124 52.9617 37.436 53.1812 36.9484 53.3731C35.931 53.7737 34.9835 53.994 33.9451 54.1542C33.8263 54.1725 33.7071 54.1894 33.5879 54.2046C33.5417 54.2109 33.496 54.2167 33.4498 54.222C33.4095 54.2269 33.3692 54.2318 33.3288 54.2358C33.2737 54.2425 33.2186 54.2483 33.1634 54.2541C33.0989 54.2608 33.0344 54.2675 32.9694 54.2733C32.9676 54.2738 32.9658 54.2738 32.9644 54.2738C32.9178 54.2782 32.8717 54.2822 32.8251 54.2858C32.7811 54.2898 32.7372 54.2934 32.6933 54.297C32.6911 54.297 32.6888 54.2974 32.6866 54.2974C32.6364 54.3014 32.5862 54.305 32.536 54.3086C32.5275 54.309 32.5189 54.3099 32.5104 54.3103C32.4665 54.313 32.4221 54.3161 32.3782 54.3188C32.1259 54.3349 31.8731 54.3442 31.6203 54.35C31.3411 54.3563 31.1094 54.3554 30.8862 54.3509C29.8419 54.3286 28.8008 54.2242 27.7686 54.0703C26.8391 53.932 25.8974 53.7527 25.0037 53.4583C24.6304 53.3351 24.2651 53.2017 23.9196 53.0121C23.7125 52.8984 23.5158 52.7645 23.3298 52.6191C23.1998 52.5178 23.0868 52.4027 22.9757 52.2868C23.0187 52.2091 23.0488 52.1217 23.0653 52.0294C23.4736 49.7095 23.8497 47.3813 24.1813 45.0494C24.2831 44.3321 24.3799 43.6147 24.4758 42.8965C24.5116 42.6306 24.5367 42.3625 24.5448 42.0944C24.5578 41.6812 24.5197 41.2748 24.4825 40.864C24.4516 40.5271 24.3736 40.2117 24.2772 39.8883C24.1939 39.6077 24.1311 39.3209 24.0549 39.038C23.9169 38.5272 23.7488 38.0191 23.5453 37.5301C23.3562 37.0773 23.133 36.6379 22.9143 36.1989C22.8282 36.0272 22.7682 35.8434 22.6794 35.6721C22.5997 35.5182 22.5208 35.3643 22.4401 35.2108C22.29 34.9239 22.1483 34.625 22.0215 34.3266C21.5186 33.1439 21.2959 31.8435 21.0942 30.5814C20.7993 28.7372 20.8925 26.8831 21.1184 25.0411C21.3264 25.2829 21.6491 25.4163 21.9619 25.5096C22.3922 25.6371 22.8502 25.6818 23.2962 25.7183C24.2028 25.7924 25.0988 25.8995 25.983 26.1198C27.0036 26.3741 28.0003 26.7154 29.0262 26.9501C29.0997 26.967 29.1732 26.9831 29.2467 26.9978C29.2786 27.0045 29.3108 27.0107 29.3426 27.0174C29.3897 27.0263 29.4368 27.0357 29.4838 27.0442C29.5632 27.0589 29.642 27.0727 29.7214 27.0848C29.7608 27.091 29.8007 27.0973 29.8401 27.1031C29.9105 27.1133 29.9809 27.1232 30.0517 27.1316C30.0996 27.1379 30.148 27.1432 30.1964 27.1486C30.2359 27.153 30.2758 27.1571 30.3152 27.1606C30.3484 27.1642 30.3815 27.1669 30.4152 27.1695C30.4259 27.1709 30.4367 27.1718 30.4479 27.1722C30.4828 27.1753 30.5178 27.178 30.5528 27.1803H30.5532C30.5891 27.1829 30.6249 27.1852 30.6608 27.1869C30.6724 27.1878 30.6841 27.1883 30.6962 27.1892C30.7244 27.1905 30.7526 27.1919 30.7813 27.1932C30.7889 27.1936 30.7966 27.1936 30.8042 27.1941C30.8396 27.1954 30.875 27.1968 30.9109 27.1977C30.9507 27.199 30.9902 27.1999 31.0301 27.2003C31.0704 27.2008 31.1112 27.2012 31.1515 27.2012C31.2412 27.2012 31.3313 27.1999 31.4213 27.1968C31.5643 27.1923 31.7077 27.1838 31.8516 27.1713C31.9856 27.1602 32.1201 27.1455 32.255 27.1272C32.7507 27.0603 33.2423 26.9505 33.7219 26.8086C34.1714 26.6757 34.6066 26.4981 35.066 26.4004C35.2766 26.3554 35.4931 26.3295 35.7087 26.3411C36.0386 26.3594 36.3272 26.541 36.6266 26.6614C37.1245 26.8613 37.6247 26.9153 38.1594 26.8872C39.1611 26.8341 40.118 26.4415 41.0574 26.1239C41.4616 25.9869 41.8435 25.8803 42.2688 25.8183C42.7125 25.7531 43.1249 25.7897 43.5699 25.8441C43.5784 25.845 43.5869 25.8459 43.5959 25.8464C43.5986 25.87 43.6013 25.8932 43.604 25.9169C43.8267 27.9908 43.6752 30.1153 42.9935 32.0973Z" fill="#404040"/>
<path d="M39.7368 53.2956C39.6866 53.4642 39.6275 53.5914 39.5585 53.7047C39.5163 53.7743 39.4652 53.839 39.4146 53.9023C39.4088 53.9099 39.3796 53.9425 39.3662 53.9576C39.3451 53.979 39.3241 54 39.303 54.0205C39.2403 54.0812 39.1735 54.1374 39.1058 54.1923C39.0771 54.2155 39.0475 54.2378 39.018 54.2597C39.0193 54.2583 39.0197 54.2574 39.0202 54.257C39.0139 54.2588 38.9193 54.3234 38.9072 54.331C38.5021 54.5875 38.04 54.7526 37.5878 54.907C37.1091 55.0702 36.6188 55.1978 36.1249 55.3062C34.0919 55.7528 31.9523 55.8951 29.8476 55.9705C29.0346 55.9995 28.2175 55.9768 27.4068 55.9089C26.7107 55.8505 26.0133 55.7849 25.3299 55.6373C25.0385 55.5744 24.7544 55.4918 24.477 55.3825C24.1175 55.2411 23.8154 55.0372 23.5138 54.8035C23.0697 54.46 22.855 53.9407 22.7089 53.3978C22.8868 53.5695 23.08 53.7212 23.266 53.8479C23.6335 54.0982 24.0368 54.2944 24.4496 54.4586C25.2097 54.762 26.025 54.9226 26.8246 55.0854C28.8817 55.5048 31.0425 55.6243 33.1324 55.4249C34.5204 55.2924 35.8623 54.9703 37.1669 54.4854C37.7343 54.2744 38.2847 54.0156 38.8225 53.7386C39.095 53.5976 39.364 53.45 39.6306 53.2987C39.6638 53.28 39.7005 53.2608 39.7386 53.2407C39.7391 53.2684 39.7386 53.2898 39.7368 53.2956Z" fill="white"/>
<path d="M43.6038 25.9167C43.6012 25.8931 43.5985 25.8699 43.5958 25.8463C43.5868 25.8458 43.5783 25.8449 43.5698 25.844C43.1247 25.7896 42.7124 25.753 42.2687 25.8181C41.8434 25.8802 41.4615 25.9868 41.0572 26.1237C40.1178 26.4414 39.161 26.834 38.1593 26.887C37.6246 26.9151 37.1244 26.8612 36.6265 26.6613C36.3271 26.5409 36.0384 26.3593 35.7086 26.341C35.493 26.3294 35.2765 26.3553 35.0659 26.4003C34.6065 26.498 34.1713 26.6756 33.7218 26.8085C33.2422 26.9504 32.7505 27.0601 32.2548 27.1271C31.2388 27.2645 30.2429 27.2042 29.2466 26.9977C29.1731 26.983 29.0996 26.9669 29.0261 26.9499C28.0002 26.7153 27.0034 26.374 25.9829 26.1197C25.0986 25.8993 24.2027 25.7923 23.296 25.7182C22.8501 25.6816 22.392 25.637 21.9618 25.5094C21.6489 25.4162 21.3262 25.2828 21.1183 25.041C20.8924 26.883 20.7992 28.7371 21.0941 30.5813C21.2958 31.8434 21.5185 33.1438 22.0214 34.3265C22.1482 34.6249 22.2898 34.9238 22.44 35.2107C22.5207 35.3641 22.5995 35.518 22.6793 35.672C22.7681 35.8433 22.8281 36.0271 22.9142 36.1988C23.1329 36.6378 23.3561 37.0772 23.5452 37.53C23.7487 38.019 23.9168 38.5271 24.0548 39.0379C24.131 39.3207 24.1937 39.6076 24.2771 39.8882C24.3735 40.2116 24.4515 40.527 24.4824 40.8638C24.5196 41.2747 24.5577 41.6811 24.5447 42.0942C24.5366 42.3624 24.5115 42.6305 24.4757 42.8964C24.3797 43.6146 24.2829 44.332 24.1812 45.0493C23.8495 47.3812 23.4735 49.7094 23.0652 52.0292C23.0486 52.1216 23.0186 52.209 22.9756 52.2866C23.0867 52.4026 23.1997 52.5177 23.3296 52.619C23.5156 52.7644 23.7124 52.8983 23.9195 53.012C24.265 53.2016 24.6303 53.335 25.0036 53.4581C25.8973 53.7526 26.8389 53.9319 27.7685 54.0702C28.8007 54.2241 29.8418 54.3285 30.8861 54.3508C31.1093 54.3553 31.341 54.3562 31.6202 54.3499C31.873 54.3441 32.1258 54.3348 32.3781 54.3187C32.422 54.316 32.4664 54.3129 32.5103 54.3102C32.9903 54.2772 33.4694 54.2272 33.945 54.1541C34.9834 53.9939 35.9309 53.7735 36.9483 53.3729C37.4359 53.1811 37.9123 52.9616 38.3789 52.7221C38.62 52.5985 38.8593 52.4713 39.0964 52.3397C39.2089 52.2773 39.3214 52.2019 39.4415 52.1376C39.4388 52.1202 39.437 52.102 39.4366 52.0828C39.4335 52.0007 39.4249 51.9164 39.4218 51.8325C39.3949 51.8472 39.3676 51.8624 39.3407 51.8776C39.2363 51.3386 39.2026 50.7797 39.1484 50.2341C39.0982 49.7277 39.0521 49.2205 39.0113 48.7133C38.9284 47.672 38.8746 46.6272 38.8481 45.5824C38.8324 44.9663 38.8266 44.3502 38.8329 43.7337C38.8392 43.1167 38.823 42.5011 38.8203 41.8841C38.8186 41.5589 38.8056 41.2292 38.8275 40.9044C38.8553 40.4985 38.9207 40.1121 39.0014 39.7133C39.0588 39.43 39.1179 39.1713 39.2304 38.9014C39.2891 38.76 39.3304 38.611 39.3716 38.4637C39.4469 38.1956 39.5388 37.9333 39.6351 37.6719C39.8355 37.1281 40.1075 36.6262 40.3635 36.1078C40.4872 35.8575 40.6256 35.6099 40.7861 35.3806C40.9358 35.1665 41.0595 34.9448 41.2329 34.7467C41.4391 34.5103 41.6717 34.3015 41.877 34.0628C42.0406 33.8714 42.1939 33.6738 42.3368 33.4668C42.629 33.0443 42.8271 32.5799 42.9934 32.0972C43.6751 30.1151 43.8266 27.9907 43.6038 25.9167ZM24.3228 29.777C24.3067 29.847 24.2865 29.9447 24.2547 29.9951C24.2395 30.0134 24.2247 30.0317 24.2094 30.05C24.2063 30.0536 24.2027 30.0567 24.1996 30.0603C24.1081 30.1508 23.949 30.1535 23.8455 30.0852C23.8079 30.0634 23.7738 30.0362 23.7442 30.0036C23.6931 29.9737 23.6815 29.9474 23.7093 29.9251C23.6317 29.8359 23.6272 29.6882 23.6738 29.5847C23.7227 29.4767 23.828 29.4 23.9463 29.3866C24.0678 29.3728 24.1897 29.4263 24.2614 29.524C24.3112 29.5918 24.343 29.6931 24.3228 29.777ZM30.9318 29.7547C31.1779 29.7547 31.3872 29.9487 31.3912 30.1968C31.3952 30.4386 31.1935 30.654 30.947 30.654C30.701 30.654 30.4921 30.46 30.4876 30.2119C30.4836 29.9701 30.6857 29.7547 30.9318 29.7547ZM31.4889 49.4801C31.5911 49.4975 31.6843 49.5546 31.7457 49.6385C31.7569 49.6541 31.7672 49.6706 31.7757 49.6876C31.8385 49.7741 31.8681 49.8816 31.8569 49.9883C31.8443 50.1025 31.7865 50.2086 31.6964 50.2809C31.635 50.3304 31.5651 50.3608 31.4871 50.3728C31.3334 50.1841 31.1796 49.9954 31.0259 49.8067C31.0586 49.5917 31.276 49.444 31.4889 49.4801ZM29.8436 38.2295C29.8933 38.168 29.9552 38.1229 30.0291 38.0948C30.0654 38.0859 30.1018 38.0774 30.1385 38.0689C30.2134 38.0618 30.2855 38.0729 30.355 38.1028C30.3868 38.122 30.4191 38.1412 30.4509 38.1604C30.5414 38.2318 30.6006 38.3388 30.6122 38.4535C30.6234 38.5641 30.5903 38.6774 30.5204 38.7644C30.4706 38.826 30.4088 38.8711 30.3348 38.8992C30.2985 38.9081 30.2622 38.9166 30.2259 38.925C30.1511 38.9322 30.0784 38.921 30.0094 38.8911C29.9772 38.8719 29.9453 38.8532 29.9135 38.834C29.823 38.7622 29.7638 38.6551 29.7522 38.5405C29.741 38.4298 29.7741 38.3165 29.8436 38.2295ZM25.8516 46.7633C25.8592 46.6924 25.8834 46.6281 25.9242 46.5697C25.9668 46.5099 26.0215 46.4644 26.0887 46.4336C26.1837 46.3903 26.3034 46.3819 26.4011 46.422C26.4965 46.5094 26.592 46.5964 26.6875 46.6834C26.7179 46.7503 26.73 46.8204 26.7229 46.8931C26.7152 46.927 26.7072 46.9609 26.6996 46.9948C26.6624 47.0943 26.5848 47.1804 26.4867 47.2232C26.4723 47.2299 26.4575 47.2362 26.4432 47.2424C26.3419 47.287 26.2169 47.2817 26.116 47.2402C26.0439 47.2098 25.9838 47.1639 25.9363 47.1019C25.8727 47.0037 25.8444 46.8909 25.8516 46.7633ZM26.5526 42.3276C26.5167 42.3307 26.4808 42.3334 26.445 42.3365C26.3401 42.3365 26.2317 42.2812 26.1608 42.2062C26.0851 42.1255 26.0443 42.0153 26.0492 41.9046C26.0542 41.798 26.1017 41.695 26.1806 41.6218C26.2361 41.5705 26.3016 41.5366 26.376 41.5196C26.4114 41.517 26.4472 41.5138 26.4831 41.5107C26.5884 41.5107 26.6969 41.566 26.7672 41.6414C26.843 41.7222 26.8842 41.8319 26.8788 41.9426C26.8739 42.0496 26.8264 42.1522 26.748 42.2254C26.6919 42.2767 26.627 42.311 26.5526 42.3276ZM26.7896 36.462C26.7287 36.3483 26.7103 36.2211 26.735 36.081C26.7453 36.0338 26.7632 35.9891 26.7879 35.949C26.8398 35.8624 26.9219 35.7951 27.0214 35.763C27.0931 35.7402 27.1657 35.7362 27.2392 35.7514C27.2732 35.763 27.3078 35.7746 27.3423 35.7866C27.4198 35.8593 27.4978 35.932 27.5753 36.0043C27.6166 36.069 27.6385 36.1395 27.6421 36.2153C27.6443 36.2894 27.6291 36.359 27.5955 36.425C27.5601 36.4928 27.5103 36.5472 27.4458 36.5883L27.4436 36.5896L27.3423 36.636C27.3329 36.64 27.3234 36.6436 27.314 36.6472C27.2078 36.6895 27.0711 36.6721 26.9707 36.6226C26.8959 36.5852 26.8354 36.5316 26.7896 36.462ZM29.7038 42.9847C30.2833 42.9847 30.2761 43.8783 29.6966 43.8783C29.1171 43.8783 29.1243 42.9847 29.7038 42.9847ZM29.5792 47.3629C29.6011 47.5783 29.429 47.8344 29.1933 47.8344C28.958 47.8344 28.7451 47.701 28.7195 47.4499C28.6976 47.2344 28.8697 46.9783 29.1054 46.9783C29.3407 46.9783 29.5536 47.1117 29.5792 47.3629ZM25.3236 32.025C25.2878 31.9986 25.2519 31.9728 25.2161 31.9469C25.1193 31.8559 25.0605 31.7283 25.0552 31.5958C25.0498 31.4588 25.1009 31.3228 25.1954 31.2237C25.2842 31.1305 25.4173 31.064 25.5482 31.064C25.6423 31.0605 25.731 31.081 25.8144 31.1256C25.8502 31.1515 25.8861 31.1773 25.9224 31.2032C25.9511 31.2304 25.9762 31.2603 25.9973 31.2929C26.0488 31.3701 26.0793 31.4611 26.0829 31.5543C26.0882 31.6913 26.0371 31.8273 25.9426 31.9268C25.8915 31.9803 25.8256 32.0254 25.7539 32.054C25.701 32.0745 25.6454 32.0865 25.5899 32.0865C25.4957 32.0896 25.407 32.0691 25.3236 32.025ZM25.9789 50.7926C25.8211 50.7654 25.6728 50.6494 25.6239 50.495C25.5903 50.3889 25.5867 50.2644 25.6235 50.1578C25.6629 50.0436 25.7342 49.9486 25.8435 49.8914C25.9511 49.8352 26.0627 49.8326 26.1783 49.8593C26.1985 49.8638 26.2187 49.8683 26.2384 49.8732C26.2393 49.8732 26.2406 49.8732 26.2415 49.8736C26.2505 49.8758 26.2599 49.8781 26.2689 49.8803C26.2379 49.8763 26.2066 49.8718 26.1752 49.8678C26.1698 49.8674 26.1649 49.8669 26.1595 49.8665C26.2559 49.8776 26.3401 49.9035 26.4168 49.9735C26.5006 50.0498 26.5508 50.1587 26.5543 50.2715C26.557 50.3634 26.5288 50.454 26.4759 50.5285C26.4755 50.5298 26.4755 50.5316 26.4746 50.533C26.4392 50.6088 26.3863 50.6708 26.3173 50.719L26.211 50.773C26.1353 50.7993 26.0578 50.8055 25.9789 50.7926ZM41.2522 30.6853C40.6534 30.9703 39.9753 31.0801 39.3263 31.1921C39.3084 31.1952 39.2905 31.1983 39.273 31.2014C39.3367 31.1925 39.1556 31.242 39.1578 31.2416C39.0279 31.2791 38.8979 31.3161 38.767 31.3522C38.503 31.4245 38.2386 31.4941 37.9733 31.5619C37.3785 31.7131 36.7838 31.863 36.1913 32.0232C36.1079 32.0455 36.0246 32.0682 35.9412 32.0905C35.9363 32.0905 35.9138 32.0954 35.9067 32.0981C35.8354 32.1258 35.7633 32.1521 35.6902 32.1749C35.5629 32.2141 35.4343 32.2498 35.3061 32.2864C35.2927 32.2904 35.2828 32.2935 35.2765 32.2949C35.2788 32.294 35.2819 32.2931 35.2855 32.2917C35.264 32.298 35.2425 32.3047 35.2214 32.3109C35.182 32.3234 35.143 32.3355 35.1035 32.3479C35.0197 32.3747 34.9359 32.4028 34.8512 32.4278C34.6863 32.4764 34.5003 32.5206 34.3492 32.6116C34.3622 32.6187 34.3761 32.6254 34.3923 32.6326C34.5213 32.6883 34.6531 32.7102 34.7929 32.72C35.2564 32.7526 35.7144 32.8369 36.1796 32.865C37.4216 32.9408 38.689 32.8824 39.913 32.6491C40.0291 32.6272 40.1958 32.683 40.2599 32.7878C40.2644 32.7954 40.2693 32.803 40.2738 32.8106C40.4114 33.0345 40.3549 33.2531 40.1295 33.3861C39.6078 33.6934 39.0498 33.9227 38.4784 34.1217C37.6111 34.4233 36.7166 34.633 35.8408 34.9069C35.4087 35.042 34.9789 35.1915 34.5653 35.3762C34.3654 35.4654 34.1664 35.5591 33.9772 35.6702C33.8629 35.7375 33.6989 35.8343 33.5882 35.9169C33.6693 35.9338 33.7513 35.9477 33.8338 35.957C33.8706 35.9615 33.9073 35.9655 33.9445 35.9686C33.9535 35.9695 33.9602 35.97 33.966 35.9709C33.9714 35.9709 33.9781 35.9713 33.9875 35.9717C34.174 35.9811 34.3609 35.9878 34.5473 35.9927C35.6691 36.0226 36.7865 35.8999 37.9002 35.7799C38.1109 35.7572 38.2852 35.9824 38.2821 36.1734C38.2794 36.3541 38.1561 36.4866 37.9907 36.5414C36.7273 36.9586 35.4867 37.4555 34.2941 38.0426C33.7666 38.3023 33.1642 38.5762 32.7147 38.8657C32.5771 38.9545 32.4408 39.0468 32.3145 39.1508C32.2674 39.1891 32.2212 39.2288 32.1773 39.2703C32.1661 39.2819 32.1446 39.3033 32.1406 39.3078C32.1208 39.3301 32.1011 39.3524 32.0832 39.3756C32.0666 39.397 32.0505 39.4184 32.0352 39.4407C32.0294 39.4519 32.0213 39.4671 32.0182 39.4738C32.0137 39.484 32.0092 39.4938 32.0052 39.5041C32.0039 39.5103 32.0025 39.5175 32.0012 39.5242L32.0034 39.5264C32.1545 39.6491 32.4758 39.6937 32.7062 39.7097C33.0006 39.7307 33.2955 39.7307 33.5904 39.7263C34.5769 39.712 35.5661 39.7999 36.5395 39.9556C36.6484 39.973 36.7425 40.0872 36.7667 40.1884C36.7694 40.2009 36.7726 40.2134 36.7757 40.2259C36.8071 40.3562 36.7479 40.5342 36.6139 40.5886C36.1397 40.7804 35.6656 40.9714 35.1963 41.1743C34.7544 41.3648 34.3228 41.5741 33.8903 41.7851C33.5855 41.9341 33.2776 42.0871 33.0069 42.2936C32.8886 42.3838 32.7694 42.4801 32.6927 42.6099C32.6896 42.6144 32.6873 42.6184 32.6851 42.6215C32.6838 42.626 32.682 42.6314 32.6793 42.6385C32.6761 42.6483 32.6712 42.6724 32.6681 42.6858C32.6681 42.6947 32.6681 42.7036 32.6676 42.709C32.6681 42.7094 32.6685 42.7103 32.6685 42.7108C32.6703 42.7126 32.6717 42.7143 32.673 42.7157C32.677 42.7197 32.6829 42.725 32.6887 42.73C32.695 42.7349 32.7017 42.7398 32.7089 42.7442C32.7259 42.7554 32.798 42.792 32.798 42.7942C32.833 42.8089 32.8675 42.8227 32.9029 42.8348C33.4439 43.0128 34.0409 43.0226 34.6051 43.0355C35.1125 43.0467 35.6292 43.0048 36.1344 43.0534C36.5032 43.0886 36.6197 43.6101 36.2715 43.7721C35.7848 43.9983 35.3092 44.2463 34.8292 44.4859C34.1821 44.8084 33.4887 45.0979 32.8975 45.5213C32.7649 45.6163 32.6336 45.7171 32.5327 45.8465C32.5193 45.8635 32.5063 45.8809 32.4937 45.8983C32.4937 45.9014 32.4807 45.9259 32.474 45.9393C32.4767 45.942 32.4794 45.9447 32.4821 45.9469C32.5 45.9594 32.5193 45.9714 32.539 45.9817C32.5408 45.983 32.5421 45.9835 32.5435 45.9844C32.5654 45.9933 32.587 46.0022 32.6089 46.0098C33.1503 46.1958 33.7388 46.1833 34.3156 46.1802C34.8239 46.1771 35.3317 46.1396 35.8394 46.1392C36.2666 46.1387 36.4615 46.8025 36.0384 46.9765C35.956 47.0104 35.8735 47.043 35.7901 47.0751C35.4975 47.1889 35.2039 47.3009 34.9166 47.428C34.7504 47.5016 34.5859 47.5783 34.4254 47.6631C34.3515 47.7024 34.2775 47.7425 34.2054 47.7849C34.1695 47.8059 34.1341 47.8273 34.0987 47.8491C34.092 47.8536 34.031 47.8937 34.0292 47.8937C33.9001 47.9839 33.7746 48.0807 33.6631 48.1917C33.6456 48.2087 33.6285 48.2257 33.612 48.2431C33.6012 48.256 33.5752 48.2863 33.5689 48.2944C33.5264 48.3501 33.4851 48.4077 33.4511 48.4697C33.4488 48.4732 33.4475 48.4764 33.4457 48.4795C33.4394 48.4933 33.4331 48.5076 33.4273 48.5219C33.4152 48.5535 33.4027 48.5857 33.3937 48.6182C33.3906 48.6298 33.3883 48.6374 33.3865 48.6428C33.3834 48.6637 33.3793 48.6856 33.3771 48.7075C33.3798 48.7173 33.3843 48.7565 33.3888 48.79C33.3968 48.7855 33.4399 48.8716 33.43 48.8721C33.4645 48.9095 33.5066 48.9524 33.4914 48.943C33.5268 48.9707 33.5627 48.997 33.6012 49.0197C33.6133 49.0269 33.6527 49.0478 33.6577 49.051C33.6707 49.0568 33.6837 49.063 33.6967 49.0684C33.7585 49.0947 33.8208 49.1188 33.8849 49.1397C34.165 49.2303 34.4626 49.2754 34.7638 49.3111C35.0488 49.3445 35.3352 49.357 35.6212 49.3798C35.839 49.3967 36.0555 49.3869 36.2742 49.3972C36.5651 49.4105 36.964 49.4333 37.1701 49.6702C37.4937 50.0431 37.2311 50.4223 36.8564 50.6101C36.2433 50.9175 35.5929 51.0531 34.9525 51.2949C34.8207 51.3449 34.6894 51.3975 34.5635 51.4604C34.5151 51.485 34.4671 51.51 34.4205 51.5376C34.5711 51.5929 34.7418 51.6224 34.8965 51.6527C35.0981 51.6915 35.3317 51.7477 35.536 51.7281C35.8758 51.6946 36.2128 51.6456 36.5494 51.592C36.8308 51.5474 37.0608 51.936 36.8479 52.1461C36.4916 52.4972 36.0474 52.5659 35.5656 52.5922C35.1179 52.6168 34.6688 52.6203 34.221 52.6435C33.3085 52.6913 32.3956 52.648 31.4831 52.6377C31.458 52.6373 31.4333 52.6373 31.4082 52.6368C30.493 52.6284 29.5778 52.5985 28.6626 52.6056C27.8761 52.6119 27.0577 52.5962 26.454 52.0234C26.2317 51.8124 26.2931 51.4207 26.5077 51.2338C26.7511 51.0219 27.0711 51.0763 27.2921 51.2793C27.2764 51.2646 27.2692 51.2575 27.2674 51.2552C27.2723 51.2583 27.3302 51.3097 27.3409 51.3168C27.3575 51.3279 27.3745 51.3382 27.3911 51.3489C27.4014 51.3511 27.5023 51.4007 27.5184 51.4069C27.5274 51.41 27.6076 51.4346 27.6125 51.4386C27.6112 51.4386 27.6067 51.4381 27.5995 51.4363C27.6228 51.4421 27.6457 51.4479 27.669 51.4533C27.7353 51.4671 27.8017 51.4801 27.8689 51.4894C28.1737 51.5327 28.4807 51.5247 28.7877 51.5305C29.3237 51.5407 29.8597 51.5635 30.3953 51.5849C30.705 51.5969 31.0147 51.609 31.3244 51.6175C32.0621 51.638 32.7972 51.6902 33.534 51.7272C33.4869 51.5746 33.4963 51.4087 33.59 51.2628C33.7361 51.0344 33.966 50.8867 34.2089 50.7752C34.5402 50.6226 34.8884 50.5098 35.238 50.4081C35.4518 50.3456 35.6911 50.309 35.8937 50.2149C35.9031 50.2104 35.9134 50.206 35.9233 50.2019C35.7422 50.2033 35.5629 50.2046 35.3792 50.197C34.758 50.1712 34.105 50.1515 33.5147 49.9356C32.9092 49.7139 32.3754 49.2013 32.5211 48.5045C32.6555 47.8603 33.14 47.4084 33.681 47.0711C33.2655 47.0591 32.8469 47.0185 32.4592 46.8953C32.2145 46.8173 31.9384 46.6977 31.7802 46.4849C31.5893 46.2275 31.5319 45.8795 31.683 45.5855C32.0007 44.9699 32.7187 44.6161 33.3179 44.3257C33.6626 44.1589 34.0135 44.0063 34.3591 43.8421C34.4147 43.8158 34.4698 43.7895 34.5249 43.7627C34.0929 43.7475 33.6613 43.7168 33.2364 43.6436C32.7595 43.562 32.1603 43.4152 31.9904 42.9017C31.8958 42.6153 32.033 42.2816 32.2289 42.0706C32.5121 41.7654 32.8617 41.5522 33.2301 41.3622C33.8795 41.0271 34.5509 40.7412 35.2259 40.4623C34.6791 40.4222 34.1301 40.4093 33.5842 40.4293C33.0818 40.4481 32.539 40.4762 32.05 40.3392C31.7538 40.2562 31.4544 40.1188 31.319 39.824C31.1859 39.5349 31.2791 39.2101 31.4584 38.9643C31.8335 38.4495 32.4731 38.1189 33.0248 37.8294C33.7424 37.4528 34.4752 37.1031 35.2192 36.781C34.9646 36.7868 34.71 36.7859 34.455 36.7756C34.1139 36.7614 33.7643 36.7681 33.4291 36.6931C33.1364 36.6275 32.7613 36.4915 32.6788 36.164C32.5663 35.7197 32.9325 35.3864 33.274 35.167C33.6662 34.9144 34.0852 34.6994 34.5177 34.5237C35.6835 34.0503 36.9348 33.8157 38.1283 33.428C37.9316 33.4338 37.7353 33.4405 37.5381 33.4449C36.8295 33.4615 36.116 33.4516 35.411 33.3704C35.1685 33.3423 34.9283 33.3151 34.6863 33.291C34.4841 33.2705 34.2798 33.2429 34.0902 33.1684C33.845 33.072 33.6478 32.8654 33.6375 32.5929C33.6267 32.2975 33.8773 32.0687 34.1103 31.9259C34.5043 31.6846 34.9251 31.5623 35.3612 31.4209C35.7512 31.2942 36.1379 31.1644 36.5337 31.0533C37.1181 30.8887 37.7039 30.7294 38.2861 30.5568C38.6778 30.4408 39.0628 30.3208 39.4626 30.2356C39.7423 30.1763 40.0215 30.1125 40.2953 30.0308C40.2765 30.0277 40.2577 30.025 40.2389 30.0223C40.1125 30.0067 39.9861 29.9933 39.8592 29.9822C39.5715 29.9563 39.2829 29.9385 38.9938 29.9255C38.4439 29.901 37.893 29.8988 37.3431 29.8814C37.1432 29.8751 36.9429 29.8689 36.7434 29.8577C36.6811 29.8537 36.6188 29.8506 36.557 29.8435C36.5507 29.8426 36.5444 29.8417 36.5382 29.8412C36.6413 29.8577 36.4373 29.8385 36.4306 29.8385C36.2912 29.8377 36.1518 29.8368 36.0124 29.8368C35.4177 29.835 34.823 29.8385 34.2282 29.8497C33.4645 29.864 32.6963 29.8278 31.9326 29.7975C31.605 29.7846 31.6287 29.2747 31.9398 29.2399C32.8173 29.1413 33.6877 29.0244 34.5706 28.9869C34.9798 28.97 35.3895 28.9521 35.7987 28.9392C36.0913 28.9303 36.3912 28.9084 36.6829 28.9285C37.2199 28.9664 37.7662 28.9365 38.3049 28.9499C38.8791 28.9646 39.455 28.9847 40.0269 29.0445C40.4831 29.0917 41.0151 29.1288 41.4243 29.3612C41.6403 29.4839 41.8277 29.7047 41.8192 29.9661C41.8075 30.3056 41.5422 30.5474 41.2522 30.6853Z" fill="#C27600"/>
<path d="M43.4644 24.9019C42.5514 24.7512 41.6237 24.9617 40.7524 25.249C39.632 25.6189 38.317 26.3661 37.1405 26.0337C36.5785 25.8745 36.0451 25.6938 35.4517 25.7157C34.939 25.734 34.4384 25.9137 33.9575 26.0757C33.4564 26.2443 32.9526 26.3781 32.4314 26.4683C31.5068 26.6275 30.6023 26.6052 29.6916 26.4509C29.5419 26.4254 29.3922 26.3964 29.2421 26.3643C27.6577 26.0239 26.1294 25.46 24.507 25.3039C23.8795 25.2437 23.2476 25.2316 22.6206 25.1678C22.1092 25.1156 21.5969 24.9885 21.1599 24.7128C21.198 24.4201 21.2392 24.1279 21.2823 23.8362C21.4046 23.0086 21.5691 22.1882 21.7672 21.3754C21.894 20.8539 22.059 20.3458 22.2297 19.8385C22.8653 20.7027 24.2551 20.9605 25.2165 21.1974C26.3661 21.4802 27.5668 21.611 28.7441 21.7118C31.0026 21.9058 33.2695 21.9045 35.5257 21.6792C36.6775 21.5641 37.824 21.3937 38.9619 21.18C39.5132 21.0765 40.0492 20.9467 40.5884 20.7937C41.2911 20.5947 42.0584 20.331 42.3444 19.6025C42.3632 19.6074 42.3825 19.6119 42.4018 19.6164C42.4945 19.88 42.534 20.1669 42.5783 20.4403C42.6756 21.035 42.8065 21.623 42.9302 22.2128C42.9476 22.2962 42.9651 22.3801 42.9831 22.4639C43.1538 23.2727 43.3313 24.0851 43.4644 24.9019Z" fill="#FFDF9E"/>
<path d="M43.7284 18.6617C43.6661 18.8 43.5155 18.8789 43.3725 18.9012C43.2224 18.9244 43.0691 18.907 42.9189 18.8932C42.8186 18.8838 42.7182 18.8669 42.6178 18.8548C42.5895 18.8513 42.5622 18.8504 42.5353 18.8508C42.5331 18.8481 42.5308 18.8455 42.5281 18.8432C42.4004 18.7165 42.2148 18.8 42.1449 18.9329C42.071 18.9641 42.0194 19.0239 41.9903 19.0949C41.9168 19.1047 41.8455 19.1377 41.781 19.1859C41.2616 19.5731 40.5543 19.5976 39.9488 19.7721C39.9524 19.7685 39.9345 19.7698 39.8596 19.7837C39.7861 19.7975 39.7126 19.8113 39.6391 19.8251C39.4939 19.8528 39.3491 19.8814 39.2035 19.9068C38.9144 19.9563 38.6267 20.0138 38.338 20.0643C37.2364 20.2574 36.1267 20.4038 35.0125 20.5041C32.8643 20.6977 30.6978 20.6991 28.5469 20.5385C27.3391 20.4484 26.1397 20.2824 24.948 20.0692C24.5141 19.9915 24.0789 19.9072 23.659 19.7703C23.456 19.7042 23.257 19.6208 23.0719 19.5142C22.8827 19.4058 22.7348 19.2742 22.5896 19.127C22.6631 18.9757 22.7263 18.8316 22.7254 18.6594C22.725 18.5319 22.7218 18.3994 22.7433 18.2731C22.7604 18.1701 22.7918 18.1076 22.846 18.0376C22.9307 17.9283 23.1252 17.8609 23.2628 17.8145C23.5617 17.7141 23.5097 17.2814 23.2126 17.2229C22.7559 17.1328 22.2638 17.0307 21.8662 16.7782C21.6215 16.6225 21.4373 16.4628 21.3266 16.1996C21.2177 15.9408 21.2657 15.625 21.3195 15.3591C21.3804 15.0588 21.5727 14.7599 21.7287 14.5016C21.8398 14.3174 21.9608 14.1398 22.1011 13.9761C22.158 13.9096 22.2194 13.8472 22.2889 13.7932C22.3176 13.7709 22.4108 13.7508 22.4108 13.7504C22.413 13.7504 22.4148 13.7499 22.4171 13.7499C22.4466 13.8035 22.4771 13.8601 22.4968 13.915C22.6228 14.2679 23.1342 14.1983 23.1458 13.8182C23.1525 13.592 23.0925 13.3895 23.0477 13.17C23.0028 12.9496 22.9975 12.7203 23.0427 12.4999C23.1373 12.0386 23.5272 11.5997 23.9001 11.3315C23.9606 11.2883 24.0341 11.2401 24.0996 11.2129C24.165 11.1857 24.2313 11.1705 24.2663 11.1678C24.3967 11.1571 24.4523 11.1834 24.5773 11.2619C24.8624 11.4413 25.0963 11.7719 25.3231 12.0404C25.519 12.272 25.9694 12.0998 25.8833 11.7799C25.8394 11.6175 25.7516 11.4689 25.7238 11.3025C25.7063 11.1964 25.6965 11.0893 25.6911 10.9822C25.6794 10.769 25.6942 10.5517 25.7354 10.3425C25.8309 9.86338 26.124 9.43957 26.5283 9.16788C26.9173 8.9069 27.3758 8.80876 27.8097 9.01486C28.274 9.23614 28.5666 9.763 28.763 10.2113C28.8405 10.3885 29.1381 10.3376 29.1421 10.1404C29.1529 9.62114 29.3313 8.94572 29.9193 8.80921C30.2657 8.7289 30.6561 8.83686 30.8394 9.15138C31.0267 9.47213 31.0769 9.86427 31.172 10.218C31.2589 10.5397 31.7344 10.5156 31.8124 10.2024C31.9715 9.56448 32.8271 9.08223 33.4797 8.99747C33.7683 8.95999 34.0309 9.022 34.113 9.31555C34.2169 9.68939 34.1291 10.127 34.4209 10.4313C34.549 10.5656 34.7911 10.5566 34.8888 10.388C34.9681 10.2506 34.9645 10.0913 35.0438 9.94948C35.107 9.83572 35.1823 9.72999 35.2644 9.62917C35.4091 9.45072 35.5835 9.29726 35.7735 9.16788C36.1782 8.89263 36.6779 8.8101 37.1458 8.95464C38.0736 9.24149 37.858 10.2894 37.6339 10.9894C37.5976 11.1031 37.7764 11.1964 37.8473 11.0982C38.0001 10.8872 38.1014 10.6383 38.1489 10.3795C38.4066 10.1788 38.6899 10.0155 39.0099 9.9294C39.4814 9.80271 39.917 9.9932 40.2401 10.3389C40.6085 10.7324 40.765 11.216 40.5736 11.7299C40.4252 12.1274 40.1783 12.4647 39.9035 12.7854C39.649 13.0825 40.0483 13.497 40.3638 13.2779C40.7793 12.9893 41.2468 12.7413 41.7483 12.6471C41.9782 12.6039 42.2077 12.6253 42.4268 12.7038C42.6187 12.7721 42.7693 12.9215 42.8468 13.0522C42.8858 13.1187 42.8921 13.1374 42.9207 13.2396C42.9517 13.3475 42.9494 13.3547 42.9535 13.4809C42.9597 13.6763 42.9252 13.8271 42.8481 14.0372C42.7988 14.1724 42.6841 14.3384 42.5653 14.4584C42.5196 14.5048 42.4833 14.5324 42.4147 14.5744C42.2982 14.5775 42.1817 14.5971 42.0759 14.6328C41.7877 14.7301 41.759 15.1427 42.006 15.2989C42.1992 15.4211 42.434 15.3783 42.6487 15.2734C42.6675 15.2797 42.6859 15.2855 42.7029 15.2908C42.8777 15.3452 43.0382 15.4853 43.1681 15.6076C43.3913 15.8172 43.5823 16.0702 43.6894 16.3584C43.7248 16.4547 43.7311 16.5578 43.7284 16.6368C43.727 16.6595 43.7252 16.6823 43.7221 16.7046C43.7217 16.7104 43.7212 16.7148 43.7208 16.7193C43.719 16.7233 43.7158 16.7322 43.7109 16.7492C43.7037 16.7759 43.693 16.8014 43.6827 16.8268C43.693 16.7978 43.654 16.8714 43.6513 16.8754C43.5123 17.0887 43.1749 17.1123 42.9436 17.1074C42.5644 17.0998 42.4022 17.6847 42.8033 17.7873C43.0207 17.843 43.2277 17.9077 43.4178 18.0304C43.5805 18.1353 43.74 18.2838 43.7701 18.4368C43.7875 18.5278 43.7701 18.5693 43.7284 18.6617Z" fill="white"/>
<path d="M41.8191 29.9658C41.8074 30.3053 41.5421 30.5471 41.2521 30.685C40.6533 30.97 39.9752 31.0798 39.3263 31.1917C39.3083 31.1949 39.2904 31.198 39.2729 31.2011C39.3366 31.1922 39.1555 31.2417 39.1577 31.2413C39.0278 31.2787 38.8978 31.3158 38.7669 31.3519C38.5029 31.4242 38.2385 31.4938 37.9732 31.5616C37.3784 31.7128 36.7837 31.8627 36.1912 32.0229C36.1065 32.0456 36.0222 32.0684 35.9375 32.0916C35.9554 32.0858 35.9169 32.0942 35.9066 32.0978C35.8353 32.1255 35.7632 32.1518 35.6901 32.1745C35.5628 32.2138 35.4342 32.2495 35.306 32.2861C35.2867 32.2919 35.2751 32.2954 35.2706 32.2963C35.2733 32.2954 35.2782 32.2936 35.2854 32.2914C35.2639 32.2977 35.2424 32.3044 35.2213 32.3106C35.1819 32.3231 35.1429 32.3351 35.1034 32.3476C35.0196 32.3744 34.9358 32.4025 34.8511 32.4275C34.6862 32.4761 34.5002 32.5203 34.3491 32.6113C34.3621 32.6184 34.376 32.6251 34.3922 32.6322C34.5212 32.688 34.653 32.7099 34.7928 32.7197C35.2563 32.7523 35.7143 32.8366 36.1795 32.8647C37.4215 32.9405 38.6889 32.8821 39.9129 32.6488C40.029 32.6269 40.1957 32.6827 40.2598 32.7875C40.2643 32.7951 40.2692 32.8027 40.2737 32.8102C40.4113 33.0342 40.3549 33.2528 40.1294 33.3857C39.6077 33.6931 39.0497 33.9224 38.4783 34.1214C37.611 34.423 36.7165 34.6326 35.8407 34.9065C35.4087 35.0417 34.9788 35.1912 34.5652 35.3759C34.3653 35.4651 34.1663 35.5588 33.9771 35.6699C33.8629 35.7372 33.6988 35.834 33.5881 35.9166C33.6692 35.9335 33.7513 35.9473 33.8337 35.9567C33.8705 35.9612 33.9072 35.9652 33.9444 35.9683C33.9534 35.9692 33.9601 35.9696 33.9659 35.9705C33.9713 35.9705 33.978 35.971 33.9875 35.9714C34.1739 35.9808 34.3608 35.9875 34.5472 35.9924C35.6691 36.0223 36.7864 35.8996 37.9001 35.7796C38.1108 35.7568 38.2851 35.9821 38.282 36.1731C38.2793 36.3537 38.156 36.4862 37.9907 36.5411C36.7272 36.9582 35.4866 37.4552 34.294 38.0423C33.7665 38.3019 33.1641 38.5758 32.7146 38.8654C32.577 38.9542 32.4408 39.0465 32.3144 39.1504C32.2673 39.1888 32.2211 39.2285 32.1772 39.27C32.166 39.2816 32.1445 39.303 32.1405 39.3075C32.1208 39.3298 32.101 39.3521 32.0831 39.3753C32.0665 39.3967 32.0504 39.4181 32.0352 39.4404C32.0293 39.4516 32.0213 39.4667 32.0181 39.4734C32.0136 39.4837 32.0092 39.4935 32.0051 39.5038C32.0038 39.51 32.0024 39.5172 32.0011 39.5238L32.0033 39.5261C32.1544 39.6488 32.4757 39.6934 32.7061 39.7094C33.0005 39.7304 33.2955 39.7304 33.5904 39.7259C34.5768 39.7117 35.566 39.7995 36.5394 39.9552C36.6483 39.9726 36.7425 40.0868 36.7667 40.1881C36.7694 40.2006 36.7725 40.2131 36.7756 40.2256C36.807 40.3559 36.7478 40.5339 36.6138 40.5883C36.1397 40.7801 35.6655 40.971 35.1962 41.174C34.7543 41.3645 34.3227 41.5737 33.8902 41.7848C33.5854 41.9338 33.2775 42.0868 33.0068 42.2933C32.8885 42.3834 32.7693 42.4798 32.6926 42.6096C32.6895 42.6141 32.6873 42.6181 32.685 42.6212C32.6837 42.6257 32.6819 42.631 32.6792 42.6382C32.6761 42.648 32.6711 42.6721 32.668 42.6855C32.668 42.6944 32.668 42.7033 32.6675 42.7087C32.668 42.7091 32.6684 42.71 32.6684 42.7104C32.6702 42.7122 32.6716 42.714 32.6729 42.7154C32.677 42.7194 32.6828 42.7247 32.6886 42.7296C32.6949 42.7345 32.7016 42.7394 32.7088 42.7439C32.7258 42.7551 32.798 42.7916 32.798 42.7939C32.8329 42.8086 32.8674 42.8224 32.9028 42.8345C33.4438 43.0125 34.0408 43.0223 34.6051 43.0352C35.1124 43.0464 35.6292 43.0044 36.1343 43.0531C36.5031 43.0883 36.6197 43.6098 36.2714 43.7718C35.7847 43.9979 35.3092 44.246 34.8292 44.4855C34.182 44.8081 33.4886 45.0976 32.8975 45.521C32.7648 45.616 32.6335 45.7168 32.5326 45.8462C32.5192 45.8631 32.5062 45.8805 32.4936 45.8979C32.4936 45.9011 32.4806 45.9256 32.4739 45.939C32.4766 45.9417 32.4793 45.9443 32.482 45.9466C32.4999 45.9591 32.5192 45.9711 32.5389 45.9814C32.5407 45.9827 32.5421 45.9832 32.5434 45.984C32.5654 45.993 32.5869 46.0019 32.6088 46.0095C33.1502 46.1955 33.7387 46.183 34.3155 46.1799C34.8238 46.1768 35.3316 46.1393 35.8394 46.1388C36.2665 46.1384 36.4614 46.8022 36.0384 46.9762C35.9559 47.0101 35.8734 47.0427 35.7901 47.0748C35.4974 47.1886 35.2038 47.3005 34.9165 47.4277C34.7503 47.5013 34.5858 47.578 34.4253 47.6628C34.3514 47.702 34.2774 47.7422 34.2053 47.7846C34.1694 47.8055 34.134 47.827 34.0986 47.8488C34.0919 47.8533 34.0309 47.8934 34.0291 47.8934C33.9001 47.9835 33.7746 48.0803 33.663 48.1914C33.6455 48.2084 33.6285 48.2253 33.6119 48.2427C33.6011 48.2557 33.5751 48.286 33.5688 48.294C33.5263 48.3498 33.485 48.4073 33.451 48.4694C33.4487 48.4729 33.4474 48.476 33.4456 48.4792C33.4393 48.493 33.433 48.5073 33.4272 48.5216C33.4151 48.5532 33.4026 48.5853 33.3936 48.6179C33.3905 48.6295 33.3882 48.6371 33.3864 48.6424C33.3833 48.6634 33.3793 48.6853 33.377 48.7071C33.3797 48.717 33.3842 48.7562 33.3887 48.7897C33.3967 48.7852 33.4398 48.8713 33.4299 48.8718C33.4644 48.9092 33.5065 48.9521 33.4913 48.9427C33.5267 48.9703 33.5626 48.9967 33.6011 49.0194C33.6132 49.0266 33.6527 49.0475 33.6576 49.0506C33.6706 49.0564 33.6836 49.0627 33.6966 49.068C33.7584 49.0944 33.8207 49.1185 33.8848 49.1394C34.1649 49.23 34.4625 49.275 34.7637 49.3107C35.0488 49.3442 35.3352 49.3567 35.6211 49.3794C35.8389 49.3964 36.0554 49.3866 36.2741 49.3968C36.565 49.4102 36.9639 49.433 37.17 49.6699C37.4936 50.0428 37.231 50.422 36.8563 50.6098C36.2432 50.9172 35.5929 51.0528 34.9524 51.2946C34.8206 51.3446 34.6893 51.3972 34.5634 51.4601C34.515 51.4847 34.467 51.5096 34.4204 51.5373C34.571 51.5926 34.7418 51.6221 34.8964 51.6524C35.0981 51.6912 35.3316 51.7474 35.5359 51.7278C35.8757 51.6943 36.2127 51.6453 36.5493 51.5917C36.8308 51.5471 37.0607 51.9357 36.8478 52.1458C36.4915 52.4969 36.0473 52.5656 35.5655 52.5919C35.1178 52.6165 34.6687 52.62 34.221 52.6432C33.2834 52.6923 32.3457 52.6454 31.4081 52.6365C30.4929 52.6281 29.5777 52.5982 28.6625 52.6053C27.876 52.6115 27.0576 52.5959 26.4539 52.0231C26.2316 51.8121 26.293 51.4204 26.5077 51.2335C26.751 51.0216 27.071 51.076 27.292 51.279C27.2763 51.2643 27.2691 51.2571 27.2673 51.2549C27.2723 51.258 27.3301 51.3093 27.3408 51.3165C27.3574 51.3276 27.3745 51.3379 27.391 51.3486C27.4013 51.3508 27.5022 51.4003 27.5183 51.4066C27.5273 51.4097 27.6075 51.4342 27.6124 51.4383C27.6111 51.4383 27.6066 51.4378 27.5994 51.436C27.6227 51.4418 27.6456 51.4476 27.6689 51.453C27.7352 51.4668 27.8016 51.4797 27.8688 51.4891C28.1736 51.5324 28.4806 51.5244 28.7876 51.5302C29.6338 51.5462 30.4786 51.5935 31.3243 51.6171C32.062 51.6377 32.7971 51.6899 33.5339 51.7269C33.4868 51.5743 33.4962 51.4084 33.5899 51.2625C33.736 51.0341 33.9659 50.8864 34.2089 50.7749C34.5401 50.6223 34.8883 50.5094 35.2379 50.4077C35.4517 50.3453 35.691 50.3087 35.8936 50.2146C35.903 50.2101 35.9133 50.2056 35.9232 50.2016C35.7421 50.203 35.5628 50.2043 35.3791 50.1967C34.7579 50.1708 34.1049 50.1512 33.5146 49.9353C32.9091 49.7136 32.3753 49.201 32.521 48.5042C32.6554 47.86 33.1399 47.408 33.6809 47.0708C33.2654 47.0587 32.8468 47.0181 32.4591 46.895C32.2144 46.8169 31.9383 46.6974 31.7801 46.4846C31.5892 46.2272 31.5318 45.8792 31.6829 45.5852C32.0006 44.9696 32.7186 44.6158 33.3179 44.3254C33.6625 44.1585 34.0135 44.006 34.359 43.8418C34.4146 43.8155 34.4697 43.7892 34.5248 43.7624C34.0928 43.7472 33.6612 43.7164 33.2363 43.6433C32.7594 43.5616 32.1602 43.4149 31.9903 42.9014C31.8958 42.615 32.0329 42.2813 32.2288 42.0703C32.512 41.7651 32.8616 41.5519 33.23 41.3618C33.8794 41.0268 34.5508 40.7408 35.2258 40.462C34.679 40.4219 34.13 40.4089 33.5841 40.429C33.0817 40.4477 32.5389 40.4759 32.0499 40.3389C31.7537 40.2559 31.4543 40.1185 31.3189 39.8236C31.1858 39.5346 31.2791 39.2098 31.4583 38.964C31.8335 38.4492 32.473 38.1186 33.0247 37.829C33.7423 37.4525 34.4751 37.1028 35.2191 36.7807C34.9645 36.7865 34.7099 36.7856 34.4549 36.7753C34.1138 36.761 33.7643 36.7677 33.429 36.6928C33.1363 36.6272 32.7612 36.4912 32.6787 36.1637C32.5663 35.7194 32.9324 35.3861 33.2739 35.1666C33.6661 34.9141 34.0852 34.6991 34.5177 34.5233C35.6834 34.05 36.9347 33.8153 38.1283 33.4277C37.9315 33.4335 37.7352 33.4402 37.538 33.4446C36.8294 33.4611 36.1159 33.4513 35.4109 33.3701C35.1684 33.342 34.9282 33.3148 34.6862 33.2907C34.484 33.2702 34.2797 33.2425 34.0901 33.168C33.8449 33.0717 33.6477 32.8651 33.6374 32.5925C33.6267 32.2972 33.8772 32.0684 34.1103 31.9256C34.5042 31.6843 34.9251 31.562 35.3611 31.4206C35.7511 31.2939 36.1379 31.1641 36.5336 31.053C37.118 30.8884 37.7038 30.7291 38.286 30.5565C38.6777 30.4405 39.0627 30.3205 39.4625 30.2353C39.7422 30.1759 40.0214 30.1121 40.2952 30.0305C40.2764 30.0274 40.2576 30.0247 40.2388 30.022C40.1124 30.0064 39.986 29.993 39.8592 29.9819C39.5714 29.956 39.2828 29.9382 38.9937 29.9252C38.4438 29.9007 37.893 29.8985 37.343 29.8811C37.1431 29.8748 36.9428 29.8686 36.7434 29.8574C36.6811 29.8534 36.6188 29.8503 36.5569 29.8431C36.5506 29.8422 36.5444 29.8413 36.5381 29.8409C36.6412 29.8574 36.4372 29.8382 36.4305 29.8382C36.2911 29.8373 36.1518 29.8364 36.0124 29.8364C35.4176 29.8347 34.8229 29.8382 34.2281 29.8494C33.4644 29.8637 32.6962 29.8275 31.9325 29.7972C31.6049 29.7842 31.6286 29.2743 31.9397 29.2395C32.8172 29.1409 33.6876 29.0241 34.5705 28.9866C34.9797 28.9696 35.3894 28.9518 35.7986 28.9389C36.0912 28.9299 36.3911 28.9081 36.6829 28.9281C37.2198 28.9661 37.7661 28.9362 38.3048 28.9496C38.879 28.9643 39.4549 28.9844 40.0268 29.0441C40.483 29.0914 41.015 29.1285 41.4242 29.3609C41.6403 29.4836 41.8276 29.7044 41.8191 29.9658Z" fill="#404040"/>
<path d="M24.3228 29.7768C24.3067 29.8468 24.2865 29.9445 24.2547 29.9949C24.2395 30.0132 24.2247 30.0315 24.2094 30.0498C24.2063 30.0534 24.2027 30.0565 24.1996 30.0601C24.1082 30.1506 23.9491 30.1533 23.8455 30.085C23.8079 30.0632 23.7738 30.036 23.7442 30.0034C23.6931 29.9735 23.6815 29.9472 23.7093 29.9249C23.6317 29.8357 23.6273 29.688 23.6739 29.5845C23.7227 29.4765 23.828 29.3998 23.9464 29.3864C24.0678 29.3726 24.1897 29.4261 24.2614 29.5238C24.3112 29.5916 24.343 29.6929 24.3228 29.7768Z" fill="#404040"/>
<path d="M26.0828 31.5542C26.0881 31.6911 26.0371 31.8272 25.9425 31.9267C25.8537 32.0195 25.7206 32.0864 25.5898 32.0864C25.4956 32.0895 25.4069 32.069 25.3235 32.0248C25.2877 31.9985 25.2518 31.9726 25.216 31.9467C25.1192 31.8557 25.0605 31.7281 25.0551 31.5956C25.0497 31.4587 25.1008 31.3226 25.1954 31.2236C25.2841 31.1303 25.4172 31.0639 25.5481 31.0639C25.6422 31.0603 25.7309 31.0808 25.8143 31.1254C25.8502 31.1513 25.886 31.1772 25.9223 31.2031C26.0187 31.2945 26.0774 31.4217 26.0828 31.5542Z" fill="#404040"/>
<path d="M31.3912 30.1965C31.3952 30.4383 31.1935 30.6538 30.947 30.6538C30.7009 30.6538 30.4921 30.4597 30.4876 30.2117C30.4836 29.9699 30.6857 29.7544 30.9318 29.7544C31.1778 29.7544 31.3871 29.9485 31.3912 30.1965Z" fill="#404040"/>
<path d="M27.6421 36.2152C27.6443 36.2892 27.6291 36.3588 27.5955 36.4248C27.5601 36.4927 27.5103 36.5471 27.4458 36.5881L27.3423 36.6359C27.3328 36.6399 27.3234 36.6434 27.314 36.647C27.2078 36.6894 27.0711 36.672 26.9707 36.6225C26.8959 36.585 26.8354 36.5315 26.7896 36.4619C26.7287 36.3481 26.7103 36.221 26.735 36.0809C26.7672 35.9323 26.8757 35.8097 27.0214 35.7628C27.0931 35.7401 27.1657 35.736 27.2392 35.7512C27.2732 35.7628 27.3078 35.7744 27.3423 35.7865C27.4198 35.8592 27.4978 35.9319 27.5753 36.0042C27.6166 36.0688 27.6385 36.1393 27.6421 36.2152Z" fill="#404040"/>
<path d="M30.5203 38.764C30.4706 38.8255 30.4087 38.8706 30.3348 38.8987C30.2985 38.9076 30.2622 38.9161 30.2259 38.9246C30.151 38.9317 30.0784 38.9206 30.0094 38.8907C29.9771 38.8715 29.9453 38.8528 29.9135 38.8336C29.823 38.7618 29.7638 38.6547 29.7521 38.54C29.7409 38.4294 29.7741 38.3161 29.8436 38.2291C29.8933 38.1675 29.9552 38.1225 30.0291 38.0944C30.0654 38.0854 30.1017 38.077 30.1385 38.0685C30.2133 38.0614 30.2855 38.0725 30.355 38.1024C30.3868 38.1216 30.419 38.1408 30.4509 38.1599C30.5414 38.2313 30.6006 38.3384 30.6122 38.453C30.6234 38.5637 30.5902 38.677 30.5203 38.764Z" fill="#404040"/>
<path d="M26.8788 41.9421C26.8739 42.0492 26.8264 42.1518 26.748 42.2249C26.6919 42.2762 26.6269 42.3106 26.5525 42.3271C26.5167 42.3302 26.4808 42.3329 26.445 42.336C26.3401 42.336 26.2316 42.2807 26.1608 42.2057C26.0851 42.125 26.0443 42.0148 26.0492 41.9042C26.0542 41.7976 26.1017 41.6945 26.1805 41.6213C26.2361 41.57 26.3016 41.5361 26.376 41.5192C26.4114 41.5165 26.4472 41.5134 26.4831 41.5103C26.5884 41.5103 26.6969 41.5656 26.7672 41.641C26.843 41.7217 26.8842 41.8315 26.8788 41.9421Z" fill="#404040"/>
<path d="M29.6966 43.8779C29.1171 43.8779 29.1242 42.9844 29.7037 42.9844C30.2832 42.9844 30.2761 43.8779 29.6966 43.8779Z" fill="#404040"/>
<path d="M26.7228 46.893C26.7152 46.9269 26.7071 46.9608 26.6995 46.9947C26.6623 47.0942 26.5848 47.1803 26.4866 47.2232C26.4723 47.2298 26.4575 47.2361 26.4432 47.2423C26.3419 47.2869 26.2168 47.2816 26.116 47.2401C26.0438 47.2098 25.9838 47.1638 25.9363 47.1018C25.8726 47.0037 25.8444 46.8908 25.8516 46.7632C25.8592 46.6923 25.8834 46.628 25.9242 46.5696C25.9667 46.5098 26.0214 46.4643 26.0886 46.4335C26.1837 46.3903 26.3033 46.3818 26.401 46.4219C26.4965 46.5094 26.592 46.5964 26.6874 46.6834C26.7179 46.7503 26.73 46.8203 26.7228 46.893Z" fill="#404040"/>
<path d="M29.1933 47.8341C28.958 47.8341 28.7451 47.7007 28.7195 47.4496C28.6976 47.2341 28.8697 46.978 29.1054 46.978C29.3407 46.978 29.5536 47.1114 29.5792 47.3626C29.6011 47.5781 29.429 47.8341 29.1933 47.8341Z" fill="#404040"/>
<path d="M31.8568 49.9882C31.8443 50.1024 31.7865 50.2086 31.6964 50.2808C31.635 50.3304 31.565 50.3607 31.4871 50.3727C31.3333 50.184 31.1796 49.9953 31.0259 49.8066C31.0586 49.5916 31.276 49.4439 31.4889 49.4801C31.591 49.4975 31.6843 49.5546 31.7457 49.6384C31.7569 49.654 31.7672 49.6705 31.7757 49.6875C31.8384 49.774 31.868 49.8816 31.8568 49.9882Z" fill="#404040"/>
<path d="M26.5544 50.2714C26.557 50.3633 26.5288 50.4539 26.4759 50.5284C26.4755 50.5297 26.4755 50.5315 26.4746 50.5329C26.4392 50.6087 26.3863 50.6707 26.3173 50.7189L26.211 50.7729C26.1353 50.7992 26.0578 50.8054 25.9789 50.7925C25.8211 50.7653 25.6728 50.6493 25.6239 50.4949C25.5903 50.3888 25.5867 50.2643 25.6235 50.1577C25.6629 50.0435 25.7342 49.9484 25.8435 49.8913C25.9511 49.8351 26.0627 49.8325 26.1783 49.8592C26.1985 49.8637 26.2187 49.8681 26.2384 49.8731C26.2393 49.8731 26.2406 49.8731 26.2415 49.8735C26.2505 49.8757 26.2599 49.878 26.2689 49.8802C26.2379 49.8762 26.2066 49.8717 26.1752 49.8677C26.1698 49.8673 26.1649 49.8668 26.1595 49.8664C26.2559 49.8775 26.3401 49.9034 26.4168 49.9734C26.5006 50.0497 26.5508 50.1586 26.5544 50.2714Z" fill="#404040"/>
<path d="M43.6037 25.9166C43.6011 25.8929 43.5984 25.8697 43.5957 25.8461C43.5867 25.8457 43.5782 25.8448 43.5697 25.8439C43.1246 25.7894 42.7123 25.7529 42.2686 25.818C41.8433 25.88 41.4614 25.9866 41.0571 26.1236C40.1177 26.4412 39.1609 26.8338 38.1592 26.8869C37.6245 26.915 37.1243 26.861 36.6264 26.6612C36.327 26.5407 36.0383 26.3591 35.7085 26.3408C35.4929 26.3292 35.2764 26.3551 35.0658 26.4002C34.6064 26.4979 34.1712 26.6754 33.7217 26.8084C33.2421 26.9502 32.7504 27.06 32.2547 27.1269C32.1198 27.1452 31.9854 27.1599 31.8514 27.1711C31.7075 27.1836 31.5641 27.192 31.4211 27.1965C31.331 27.1996 31.2409 27.201 31.1513 27.201C31.111 27.201 31.0702 27.2005 31.0298 27.2001C30.99 27.1996 30.9505 27.1987 30.9106 27.1974C30.8748 27.1965 30.8394 27.1952 30.804 27.1938C30.7963 27.1934 30.7887 27.1934 30.7811 27.1929C30.7524 27.1916 30.7242 27.1902 30.6959 27.1889C30.6838 27.188 30.6722 27.1876 30.6605 27.1867C30.6247 27.1849 30.5888 27.1827 30.553 27.18H30.5525C30.5176 27.1778 30.4826 27.1751 30.4477 27.172C30.4364 27.1715 30.4257 27.1706 30.4149 27.1693C30.3813 27.1666 30.3482 27.1639 30.315 27.1604C30.2755 27.1568 30.2357 27.1528 30.1962 27.1483C30.1478 27.143 30.0994 27.1376 30.0515 27.1314C29.9806 27.1229 29.9103 27.1131 29.8399 27.1028C29.8005 27.097 29.7606 27.0908 29.7211 27.0845C29.6418 27.072 29.5629 27.0586 29.4836 27.0439C29.4365 27.0354 29.3895 27.0261 29.3424 27.0172C29.3106 27.0105 29.2783 27.0042 29.2465 26.9975C28.0485 28.4126 26.6537 29.6724 25.9972 31.2927C25.8981 31.5376 25.8156 31.7906 25.7538 32.0538C25.6328 32.5637 25.5875 33.1111 25.6413 33.7093C25.7359 34.7617 26.2073 35.3658 26.7878 35.9488C26.8397 35.8623 26.9218 35.7949 27.0213 35.7628C27.093 35.7401 27.1656 35.736 27.2391 35.7512C27.2731 35.7628 27.3076 35.7744 27.3422 35.7864C27.4197 35.8592 27.4977 35.9319 27.5752 36.0042C27.6165 36.0688 27.6384 36.1393 27.642 36.2152C27.6442 36.2892 27.629 36.3588 27.5954 36.4248C27.56 36.4927 27.5102 36.5471 27.4457 36.5881L27.4435 36.5895C27.6209 36.767 27.7998 36.9553 27.9737 37.1645C28.8517 38.2213 28.9619 39.3183 28.9601 40.6616C28.9583 42.1137 28.8422 43.5676 28.4021 44.9492C28.0619 46.0159 27.6241 47.0089 27.5264 48.1389C27.4457 49.0673 27.4215 49.6437 28.1511 50.1884C28.849 50.7099 29.6884 51.0601 30.3952 51.5847C30.7049 51.5968 31.0146 51.6088 31.3243 51.6173C32.062 51.6378 32.797 51.69 33.5339 51.7271C33.4868 51.5745 33.4962 51.4085 33.5899 51.2627C33.736 51.0342 33.9659 50.8866 34.2088 50.775C34.5401 50.6225 34.8883 50.5096 35.2379 50.4079C35.4517 50.3454 35.691 50.3089 35.8936 50.2147C35.903 50.2103 35.9133 50.2058 35.9232 50.2018C35.7421 50.2031 35.5628 50.2045 35.3791 50.1969C34.7579 50.171 34.1049 50.1514 33.5146 49.9355C32.9091 49.7137 32.3753 49.2012 32.521 48.5043C32.6554 47.8601 33.1399 47.4082 33.6809 47.0709C33.2654 47.0589 32.8468 47.0183 32.4591 46.8952C32.2144 46.8171 31.9383 46.6975 31.7801 46.4848C31.5892 46.2273 31.5318 45.8794 31.6829 45.5854C32.0006 44.9697 32.7186 44.616 33.3178 44.3256C33.6625 44.1587 34.0134 44.0061 34.359 43.842C34.4146 43.8156 34.4697 43.7893 34.5248 43.7626C34.0928 43.7474 33.6612 43.7166 33.2363 43.6434C32.7594 43.5618 32.1602 43.415 31.9903 42.9015C31.8957 42.6151 32.0329 42.2814 32.2287 42.0704C32.512 41.7653 32.8616 41.552 33.23 41.362C33.8794 41.027 34.5508 40.741 35.2258 40.4622C34.679 40.422 34.13 40.4091 33.5841 40.4292C33.0816 40.4479 32.5389 40.476 32.0499 40.3391C31.7537 40.2561 31.4543 40.1187 31.3189 39.8238C31.1858 39.5347 31.279 39.2099 31.4583 38.9641C31.8334 38.4493 32.473 38.1187 33.0247 37.8292C33.7423 37.4527 34.4751 37.1029 35.2191 36.7808C34.9645 36.7866 34.7099 36.7857 34.4549 36.7755C34.1138 36.7612 33.7642 36.7679 33.429 36.693C33.1363 36.6274 32.7612 36.4913 32.6787 36.1639C32.5662 35.7195 32.9324 35.3863 33.2739 35.1668C33.6661 34.9143 34.0851 34.6993 34.5176 34.5235C35.6834 34.0502 36.9347 33.8155 38.1282 33.4278C37.9315 33.4336 37.7352 33.4403 37.538 33.4448C36.8294 33.4613 36.1159 33.4515 35.4109 33.3703C35.1684 33.3422 34.9282 33.315 34.6862 33.2909C34.484 33.2704 34.2797 33.2427 34.0901 33.1682C33.8449 33.0718 33.6477 32.8653 33.6374 32.5927C33.6266 32.2974 33.8772 32.0685 34.1102 31.9258C34.5042 31.6844 34.925 31.5622 35.3611 31.4208C35.7511 31.2941 36.1378 31.1642 36.5336 31.0532C37.118 30.8885 37.7038 30.7293 38.286 30.5566C38.6777 30.4406 39.0627 30.3206 39.4625 30.2354C39.7422 30.1761 40.0214 30.1123 40.2952 30.0307C40.2764 30.0275 40.2576 30.0249 40.2388 30.0222C40.1124 30.0066 39.986 29.9932 39.8591 29.982C39.5714 29.9562 39.2828 29.9383 38.9937 29.9254C38.4438 29.9008 37.8929 29.8986 37.343 29.8812C37.1431 29.875 36.9428 29.8687 36.7433 29.8576C36.681 29.8536 36.6187 29.8504 36.5569 29.8433C36.5506 29.8424 36.5443 29.8415 36.5381 29.8411C36.6412 29.8576 36.4372 29.8384 36.4305 29.8384C36.2911 29.8375 36.1517 29.8366 36.0123 29.8366C35.4176 29.8348 34.8229 29.8384 34.2281 29.8495C33.4644 29.8638 32.6962 29.8277 31.9325 29.7973C31.6049 29.7844 31.6286 29.2745 31.9397 29.2397C32.8172 29.1411 33.6876 29.0242 34.5705 28.9868C34.9797 28.9698 35.3894 28.952 35.7986 28.939C36.0912 28.9301 36.3911 28.9082 36.6828 28.9283C37.2198 28.9662 37.7661 28.9363 38.3048 28.9497C38.879 28.9644 39.4549 28.9845 40.0268 29.0443C40.483 29.0916 41.015 29.1286 41.4242 29.361C41.6402 29.4837 41.8276 29.7046 41.8191 29.966C41.8074 30.3055 41.5421 30.5473 41.2521 30.6851C40.6533 30.9702 39.9752 31.0799 39.3262 31.1919C39.3083 31.195 39.2904 31.1982 39.2729 31.2013C39.3366 31.1924 39.1555 31.2419 39.1577 31.2414C39.0278 31.2789 38.8978 31.3159 38.7669 31.3521C38.5029 31.4243 38.2385 31.4939 37.9732 31.5617C37.3784 31.713 36.7837 31.8629 36.1912 32.023C36.1078 32.0453 36.0244 32.0681 35.9411 32.0904C35.9362 32.0904 35.9137 32.0953 35.9066 32.098C35.8353 32.1256 35.7632 32.1519 35.6901 32.1747C35.5628 32.214 35.4342 32.2496 35.306 32.2862C35.2926 32.2902 35.2827 32.2934 35.2764 32.2947C35.2787 32.2938 35.2818 32.2929 35.2854 32.2916C35.2639 32.2978 35.2424 32.3045 35.2213 32.3108C35.1819 32.3233 35.1429 32.3353 35.1034 32.3478C35.0196 32.3746 34.9358 32.4027 34.8511 32.4276C34.6862 32.4763 34.5002 32.5204 34.3491 32.6114C34.3621 32.6186 34.376 32.6253 34.3921 32.6324C34.5212 32.6882 34.653 32.71 34.7928 32.7199C35.2563 32.7524 35.7143 32.8367 36.1795 32.8648C37.4214 32.9407 38.6889 32.8822 39.9129 32.6489C40.029 32.6271 40.1957 32.6828 40.2598 32.7877C40.2643 32.7952 40.2692 32.8028 40.2737 32.8104C40.4113 33.0344 40.3548 33.253 40.1294 33.3859C39.6077 33.6933 39.0497 33.9226 38.4783 34.1215C37.611 34.4231 36.7164 34.6328 35.8407 34.9067C35.4086 35.0419 34.9788 35.1913 34.5651 35.376C34.3653 35.4652 34.1663 35.5589 33.9771 35.67C33.8628 35.7374 33.6988 35.8342 33.5881 35.9167C33.6692 35.9337 33.7512 35.9475 33.8337 35.9569C33.8705 35.9613 33.9072 35.9653 33.9444 35.9685C33.9534 35.9694 33.9601 35.9698 33.9659 35.9707C33.9713 35.9707 33.978 35.9711 33.9874 35.9716C34.1739 35.981 34.3608 35.9876 34.5472 35.9926C35.669 36.0224 36.7864 35.8998 37.9001 35.7798C38.1108 35.757 38.2851 35.9823 38.282 36.1732C38.2793 36.3539 38.156 36.4864 37.9906 36.5413C36.7272 36.9584 35.4866 37.4554 34.294 38.0425C33.7665 38.3021 33.1641 38.576 32.7146 38.8655C32.577 38.9543 32.4407 39.0467 32.3144 39.1506C32.2673 39.189 32.2211 39.2287 32.1772 39.2702C32.166 39.2818 32.1445 39.3032 32.1405 39.3076C32.1207 39.3299 32.101 39.3523 32.0831 39.3755C32.0665 39.3969 32.0504 39.4183 32.0351 39.4406C32.0293 39.4517 32.0212 39.4669 32.0181 39.4736C32.0136 39.4839 32.0091 39.4937 32.0051 39.5039C32.0038 39.5102 32.0024 39.5173 32.0011 39.524L32.0033 39.5262C32.1543 39.6489 32.4757 39.6935 32.7061 39.7096C33.0005 39.7306 33.2954 39.7306 33.5903 39.7261C34.5768 39.7118 35.566 39.7997 36.5394 39.9554C36.6483 39.9728 36.7424 40.087 36.7666 40.1883C36.7693 40.2008 36.7725 40.2133 36.7756 40.2257C36.807 40.356 36.7478 40.534 36.6138 40.5884C36.1396 40.7803 35.6654 40.9712 35.1962 41.1742C34.7543 41.3647 34.3227 41.5739 33.8902 41.7849C33.5854 41.9339 33.2775 42.0869 33.0068 42.2935C32.8885 42.3836 32.7693 42.48 32.6926 42.6098C32.6895 42.6143 32.6872 42.6183 32.685 42.6214C32.6837 42.6259 32.6819 42.6312 32.6792 42.6383C32.676 42.6482 32.6711 42.6722 32.668 42.6856C32.668 42.6946 32.668 42.7035 32.6675 42.7088C32.668 42.7093 32.6684 42.7102 32.6684 42.7106C32.6702 42.7124 32.6716 42.7142 32.6729 42.7155C32.6769 42.7195 32.6828 42.7249 32.6886 42.7298C32.6949 42.7347 32.7016 42.7396 32.7088 42.7441C32.7258 42.7552 32.7979 42.7918 32.7979 42.794C32.8329 42.8088 32.8674 42.8226 32.9028 42.8346C33.4438 43.0126 34.0408 43.0224 34.605 43.0354C35.1124 43.0465 35.6291 43.0046 36.1343 43.0532C36.5031 43.0885 36.6196 43.61 36.2714 43.7719C35.7847 43.9981 35.3091 44.2461 34.8291 44.4857C34.1819 44.8082 33.4886 45.0978 32.8974 45.5211C32.7648 45.6162 32.6335 45.717 32.5326 45.8464C32.5192 45.8633 32.5062 45.8807 32.4936 45.8981C32.4936 45.9012 32.4806 45.9258 32.4739 45.9392C32.4766 45.9418 32.4793 45.9445 32.482 45.9467C32.4999 45.9592 32.5192 45.9713 32.5389 45.9815C32.5407 45.9829 32.542 45.9833 32.5434 45.9842C32.5653 45.9931 32.5868 46.0021 32.6088 46.0096C33.1502 46.1957 33.7387 46.1832 34.3155 46.1801C34.8238 46.1769 35.3315 46.1395 35.8393 46.139C36.2665 46.1386 36.4614 46.8024 36.0383 46.9764C35.9559 47.0103 35.8734 47.0428 35.79 47.075C35.4974 47.1887 35.2038 47.3007 34.9165 47.4278C34.7503 47.5014 34.5858 47.5782 34.4253 47.6629C34.3514 47.7022 34.2774 47.7424 34.2053 47.7847C34.1694 47.8057 34.134 47.8271 34.0986 47.849C34.0919 47.8534 34.0309 47.8936 34.0291 47.8936C33.9 47.9837 33.7745 48.0805 33.6629 48.1916C33.6455 48.2085 33.6284 48.2255 33.6119 48.2429C33.6011 48.2558 33.5751 48.2862 33.5688 48.2942C33.5263 48.35 33.485 48.4075 33.451 48.4695C33.4487 48.4731 33.4474 48.4762 33.4456 48.4793C33.4393 48.4932 33.433 48.5074 33.4272 48.5217C33.4151 48.5534 33.4026 48.5855 33.3936 48.6181C33.3904 48.6297 33.3882 48.6373 33.3864 48.6426C33.3833 48.6636 33.3792 48.6854 33.377 48.7073C33.3797 48.7171 33.3842 48.7564 33.3887 48.7898C33.3967 48.7854 33.4398 48.8715 33.4299 48.8719C33.4644 48.9094 33.5065 48.9522 33.4913 48.9429C33.5267 48.9705 33.5626 48.9968 33.6011 49.0196C33.6132 49.0267 33.6526 49.0477 33.6576 49.0508C33.6706 49.0566 33.6836 49.0629 33.6966 49.0682C33.7584 49.0945 33.8207 49.1186 33.8848 49.1396C34.1649 49.2301 34.4625 49.2752 34.7637 49.3109C35.0487 49.3444 35.3351 49.3568 35.6211 49.3796C35.8389 49.3965 36.0554 49.3867 36.2741 49.397C36.565 49.4104 36.9638 49.4331 37.17 49.67C37.4936 50.043 37.231 50.4222 36.8563 50.61C36.2432 50.9174 35.5928 51.053 34.9524 51.2948C34.8206 51.3447 34.6893 51.3974 34.5634 51.4603C34.515 51.4848 34.467 51.5098 34.4204 51.5375C34.571 51.5928 34.7417 51.6222 34.8964 51.6526C35.098 51.6914 35.3315 51.7476 35.5359 51.728C35.8756 51.6945 36.2127 51.6454 36.5493 51.5919C36.8307 51.5473 37.0607 51.9358 36.8478 52.146C36.4915 52.4971 36.0473 52.5658 35.5655 52.5921C35.1178 52.6166 34.6687 52.6202 34.2209 52.6434C33.3084 52.6911 32.3955 52.6478 31.483 52.6376C31.9016 53.1493 32.2512 53.7234 32.5102 54.3101C32.5187 54.3096 32.5272 54.3087 32.5358 54.3083C32.586 54.3047 32.6362 54.3011 32.6863 54.2971C32.6886 54.2971 32.6908 54.2967 32.6931 54.2967C32.737 54.2931 32.7809 54.2895 32.8248 54.2855C32.8714 54.282 32.9176 54.2779 32.9642 54.2735C32.9656 54.2735 32.9674 54.2735 32.9692 54.273C33.0341 54.2672 33.0987 54.2605 33.1632 54.2539C33.2183 54.2481 33.2735 54.2423 33.3286 54.2356C33.3689 54.2316 33.4093 54.2266 33.4496 54.2217C33.4958 54.2164 33.5415 54.2106 33.5877 54.2043C33.7069 54.1892 33.8261 54.1722 33.9449 54.1539C34.9833 53.9938 35.9308 53.7734 36.9482 53.3728C37.4358 53.1809 37.9122 52.9615 38.3788 52.7219C38.6199 52.5983 38.8592 52.4712 39.0963 52.3396C39.2088 52.2771 39.3213 52.2017 39.4414 52.1375C39.4387 52.1201 39.4369 52.1018 39.4365 52.0826C39.4334 52.0005 39.4248 51.9162 39.4217 51.8323C39.3948 51.8471 39.3675 51.8622 39.3406 51.8774C39.2362 51.3385 39.2025 50.7795 39.1483 50.2339C39.0981 49.7276 39.052 49.2203 39.0112 48.7131C38.9283 47.6719 38.8745 46.6271 38.848 45.5823C38.8323 44.9662 38.8265 44.3501 38.8328 43.7336C38.8391 43.1166 38.8229 42.5009 38.8202 41.884C38.8184 41.5587 38.8054 41.2291 38.8274 40.9043C38.8552 40.4983 38.9206 40.112 39.0013 39.7132C39.0587 39.4299 39.1178 39.1711 39.2303 38.9012C39.289 38.7598 39.3303 38.6108 39.3715 38.4636C39.4468 38.1955 39.5387 37.9332 39.635 37.6717C39.8354 37.1279 40.1074 36.626 40.3633 36.1077C40.487 35.8574 40.6255 35.6098 40.786 35.3805C40.9357 35.1663 41.0594 34.9446 41.2328 34.7466C41.439 34.5101 41.6716 34.3013 41.8769 34.0627C42.0405 33.8713 42.1937 33.6736 42.3367 33.4666C42.6289 33.0442 42.827 32.5798 42.9933 32.0971C43.675 30.115 43.8265 27.9906 43.6037 25.9166ZM29.1932 47.8343C28.9579 47.8343 28.745 47.7009 28.7194 47.4497C28.6975 47.2342 28.8696 46.9782 29.1053 46.9782C29.3406 46.9782 29.5535 47.1115 29.5791 47.3627C29.601 47.5782 29.4289 47.8343 29.1932 47.8343ZM29.6965 43.8781C29.117 43.8781 29.1242 42.9845 29.7037 42.9845C30.2832 42.9845 30.276 43.8781 29.6965 43.8781ZM30.5203 38.7643C30.4705 38.8258 30.4087 38.8709 30.3347 38.899C30.2984 38.9079 30.2621 38.9164 30.2258 38.9249C30.151 38.932 30.0783 38.9209 30.0093 38.891C29.9771 38.8718 29.9452 38.853 29.9134 38.8339C29.8229 38.762 29.7637 38.655 29.7521 38.5403C29.7409 38.4297 29.774 38.3164 29.8435 38.2294C29.8932 38.1678 29.9551 38.1228 30.029 38.0947C30.0653 38.0857 30.1016 38.0773 30.1384 38.0688C30.2132 38.0616 30.2854 38.0728 30.3549 38.1027C30.3867 38.1219 30.419 38.141 30.4508 38.1602C30.5413 38.2316 30.6005 38.3387 30.6121 38.4533C30.6233 38.564 30.5902 38.6773 30.5203 38.7643ZM31.4888 49.48C31.591 49.4974 31.6842 49.5545 31.7456 49.6383C31.7568 49.654 31.7671 49.6705 31.7756 49.6874C31.8384 49.774 31.868 49.8815 31.8568 49.9881C31.8442 50.1023 31.7864 50.2085 31.6963 50.2808C31.6349 50.3303 31.565 50.3606 31.487 50.3727C31.3333 50.1839 31.1795 49.9952 31.0258 49.8065C31.0585 49.5915 31.2759 49.4438 31.4888 49.48ZM30.9469 30.6539C30.7009 30.6539 30.492 30.4598 30.4875 30.2118C30.4835 29.97 30.6856 29.7545 30.9317 29.7545C31.1777 29.7545 31.3871 29.9486 31.3911 30.1966C31.3951 30.4384 31.1934 30.6539 30.9469 30.6539Z" fill="#E08800"/>
<path d="M43.4644 24.9019C42.5515 24.7511 41.6237 24.9617 40.7525 25.249C39.632 25.6188 38.317 26.366 37.1405 26.0337C36.5785 25.8744 36.0452 25.6937 35.4518 25.7156C34.939 25.7339 34.4384 25.9137 33.9575 26.0756C33.4564 26.2443 32.9527 26.3781 32.4314 26.4682C31.998 26.5427 31.5696 26.5775 31.1424 26.5775C31.1057 26.5775 31.0689 26.5771 31.0322 26.5766C30.9892 26.5762 30.9457 26.5753 30.9022 26.5739C30.8708 26.573 30.8395 26.5717 30.8081 26.5704C30.761 26.5686 30.714 26.5663 30.6674 26.5632C30.6311 26.5614 30.5943 26.5588 30.558 26.5561C30.5324 26.5543 30.5065 26.5525 30.4809 26.5503C30.4598 26.5485 30.4383 26.5467 30.4168 26.5449C30.3263 26.5369 30.2357 26.5275 30.1452 26.5164C30.1147 26.5128 30.0847 26.5092 30.0542 26.5052C29.9762 26.495 29.8978 26.4838 29.8194 26.4718C29.7871 26.4669 29.7548 26.4615 29.723 26.4562C29.7127 26.4544 29.702 26.4526 29.6917 26.4508C29.7481 26.3772 29.8041 26.3036 29.8593 26.2291C31.7542 23.6684 34.403 23.7259 37.3162 23.4413C38.9718 23.2794 40.5436 23.2646 42.1571 22.7516C42.4126 22.6704 42.6922 22.5745 42.9831 22.4639C43.0176 22.628 43.0526 22.7922 43.0875 22.9564C43.1059 23.0434 43.1243 23.1304 43.1422 23.2178C43.1606 23.3052 43.179 23.3931 43.1969 23.481C43.2435 23.7063 43.2888 23.9316 43.3318 24.1573C43.3403 24.2015 43.3488 24.2457 43.3569 24.2903C43.3667 24.3411 43.3762 24.392 43.3851 24.4428C43.3945 24.4937 43.4035 24.545 43.4125 24.5959C43.4304 24.6976 43.4479 24.7997 43.4644 24.9019Z" fill="#CCB37F"/>
</g>
<defs>
<linearGradient id="paint0_linear_484_1016" x1="0" y1="0" x2="64" y2="64" gradientUnits="userSpaceOnUse">
<stop stop-color="#E0A953"/>
<stop offset="1" stop-color="white"/>
</linearGradient>
<clipPath id="clip0_484_1016">
<rect width="24.96" height="48.64" fill="white" transform="translate(19.84 8.31982)"/>
</clipPath>
</defs>
</svg>
