<?xml version="1.0" encoding="UTF-8"?>
<svg xmlns="http://www.w3.org/2000/svg" xmlns:xlink="http://www.w3.org/1999/xlink" width="64px" height="64px" viewBox="0 0 64 64" version="1.1">
<defs>
<linearGradient id="linear0" gradientUnits="userSpaceOnUse" x1="-0.00828" y1="0.07652" x2="0.57636" y2="0.78411" gradientTransform="matrix(63.322916,0,0,56.784722,0.222222,7.045139)">
<stop offset="0" style="stop-color:rgb(25.490196%,81.960784%,100%);stop-opacity:1;"/>
<stop offset="1" style="stop-color:rgb(74.117647%,20.392157%,99.607843%);stop-opacity:1;"/>
</linearGradient>
<linearGradient id="linear1" gradientUnits="userSpaceOnUse" x1="0.43376" y1="0.02242" x2="0.50316" y2="0.8903" gradientTransform="matrix(29.142361,0,0,53.210069,22.001736,0.015625)">
<stop offset="0" style="stop-color:rgb(100%,91.764706%,51.372549%);stop-opacity:1;"/>
<stop offset="0.08333" style="stop-color:rgb(100%,86.666667%,20.784314%);stop-opacity:1;"/>
<stop offset="1" style="stop-color:rgb(100%,65.882353%,0%);stop-opacity:1;"/>
</linearGradient>
</defs>
<g id="surface1">
<path style=" stroke:none;fill-rule:nonzero;fill:url(#linear0);" d="M 63.546875 9.449219 L 33.597656 63 C 32.980469 64.105469 31.390625 64.109375 30.765625 63.011719 L 0.222656 9.453125 C -0.460938 8.253906 0.5625 6.800781 1.921875 7.046875 L 31.902344 12.402344 C 32.09375 12.4375 32.289062 12.4375 32.480469 12.402344 L 61.832031 7.050781 C 63.1875 6.804688 64.21875 8.246094 63.546875 9.449219 Z M 63.546875 9.449219 "/>
<path style=" stroke:none;fill-rule:nonzero;fill:url(#linear1);" d="M 46.183594 0.015625 L 24.019531 4.359375 C 23.65625 4.429688 23.386719 4.738281 23.363281 5.109375 L 22 28.132812 C 21.984375 28.390625 22.09375 28.636719 22.289062 28.800781 C 22.484375 28.96875 22.746094 29.03125 22.996094 28.972656 L 29.167969 27.550781 C 29.746094 27.417969 30.265625 27.925781 30.148438 28.503906 L 28.3125 37.484375 C 28.191406 38.085938 28.757812 38.601562 29.347656 38.421875 L 33.160156 37.265625 C 33.75 37.085938 34.316406 37.605469 34.191406 38.210938 L 31.28125 52.308594 C 31.097656 53.191406 32.269531 53.671875 32.757812 52.917969 L 33.085938 52.410156 L 51.144531 16.371094 C 51.449219 15.769531 50.925781 15.082031 50.265625 15.207031 L 43.910156 16.433594 C 43.3125 16.550781 42.808594 15.992188 42.976562 15.410156 L 47.121094 1.039062 C 47.289062 0.453125 46.78125 -0.101562 46.183594 0.015625 Z M 46.183594 0.015625 "/>
</g>
</svg>
