<?xml version="1.0" encoding="UTF-8"?>
<svg xmlns="http://www.w3.org/2000/svg" xmlns:xlink="http://www.w3.org/1999/xlink" width="256px" height="256px" viewBox="0 0 256 256" version="1.1">
<defs>
<linearGradient id="linear0" gradientUnits="userSpaceOnUse" x1="-0.00828" y1="0.07652" x2="0.57636" y2="0.78411" gradientTransform="matrix(254.96875,0,0,227.140625,0.03125,28.179688)">
<stop offset="0" style="stop-color:rgb(25.490196%,81.960784%,100%);stop-opacity:1;"/>
<stop offset="1" style="stop-color:rgb(74.117647%,20.392157%,99.607843%);stop-opacity:1;"/>
</linearGradient>
<linearGradient id="linear1" gradientUnits="userSpaceOnUse" x1="0.43376" y1="0.02242" x2="0.50316" y2="0.8903" gradientTransform="matrix(116.570312,0,0,212.992188,88.007812,0.0625)">
<stop offset="0" style="stop-color:rgb(100%,91.764706%,51.372549%);stop-opacity:1;"/>
<stop offset="0.08333" style="stop-color:rgb(100%,86.666667%,20.784314%);stop-opacity:1;"/>
<stop offset="1" style="stop-color:rgb(100%,65.882353%,0%);stop-opacity:1;"/>
</linearGradient>
</defs>
<g id="surface1">
<path style=" stroke:none;fill-rule:nonzero;fill:url(#linear0);" d="M 254.179688 37.789062 L 134.390625 251.992188 C 131.917969 256.414062 125.5625 256.441406 123.050781 252.039062 L 0.890625 37.808594 C -1.84375 33.015625 2.253906 27.207031 7.691406 28.179688 L 127.605469 49.609375 C 128.371094 49.746094 129.15625 49.746094 129.917969 49.605469 L 247.328125 28.207031 C 252.746094 27.21875 256.863281 32.984375 254.179688 37.789062 Z M 254.179688 37.789062 "/>
<path style=" stroke:none;fill-rule:nonzero;fill:url(#linear1);" d="M 184.730469 0.0625 L 96.082031 17.433594 C 94.625 17.71875 93.546875 18.953125 93.460938 20.433594 L 88.007812 112.53125 C 87.945312 113.554688 88.371094 114.546875 89.15625 115.210938 C 89.9375 115.871094 90.988281 116.125 91.988281 115.894531 L 116.667969 110.199219 C 118.976562 109.667969 121.0625 111.703125 120.589844 114.023438 L 113.257812 149.929688 C 112.761719 152.347656 115.03125 154.414062 117.390625 153.695312 L 132.636719 149.066406 C 135 148.347656 137.269531 150.417969 136.769531 152.839844 L 125.117188 209.238281 C 124.386719 212.765625 129.082031 214.691406 131.039062 211.667969 L 132.34375 209.644531 L 204.578125 65.488281 C 205.789062 63.074219 203.703125 60.324219 201.054688 60.835938 L 175.648438 65.738281 C 173.261719 66.199219 171.230469 63.976562 171.902344 61.640625 L 188.484375 4.160156 C 189.160156 1.820312 187.121094 -0.40625 184.730469 0.0625 Z M 184.730469 0.0625 "/>
</g>
</svg>
