<?xml version="1.0" encoding="UTF-8"?>
<svg xmlns="http://www.w3.org/2000/svg" xmlns:xlink="http://www.w3.org/1999/xlink" width="144px" height="144px" viewBox="0 0 144 144" version="1.1">
<defs>
<linearGradient id="linear0" gradientUnits="userSpaceOnUse" x1="-0.00828" y1="0.07652" x2="0.57636" y2="0.78411" gradientTransform="matrix(142.476562,0,0,127.765625,0.5,15.851562)">
<stop offset="0" style="stop-color:rgb(25.490196%,81.960784%,100%);stop-opacity:1;"/>
<stop offset="1" style="stop-color:rgb(74.117647%,20.392157%,99.607843%);stop-opacity:1;"/>
</linearGradient>
<linearGradient id="linear1" gradientUnits="userSpaceOnUse" x1="0.43376" y1="0.02242" x2="0.50316" y2="0.8903" gradientTransform="matrix(65.570312,0,0,119.722656,49.503906,0.0351562)">
<stop offset="0" style="stop-color:rgb(100%,91.764706%,51.372549%);stop-opacity:1;"/>
<stop offset="0.08333" style="stop-color:rgb(100%,86.666667%,20.784314%);stop-opacity:1;"/>
<stop offset="1" style="stop-color:rgb(100%,65.882353%,0%);stop-opacity:1;"/>
</linearGradient>
</defs>
<g id="surface1">
<path style=" stroke:none;fill-rule:nonzero;fill:url(#linear0);" d="M 142.976562 21.257812 L 75.59375 141.746094 C 74.203125 144.234375 70.628906 144.246094 69.21875 141.773438 L 0.5 21.269531 C -1.039062 18.570312 1.269531 15.304688 4.324219 15.851562 L 71.777344 27.90625 C 72.210938 27.984375 72.648438 27.984375 73.078125 27.902344 L 139.121094 15.867188 C 142.167969 15.3125 144.488281 18.554688 142.976562 21.257812 Z M 142.976562 21.257812 "/>
<path style=" stroke:none;fill-rule:nonzero;fill:url(#linear1);" d="M 103.910156 0.0351562 L 54.046875 9.804688 C 53.226562 9.964844 52.621094 10.660156 52.570312 11.496094 L 49.503906 63.300781 C 49.46875 63.875 49.707031 64.433594 50.148438 64.804688 C 50.589844 65.179688 51.179688 65.320312 51.742188 65.191406 L 65.625 61.988281 C 66.925781 61.6875 68.097656 62.832031 67.832031 64.136719 L 63.707031 84.335938 C 63.429688 85.695312 64.707031 86.855469 66.03125 86.453125 L 74.609375 83.847656 C 75.9375 83.445312 77.214844 84.609375 76.933594 85.972656 L 70.378906 117.695312 C 69.96875 119.679688 72.609375 120.761719 73.707031 119.0625 L 74.445312 117.925781 L 115.074219 36.835938 C 115.757812 35.480469 114.582031 33.933594 113.09375 34.21875 L 98.800781 36.976562 C 97.457031 37.238281 96.316406 35.984375 96.695312 34.671875 L 106.023438 2.339844 C 106.402344 1.023438 105.253906 -0.226562 103.910156 0.0351562 Z M 103.910156 0.0351562 "/>
</g>
</svg>
