<svg width="60" height="66" viewBox="0 0 60 66" fill="none" xmlns="http://www.w3.org/2000/svg">
<g clip-path="url(#clip0_465_1057)">
<path d="M57.9809 23.5113C57.8847 23.4378 57.8005 23.3522 57.7043 23.291C56.8264 22.5566 56.0206 21.7366 55.2148 20.9288C55.0584 20.2557 54.9021 19.5825 54.7217 18.9339C55.0655 19.2605 55.4203 19.5537 55.786 19.856L55.8402 19.9007C56.3934 20.3658 56.9105 20.8676 57.4878 21.2838C57.3916 21.4306 57.4518 21.6877 57.6803 21.6999C57.8005 22.2874 57.8967 22.8993 57.9809 23.5113Z" fill="#17D6FF"/>
<path d="M58.3778 27.5135C58.0531 26.9872 57.7043 26.4731 57.3195 25.9958C56.9106 25.4818 56.3212 24.9922 55.8642 24.4414C55.7079 23.4134 55.5275 22.3975 55.311 21.4062C55.8642 22.0059 56.4175 22.6056 57.0068 23.1686C57.3074 23.4501 57.7284 23.7683 58.0531 24.1232C58.2094 25.2737 58.3057 26.4119 58.3778 27.5135Z" fill="#17D6FF"/>
<path d="M57.4758 20.6106C56.9827 20.2557 56.5257 19.8518 56.0446 19.4724C55.5034 19.0562 54.9863 18.6524 54.5052 18.1873C54.3128 17.5019 54.1203 16.8165 53.9039 16.1189C54.421 16.5717 54.9502 17.0123 55.4313 17.5019C55.9965 18.0649 56.5257 18.6646 57.1391 19.1786C57.2593 19.656 57.3796 20.1333 57.4758 20.6106Z" fill="#17D6FF"/>
<path d="M56.9105 18.3341C56.4175 17.8935 55.9604 17.4162 55.4673 16.9756C54.8901 16.4738 54.3007 15.9965 53.7114 15.5069C53.519 14.9317 53.3266 14.3687 53.1221 13.8057C53.1341 13.8179 53.1582 13.8302 53.1702 13.8424C53.8317 14.332 54.6736 14.6747 55.311 15.2009C55.311 15.2621 55.3471 15.3356 55.4192 15.3723C55.5275 15.4457 55.6477 15.5192 55.756 15.5926C55.8522 15.6538 55.9484 15.6293 56.0085 15.5681C56.3453 16.4616 56.646 17.3917 56.9105 18.3341Z" fill="#17D6FF"/>
<path d="M55.768 15.0174C55.0223 14.3932 54.0362 14.0749 53.2424 13.5242C53.1221 13.4385 53.0019 13.3528 52.8816 13.2549C52.3163 11.8597 51.6549 10.5011 50.825 9.30171C51.6428 9.9871 52.6651 10.3543 53.519 10.9662C54.421 12.1779 55.1546 13.5487 55.768 15.0174Z" fill="#17D6FF"/>
<path d="M52.7974 10.0605C52.0638 9.65664 51.3061 9.28947 50.6446 8.72647C50.4281 8.54288 50.1635 8.28586 49.8749 8.05332C49.7907 7.95541 49.7185 7.84526 49.6344 7.75958C49.3577 7.45361 49.0571 7.15987 48.7564 6.87837C50.3319 7.64943 51.6669 8.73871 52.7974 10.0605Z" fill="#17D6FF"/>
<path d="M58.4861 31.0505C58.2335 30.6344 57.9088 30.255 57.6201 29.8266C57.1751 29.1657 56.7783 28.4803 56.2731 27.8806C56.1889 26.9015 56.0807 25.9224 55.9364 24.9555C56.0446 25.0901 56.1649 25.2247 56.2852 25.3594C57.1631 26.3752 57.8486 27.4645 58.4259 28.6639C58.438 29.0556 58.45 29.4595 58.462 29.8389C58.4861 30.2305 58.4861 30.6467 58.4861 31.0505Z" fill="#17D6FF"/>
<path d="M58.45 34.71C58.2936 34.4897 58.1373 34.2694 57.993 34.0614C57.6923 33.6207 56.9226 32.7273 56.4776 31.8706C56.4656 30.7079 56.4175 29.5329 56.3212 28.3824C56.6219 28.7986 56.8865 29.2514 57.1511 29.7165C57.6201 30.512 58.2816 31.2464 58.4861 32.1643C58.498 33.0007 58.4745 33.8371 58.4507 34.6854L58.45 34.71Z" fill="#17D6FF"/>
<path d="M58.1974 38.9937C58.1253 38.8101 58.0411 38.6388 57.9809 38.4919C57.5359 37.5373 56.9707 36.6316 56.3693 35.7748C56.4415 34.6611 56.4896 33.5473 56.4896 32.4336C56.5257 32.4948 56.5618 32.5682 56.5979 32.6171C57.0549 33.4494 57.9328 34.4285 58.438 35.4199C58.3898 36.6193 58.3057 37.8065 58.1974 38.9937Z" fill="#17D6FF"/>
<path d="M57.6201 43.1795C57.4878 42.8735 57.3435 42.5798 57.1992 42.2738C56.7422 41.3314 56.3573 40.3522 55.9965 39.3731C56.1408 38.345 56.2611 37.3047 56.3453 36.2521C56.6339 36.6928 56.9106 37.1334 57.1631 37.5862C57.4518 38.1125 58.0651 39.0916 58.1253 39.8994C58.1012 40.083 58.0771 40.2543 58.0651 40.4379C58.029 40.5358 57.993 40.6215 57.9328 40.7072C57.8366 40.8296 57.8847 40.9764 57.993 41.0376C57.8607 41.7475 57.7524 42.4696 57.6201 43.1795Z" fill="#17D6FF"/>
<path d="M56.6339 47.1572C56.5498 46.7533 56.3814 46.3494 56.2731 46.0434C55.9484 45.2111 55.5636 44.4156 55.1667 43.6323C55.4553 42.4818 55.6959 41.3069 55.8883 40.1197C56.0927 40.6827 56.2972 41.2457 56.5137 41.7965C56.8023 42.543 57.2473 43.2651 57.3676 44.0607C57.2954 44.024 57.2353 43.9872 57.1631 43.9505C56.9346 43.6935 56.5858 44.0607 56.8023 44.3177C56.9707 44.538 57.127 44.6482 57.3074 44.7093C57.103 45.5416 56.8865 46.3494 56.6339 47.1572Z" fill="#17D6FF"/>
<path d="M55.3471 50.5596C55.1787 50.0823 55.0705 49.5683 54.9141 49.0787C54.6615 48.2464 54.421 47.4264 54.2887 46.5574C54.6014 45.6395 54.878 44.6971 55.1186 43.7425C55.8041 45.052 57.0068 47.4754 56.1408 48.0017C55.9725 48.0996 56.0807 48.3443 56.225 48.3566C55.9725 49.1154 55.6718 49.8375 55.3471 50.5596Z" fill="#17D6FF"/>
<path d="M53.8076 52.6035C53.4709 51.6244 53.2063 50.5474 53.1582 49.4948C53.4709 48.785 53.7716 48.0629 54.0482 47.3163C54.1684 47.9527 54.3248 48.5769 54.5052 49.2011C54.6856 49.8498 54.7818 50.5351 55.0705 51.1471C54.7457 51.8202 54.3849 52.4812 53.988 53.1176C53.9399 52.9462 53.8678 52.7627 53.8076 52.6035Z" fill="#17D6FF"/>
<path d="M52.0758 54.1579C51.9916 53.5092 51.7631 52.8973 51.703 52.2486C52.0517 51.7346 52.3644 51.1838 52.6651 50.5841C52.7493 50.4128 52.8214 50.2414 52.8936 50.0701C52.9537 50.6086 53.05 51.1349 53.1582 51.6734C53.2424 52.1017 53.6272 52.9952 53.6754 53.6439C53.2063 54.3782 52.6892 55.0758 52.1239 55.749C52.1359 55.2227 52.1359 54.6842 52.0758 54.1579Z" fill="#17D6FF"/>
<path d="M49.9831 55.5409C50.0553 55.0269 50.1635 54.5373 50.2237 54.0355C50.6687 53.5827 51.0896 53.1054 51.4865 52.5546C51.5586 53.0442 51.6909 53.5092 51.7631 54.011C51.8593 54.7454 51.7992 55.4797 51.7511 56.2141C51.1978 56.8505 50.5965 57.4257 49.9711 57.9643C49.923 57.1687 49.8629 56.3609 49.9831 55.5409Z" fill="#17D6FF"/>
<path d="M47.5297 59.7757C47.6018 59.3228 47.686 58.87 47.7341 58.4171L47.7355 58.4041C47.8432 57.3934 47.9406 56.4794 48.4076 55.5654V55.5532C48.9368 55.186 49.4299 54.7943 49.8989 54.3537C49.8148 54.8555 49.6825 55.3573 49.6103 55.8836C49.49 56.6914 49.5021 57.5237 49.5261 58.3437C48.9007 58.8577 48.2272 59.335 47.5297 59.7757Z" fill="#17D6FF"/>
<path d="M44.6793 61.3055C44.98 60.7793 45.1003 60.2163 45.1844 59.6043C45.2927 58.7108 45.413 57.8664 45.6655 57.0219C46.5194 56.6547 47.3252 56.2508 48.0829 55.7612C47.7582 56.4833 47.5898 57.2177 47.4695 58.0255C47.3733 58.6986 47.1929 59.3718 47.0967 60.0449C46.315 60.5222 45.5092 60.9384 44.6793 61.3055Z" fill="#17D6FF"/>
<path d="M42.1898 62.2724C42.4063 61.7706 42.4905 61.1219 42.5506 60.7548C42.719 59.8368 42.8152 58.9067 42.9234 57.9765C43.7412 57.744 44.535 57.4869 45.2927 57.181C45.1484 57.6461 45.0281 58.1111 44.9439 58.6007C44.7755 59.5186 44.7274 60.461 44.1501 61.2321C44.066 61.3422 44.102 61.4402 44.1742 61.5136C43.5248 61.7951 42.8633 62.0399 42.1898 62.2724Z" fill="#17D6FF"/>
<path d="M35.9719 63.631C36.0802 63.4229 36.1644 63.1781 36.2245 62.9456C36.5131 61.7461 36.6214 60.4978 37.6316 59.6533C37.7038 59.5921 37.6797 59.4942 37.6316 59.4452C38.9786 59.127 40.3377 58.772 41.6606 58.3437C41.9372 58.2702 42.2138 58.1968 42.4784 58.1234C42.5626 58.0989 42.6348 58.0744 42.719 58.0499C42.6107 58.6986 42.5025 59.3595 42.3702 60.0082C42.2619 60.5345 42.1417 61.0608 41.9613 61.5748C41.9011 61.7339 41.817 62.1623 41.6606 62.2479C41.4682 62.3703 41.5043 62.2479 41.2757 61.9542C41.1194 61.7706 40.8428 62.0154 40.951 62.2112L41.1675 62.5784C40.6383 62.7375 40.1091 62.8721 39.58 62.9945C39.9047 61.7461 39.7965 60.1918 39.8566 59.1759C39.8686 58.9556 39.5319 58.9556 39.5078 59.1759C39.4236 60.3998 39.5198 61.9052 39.0628 63.1047C38.0405 63.325 37.0062 63.4963 35.9719 63.631Z" fill="#17D6FF"/>
<path d="M32.5203 63.9369C32.7247 63.4474 32.845 62.9211 33.0254 62.456C33.3261 61.6727 33.735 60.9628 33.9514 60.1673C34.7212 60.0449 35.5029 59.9103 36.2606 59.7389C36.6214 59.6655 36.9702 59.5798 37.331 59.4942C36.7176 60.0204 36.3809 60.7058 36.1163 61.4769C35.9118 62.0888 35.8156 63.6677 34.9737 63.6677C34.8775 63.6677 34.8174 63.7044 34.7693 63.7656C34.0356 63.8513 33.2779 63.9002 32.5203 63.9369Z" fill="#17D6FF"/>
<path d="M29.2249 63.9737C29.706 63.4963 30.0548 62.9456 30.3434 62.3214C30.608 61.7461 30.7283 60.7915 31.3416 60.4855C32.0993 60.4121 32.845 60.3264 33.6027 60.2163C33.3621 60.9751 32.9171 61.6605 32.6044 62.3948C32.3759 62.9333 32.1955 63.4719 31.9189 63.9737C31.0049 63.9981 30.1149 63.9981 29.2249 63.9737Z" fill="#17D6FF"/>
<path d="M26.6752 63.8757C26.9398 62.713 27.9501 61.8318 28.2267 60.6569C29.0565 60.6446 29.8864 60.6079 30.7162 60.5467C30.5599 60.7425 30.4517 60.9751 30.3434 61.2199C29.9586 62.15 29.5376 63.068 28.7318 63.6922C28.6236 63.7778 28.5995 63.8757 28.6116 63.9737C28.4672 63.9737 28.3349 63.9736 28.1906 63.9614C27.6855 63.9247 27.1804 63.9002 26.6752 63.8757Z" fill="#17D6FF"/>
<path d="M23.416 63.6065C24.2458 62.8844 24.9674 61.7094 25.2801 60.5834C26.1581 60.6324 27.036 60.6691 27.914 60.6569C27.5652 61.8318 26.4708 62.6518 26.1701 63.8513C25.2561 63.7901 24.3421 63.7166 23.416 63.6065Z" fill="#17D6FF"/>
<path d="M20.6138 63.1536C21.0828 62.6763 21.4677 62.0888 21.7804 61.5136C21.9968 61.1342 22.2133 60.7058 22.3576 60.2652C23.2115 60.3876 24.0654 60.4855 24.9314 60.5467C24.5465 61.6482 23.7287 62.5784 22.9469 63.3862C22.8988 63.4351 22.8868 63.4841 22.8748 63.533C22.1171 63.4474 21.3594 63.3127 20.6138 63.1536Z" fill="#17D6FF"/>
<path d="M17.7995 62.2847C17.8957 62.0276 17.9558 61.7584 18.0521 61.4891C18.2806 60.7915 18.6053 60.1673 19.0262 59.6043C20.0485 59.8491 21.0828 60.0694 22.1171 60.2163C21.7563 61.2933 20.8302 62.3581 20.0605 63.0068L20.0485 63.019C19.9282 62.9945 19.808 62.97 19.6997 62.9456C19.0262 62.7865 18.4008 62.5539 17.7995 62.2847Z" fill="#17D6FF"/>
<path d="M15.2979 60.9261C15.7309 60.2774 16.0436 59.4574 16.2961 58.8332C17.0779 59.0903 17.8596 59.3228 18.6534 59.5309C18.4369 59.8246 18.2325 60.1306 18.0641 60.461C17.8356 60.8894 17.6552 61.587 17.3545 62.0766C16.6329 61.7339 15.9594 61.3422 15.2979 60.9261Z" fill="#17D6FF"/>
<path d="M12.6039 59.2371C12.7362 58.6619 12.8926 58.0867 13.0128 57.5114C13.975 57.952 14.9612 58.3559 15.9474 58.7108C15.7549 59.1637 15.5505 59.6043 15.2979 60.0327C15.1897 60.2285 15.0454 60.461 14.889 60.6813C14.5042 60.4488 14.1193 60.204 13.7224 59.9592C13.3496 59.7389 12.9768 59.4941 12.6039 59.2371Z" fill="#17D6FF"/>
<path d="M10.3309 57.4625C10.4992 57.1075 10.6796 56.7771 10.824 56.4221C11.4494 56.7648 12.0747 57.0831 12.7122 57.389C12.5919 57.9398 12.4235 58.4661 12.2551 59.0046C11.6057 58.5273 10.9563 58.0132 10.3309 57.4625Z" fill="#17D6FF"/>
<path d="M7.36025 54.0845C7.8774 54.5251 8.40658 54.9412 8.98386 55.3206C9.47696 55.6388 9.98209 55.9326 10.4872 56.2263C10.3429 56.5445 10.1625 56.8505 9.98209 57.1442C8.99589 56.2263 8.09388 55.1982 7.36025 54.0845Z" fill="#17D6FF"/>
<path d="M3.12683 25.0412C4.66625 16.4616 9.93398 8.22467 18.1964 5.07923C26.2663 2.00722 35.4428 1.02809 43.164 5.43416C43.9577 5.88701 44.6793 6.40105 45.3649 6.93957L45.3942 6.9661C45.4908 7.05332 45.5792 7.13321 45.6775 7.2333C48.7684 10.2808 50.825 14.4421 52.0758 18.5912C53.1823 22.2629 54.0001 26.3018 54.3368 30.4019C54.5774 36.5214 54.0241 42.9959 51.6188 48.5402C49.7546 52.2486 46.1706 54.8311 42.0575 56.4956C41.4802 56.6669 40.8789 56.8383 40.2775 57.0096C35.9118 58.2213 29.8623 59.0658 25.4245 57.8052C24.8833 57.6583 24.5826 58.1356 24.6548 58.564C17.5349 57.7562 9.65736 55.2105 5.79677 48.9318C1.61145 42.1024 1.7678 32.6539 3.12683 25.0412Z" fill="#17D6FF"/>
<path fill-rule="evenodd" clip-rule="evenodd" d="M4.49788 50.9268C5.46002 54.7332 8.45469 58.307 11.7019 60.3509C12.3033 60.7303 12.9166 61.1464 13.554 61.5503C13.4338 61.7094 13.4939 62.0154 13.7465 62.0032C13.8788 61.9909 14.0111 61.9664 14.1313 61.9175C15.2618 62.6396 16.4284 63.325 17.595 63.7778C20.0244 64.7202 22.9229 64.8793 25.5086 65.0996C29.7541 65.4546 34.3002 65.3934 38.6178 64.5244C38.6299 64.5244 38.6419 64.5244 38.6419 64.5122C44.1622 63.4107 49.3217 61.024 53.074 56.569C59.785 48.6014 60.5066 36.3133 59.6166 26.314C59.4362 24.2579 59.1115 21.908 58.5582 19.5458C58.5582 19.5213 58.5462 19.4846 58.5342 19.4601C57.0068 12.949 53.7956 6.35209 47.229 5.49535C44.6553 3.40247 41.6486 1.84811 38.4976 0.832268C33.9154 -0.636421 29.1287 0.0489675 24.4984 0.94242C19.844 1.87259 15.2258 3.21889 11.4253 6.24194C3.46358 12.5695 0.46891 22.3975 0.035946 32.3479C-0.228643 38.5041 0.853767 45.7252 4.49788 50.9268ZM50.6446 8.72647C51.3061 9.28947 52.0638 9.65664 52.7974 10.0605C51.6669 8.73871 50.3319 7.64943 48.7564 6.87837C49.0571 7.15987 49.3577 7.45361 49.6344 7.75958C49.7185 7.84526 49.7907 7.95541 49.8749 8.05332C50.1635 8.28586 50.4281 8.54288 50.6446 8.72647ZM53.2424 13.5242C54.0362 14.0749 55.0223 14.3932 55.768 15.0174C55.1546 13.5487 54.421 12.1779 53.519 10.9662C52.6651 10.3543 51.6428 9.9871 50.825 9.30171C51.6549 10.5011 52.3163 11.8597 52.8816 13.2549C53.0019 13.3528 53.1221 13.4385 53.2424 13.5242ZM55.4673 16.9756C55.9604 17.4162 56.4175 17.8935 56.9105 18.3341C56.646 17.3917 56.3453 16.4616 56.0085 15.5681C55.9484 15.6293 55.8522 15.6538 55.756 15.5926C55.6477 15.5192 55.5275 15.4457 55.4192 15.3723C55.3471 15.3356 55.311 15.2621 55.311 15.2009C54.6736 14.6747 53.8317 14.332 53.1702 13.8424C53.1582 13.8302 53.1341 13.8179 53.1221 13.8057C53.3266 14.3687 53.519 14.9317 53.7114 15.5069C54.3007 15.9965 54.8901 16.4738 55.4673 16.9756ZM56.0446 19.4724C56.5257 19.8518 56.9827 20.2557 57.4758 20.6106C57.3796 20.1333 57.2593 19.656 57.1391 19.1786C56.5257 18.6646 55.9965 18.0649 55.4313 17.5019C54.9502 17.0123 54.421 16.5717 53.9039 16.1189C54.1203 16.8165 54.3128 17.5019 54.5052 18.1873C54.9863 18.6524 55.5034 19.0562 56.0446 19.4724ZM57.7043 23.291C57.8005 23.3522 57.8847 23.4378 57.9809 23.5113C57.8967 22.8993 57.8005 22.2874 57.6803 21.6999C57.4518 21.6877 57.3916 21.4306 57.4878 21.2838C56.9105 20.8676 56.3934 20.3658 55.8402 19.9007L55.786 19.856C55.4203 19.5537 55.0655 19.2605 54.7217 18.9339C54.9021 19.5825 55.0584 20.2557 55.2148 20.9288C56.0206 21.7366 56.8264 22.5566 57.7043 23.291ZM57.3195 25.9958C57.7043 26.4731 58.0531 26.9872 58.3778 27.5135C58.3057 26.4119 58.2094 25.2737 58.0531 24.1232C57.7284 23.7683 57.3074 23.4501 57.0068 23.1686C56.4175 22.6056 55.8642 22.0059 55.311 21.4062C55.5275 22.3975 55.7079 23.4134 55.8642 24.4414C56.3212 24.9922 56.9106 25.4818 57.3195 25.9958ZM57.6201 29.8266C57.9088 30.255 58.2335 30.6344 58.4861 31.0505C58.4861 30.6467 58.4861 30.2305 58.462 29.8389C58.45 29.4595 58.438 29.0556 58.4259 28.6639C57.8486 27.4645 57.1631 26.3752 56.2852 25.3594C56.1649 25.2247 56.0446 25.0901 55.9364 24.9555C56.0807 25.9224 56.1889 26.9015 56.2731 27.8806C56.7783 28.4803 57.1751 29.1657 57.6201 29.8266ZM57.993 34.0614C58.1373 34.2694 58.2936 34.4897 58.45 34.71L58.4507 34.6854C58.4745 33.8371 58.498 33.0007 58.4861 32.1643C58.2816 31.2464 57.6201 30.512 57.1511 29.7165C56.8865 29.2514 56.6219 28.7986 56.3212 28.3824C56.4175 29.5329 56.4656 30.7079 56.4776 31.8706C56.9226 32.7273 57.6923 33.6207 57.993 34.0614ZM57.9809 38.4919C58.0411 38.6388 58.1253 38.8101 58.1974 38.9937C58.3057 37.8065 58.3898 36.6193 58.438 35.4199C57.9328 34.4285 57.0549 33.4494 56.5979 32.6171C56.5618 32.5682 56.5257 32.4948 56.4896 32.4336C56.4896 33.5473 56.4415 34.6611 56.3693 35.7748C56.9707 36.6316 57.5359 37.5373 57.9809 38.4919ZM57.1992 42.2738C57.3435 42.5798 57.4878 42.8735 57.6201 43.1795C57.7524 42.4696 57.8607 41.7475 57.993 41.0376C57.8847 40.9764 57.8366 40.8296 57.9328 40.7072C57.993 40.6215 58.029 40.5358 58.0651 40.4379C58.0771 40.2543 58.1012 40.083 58.1253 39.8994C58.0651 39.0916 57.4518 38.1125 57.1631 37.5862C56.9106 37.1334 56.6339 36.6928 56.3453 36.2521C56.2611 37.3047 56.1408 38.345 55.9965 39.3731C56.3573 40.3522 56.7422 41.3314 57.1992 42.2738ZM56.2731 46.0434C56.3814 46.3494 56.5498 46.7533 56.6339 47.1572C56.8865 46.3494 57.103 45.5416 57.3074 44.7093C57.127 44.6482 56.9707 44.538 56.8023 44.3177C56.5858 44.0607 56.9346 43.6935 57.1631 43.9505C57.2353 43.9872 57.2954 44.024 57.3676 44.0607C57.2473 43.2651 56.8023 42.543 56.5137 41.7965C56.2972 41.2457 56.0927 40.6827 55.8883 40.1197C55.6959 41.3069 55.4553 42.4818 55.1667 43.6323C55.5636 44.4156 55.9484 45.2111 56.2731 46.0434ZM54.9141 49.0787C55.0705 49.5683 55.1787 50.0823 55.3471 50.5596C55.6718 49.8375 55.9725 49.1154 56.225 48.3566C56.0807 48.3443 55.9725 48.0996 56.1408 48.0017C57.0068 47.4754 55.8041 45.052 55.1186 43.7425C54.878 44.6971 54.6014 45.6395 54.2887 46.5574C54.421 47.4264 54.6615 48.2464 54.9141 49.0787ZM53.1582 49.4948C53.2063 50.5474 53.4709 51.6244 53.8076 52.6035C53.8678 52.7627 53.9399 52.9462 53.988 53.1176C54.3849 52.4812 54.7457 51.8202 55.0705 51.1471C54.7818 50.5351 54.6856 49.8498 54.5052 49.2011C54.3248 48.5769 54.1684 47.9527 54.0482 47.3163C53.7716 48.0629 53.4709 48.785 53.1582 49.4948ZM51.703 52.2486C51.7631 52.8973 51.9916 53.5092 52.0758 54.1579C52.1359 54.6842 52.1359 55.2227 52.1239 55.749C52.6892 55.0758 53.2063 54.3782 53.6754 53.6439C53.6272 52.9952 53.2424 52.1017 53.1582 51.6734C53.05 51.1349 52.9537 50.6086 52.8936 50.0701C52.8214 50.2414 52.7493 50.4128 52.6651 50.5841C52.3644 51.1838 52.0517 51.7346 51.703 52.2486ZM50.2237 54.0355C50.1635 54.5373 50.0553 55.0269 49.9831 55.5409C49.8629 56.3609 49.923 57.1687 49.9711 57.9643C50.5965 57.4257 51.1978 56.8505 51.7511 56.2141C51.7992 55.4797 51.8593 54.7454 51.7631 54.011C51.6909 53.5092 51.5586 53.0442 51.4865 52.5546C51.0896 53.1054 50.6687 53.5827 50.2237 54.0355ZM47.7341 58.4171C47.686 58.87 47.6018 59.3228 47.5297 59.7757C48.2272 59.335 48.9007 58.8577 49.5261 58.3437C49.5021 57.5237 49.49 56.6914 49.6103 55.8836C49.6825 55.3573 49.8148 54.8555 49.8989 54.3537C49.4299 54.7943 48.9368 55.186 48.4076 55.5532V55.5654C47.9406 56.4794 47.8432 57.3934 47.7355 58.4041L47.7341 58.4171ZM45.1844 59.6043C45.1003 60.2163 44.98 60.7793 44.6793 61.3055C45.5092 60.9384 46.315 60.5222 47.0967 60.0449C47.1929 59.3718 47.3733 58.6986 47.4695 58.0255C47.5898 57.2177 47.7582 56.4833 48.0829 55.7612C47.3252 56.2508 46.5194 56.6547 45.6655 57.0219C45.413 57.8664 45.2927 58.7108 45.1844 59.6043ZM42.5506 60.7548C42.4905 61.1219 42.4063 61.7706 42.1898 62.2724C42.8633 62.0399 43.5248 61.7951 44.1742 61.5136C44.102 61.4402 44.066 61.3422 44.1501 61.2321C44.7274 60.461 44.7755 59.5186 44.9439 58.6007C45.0281 58.1111 45.1484 57.6461 45.2927 57.181C44.535 57.4869 43.7412 57.744 42.9234 57.9765C42.8152 58.9067 42.719 59.8368 42.5506 60.7548ZM36.2245 62.9456C36.1644 63.1781 36.0802 63.4229 35.9719 63.631C37.0062 63.4963 38.0405 63.325 39.0628 63.1047C39.5198 61.9052 39.4236 60.3998 39.5078 59.1759C39.5319 58.9556 39.8686 58.9556 39.8566 59.1759C39.7965 60.1918 39.9047 61.7461 39.58 62.9945C40.1091 62.8721 40.6383 62.7375 41.1675 62.5784L40.951 62.2112C40.8428 62.0154 41.1194 61.7706 41.2757 61.9542C41.5043 62.2479 41.4682 62.3703 41.6606 62.2479C41.817 62.1623 41.9011 61.7339 41.9613 61.5748C42.1417 61.0608 42.2619 60.5345 42.3702 60.0082C42.5025 59.3595 42.6107 58.6986 42.719 58.0499C42.6348 58.0744 42.5626 58.0989 42.4784 58.1234C42.2138 58.1968 41.9372 58.2702 41.6606 58.3437C40.3377 58.772 38.9786 59.127 37.6316 59.4452C37.6797 59.4942 37.7038 59.5921 37.6316 59.6533C36.6214 60.4978 36.5131 61.7461 36.2245 62.9456ZM33.0254 62.456C32.845 62.9211 32.7247 63.4474 32.5203 63.9369C33.2779 63.9002 34.0356 63.8513 34.7693 63.7656C34.8174 63.7044 34.8775 63.6677 34.9737 63.6677C35.8156 63.6677 35.9118 62.0888 36.1163 61.4769C36.3809 60.7058 36.7176 60.0204 37.331 59.4942C36.9702 59.5798 36.6214 59.6655 36.2606 59.7389C35.5029 59.9103 34.7212 60.0449 33.9514 60.1673C33.735 60.9628 33.3261 61.6727 33.0254 62.456ZM30.3434 62.3214C30.0548 62.9456 29.706 63.4963 29.2249 63.9737C30.1149 63.9981 31.0049 63.9981 31.9189 63.9737C32.1955 63.4719 32.3759 62.9333 32.6044 62.3948C32.9171 61.6605 33.3621 60.9751 33.6027 60.2163C32.845 60.3264 32.0993 60.4121 31.3416 60.4855C30.7283 60.7915 30.608 61.7461 30.3434 62.3214ZM28.2267 60.6569C27.9501 61.8318 26.9398 62.713 26.6752 63.8757C27.1804 63.9002 27.6855 63.9247 28.1906 63.9614C28.3349 63.9736 28.4672 63.9737 28.6116 63.9737C28.5995 63.8757 28.6236 63.7778 28.7318 63.6922C29.5376 63.068 29.9586 62.15 30.3434 61.2199C30.4517 60.9751 30.5599 60.7425 30.7162 60.5467C29.8864 60.6079 29.0565 60.6446 28.2267 60.6569ZM25.2801 60.5834C24.9674 61.7094 24.2458 62.8844 23.416 63.6065C24.3421 63.7166 25.2561 63.7901 26.1701 63.8513C26.4708 62.6518 27.5652 61.8318 27.914 60.6569C27.036 60.6691 26.1581 60.6324 25.2801 60.5834ZM21.7804 61.5136C21.4677 62.0888 21.0828 62.6763 20.6138 63.1536C21.3594 63.3127 22.1171 63.4474 22.8748 63.533C22.8868 63.4841 22.8988 63.4351 22.9469 63.3862C23.7287 62.5784 24.5465 61.6482 24.9314 60.5467C24.0654 60.4855 23.2115 60.3876 22.3576 60.2652C22.2133 60.7058 21.9968 61.1342 21.7804 61.5136ZM18.0521 61.4891C17.9558 61.7584 17.8957 62.0276 17.7995 62.2847C18.4008 62.5539 19.0262 62.7865 19.6997 62.9456C19.808 62.97 19.9282 62.9945 20.0485 63.019L20.0605 63.0068C20.8302 62.3581 21.7563 61.2933 22.1171 60.2163C21.0828 60.0694 20.0485 59.8491 19.0262 59.6043C18.6053 60.1673 18.2806 60.7915 18.0521 61.4891ZM16.2961 58.8332C16.0436 59.4574 15.7309 60.2774 15.2979 60.9261C15.9594 61.3422 16.6329 61.7339 17.3545 62.0766C17.6552 61.587 17.8356 60.8894 18.0641 60.461C18.2325 60.1306 18.4369 59.8246 18.6534 59.5309C17.8596 59.3228 17.0779 59.0903 16.2961 58.8332ZM13.0128 57.5114C12.8926 58.0867 12.7362 58.6619 12.6039 59.2371C12.9768 59.4941 13.3496 59.7389 13.7224 59.9592C14.1193 60.204 14.5042 60.4488 14.889 60.6813C15.0454 60.461 15.1897 60.2285 15.2979 60.0327C15.5505 59.6043 15.7549 59.1637 15.9474 58.7108C14.9612 58.3559 13.975 57.952 13.0128 57.5114ZM10.824 56.4221C10.6796 56.7771 10.4992 57.1075 10.3309 57.4625C10.9563 58.0132 11.6057 58.5273 12.2551 59.0046C12.4235 58.4661 12.5919 57.9398 12.7122 57.389C12.0747 57.0831 11.4494 56.7648 10.824 56.4221ZM8.98386 55.3206C8.40658 54.9412 7.8774 54.5251 7.36025 54.0845C8.09388 55.1982 8.99589 56.2263 9.98209 57.1442C10.1625 56.8505 10.3429 56.5445 10.4872 56.2263C9.98209 55.9326 9.47696 55.6388 8.98386 55.3206ZM18.1964 5.07923C9.93398 8.22467 4.66625 16.4616 3.12683 25.0412C1.7678 32.6539 1.61145 42.1024 5.79677 48.9318C9.65736 55.2105 17.5349 57.7562 24.6548 58.564C24.5826 58.1356 24.8833 57.6583 25.4245 57.8052C29.8623 59.0658 35.9118 58.2213 40.2775 57.0096C40.8789 56.8383 41.4802 56.6669 42.0575 56.4956C46.1706 54.8311 49.7546 52.2486 51.6188 48.5402C54.0241 42.9959 54.5774 36.5214 54.3368 30.4019C54.0001 26.3018 53.1823 22.2629 52.0758 18.5912C50.825 14.4421 48.7684 10.2808 45.6775 7.2333C45.5792 7.13321 45.4908 7.05332 45.3942 6.9661L45.3649 6.93957C44.6793 6.40105 43.9577 5.88701 43.164 5.43416C35.4428 1.02809 26.2663 2.00722 18.1964 5.07923Z" fill="#333333"/>
<path d="M30.6104 21.7215C30.7304 21.7215 30.8204 21.7365 30.8804 21.7665C30.9404 21.7665 30.9854 21.8265 31.0154 21.9465C31.0754 22.0365 31.1054 22.2015 31.1054 22.4415C31.1054 22.8915 30.8804 24.3015 30.4304 26.6715C30.0104 29.0415 29.7554 30.5415 29.6654 31.1715C30.4154 31.1715 31.5704 31.1115 33.1304 30.9915C34.6904 30.8415 36.1004 30.7665 37.3604 30.7665C37.8704 30.7665 38.2304 30.8115 38.4404 30.9015C38.6504 30.9615 38.7554 31.1715 38.7554 31.5315C38.7554 31.8315 37.8254 32.1015 35.9654 32.3415C34.1054 32.5515 31.9304 32.7015 29.4404 32.7915C29.2604 34.1715 29.1254 35.5215 29.0354 36.8415C28.9454 38.1315 28.8854 39.1065 28.8554 39.7665C28.8554 40.4265 28.8254 41.0265 28.7654 41.5665C28.7354 42.0765 28.6604 42.4215 28.5404 42.6015C28.4204 42.7515 28.2254 42.8265 27.9554 42.8265C27.3854 42.8265 27.1004 41.9715 27.1004 40.2615C27.1004 39.3915 27.3254 36.9015 27.7754 32.7915H24.6254C20.7854 32.7915 18.8654 32.5815 18.8654 32.1615C18.8654 31.3215 19.3004 30.9015 20.1704 30.9015C21.1004 30.9015 22.3604 30.9465 23.9504 31.0365C25.5404 31.1265 26.8604 31.1715 27.9104 31.1715C27.9704 30.7815 28.0304 30.1965 28.0904 29.4165C28.1504 28.4565 28.2554 27.4815 28.4054 26.4915C28.5554 25.4715 28.8254 24.4215 29.2154 23.3415C29.6054 22.2615 30.0704 21.7215 30.6104 21.7215Z" fill="#333333"/>
<path d="M30.8804 21.7665L30.7463 22.0348L30.8096 22.0665H30.8804V21.7665ZM31.0154 21.9465L30.7244 22.0193L30.737 22.0697L30.7658 22.1129L31.0154 21.9465ZM30.4304 26.6715L30.1357 26.6155L30.135 26.6192L30.4304 26.6715ZM29.6654 31.1715L29.3685 31.1291L29.3195 31.4715H29.6654V31.1715ZM33.1304 30.9915L33.1535 31.2907L33.1592 31.2901L33.1304 30.9915ZM38.4404 30.9015L38.3223 31.1773L38.3397 31.1847L38.358 31.19L38.4404 30.9015ZM35.9654 32.3415L35.9991 32.6397L36.0038 32.639L35.9654 32.3415ZM29.4404 32.7915L29.4296 32.4917L29.1758 32.5009L29.143 32.7527L29.4404 32.7915ZM29.0354 36.8415L29.3347 36.8624L29.3348 36.8619L29.0354 36.8415ZM28.8554 39.7665L28.5554 39.7529V39.7665H28.8554ZM28.7654 41.5665L28.4673 41.5334L28.4664 41.5411L28.466 41.5489L28.7654 41.5665ZM28.5404 42.6015L28.7747 42.7889L28.7828 42.7788L28.7901 42.7679L28.5404 42.6015ZM27.7754 32.7915L28.0737 32.8242L28.1101 32.4915H27.7754V32.7915ZM27.9104 31.1715V31.4715H28.1678L28.207 31.2171L27.9104 31.1715ZM28.0904 29.4165L28.3896 29.4395L28.3899 29.4352L28.0904 29.4165ZM28.4054 26.4915L28.7021 26.5365L28.7023 26.5352L28.4054 26.4915ZM29.2154 23.3415L29.4976 23.4434L29.2154 23.3415ZM30.6104 22.0215C30.6588 22.0215 30.6941 22.0246 30.7186 22.0287C30.744 22.0329 30.7507 22.037 30.7463 22.0348L31.0146 21.4982C30.8919 21.4368 30.7458 21.4215 30.6104 21.4215V22.0215ZM30.8804 22.0665C30.8428 22.0665 30.8056 22.0564 30.7738 22.0382C30.7439 22.0212 30.7268 22.0016 30.7192 21.9915C30.7071 21.9754 30.7136 21.9761 30.7244 22.0193L31.3065 21.8738C31.2873 21.7969 31.2563 21.7077 31.1992 21.6315C31.1358 21.5469 31.0283 21.4665 30.8804 21.4665V22.0665ZM30.7658 22.1129C30.7641 22.1103 30.7765 22.1294 30.7878 22.1914C30.7985 22.2505 30.8054 22.3325 30.8054 22.4415H31.4054C31.4054 22.3105 31.3974 22.1901 31.3781 22.0841C31.3594 21.9812 31.3268 21.8727 31.2651 21.7801L30.7658 22.1129ZM30.8054 22.4415C30.8054 22.6384 30.7537 23.0793 30.6404 23.7892C30.5286 24.49 30.3605 25.4318 30.1357 26.6156L30.7252 26.7275C30.9504 25.5413 31.1198 24.593 31.2329 23.8838C31.3447 23.1838 31.4054 22.6946 31.4054 22.4415H30.8054ZM30.135 26.6192C29.7153 28.9875 29.4593 30.493 29.3685 31.1291L29.9624 31.2139C30.0516 30.59 30.3055 29.0955 30.7258 26.7239L30.135 26.6192ZM29.6654 31.4715C30.4276 31.4715 31.5921 31.4107 33.1535 31.2906L33.1074 30.6924C31.5487 30.8123 30.4033 30.8715 29.6654 30.8715V31.4715ZM33.1592 31.2901C34.7118 31.1408 36.112 31.0665 37.3604 31.0665V30.4665C36.0889 30.4665 34.6691 30.5422 33.1017 30.6929L33.1592 31.2901ZM37.3604 31.0665C37.8677 31.0665 38.1733 31.1134 38.3223 31.1773L38.5586 30.6258C38.2876 30.5096 37.8732 30.4665 37.3604 30.4665V31.0665ZM38.358 31.19C38.3756 31.195 38.3903 31.2021 38.4084 31.2382C38.4319 31.2852 38.4554 31.3755 38.4554 31.5315H39.0554C39.0554 31.3275 39.0265 31.1328 38.945 30.9699C38.8581 30.796 38.7153 30.668 38.5229 30.6131L38.358 31.19ZM38.4554 31.5315C38.4554 31.4392 38.5233 31.4344 38.4243 31.4951C38.342 31.5456 38.1977 31.6061 37.9743 31.6709C37.5321 31.7993 36.8531 31.9245 35.9271 32.044L36.0038 32.639C36.9378 32.5185 37.6538 32.3887 38.1416 32.2471C38.3832 32.177 38.5877 32.0987 38.7378 32.0067C38.8713 31.9249 39.0554 31.7738 39.0554 31.5315H38.4554ZM35.9318 32.0434C34.0814 32.2523 31.9143 32.4019 29.4296 32.4917L29.4513 33.0913C31.9466 33.0011 34.1295 32.8507 35.9991 32.6396L35.9318 32.0434ZM29.143 32.7527C28.9622 34.1385 28.8266 35.4947 28.7361 36.8211L29.3348 36.8619C29.4243 35.5484 29.5587 34.2045 29.7379 32.8303L29.143 32.7527ZM28.7362 36.8206C28.6461 38.1112 28.5859 39.0892 28.5558 39.7529L29.1551 39.7801C29.185 39.1239 29.2448 38.1518 29.3347 36.8624L28.7362 36.8206ZM28.5554 39.7665C28.5554 40.4177 28.5258 41.0064 28.4673 41.5334L29.0636 41.5996C29.1251 41.0466 29.1554 40.4353 29.1554 39.7665H28.5554ZM28.466 41.5489C28.4515 41.7946 28.4266 41.9918 28.3935 42.144C28.3596 42.3001 28.321 42.3898 28.2908 42.4351L28.7901 42.7679C28.8799 42.6332 28.9388 42.4604 28.9798 42.2715C29.0218 42.0787 29.0494 41.8484 29.0649 41.5841L28.466 41.5489ZM28.3062 42.4141C28.2636 42.4673 28.1732 42.5265 27.9554 42.5265V43.1265C28.2777 43.1265 28.5773 43.0357 28.7747 42.7889L28.3062 42.4141ZM27.9554 42.5265C27.8697 42.5265 27.7282 42.4787 27.5988 42.0904C27.4719 41.7098 27.4004 41.1078 27.4004 40.2615H26.8004C26.8004 41.1253 26.8715 41.8057 27.0296 42.2801C27.1852 42.7468 27.4712 43.1265 27.9554 43.1265V42.5265ZM27.4004 40.2615C27.4004 39.412 27.6228 36.9421 28.0737 32.8242L27.4772 32.7589C27.0281 36.8609 26.8004 39.371 26.8004 40.2615H27.4004ZM27.7754 32.4915H24.6254V33.0915H27.7754V32.4915ZM24.6254 32.4915C22.7079 32.4915 21.2812 32.439 20.3381 32.3358C19.8637 32.2839 19.5287 32.2209 19.319 32.1521C19.2125 32.1172 19.159 32.0872 19.1378 32.071C19.1178 32.0556 19.1654 32.0847 19.1654 32.1615H18.5654C18.5654 32.3434 18.6731 32.4709 18.7731 32.5474C18.8719 32.623 18.9984 32.6784 19.1319 32.7222C19.4022 32.8109 19.7872 32.8791 20.2728 32.9322C21.2497 33.0391 22.703 33.0915 24.6254 33.0915V32.4915ZM19.1654 32.1615C19.1654 31.7905 19.2609 31.5667 19.4001 31.4323C19.5412 31.2961 19.7791 31.2015 20.1704 31.2015V30.6015C19.6918 30.6015 19.2772 30.7169 18.9833 31.0007C18.6875 31.2864 18.5654 31.6925 18.5654 32.1615H19.1654ZM20.1704 31.2015C21.0922 31.2015 22.3458 31.2462 23.9335 31.336L23.9674 30.737C22.3751 30.6469 21.1087 30.6015 20.1704 30.6015V31.2015ZM23.9335 31.336C25.5266 31.4262 26.8527 31.4715 27.9104 31.4715V30.8715C26.8682 30.8715 25.5543 30.8268 23.9674 30.737L23.9335 31.336ZM28.207 31.2171C28.2687 30.8155 28.3294 30.2213 28.3896 29.4395L27.7913 29.3935C27.7315 30.1718 27.6721 30.7475 27.6139 31.1259L28.207 31.2171ZM28.3899 29.4352C28.4493 28.4844 28.5533 27.5181 28.7021 26.5365L28.1088 26.4466C27.9576 27.4449 27.8516 28.4287 27.791 29.3978L28.3899 29.4352ZM28.7023 26.5352C28.849 25.5371 29.1137 24.5066 29.4976 23.4434L28.9333 23.2396C28.5372 24.3364 28.2619 25.4059 28.1086 26.4479L28.7023 26.5352ZM29.4976 23.4434C29.6869 22.9194 29.8855 22.5529 30.084 22.3223C30.2789 22.096 30.4536 22.0215 30.6104 22.0215V21.4215C30.2273 21.4215 29.8995 21.6171 29.6294 21.9308C29.3629 22.2402 29.134 22.6837 28.9333 23.2396L29.4976 23.4434Z" fill="#333333"/>
</g>
<defs>
<clipPath id="clip0_465_1057">
<rect width="59.9294" height="65.3077" fill="white"/>
</clipPath>
</defs>
</svg>
