<svg width="72" height="78" viewBox="0 0 72 78" fill="none" xmlns="http://www.w3.org/2000/svg">
<g clip-path="url(#clip0_446_1187)">
<path d="M69.1017 26.0724C69.3752 25.8982 69.4544 25.6123 69.3853 25.3663C69.8807 25.2154 70.2477 24.5107 69.8525 24.077C69.4687 23.6564 69.1403 23.2003 68.7074 22.8288C68.2427 22.4296 67.7658 22.0485 67.2868 21.6666C66.447 20.995 65.5988 20.3347 64.7411 19.6861C62.9857 18.3605 61.1691 17.1251 59.2877 15.9859C55.5833 13.7436 51.6322 11.8409 47.6012 10.2663C43.5425 8.68036 39.4026 7.33562 35.1827 6.24607C33.1385 5.71804 31.0699 5.29299 28.9789 4.99241C27.9009 4.83788 26.8171 4.77331 25.7347 4.67042C24.803 4.5834 23.9003 4.53384 22.9837 4.61713C22.9813 4.61128 22.9778 4.60501 22.9755 4.59916C22.698 3.96104 21.7589 4.46049 22.0222 5.0952C22.1559 5.41767 22.3065 5.73127 22.4685 6.03744C20.1026 10.4893 17.8616 14.9671 16.2254 19.7547C14.7142 24.1744 13.8678 28.8046 13.8485 33.4727C13.8339 37.2578 14.4337 41.1889 15.7908 44.7561C15.579 45.2705 15.39 45.7968 15.1778 46.2771C14.6303 47.5224 14.0253 48.7234 13.243 49.8393C12.3702 51.0844 11.2238 52.1196 10.3249 53.3552C9.54362 54.4277 8.81227 55.5305 8.19264 56.706C7.69357 57.6528 8.63704 58.4168 9.46991 58.2979C11.3952 59.9195 13.3636 61.4799 15.3601 63.013C18.0051 65.044 21.019 66.3833 24.0919 67.6169C26.635 68.636 29.3253 69.3644 31.9998 69.9478C33.5198 70.2795 35.0667 70.4496 36.6183 70.55C37.9179 70.6329 40.1222 70.6641 40.9544 69.401C41.2241 69.4659 41.5425 69.3283 41.6786 69.0793C41.9185 68.6396 41.966 68.1304 42.0288 67.6397C42.1232 66.9091 42.1894 66.1767 42.3124 65.4494C42.5239 64.2068 42.8391 62.9982 43.2236 61.7989C43.9441 59.5503 44.9007 57.4572 46.3465 55.5813C46.7901 55.0055 46.6652 54.4108 46.2937 54.0098C46.5464 53.8684 46.7985 53.7254 47.0474 53.5787C50.7657 51.3877 54.1712 48.4955 57.1437 45.3606C60.5595 41.7555 63.3023 37.7237 65.7297 33.3907C66.8515 31.3863 67.9505 29.341 68.8389 27.2211C68.9759 26.897 68.95 26.546 68.8181 26.2365C68.9133 26.1832 69.0075 26.1321 69.1017 26.0724ZM38.6911 68.2796C37.9927 68.2558 37.2632 68.1791 36.5745 68.0645C35.2274 67.8405 33.8909 67.6026 32.5528 67.3276C30.0162 66.8059 27.587 65.971 25.1383 65.1512C22.07 64.125 19.0243 62.8515 16.1842 61.303C14.1586 60.1991 12.2515 58.8949 10.3968 57.5248C11.5695 55.111 13.1836 52.9545 14.4036 50.5687C15.0157 49.3706 15.4886 48.1055 15.9301 46.8348C16.0339 46.536 16.1522 46.237 16.2732 45.9344C18.0062 49.8774 20.7323 53.2801 24.6684 55.4027C28.2706 57.3453 32.119 57.9403 36.1747 57.4575C38.5424 57.1767 40.8753 56.5048 43.0966 55.5706C42.0412 57.2972 41.2905 59.17 40.7338 61.1433C40.3926 62.3568 40.1276 63.6273 40.0177 64.8827C39.9283 65.9131 39.8028 67.2908 40.1827 68.3625C39.6941 68.278 39.1945 68.296 38.6911 68.2796ZM59.501 38.0317C56.8552 41.9271 53.9846 45.7008 50.2839 48.6393C44.3816 53.3271 36.2395 56.9591 28.7253 54.6663C20.6727 52.209 17.0087 43.1741 16.4013 35.3807C16.0664 31.0773 16.4721 26.6777 17.431 22.4682C17.9893 20.013 18.7708 17.6485 19.6453 15.3174C19.6653 15.3913 19.6853 15.4652 19.711 15.5426C19.9189 16.1691 20.288 16.7246 20.6592 17.2603C21.5216 18.5039 22.6515 19.5587 23.724 20.6128C25.4712 22.3289 27.7509 23.2675 30.079 23.8784C32.3564 24.4757 34.7455 24.8103 37.0863 25.0642C39.0722 25.2789 41.0592 25.4881 43.0123 25.9166C44.3785 26.2166 45.6671 26.16 46.992 26.7031C48.087 27.1515 49.146 27.6118 50.172 28.2044C51.2001 28.7979 52.1837 29.4265 53.0261 30.2729C53.8914 31.1421 54.7508 31.9675 55.6841 32.7651C56.5967 33.5456 57.5337 34.3021 58.475 35.0482C59.1124 35.5525 59.7381 36.1554 60.4004 36.6723C60.1053 37.1294 59.806 37.5824 59.501 38.0317ZM64.7129 29.1457C64.1735 30.1962 63.6155 31.2367 63.0419 32.2683C62.6345 33.0012 62.2152 33.7281 61.7845 34.4478C61.3282 34.1128 60.8613 33.7918 60.4023 33.4606C59.5447 32.8437 58.678 32.2401 57.8039 31.6457C56.8614 31.0048 55.9371 30.3459 54.9814 29.7251C53.9585 29.0608 52.8598 28.5307 51.8324 27.8658C50.0603 26.7205 48.2141 25.665 46.3643 24.653C45.3208 24.0824 44.3534 23.5516 43.1775 23.2996C42.1803 23.0859 41.1687 22.9393 40.1565 22.8057C38.1174 22.5363 36.0693 22.3385 34.0283 22.0828C31.9878 21.8285 29.9514 21.6343 27.9917 20.977C26.204 20.377 24.814 19.3417 23.3576 18.1878C22.1174 17.2055 20.3343 15.8539 20.0961 14.138C20.9571 11.9242 21.8865 9.73115 22.7726 7.51184C22.8484 7.32184 22.9283 7.13353 23.0083 6.94522C24.7498 9.6107 27.5105 11.6407 29.9591 13.5423C33.8677 16.5773 38.1448 18.974 42.6304 21.0275C46.8762 22.9724 51.2785 24.5577 55.8214 25.6526C57.8952 26.1527 59.9892 26.4983 62.1093 26.7342C63.303 26.8672 64.586 27.0368 65.8331 26.9875C65.4787 27.7143 65.0802 28.4315 64.7129 29.1457ZM62.683 24.3292C60.6312 24.0265 58.5956 23.7342 56.5731 23.2673C52.2842 22.2782 48.1475 20.7331 44.032 19.1978C41.7574 18.3488 39.4438 17.5567 37.24 16.5387C35.0465 15.525 33.0022 14.2567 31.0593 12.8235C29.5146 11.6831 28.0094 10.458 26.57 9.18715C25.3381 8.10017 24.2073 6.89314 23.4052 5.45922C24.9854 5.83145 26.6243 6.02005 28.2102 6.3521C30.3522 6.80007 32.483 7.31881 34.5934 7.89599C38.8574 9.06205 43.0119 10.6048 47.0836 12.3165C51.008 13.9663 54.8266 15.7913 58.4634 18.0143C60.2424 19.1017 61.9615 20.2823 63.6351 21.5268C64.4748 22.1521 65.3019 22.7965 66.1248 23.4453C66.781 23.9622 67.4203 24.4126 68.1008 24.8386C66.2929 24.6814 64.4833 24.5951 62.683 24.3292Z" fill="#383838"/>
<path d="M40.1825 68.3625C39.6939 68.278 39.1943 68.296 38.6909 68.2796C37.9925 68.2558 37.263 68.1791 36.5743 68.0645C35.2272 67.8405 33.8907 67.6026 32.5526 67.3275C30.016 66.8059 27.5868 65.971 25.1381 65.1512C22.0698 64.125 19.0241 62.8515 16.184 61.303C14.1584 60.1991 12.2513 58.8949 10.3966 57.5248C11.5692 55.111 13.1834 52.9544 14.4034 50.5687C15.0155 49.3706 15.4883 48.1055 15.9299 46.8348C16.0337 46.536 16.152 46.237 16.273 45.9344C18.0059 49.8774 20.732 53.2801 24.6682 55.4027C28.2704 57.3453 32.1188 57.9403 36.1745 57.4575C38.5421 57.1767 40.8751 56.5048 43.0964 55.5706C42.041 57.2972 41.2903 59.17 40.7336 61.1432C40.3924 62.3568 40.1274 63.6273 40.0175 64.8827C39.9281 65.9131 39.8026 67.2908 40.1825 68.3625Z" fill="#FFF6D1"/>
<path d="M58.4752 35.0482C57.5339 34.3021 56.597 33.5456 55.6843 32.765C54.751 31.9675 53.8916 31.1421 53.0263 30.2729C52.1839 29.4265 51.2003 28.7978 50.1722 28.2044C49.1462 27.6118 48.0872 27.1515 46.9922 26.7031C45.6673 26.16 44.3787 26.2165 43.0125 25.9166C41.0594 25.488 39.0724 25.2789 37.0865 25.0641C36.2292 24.9713 35.3657 24.8674 34.5033 24.7432C33.0113 24.5301 31.5222 24.2573 30.0793 23.8784C27.7511 23.2675 25.4714 22.3288 23.7243 20.6128C22.6518 19.5586 21.5219 18.5039 20.6594 17.2603C20.2882 16.7246 19.9191 16.169 19.7112 15.5426C19.6855 15.4651 19.6655 15.3913 19.6455 15.3174C18.771 17.6484 17.9895 20.0129 17.4312 22.4681C16.4724 26.6776 16.0666 31.0772 16.4016 35.3806C16.906 41.8469 19.5137 49.167 24.9861 52.8763C26.1095 53.6379 27.3542 54.2476 28.7255 54.6663C36.2397 56.9591 44.3818 53.3271 50.2841 48.6392C53.9848 45.7008 56.8554 41.9271 59.5012 38.0317C59.8062 37.5823 60.1056 37.1294 60.4006 36.6723C59.7383 36.1553 59.1126 35.5525 58.4752 35.0482ZM21.9163 29.0333C21.963 29.0744 22.0078 29.1172 22.0545 29.1583C21.9301 28.7667 21.8056 28.3751 21.6807 27.9846C21.7441 27.8247 21.8412 27.6909 21.9739 27.5814C22.1058 27.474 22.2556 27.4045 22.4237 27.3752C22.7634 27.3169 23.1147 27.4494 23.3295 27.7177C23.5453 27.9865 23.6013 28.3608 23.4748 28.6856C23.3327 29.0512 23.0172 29.2605 22.6141 29.289C22.485 29.3112 22.3596 29.3009 22.2359 29.2572C22.1095 29.2113 22.0032 29.1372 21.9163 29.0333ZM20.2253 39.1672C20.1054 39.3767 19.9051 39.5337 19.6743 39.6015C19.5148 39.6477 19.3529 39.6503 19.192 39.6096C19.0194 39.1629 18.8453 38.7169 18.6727 38.2702C18.7418 38.1285 18.8412 38.0126 18.9713 37.924C19.0378 37.8906 19.1034 37.8568 19.1699 37.8235C19.3142 37.7734 19.461 37.761 19.6109 37.7874C19.767 37.8165 19.9048 37.8841 20.0252 37.9884C20.0359 38.0001 20.0457 38.0114 20.0565 38.0232C20.1209 38.0825 20.1764 38.1516 20.2232 38.2304C20.2536 38.3024 20.2845 38.376 20.3149 38.448C20.3821 38.6872 20.3481 38.9503 20.2253 39.1672ZM30.3101 41.6772C30.1649 41.9541 29.9114 42.1645 29.6163 42.2545C29.4217 42.313 29.2253 42.3208 29.0277 42.2759C28.9361 42.2419 28.844 42.2088 28.7514 42.1743C28.4794 42.0623 28.2663 41.7546 28.1862 41.4798C28.1012 41.1907 28.134 40.8748 28.2729 40.6075C28.4171 40.3301 28.6706 40.1197 28.9668 40.0301C29.1617 39.9706 29.3578 39.9638 29.5554 40.0087C29.647 40.0428 29.7386 40.0769 29.8306 40.1099C30.1037 40.2223 30.3167 40.53 30.3968 40.8049C30.4808 41.0935 30.449 41.4098 30.3101 41.6772ZM37.9015 32.4058C37.6436 32.6765 37.2036 32.7627 36.8778 32.5714C36.8684 32.5651 36.8585 32.5599 36.8491 32.5536C36.882 32.5671 36.9148 32.5806 36.9471 32.5927C36.6883 32.4776 36.4692 32.2926 36.2901 32.0366C36.1898 31.9478 36.2303 31.6716 36.2686 31.567C36.3051 31.4666 36.3627 31.3821 36.4428 31.313C36.5226 31.2182 36.62 31.1477 36.7357 31.103C37.1033 30.9419 37.4853 30.9704 37.8828 31.1887C37.9897 31.2935 38.0645 31.4179 38.1079 31.5634C38.1193 31.6349 38.1302 31.7075 38.1411 31.7801C38.1484 32.0103 38.0602 32.239 37.9015 32.4058ZM36.3868 51.59C36.2761 51.8094 36.0806 51.9781 35.8506 52.0584C35.5972 52.1461 35.3646 52.1075 35.1244 52.0086C34.9089 51.9199 34.7365 51.6884 34.6648 51.4717C34.5852 51.2336 34.6054 50.9659 34.7202 50.7397C34.8309 50.5203 35.0258 50.3502 35.2568 50.2702C35.5087 50.1831 35.7427 50.2211 35.9819 50.3196C36.1985 50.4088 36.3694 50.6408 36.4425 50.8569C36.5217 51.0961 36.5015 51.3637 36.3868 51.59ZM47.0952 45.1129C47.0706 45.1258 47.0475 45.1382 47.023 45.1512C46.5122 45.421 45.9895 45.0928 45.8328 44.587L45.8052 44.4966C45.5596 43.7051 46.5787 43.128 47.1927 43.5376C47.7638 43.9174 47.6984 44.7936 47.0952 45.1129Z" fill="#FFD517"/>
<path d="M65.8331 26.9875C65.4787 27.7143 65.0802 28.4314 64.7129 29.1456C64.1735 30.1962 63.6155 31.2366 63.0419 32.2682C62.6345 33.0012 62.2152 33.728 61.7844 34.4477C61.3281 34.1128 60.8613 33.7917 60.4023 33.4605C59.5447 32.8436 58.678 32.2401 57.8039 31.6456C56.8614 31.0047 55.9371 30.3458 54.9814 29.725C53.9585 29.0608 52.8598 28.5307 51.8324 27.8657C50.0603 26.7204 48.2141 25.6649 46.3643 24.653C45.3208 24.0823 44.3534 23.5515 43.1775 23.2995C42.1803 23.0859 41.1687 22.9392 40.1565 22.8057C38.1174 22.5362 36.0693 22.3384 34.0283 22.0827C31.9878 21.8285 29.9514 21.6343 27.9917 20.9769C26.2039 20.377 24.814 19.3416 23.3576 18.1877C22.1174 17.2055 20.3343 15.8539 20.0961 14.1379C20.9571 11.9241 21.8865 9.7311 22.7726 7.51179C22.8484 7.32179 22.9283 7.13348 23.0083 6.94516C24.7498 9.61065 27.5105 11.6407 29.9591 13.5422C33.8677 16.5773 38.1448 18.9739 42.6304 21.0274C46.8762 22.9724 51.2785 24.5576 55.8214 25.6526C57.8952 26.1526 59.9892 26.4982 62.1093 26.7342C63.303 26.8671 64.586 27.0368 65.8331 26.9875Z" fill="#FFF6D1"/>
<path d="M68.1008 24.8387C66.2929 24.6814 64.4833 24.5952 62.683 24.3292C60.6312 24.0266 58.5956 23.7342 56.5731 23.2674C52.2843 22.2783 48.1475 20.7331 44.032 19.1979C41.7574 18.3489 39.4438 17.5568 37.24 16.5388C35.0465 15.5251 33.0022 14.2567 31.0593 12.8236C29.5146 11.6831 28.0094 10.4581 26.57 9.18719C25.3382 8.10021 24.2073 6.89318 23.4052 5.45926C24.9854 5.83149 26.6243 6.02009 28.2102 6.35214C30.3522 6.80011 32.4831 7.31886 34.5934 7.89603C38.8574 9.06209 43.0119 10.6048 47.0837 12.3165C51.008 13.9663 54.8266 15.7913 58.4634 18.0143C60.2424 19.1017 61.9615 20.2824 63.6351 21.5269C64.4748 22.1522 65.3019 22.7966 66.1248 23.4453C66.781 23.9623 67.4203 24.4127 68.1008 24.8387Z" fill="#FFF6D1"/>
<path d="M30.31 41.6773C30.1648 41.9542 29.9113 42.1646 29.6161 42.2546C29.4216 42.3131 29.2251 42.3209 29.0275 42.276C28.9359 42.2419 28.8438 42.2089 28.7512 42.1744C28.4792 42.0624 28.2662 41.7547 28.1861 41.4799C28.101 41.1908 28.1338 40.8749 28.2727 40.6075C28.4169 40.3302 28.6704 40.1198 28.9666 40.0302C29.1616 39.9707 29.3576 39.9639 29.5552 40.0088C29.6468 40.0429 29.7384 40.0769 29.8305 40.11C30.1035 40.2224 30.3165 40.5301 30.3966 40.805C30.4807 41.0936 30.4489 41.4099 30.31 41.6773Z" fill="#383838"/>
<path d="M47.095 45.1129C47.0704 45.1259 47.0473 45.1383 47.0228 45.1512C46.512 45.421 45.9893 45.0928 45.8326 44.5871L45.805 44.4967C45.5594 43.7052 46.5785 43.1281 47.1926 43.5377C47.7636 43.9174 47.6982 44.7936 47.095 45.1129Z" fill="#383838"/>
<path d="M36.3864 51.59C36.2757 51.8094 36.0802 51.978 35.8502 52.0584C35.5968 52.1461 35.3642 52.1075 35.1241 52.0086C34.9085 51.9198 34.7361 51.6884 34.6645 51.4717C34.5849 51.2335 34.605 50.9659 34.7198 50.7397C34.8305 50.5203 35.0254 50.3501 35.2564 50.2702C35.5083 50.1831 35.7424 50.2211 35.9815 50.3196C36.1981 50.4088 36.3691 50.6408 36.4421 50.8569C36.5213 51.0961 36.5012 51.3637 36.3864 51.59Z" fill="#383838"/>
<path d="M37.9012 32.4059C37.6433 32.6765 37.2032 32.7628 36.8775 32.5715C36.868 32.5652 36.8582 32.5599 36.8488 32.5536C36.8816 32.5672 36.9145 32.5807 36.9467 32.5928C36.688 32.4777 36.4689 32.2927 36.2898 32.0366C36.1895 31.9479 36.23 31.6717 36.2682 31.5671C36.3048 31.4667 36.3624 31.3822 36.4425 31.3131C36.5223 31.2183 36.6197 31.1478 36.7354 31.103C37.103 30.942 37.485 30.9705 37.8825 31.1888C37.9894 31.2936 38.0642 31.418 38.1076 31.5635C38.1189 31.635 38.1299 31.7076 38.1408 31.7801C38.148 32.0104 38.0599 32.2391 37.9012 32.4059Z" fill="#383838"/>
<path d="M23.4747 28.6856C23.3325 29.0513 23.0171 29.2605 22.614 29.2891C22.4848 29.3112 22.3594 29.3009 22.2357 29.2573C22.1094 29.2114 22.0031 29.1372 21.9162 29.0334C21.9629 29.0745 22.0077 29.1172 22.0544 29.1583C21.9299 28.7667 21.8055 28.3752 21.6806 27.9846C21.744 27.8247 21.8411 27.6909 21.9738 27.5815C22.1056 27.4741 22.2555 27.4045 22.4236 27.3753C22.7633 27.317 23.1145 27.4495 23.3294 27.7178C23.5452 27.9866 23.6012 28.3609 23.4747 28.6856Z" fill="#383838"/>
<path d="M20.2248 39.1672C20.105 39.3767 19.9047 39.5337 19.6739 39.6016C19.5144 39.6477 19.3525 39.6503 19.1916 39.6096C19.0189 39.163 18.8449 38.7169 18.6722 38.2702C18.7414 38.1285 18.8407 38.0126 18.9709 37.924C19.0374 37.8906 19.1029 37.8568 19.1695 37.8235C19.3137 37.7735 19.4605 37.761 19.6105 37.7875C19.7666 37.8165 19.9044 37.8842 20.0247 37.9884C20.0355 38.0001 20.0452 38.0114 20.056 38.0232C20.1204 38.0825 20.176 38.1516 20.2228 38.2304C20.2531 38.3025 20.2841 38.376 20.3145 38.448C20.3816 38.6872 20.3477 38.9504 20.2248 39.1672Z" fill="#383838"/>
<path d="M58.475 35.0482C57.5337 34.3021 56.5968 33.5456 55.6841 32.765C54.7508 31.9675 53.8914 31.1421 53.0261 30.2728C52.1837 29.4265 51.2001 28.7978 50.172 28.2044C49.146 27.6117 48.087 27.1515 46.992 26.703C45.6671 26.16 44.3785 26.2165 43.0123 25.9166C41.0592 25.488 39.0722 25.2789 37.0863 25.0641C36.229 24.9713 35.3655 24.8673 34.503 24.7432C27.9594 30.7411 23.4917 39.6709 24.9859 52.8763C26.1093 53.6378 27.354 54.2476 28.7253 54.6663C36.2395 56.959 44.3816 53.3271 50.2839 48.6392C53.9846 45.7008 56.8552 41.9271 59.501 38.0317C59.806 37.5823 60.1054 37.1294 60.4004 36.6723C59.7381 36.1553 59.1124 35.5525 58.475 35.0482ZM30.3099 41.6772C30.1647 41.9541 29.9112 42.1645 29.6161 42.2545C29.4215 42.313 29.225 42.3208 29.0274 42.2759C28.9358 42.2418 28.8438 42.2088 28.7512 42.1743C28.4792 42.0623 28.2661 41.7546 28.186 41.4797C28.101 41.1907 28.1338 40.8748 28.2727 40.6074C28.4169 40.3301 28.6704 40.1197 28.9665 40.0301C29.1615 39.9706 29.3576 39.9638 29.5552 40.0087C29.6468 40.0428 29.7384 40.0768 29.8304 40.1099C30.1035 40.2223 30.3165 40.53 30.3966 40.8049C30.4806 41.0935 30.4488 41.4098 30.3099 41.6772ZM37.9013 32.4058C37.6434 32.6764 37.2034 32.7627 36.8776 32.5714C36.8682 32.5651 36.8583 32.5598 36.8489 32.5535C36.8818 32.5671 36.9146 32.5806 36.9468 32.5927C36.6881 32.4776 36.469 32.2926 36.2899 32.0365C36.1896 31.9478 36.2301 31.6716 36.2683 31.567C36.3049 31.4666 36.3625 31.3821 36.4426 31.313C36.5224 31.2182 36.6198 31.1477 36.7355 31.1029C37.1031 30.9419 37.4851 30.9704 37.8826 31.1887C37.9895 31.2935 38.0643 31.4179 38.1077 31.5634C38.119 31.6349 38.13 31.7075 38.1409 31.78C38.1481 32.0103 38.06 32.239 37.9013 32.4058ZM36.3866 51.59C36.2758 51.8093 36.0803 51.978 35.8504 52.0584C35.597 52.1461 35.3644 52.1075 35.1242 52.0086C34.9087 51.9198 34.7363 51.6884 34.6646 51.4717C34.585 51.2335 34.6052 50.9659 34.7199 50.7397C34.8307 50.5203 35.0256 50.3501 35.2566 50.2702C35.5085 50.1831 35.7425 50.2211 35.9817 50.3196C36.1983 50.4088 36.3692 50.6408 36.4423 50.8569C36.5215 51.0961 36.5013 51.3637 36.3866 51.59ZM47.095 45.1128C47.0704 45.1258 47.0473 45.1382 47.0228 45.1512C46.5119 45.421 45.9893 45.0927 45.8326 44.587L45.8049 44.4966C45.5594 43.7051 46.5785 43.128 47.1925 43.5376C47.7636 43.9174 47.6982 44.7936 47.095 45.1128Z" fill="#FFE985"/>
</g>
<defs>
<clipPath id="clip0_446_1187">
<rect width="52" height="62" fill="white" transform="translate(23.7603 0.435913) rotate(22.3781)"/>
</clipPath>
</defs>
</svg>
