<svg width="105" height="47" viewBox="0 0 105 47" fill="none" xmlns="http://www.w3.org/2000/svg">
<g clip-path="url(#clip0_465_1126)">
<path d="M103.931 14.5354C102.781 10.731 100.578 8.24135 98.0644 5.32439C92.1812 -1.50376 81.1981 0.180683 73.2913 0.180683C63.0263 0.1889 52.7531 0.221767 42.48 0.139599C41.4845 0.131382 32.827 0.583305 31.6601 0.525788C29.408 0.427187 15.0631 0.0820816 11.2036 3.06477C6.98495 5.80918 3.30489 9.14519 1.54238 14.0177C-2.08056 24.0094 0.710086 36.5317 9.62872 42.6368C14.0105 45.6441 24.8141 47.041 25.1568 46.9917C26.3481 46.8356 53.6344 46.9753 60.252 46.7041C70.0682 46.3097 79.8436 46.7534 89.5374 44.8635C97.3137 43.3434 102.487 35.5128 104.225 28.1506C105.302 23.5574 105.318 19.0957 103.931 14.5354Z" fill="white"/>
<path d="M54.2303 40.5499C54.116 40.821 53.9773 41.084 53.8223 41.3305C54.1487 41.1251 54.4751 40.9196 54.8014 40.706C55.2094 40.4349 54.5974 39.646 54.2303 40.5499Z" fill="#333333"/>
<path d="M53.814 41.3304C52.1738 42.3822 50.5256 43.4093 48.8691 44.4364C50.8438 44.0749 52.7777 42.982 53.814 41.3304Z" fill="#333333"/>
<path d="M103.931 14.5354C102.781 10.731 100.578 8.24135 98.0644 5.32439C92.1812 -1.50376 81.1981 0.180683 73.2913 0.180683C63.0263 0.1889 52.7531 0.221767 42.48 0.139599C41.4845 0.131382 32.827 0.583305 31.6601 0.525788C29.408 0.427187 15.0631 0.0820816 11.2036 3.06477C6.98495 5.80918 3.30489 9.14519 1.54238 14.0177C-2.08056 24.0094 0.710086 36.5317 9.62872 42.6368C14.0105 45.6441 24.8141 47.041 25.1568 46.9917C26.3481 46.8356 53.6344 46.9753 60.252 46.7041C70.0682 46.3097 79.8436 46.7534 89.5374 44.8635C97.3137 43.3434 102.487 35.5128 104.225 28.1506C105.302 23.5574 105.318 19.0957 103.931 14.5354ZM88.9336 42.6861C88.8683 42.7025 88.803 42.7108 88.7378 42.719C90.2555 41.848 91.765 40.977 93.2746 40.0814C93.6907 39.8349 93.3072 39.1693 92.8911 39.424C90.8675 40.6566 88.8275 41.8726 86.7712 43.0559C86.2001 43.1462 85.6289 43.2284 85.0495 43.3024C87.4077 41.9219 89.7006 40.4018 92.1159 39.1282C92.5076 38.9228 92.1567 38.323 91.7732 38.5366C88.9581 40.0567 86.3062 41.9137 83.5318 43.4913C83.0422 43.5489 82.5608 43.5982 82.0712 43.6392C84.4049 42.2342 86.7468 40.8455 89.1539 39.5719C89.5211 39.3747 89.1947 38.8078 88.8275 39.005C86.1021 40.484 83.4747 42.1027 80.8473 43.7378C79.3948 43.8529 77.9342 43.9351 76.4736 44.0008C78.995 42.5218 81.5164 41.0592 84.1683 39.8349C84.6008 39.6377 84.2254 38.9968 83.7929 39.194C80.782 40.6155 77.9342 42.341 75.0783 44.0501C73.9033 44.0912 72.7283 44.124 71.5533 44.1487C74.3276 42.6532 77.1835 41.3303 80.0558 40.0321C80.4474 39.8595 80.1047 39.2844 79.7212 39.4569C76.5062 40.8866 73.3484 42.4232 70.2967 44.1733C69.8805 44.1816 69.4725 44.1898 69.0564 44.198C70.5496 43.4667 72.0021 42.6697 73.4382 41.8398C73.7727 41.6508 73.4708 41.1249 73.1363 41.3221C71.3656 42.3656 69.5786 43.3599 67.7182 44.2226C66.4453 44.2473 65.1642 44.2719 63.8831 44.3048C64.5195 43.9104 65.1478 43.4913 65.8088 43.1216C67.2857 42.2917 68.7871 41.5358 70.2885 40.7469C70.7047 40.5251 70.3375 39.8842 69.9132 40.106C68.4281 40.9031 66.9185 41.6754 65.4579 42.5135C64.4461 43.0887 63.4996 43.7789 62.4878 44.3459C62.0308 44.3623 61.5739 44.3788 61.1088 44.3952C60.9374 44.4034 60.7579 44.4034 60.5865 44.4116C62.3327 43.3352 64.0952 42.2835 65.923 41.355C66.2494 41.1906 65.9638 40.6976 65.6374 40.862C63.5648 41.9466 61.582 43.1791 59.6155 44.4445C58.5139 44.4856 57.4124 44.5184 56.3026 44.5349C58.9219 43.138 61.4515 41.5604 64.0952 40.1964C64.4053 40.0321 64.1279 39.5555 63.8178 39.7198C61.0353 41.2482 58.3752 42.9983 55.6009 44.5431C54.4993 44.5595 53.3896 44.576 52.288 44.576C54.8257 43.1873 57.3553 41.7905 59.795 40.2375C60.1459 40.0156 59.8195 39.4569 59.4686 39.6788C56.7351 41.4371 53.8874 42.9983 51.0478 44.576C50.2318 44.576 49.4158 44.576 48.5998 44.5677C48.6896 44.5102 48.7712 44.4609 48.8609 44.4034C48.4693 44.4774 48.0776 44.5267 47.6941 44.5431C47.6778 44.5431 47.6778 44.5513 47.6696 44.5595C46.4783 44.5513 45.2788 44.5349 44.0875 44.5102C46.5191 43.1545 48.9833 41.8726 51.3823 40.4676C51.7495 40.2539 51.4231 39.7116 51.0559 39.9006C48.2571 41.3386 45.5154 42.8915 42.8064 44.4856C42.1699 44.4774 41.5253 44.4609 40.8888 44.4527C43.0022 43.1709 45.1482 41.9384 47.2861 40.6812C47.6288 40.4758 47.3187 39.9335 46.976 40.1471C44.7892 41.4618 42.5779 42.7518 40.4074 44.1076V43.9926C26.65 43.6228 15.8873 43.138 14.598 42.5711C5.41012 38.5859 1.20783 28.8162 2.32572 19.3833C3.00298 13.6562 5.63859 9.27666 10.2081 5.83383C10.2162 5.82561 10.2244 5.82561 10.2244 5.8174C10.2978 5.78453 10.3631 5.75166 10.4284 5.69414C10.5916 5.55446 10.7629 5.42299 10.9343 5.29974C10.9996 5.25044 11.0648 5.20935 11.1301 5.16005C12.6315 4.14117 14.5491 3.54135 16.1892 2.86757C18.3515 1.98838 30.2158 2.53068 33.186 1.89799C33.3492 1.86512 52.7939 2.34991 59.795 2.35813C64.5767 2.36635 69.3583 2.36635 74.1399 2.36635C78.9052 2.36635 84.1275 1.73366 88.803 2.80184C97.5748 4.81495 103.066 13.5247 102.879 22.3578C102.724 30.5992 97.5422 41.0181 88.9336 42.6861Z" fill="#333333"/>
<path d="M36.9183 23.84L32.2783 25.664C32.3849 26.816 32.8009 27.7973 33.5263 28.608C34.2516 29.3973 35.1049 29.792 36.0863 29.792C37.0676 29.792 37.9529 29.4933 38.7423 28.896C38.8916 28.7893 39.0623 28.6613 39.2543 28.512C39.4463 28.3627 39.6063 28.2453 39.7343 28.16C39.8836 28.0533 40.0329 27.968 40.1823 27.904C40.4383 27.904 40.6516 27.9893 40.8223 28.16C41.0143 28.3307 41.1103 28.544 41.1103 28.8C41.1103 29.6107 40.4703 30.368 39.1903 31.072C37.9316 31.7547 36.8329 32.096 35.8943 32.096C34.2303 32.096 32.8009 31.456 31.6063 30.176C30.4116 28.896 29.8143 27.3067 29.8143 25.408C29.8143 23.5733 30.4863 21.7493 31.8303 19.936C33.1956 18.1227 34.7743 17.216 36.5663 17.216C37.5476 17.216 38.4969 17.6747 39.4143 18.592C40.3316 19.488 40.7903 20.5547 40.7903 21.792C40.7903 21.9627 40.6943 22.1333 40.5023 22.304C40.3103 22.4747 39.9796 22.656 39.5103 22.848C39.0623 23.04 38.6783 23.2 38.3583 23.328C38.0596 23.4347 37.5796 23.6053 36.9183 23.84ZM36.5663 19.424C35.7556 19.424 34.9876 19.7973 34.2623 20.544C33.5369 21.2907 32.9823 22.1653 32.5983 23.168C32.7903 23.104 33.1636 22.9653 33.7183 22.752C34.2943 22.5173 34.7529 22.3467 35.0943 22.24C36.4169 21.8133 37.4729 21.408 38.2623 21.024C38.2196 20.6613 38.0169 20.3093 37.6543 19.968C37.3129 19.6053 36.9503 19.424 36.5663 19.424ZM45.421 17.568C45.7837 17.568 46.1997 18.1333 46.669 19.264C47.309 20.8853 47.917 22.208 48.493 23.232C49.3037 22.336 50.3383 21.312 51.597 20.16C52.877 19.008 53.8797 18.2507 54.605 17.888C54.7117 17.824 54.8823 17.792 55.117 17.792C55.3303 17.792 55.5117 17.888 55.661 18.08C55.8317 18.2507 55.9383 18.4747 55.981 18.752C55.9597 18.88 55.8743 19.0293 55.725 19.2C55.597 19.3707 55.469 19.52 55.341 19.648C55.2343 19.7547 55.0957 19.8827 54.925 20.032L54.701 20.256C53.0797 21.7067 51.469 23.392 49.869 25.312C50.4237 26.2507 51.405 27.5307 52.813 29.152C53.709 30.24 54.189 30.9227 54.253 31.2C54.317 31.3493 54.349 31.4987 54.349 31.648C54.349 32.1813 54.1143 32.448 53.645 32.448C53.2183 32.448 52.397 31.872 51.181 30.72C49.9863 29.5467 48.9943 28.4053 48.205 27.296C47.6503 27.9787 46.9357 28.9813 46.061 30.304C45.293 31.4773 44.685 32.064 44.237 32.064C43.853 32.064 43.5437 31.9467 43.309 31.712C43.0743 31.4773 42.957 31.168 42.957 30.784C43.0637 30.5067 43.213 30.208 43.405 29.888C43.597 29.568 43.757 29.3227 43.885 29.152C44.013 28.96 44.2263 28.6613 44.525 28.256C44.8237 27.8293 45.0157 27.5627 45.101 27.456L46.829 25.12C45.1863 22.3253 44.365 20.2027 44.365 18.752C44.365 18.4747 44.4823 18.208 44.717 17.952C44.973 17.696 45.2077 17.568 45.421 17.568ZM60.3935 18.72C61.1615 18.72 61.5455 19.104 61.5455 19.872C61.5455 20.0213 61.5242 20.2987 61.4815 20.704C61.4602 21.1093 61.4495 21.3973 61.4495 21.568C61.3428 23.488 61.2895 24.8107 61.2895 25.536C61.2895 27.392 61.4495 29.12 61.7695 30.72C61.7908 30.848 61.8015 31.0187 61.8015 31.232C61.8015 31.8507 61.5028 32.16 60.9055 32.16C59.9455 32.16 59.3588 31.0933 59.1455 28.96C58.9535 27.0827 58.8575 25.3973 58.8575 23.904C58.8575 23.008 58.8682 22.336 58.8895 21.888C58.9748 19.776 59.4762 18.72 60.3935 18.72ZM61.1295 13.088C61.5775 13.088 61.9828 13.2587 62.3455 13.6C62.7295 13.9413 62.9215 14.336 62.9215 14.784C62.9215 15.6587 62.4095 16.096 61.3855 16.096C60.9375 16.096 60.5535 15.9467 60.2335 15.648C59.9348 15.3493 59.7855 14.9547 59.7855 14.464C59.8282 14.08 59.9668 13.76 60.2015 13.504C60.4575 13.2267 60.7668 13.088 61.1295 13.088ZM66.589 20.192L67.485 20.096C67.933 14.464 68.797 11.648 70.077 11.648C70.5037 11.648 70.7597 11.7227 70.845 11.872C70.9517 12.0213 71.005 12.2987 71.005 12.704C71.005 12.896 70.9517 13.184 70.845 13.568C70.5463 14.8693 70.237 16.9387 69.917 19.776C71.4103 19.584 72.8717 19.4453 74.301 19.36H74.685C74.8557 19.36 75.005 19.4347 75.133 19.584C75.261 19.7333 75.325 19.8933 75.325 20.064C75.325 20.3413 75.1863 20.6187 74.909 20.896C74.6317 21.1733 74.1943 21.3547 73.597 21.44L69.725 22.048C69.597 23.5627 69.533 24.704 69.533 25.472C69.533 26.9867 69.6717 28.128 69.949 28.896C70.2477 29.664 70.5997 30.048 71.005 30.048C71.581 30.048 72.061 29.792 72.445 29.28C72.7863 28.7893 73.0957 28.544 73.373 28.544C73.9277 28.544 74.205 28.9067 74.205 29.632C74.205 30.2933 73.8743 30.9227 73.213 31.52C72.5517 32.1173 71.7837 32.416 70.909 32.416C69.629 32.416 68.6903 31.7973 68.093 30.56C67.517 29.3013 67.229 27.8187 67.229 26.112C67.229 24.8747 67.261 23.6373 67.325 22.4C66.2797 22.5707 65.565 22.6667 65.181 22.688C64.797 22.688 64.4663 22.5387 64.189 22.24C63.9117 21.9413 63.773 21.6747 63.773 21.44C63.773 21.3333 63.7943 21.2373 63.837 21.152C63.8583 21.0453 63.901 20.96 63.965 20.896C64.029 20.832 64.093 20.768 64.157 20.704C64.2423 20.64 64.349 20.5973 64.477 20.576C64.605 20.5333 64.7223 20.5013 64.829 20.48C64.9357 20.4373 65.0743 20.4053 65.245 20.384C65.4157 20.3413 65.5543 20.32 65.661 20.32C65.7677 20.2987 65.917 20.2773 66.109 20.256C66.3223 20.2347 66.4823 20.2133 66.589 20.192Z" fill="#F84E93"/>
</g>
<defs>
<clipPath id="clip0_465_1126">
<rect width="105" height="47" fill="white"/>
</clipPath>
</defs>
</svg>
