<svg width="248" height="83" viewBox="0 0 248 83" fill="none" preserveAspectRatio="none" xmlns="http://www.w3.org/2000/svg">
<path fill-rule="evenodd" clip-rule="evenodd" d="M246.301 40.653C246.301 45.8618 241.876 81.5264 238.309 81.6196C177.176 83.2542 73.2537 80.7218 11.3811 82.06C5.52046 82.06 3.66273 83.3918 1.19737 80.8826C-0.000101656 68.6783 -0.146293 28.6587 1.19778 5.48811C1.1978 -2.11738 38.8479 1.13484 46.7126 1.27035C97.6715 2.11729 194.493 2.11729 243.915 2.58311C248.306 2.62545 248.212 25.5352 246.301 40.653ZM3.20217 63.495C3.21066 63.478 3.21915 63.4695 3.22765 63.4526C3.21915 63.2747 3.21066 63.1646 3.20217 63.495ZM3.59284 9.38402C3.11723 5.58127 3.17668 3.04892 9.75038 3.66719C33.0281 2.37153 40.7674 3.12517 45.287 3.12517L48.5895 3.58249C158.304 4.91219 215.386 5.26794 236.959 5.08161C246.131 5.00539 244.306 9.53647 244.433 12.7972C243.991 20.2757 242.76 26.4498 243.736 35.3258C242.055 44.0408 241.24 79.4853 231.973 79.3328C221.204 79.155 164.003 78.5791 159.281 79.57C160.164 78.8331 159.671 79.6123 154.788 79.3921C159.221 77.5797 158.279 77.4272 154.185 79.3921C153.319 79.3921 152.444 79.3836 151.577 79.3667C152.605 78.6807 153.378 78.1979 153.93 77.8591C152.444 78.5706 149.743 79.5869 147.28 79.299C148.452 78.6214 149.412 78.0878 150.21 77.6559C148.554 78.308 146.354 78.994 144.078 79.282C144.987 78.7315 145.76 78.2741 146.431 77.8846C144.554 78.5621 142.048 79.2227 139.313 79.3328C140.91 78.4351 142.193 77.749 143.195 77.2239C141.301 77.9608 138.617 78.8331 135.593 79.3836C143.169 75.4708 144.07 73.7007 134.753 79.3921L131.33 79.4175C132.544 78.4181 135.075 77.7998 139.585 74.7339C135.271 76.6057 132.85 77.8507 130.829 78.6468C129.546 79.155 128.841 79.7055 126.591 79.426C128.765 78.1132 130.455 77.1816 131.661 76.5548C129.954 77.2578 127.245 78.2657 123.482 79.4175C128.442 76.9614 131.296 74.3444 122.701 79.4175C122.03 79.4175 121.359 79.409 120.688 79.409C124.977 77.4272 127.746 75.1235 120.102 79.409L116.824 79.3836C117.945 78.6637 118.76 78.181 119.32 77.8676C118.064 78.4097 115.702 79.2227 112.917 79.3498C116.874 76.5041 116.39 76.106 112.993 78.6468C112.161 79.2651 110.853 79.2312 109.35 79.3244C116.475 74.4291 114.666 74.9965 110.445 77.7999C107.897 79.4937 104.729 79.6716 101.876 79.1888C106.368 76.7327 109.451 73.8531 101.247 79.1634C100.211 79.1296 99.1833 79.0957 98.1471 79.0533C102.963 76.4448 106.691 73.4297 97.5695 79.0279C96.6353 78.9856 95.7011 78.9517 94.7668 78.9178C96.6438 78.0285 100.941 74.4036 94.1893 78.9009C93.2805 78.8755 92.3802 78.8416 91.4715 78.8162C93.3654 77.91 97.9517 74.175 90.9024 78.7993C89.7559 78.7654 90.7411 78.7823 88.329 78.7654C90.3249 77.766 94.0024 74.2597 87.5986 78.7569C86.6304 78.7569 85.6707 78.7654 84.7024 78.7823C86.1802 78.0116 87.9128 75.9705 84.0739 78.7908C82.7915 78.8077 81.509 78.8416 80.2265 78.8755C81.9846 77.9947 83.972 75.5978 79.4367 78.8924C78.1967 78.9178 76.9567 78.9517 75.7167 78.9771C77.6107 77.9438 81.7808 74.0987 75.1137 78.9856C74.6465 79.0025 74.74 78.994 72.6846 79.0364C74.5616 78.037 79.2583 73.8701 72.1496 79.0449C71.1049 79.0618 70.0687 79.0787 69.0241 79.1041C71.2153 77.8253 74.8674 74.031 68.2427 79.1211C67.4359 79.1465 66.629 79.1634 65.8222 79.1804C67.4444 78.1048 69.9074 74.6154 65.2022 79.1973C64.2679 79.2143 63.3252 79.2397 62.3909 79.2566C63.9282 78.325 67.0452 74.8695 61.8813 79.2651C61.0575 79.2735 60.2337 79.2905 59.4098 79.2905C61.1594 78.2149 64.4038 74.5053 58.7644 79.299C57.6687 79.3074 56.5901 79.3498 55.5115 79.409C57.3715 78.2572 61.5841 73.9209 54.9 79.4429C54.1356 79.4853 53.3797 79.5446 52.6238 79.6039C54.5092 78.3673 59.2909 73.4381 52.0887 79.6462C51.4262 79.697 50.7638 79.7563 50.1013 79.8241C53.8977 76.5464 56.6241 72.8029 49.5917 79.8749C49.286 79.9003 48.9802 79.9257 48.6745 79.9596L37.1917 79.697C38.4402 78.3504 40.4106 74.1834 36.6142 79.7478C35.9178 79.7986 36.6397 79.7648 34.321 79.8833C35.1873 78.6807 36.6991 74.9457 33.8539 79.8918C32.2997 79.9342 30.7539 79.968 29.2082 79.985C30.1679 78.7569 31.8156 74.8779 28.6986 79.9934C27.8238 80.0104 26.949 80.0189 26.0742 80.0273C26.5243 79.714 28.4013 75.8689 25.5476 80.0358C24.6813 80.0358 23.8235 80.0527 22.9572 80.0527C24.486 78.2572 24.8767 75.1659 22.8383 79.7478C22.1759 79.7478 21.3096 79.714 20.2649 79.6631C20.6811 79.1465 21.5813 78.1895 20.8849 78.1217C21.0038 78.4944 20.0696 78.4689 20.0781 79.6547C18.7786 79.5954 17.2244 79.5192 15.3898 79.4514C16.4175 78.1132 17.6235 75.3692 14.9397 79.7648C13.4959 79.7648 12.018 79.7648 10.5402 79.6716C10.6761 79.6293 10.6931 79.4429 10.6082 79.3582C11.7208 78.1386 11.7717 76.3431 10.192 79.6547C8.18763 79.0195 1.5545 80.5693 2.93888 73.0485C4.47614 71.3207 8.34052 63.766 2.95587 72.3879C2.97285 71.8035 2.96436 71.922 3.01532 69.5676C3.88162 68.746 8.28107 61.8604 3.0323 68.7884C3.04929 67.916 3.05778 67.0521 3.08326 66.1882C3.63532 65.7648 6.2682 60.8779 3.10025 65.4938C3.12573 64.4944 3.1597 65.1973 3.18518 64.1979C3.71176 63.6135 4.55259 62.2245 4.93478 61.4454C6.5315 59.2433 7.81395 57.2191 3.30409 62.8852L3.35504 61.1066C4.73093 59.5821 9.00299 52.6541 3.37203 60.3867C3.38902 59.6753 3.41451 58.9723 3.4315 58.2609C4.21287 57.5579 7.97533 51.6124 3.44848 57.541C3.45698 57.0413 3.47396 56.5416 3.48245 56.0419C4.03451 55.6184 7.0241 50.9856 3.49944 55.3728C2.81999 53.1623 9.68245 44.8877 3.5504 52.7388C2.76903 49.7576 10.7866 40.7038 3.60136 49.6051C3.60985 48.8768 3.62684 48.1569 3.62684 47.4285C4.2893 46.8865 7.10903 42.3723 3.62684 46.8441C3.61834 46.1496 3.63533 46.8695 3.60985 44.6929C3.98355 37.6888 3.98355 23.2908 3.59284 9.38402Z" fill="#333333"/>
</svg>
