<svg width="50" height="43" viewBox="0 0 50 43" fill="none" xmlns="http://www.w3.org/2000/svg">
<path fill-rule="evenodd" clip-rule="evenodd" d="M10.4734 42.8498C-7.19766 44.8193 3.3612 27.1717 1.10249 4.47527C-1.73456 -2.22269 42.4931 0.583089 42.9862 0.583102C43.4794 0.583114 44.4071 1.80457 44.7135 2.71676C45.073 3.78749 45.0574 5.38969 45.0574 6.72616C48.7307 1.40374 45.6123 6.71834 45.0574 7.37485C45.0808 8.60971 45.0886 8.67224 45.0886 8.93797C49.7233 3.39672 45.6044 9.03176 45.0964 9.82113C45.1824 9.89929 45.1511 10.0243 45.073 10.0947C45.0652 10.5323 45.0339 10.9622 45.0183 11.3921C50.6768 4.30333 46.4329 10.6027 44.987 12.0486C44.901 14.0962 44.9089 13.5179 44.8932 13.979C50.0671 7.54679 47.1207 12.244 44.8541 14.6902C44.817 15.2776 44.7869 15.8649 44.7571 16.4455L44.7525 16.5347C49.0199 11.2592 45.4559 16.6051 44.7135 17.2069C44.6822 17.8555 44.6509 18.5121 44.6275 19.1607C49.9968 12.7754 46.9331 17.2694 44.6119 19.8329C44.5962 20.3878 44.5962 20.9505 44.5962 21.5132C45.878 20.1455 46.6517 19.2858 47.0581 18.8169C46.1828 19.911 44.1664 22.6778 44.6431 24.1158C50.4501 16.8473 47.6209 22.2557 44.6588 24.4363C44.7369 26.1088 44.7135 24.8661 44.7369 25.3507C51.9038 17.1365 47.6365 22.67 44.7682 26.0541C44.8151 27.2655 44.8385 25.3507 44.862 26.5543C50.919 19.4734 47.5662 24.4363 44.8698 27.2186L44.8932 28.9771C52.2868 20.763 48.1523 26.3745 44.901 29.4226L44.9245 31.1186C51.3645 23.3734 47.7928 28.5004 45.0105 31.7829C45.3387 34.4559 45.667 37.2617 45.6201 38.6606C45.7451 38.6372 45.8389 38.6059 45.9093 38.5825C45.6435 38.8717 45.4091 39.1061 45.2449 39.2234C45.1668 39.8408 45.0261 40.4113 44.7916 40.9115C44.429 42.2621 42.9156 42.8232 42.2042 42.9349L10.4734 42.8498ZM2.94697 25.718C2.95479 25.7024 2.9626 25.6946 2.97042 25.679C2.9626 25.5148 2.95479 25.4132 2.94697 25.718ZM3.30649 8.07044C2.86882 4.56124 3.51701 3.85666 9.3787 3.0751C57.5462 0.386536 39.0706 -3.61387 42.7518 33.6899C41.7904 34.6591 45.2762 40.0362 40.4071 40.341C40.7041 40.044 40.5165 39.1843 40.0788 40.3488C39.1957 40.3957 38.8987 40.2316 36.7806 40.4192C37.7107 39.2937 39.1566 36.0893 36.2883 40.466C35.6005 40.5364 34.9127 40.6067 34.225 40.6693C35.3738 39.4266 37.1871 35.5813 33.6935 40.7161C33.0526 40.763 33.7169 40.7318 31.5833 40.8412C32.3805 39.7314 33.7716 36.2847 31.1534 40.849C29.7232 40.8881 28.3007 40.9193 26.8783 40.935C27.7615 39.8017 29.2777 36.2222 26.4094 40.9428C25.6044 40.9584 24.7994 40.9662 23.9943 40.9741C24.4086 40.6849 26.1358 37.1366 23.5098 40.9819C22.7126 40.9819 21.9232 40.9975 21.126 40.9975C22.5328 39.3406 22.8924 36.4879 21.0166 40.7161C20.407 40.7161 19.6098 40.6849 18.6485 40.638C19.0315 40.1612 19.8599 39.2781 19.219 39.2156C19.3284 39.5594 18.4687 39.536 18.4765 40.6302C17.2808 40.5755 15.8505 40.5051 14.1623 40.4426C15.108 39.2077 16.2178 36.6755 13.7481 40.7318C12.4195 40.7318 11.0596 40.7318 9.69964 40.6458C9.82469 40.6067 9.84032 40.4348 9.76216 40.3566C10.786 39.2312 10.8329 37.5743 9.3792 40.6302C7.53472 40.044 1.43075 41.4743 2.70469 34.534C4.11931 32.9396 7.6754 25.9681 2.72032 33.9244C2.73595 33.3851 2.72814 33.4945 2.77503 31.3218C3.57222 30.5637 7.62069 24.2096 2.79066 30.6028C2.80629 29.7978 2.81411 29.0006 2.83755 28.2034C3.34557 27.8126 5.7684 23.303 2.85319 27.5625C2.87663 26.6403 2.90789 27.289 2.93134 26.3667C3.41591 25.8275 4.18965 24.5457 4.54135 23.8267C6.01068 21.7946 7.19084 19.9267 3.04076 25.1553L3.08765 23.514C4.35378 22.1072 8.28502 15.7141 3.10328 22.8497C3.11892 22.1932 3.14236 21.5445 3.15799 20.888C3.87703 20.2393 7.33933 14.7528 3.17362 20.2237C3.18144 19.7625 3.19707 19.3014 3.20489 18.8403C3.7129 18.4495 6.46399 14.1744 3.22052 18.2229C2.59527 16.183 8.91027 8.54718 3.26741 15.7922C2.54838 13.0411 9.92629 4.68628 3.31431 12.9005C3.32212 12.2283 3.33775 11.564 3.33775 10.8919C3.94737 10.3917 6.54214 6.22596 3.33775 10.3526C3.32994 9.71171 3.34557 10.376 3.32212 8.36743C5.65898 5.82736 8.23031 1.05986 3.30649 8.07044Z" fill="#333333"/>
</svg>
