<svg width="50" height="43" viewBox="0 0 50 43" fill="none" xmlns="http://www.w3.org/2000/svg">
<path fill-rule="evenodd" clip-rule="evenodd" d="M10.4734 42.8498C-7.19766 44.8193 3.3612 27.1717 1.10249 4.47527C-1.73456 -2.22269 42.4931 0.583089 42.9862 0.583102C43.4794 0.583114 44.4071 1.80457 44.7135 2.71676C45.073 3.78749 45.0574 5.38969 45.0574 6.72616C48.7307 1.40374 45.6123 6.71834 45.0574 7.37485C45.0808 8.60971 45.0886 8.67224 45.0886 8.93797C49.7233 3.39672 45.6044 9.03176 45.0964 9.82113C45.1824 9.89929 45.1511 10.0243 45.073 10.0947C45.0652 10.5323 45.0339 10.9622 45.0183 11.3921C50.6768 4.30333 46.4329 10.6027 44.987 12.0486C44.901 14.0962 44.9089 13.5179 44.8932 13.979C50.0671 7.54679 47.1207 12.244 44.8541 14.6902C44.817 15.2776 44.7869 15.8649 44.7571 16.4455L44.7525 16.5347C49.0199 11.2592 45.4559 16.6051 44.7135 17.2069C44.6822 17.8555 44.6509 18.5121 44.6275 19.1607C49.9968 12.7754 46.9331 17.2694 44.6119 19.8329C44.5962 20.3878 44.5962 20.9505 44.5962 21.5132C45.878 20.1455 46.6517 19.2858 47.0581 18.8169C46.1828 19.911 44.1664 22.6778 44.6431 24.1158C50.4501 16.8473 47.6209 22.2557 44.6588 24.4363C44.7369 26.1088 44.7135 24.8661 44.7369 25.3507C51.9038 17.1365 47.6365 22.67 44.7682 26.0541C44.8151 27.2655 44.8385 25.3507 44.862 26.5543C50.919 19.4734 47.5662 24.4363 44.8698 27.2186L44.8932 28.9771C52.2868 20.763 48.1523 26.3745 44.901 29.4226L44.9245 31.1186C51.3645 23.3734 47.7928 28.5004 45.0105 31.7829C45.3387 34.4559 45.667 37.2617 45.6201 38.6606C45.7451 38.6372 45.8389 38.6059 45.9093 38.5825C45.6435 38.8717 45.4091 39.1061 45.2449 39.2234C45.1668 39.8408 45.0261 40.4113 44.7916 40.9115C44.429 42.2621 42.9156 42.8232 42.2042 42.9349L10.4734 42.8498ZM2.94697 25.718C2.95479 25.7024 2.9626 25.6946 2.97042 25.679C2.9626 25.5148 2.95479 25.4132 2.94697 25.718ZM3.30649 8.07044C2.86882 4.56124 3.51701 3.85666 9.3787 3.0751C57.5462 0.386536 39.0706 -3.61387 42.7518 33.6899C41.7904 34.6591 45.2762 40.0362 40.4071 40.341C40.7041 40.044 40.5165 39.1843 40.0788 40.3488C39.1957 40.3957 38.8987 40.2316 36.7806 40.4192C37.7107 39.2937 39.1566 36.0893 36.2883 40.466C35.6005 40.5364 34.9127 40.6067 34.2249 40.6693C35.3738 39.4266 37.1871 35.5813 33.6935 40.7161C33.0526 40.763 33.7169 40.7318 31.5833 40.8412C32.3805 39.7314 33.7716 36.2847 31.1534 40.849C29.7232 40.8881 28.3007 40.9193 26.8783 40.935C27.7615 39.8017 29.2777 36.2222 26.4094 40.9428C25.6044 40.9584 24.7994 40.9662 23.9943 40.9741C24.4086 40.6849 26.1358 37.1366 23.5098 40.9819C22.7126 40.9819 21.9232 40.9975 21.126 40.9975C22.5328 39.3406 22.8923 36.4879 21.0166 40.7161C20.407 40.7161 19.6098 40.6849 18.6485 40.638C19.0315 40.1612 19.8599 39.2781 19.219 39.2156C19.3284 39.5594 18.4687 39.536 18.4765 40.6302C17.2808 40.5755 15.8505 40.5051 14.1623 40.4426C15.108 39.2077 16.2178 36.6755 13.7481 40.7318C12.4195 40.7318 11.0596 40.7318 9.69964 40.6458C9.82469 40.6067 9.84032 40.4348 9.76216 40.3566C10.786 39.2312 10.8329 37.5743 9.3792 40.6302C7.53472 40.044 1.43075 41.4743 2.70469 34.534C4.11931 32.9396 7.6754 25.9681 2.72032 33.9244C2.73595 33.3851 2.72814 33.4945 2.77503 31.3218C3.57222 30.5637 7.62069 24.2096 2.79066 30.6028C2.80629 29.7978 2.81411 29.0006 2.83755 28.2034C3.34557 27.8126 5.7684 23.303 2.85319 27.5625C2.87663 26.6403 2.90789 27.289 2.93134 26.3667C3.41591 25.8275 4.18965 24.5457 4.54135 23.8267C6.01068 21.7946 7.19084 19.9267 3.04076 25.1553L3.08765 23.514C4.35378 22.1072 8.28502 15.7141 3.10328 22.8497C3.11892 22.1932 3.14236 21.5445 3.15799 20.888C3.87703 20.2393 7.33933 14.7528 3.17362 20.2237C3.18144 19.7625 3.19707 19.3014 3.20489 18.8403C3.7129 18.4495 6.46399 14.1744 3.22052 18.2229C2.59527 16.183 8.91026 8.54718 3.26741 15.7922C2.54838 13.0411 9.92629 4.68628 3.31431 12.9005C3.32212 12.2283 3.33775 11.564 3.33775 10.8919C3.94737 10.3917 6.54214 6.22596 3.33775 10.3526C3.32994 9.71171 3.34557 10.376 3.32212 8.36743C5.65898 5.82736 8.23031 1.05986 3.30649 8.07044Z" fill="#333333"/>
<path d="M30.5581 15.385C30.2701 15.385 29.7781 15.841 29.0821 16.753C28.3861 17.665 27.6901 18.661 26.9941 19.741C26.2981 20.821 25.5781 21.817 24.8341 22.729C24.0901 23.641 23.5501 24.097 23.2141 24.097C22.9981 24.097 22.7101 23.857 22.3501 23.377C22.2301 23.209 21.7381 22.453 20.8741 21.109C20.0101 19.789 19.2661 18.697 18.6421 17.833C18.0181 16.993 17.6101 16.573 17.4181 16.573C17.2501 16.573 17.1061 16.621 16.9861 16.717C16.8661 16.837 16.8061 16.969 16.8061 17.113C16.8061 17.617 17.7661 19.225 19.6861 21.937C21.6061 24.673 22.8061 26.041 23.2861 26.041C23.6701 26.041 24.2101 25.633 24.9061 24.817C25.6021 24.025 26.3941 22.993 27.2821 21.721C28.1461 20.473 28.6501 19.753 28.7941 19.561C29.2501 18.985 29.6581 18.409 30.0181 17.833C30.3541 17.257 30.5941 16.801 30.7381 16.465C30.8581 16.153 30.9181 15.961 30.9181 15.889C30.9181 15.553 30.7981 15.385 30.5581 15.385Z" fill="#0B997B"/>
<path d="M29.0821 16.753L29.4795 17.0563L29.0821 16.753ZM26.9941 19.741L27.4143 20.0118L26.9941 19.741ZM24.8341 22.729L25.2215 23.045L24.8341 22.729ZM22.3501 23.377L21.9499 23.677L21.9432 23.6676L22.3501 23.377ZM20.8741 21.109L21.2924 20.8351L21.2946 20.8386L20.8741 21.109ZM18.6421 17.833L19.0435 17.5348L19.0474 17.5402L18.6421 17.833ZM16.9861 16.717L16.6325 16.3634L16.6521 16.3438L16.6737 16.3265L16.9861 16.717ZM19.6861 21.937L20.0941 21.6481L20.0953 21.6498L19.6861 21.937ZM24.9061 24.817L24.5256 24.4925L24.5305 24.4869L24.9061 24.817ZM27.2821 21.721L27.6932 22.0056L27.692 22.0072L27.2821 21.721ZM28.7941 19.561L28.3939 19.2609L28.402 19.2506L28.7941 19.561ZM30.0181 17.833L30.4499 18.0849L30.4461 18.0915L30.4421 18.098L30.0181 17.833ZM30.7381 16.465L31.2047 16.6445L31.2013 16.6533L31.1976 16.6619L30.7381 16.465ZM30.5581 15.885C30.6115 15.885 30.6167 15.8667 30.5562 15.9021C30.5013 15.9342 30.4208 15.9937 30.3129 16.0937C30.0975 16.2933 29.8205 16.6095 29.4795 17.0563L28.6846 16.4496C29.0396 15.9844 29.3566 15.6166 29.6332 15.3603C29.7714 15.2322 29.9113 15.1207 30.0515 15.0388C30.1859 14.9602 30.3606 14.885 30.5581 14.885L30.5581 15.885ZM29.4795 17.0563C28.7924 17.9566 28.104 18.9416 27.4143 20.0118L26.5738 19.4701C27.2761 18.3803 27.9797 17.3733 28.6846 16.4496L29.4795 17.0563ZM27.4143 20.0118C26.7091 21.1061 25.9783 22.1173 25.2215 23.045L24.4466 22.4129C25.1778 21.5166 25.887 20.5359 26.5738 19.4701L27.4143 20.0118ZM25.2215 23.045C24.841 23.5114 24.4976 23.8803 24.1936 24.137C24.0414 24.2655 23.8881 24.3754 23.7352 24.455C23.5854 24.533 23.4073 24.597 23.2141 24.597L23.2141 23.597C23.1888 23.597 23.2043 23.604 23.2734 23.568C23.3395 23.5336 23.4307 23.4724 23.5485 23.373C23.7845 23.1737 24.0831 22.8585 24.4466 22.4129L25.2215 23.045ZM23.2141 24.597C22.9296 24.597 22.69 24.4461 22.516 24.3011C22.3299 24.146 22.1412 23.9319 21.9501 23.677L22.7501 23.077C22.9189 23.3021 23.0543 23.4479 23.1561 23.5329C23.2701 23.6279 23.2825 23.597 23.2141 23.597L23.2141 24.597ZM21.9432 23.6676C21.814 23.4867 21.3125 22.7155 20.4535 21.3793L21.2946 20.8386C22.1637 22.1904 22.6462 22.9313 22.7569 23.0863L21.9432 23.6676ZM20.4557 21.3828C19.5941 20.0665 18.8547 18.9813 18.2367 18.1257L19.0474 17.5402C19.6774 18.4126 20.426 19.5115 21.2924 20.8351L20.4557 21.3828ZM18.2407 18.1311C17.9333 17.7174 17.6906 17.4229 17.5094 17.2364C17.418 17.1423 17.3544 17.0883 17.3158 17.0613C17.2601 17.0223 17.3057 17.073 17.4181 17.073L17.4181 16.073C17.6264 16.073 17.795 16.1761 17.8893 16.2421C18.0007 16.3201 18.1141 16.4237 18.2267 16.5396C18.4535 16.773 18.7268 17.1086 19.0434 17.5348L18.2407 18.1311ZM17.4181 17.073C17.3523 17.073 17.3213 17.0891 17.2984 17.1074L16.6737 16.3265C16.8908 16.1529 17.1478 16.073 17.4181 16.073L17.4181 17.073ZM17.3396 17.0705C17.3149 17.0952 17.3076 17.1099 17.3062 17.1129C17.3055 17.1145 17.3057 17.1145 17.3059 17.1134C17.3061 17.1124 17.3061 17.112 17.3061 17.113L16.3061 17.113C16.3061 16.8129 16.4368 16.5592 16.6325 16.3634L17.3396 17.0705ZM17.3061 17.113C17.3061 17.105 17.3057 17.1312 17.3289 17.2067C17.3507 17.2773 17.3867 17.3711 17.4412 17.4911C17.5503 17.7311 17.7199 18.0462 17.9554 18.4407C18.4255 19.2282 19.1369 20.2959 20.0941 21.6481L19.278 22.2259C18.3153 20.866 17.5866 19.7738 17.0967 18.9533C16.8522 18.5437 16.6618 18.1928 16.5309 17.9049C16.4101 17.6391 16.3061 17.357 16.3061 17.113L17.3061 17.113ZM20.0953 21.6498C21.052 23.013 21.8198 24.0216 22.4019 24.6852C22.6941 25.0183 22.928 25.2512 23.1068 25.3968C23.1961 25.4695 23.2606 25.5113 23.3023 25.5329C23.3491 25.5571 23.3382 25.541 23.2861 25.541L23.2861 26.541C23.1139 26.541 22.9605 26.482 22.8423 26.4208C22.719 26.3569 22.596 26.2704 22.4753 26.1722C22.2341 25.9757 21.958 25.6956 21.6502 25.3447C21.0323 24.6403 20.2401 23.5969 19.2768 22.2242L20.0953 21.6498ZM23.2861 25.541C23.3134 25.541 23.4356 25.5189 23.6776 25.336C23.907 25.1628 24.1892 24.8869 24.5256 24.4925L25.2865 25.1414C24.9269 25.563 24.5911 25.8992 24.2805 26.1339C23.9825 26.359 23.6427 26.541 23.2861 26.541L23.2861 25.541ZM24.5305 24.4869C25.21 23.7137 25.9903 22.6979 26.8721 21.4348L27.692 22.0072C26.7979 23.288 25.9942 24.3362 25.2816 25.147L24.5305 24.4869ZM26.871 21.4364C27.7314 20.1935 28.2427 19.4627 28.3941 19.261L29.1941 19.861C29.0574 20.0432 28.5607 20.7525 27.6932 22.0056L26.871 21.4364ZM28.402 19.2506C28.8475 18.688 29.2446 18.1271 29.5941 17.568L30.4421 18.098C30.0715 18.6909 29.6527 19.282 29.1861 19.8713L28.402 19.2506ZM29.5862 17.581C29.9188 17.0109 30.1466 16.5757 30.2785 16.268L31.1976 16.6619C31.0415 17.0262 30.7894 17.5031 30.4499 18.0849L29.5862 17.581ZM30.2714 16.2855C30.3297 16.1339 30.3704 16.0191 30.3958 15.9378C30.4086 15.897 30.4157 15.8702 30.4192 15.8547C30.4244 15.8322 30.4181 15.8502 30.4181 15.889L31.4181 15.889C31.4181 16.0126 31.3775 16.1491 31.3503 16.2361C31.3157 16.3468 31.2664 16.4841 31.2047 16.6445L30.2714 16.2855ZM30.4181 15.889C30.4181 15.8331 30.4129 15.8001 30.4092 15.7843C30.4054 15.7687 30.4054 15.7795 30.4212 15.8016C30.4392 15.8268 30.4679 15.8527 30.5041 15.8696C30.5377 15.8852 30.56 15.885 30.5581 15.885L30.5581 14.885C30.8095 14.885 31.0649 14.9823 31.2349 15.2203C31.3828 15.4274 31.4181 15.6765 31.4181 15.889L30.4181 15.889Z" fill="#0B997B"/>
</svg>
