<svg width="53" height="58" viewBox="0 0 53 58" fill="none" xmlns="http://www.w3.org/2000/svg">
<g clip-path="url(#clip0_509_1162)">
<path d="M50.7931 20.5966C50.7088 20.5322 50.6351 20.4572 50.5508 20.4036C49.7817 19.7603 49.0758 19.0419 48.3699 18.3343C48.2329 17.7446 48.096 17.1549 47.9379 16.5866C48.2392 16.8727 48.5499 17.1296 48.8703 17.3944L48.9178 17.4336C49.4024 17.8411 49.8554 18.2807 50.3612 18.6452C50.2769 18.7739 50.3296 18.999 50.5297 19.0097C50.6351 19.5244 50.7194 20.0605 50.7931 20.5966Z" fill="white" fill-opacity="0.01"/>
<path d="M51.1408 24.1026C50.8564 23.6416 50.5508 23.1912 50.2137 22.7731C49.8554 22.3228 49.3392 21.8939 48.9388 21.4114C48.8019 20.5108 48.6438 19.6209 48.4542 18.7524C48.9388 19.2778 49.4235 19.8032 49.9397 20.2964C50.2031 20.543 50.5719 20.8217 50.8564 21.1327C50.9933 22.1405 51.0776 23.1376 51.1408 24.1026Z" fill="white" fill-opacity="0.01"/>
<path d="M50.3506 18.0555C49.9187 17.7446 49.5183 17.3907 49.0969 17.0584C48.6228 16.6938 48.1697 16.34 47.7483 15.9326C47.5797 15.3322 47.4111 14.7317 47.2215 14.1206C47.6745 14.5173 48.1381 14.9033 48.5595 15.3322C49.0547 15.8254 49.5183 16.3507 50.0556 16.801C50.161 17.2192 50.2663 17.6373 50.3506 18.0555Z" fill="white" fill-opacity="0.01"/>
<path d="M49.8554 16.0612C49.4235 15.6753 49.0231 15.2571 48.5911 14.8711C48.0854 14.4315 47.5692 14.0134 47.0529 13.5845C46.8843 13.0806 46.7158 12.5874 46.5367 12.0942C46.5472 12.1049 46.5683 12.1156 46.5788 12.1263C47.1583 12.5552 47.8958 12.8554 48.4542 13.3165C48.4542 13.3701 48.4858 13.4344 48.549 13.4666C48.6438 13.5309 48.7492 13.5952 48.844 13.6596C48.9283 13.7132 49.0126 13.6917 49.0653 13.6381C49.3603 14.4208 49.6237 15.2357 49.8554 16.0612Z" fill="white" fill-opacity="0.01"/>
<path d="M48.8545 13.1556C48.2013 12.6088 47.3374 12.33 46.642 11.8476C46.5367 11.7725 46.4313 11.6975 46.326 11.6117C45.8308 10.3894 45.2513 9.19928 44.5243 8.14854C45.2408 8.74896 46.1363 9.07062 46.8843 9.60671C47.6745 10.6682 48.3172 11.869 48.8545 13.1556Z" fill="white" fill-opacity="0.01"/>
<path d="M46.2522 8.81329C45.6095 8.45947 44.9458 8.13782 44.3663 7.64462C44.1766 7.48379 43.9449 7.25863 43.692 7.05492C43.6182 6.96914 43.555 6.87264 43.4813 6.79759C43.239 6.52955 42.9756 6.27222 42.7122 6.02562C44.0924 6.7011 45.2618 7.65534 46.2522 8.81329Z" fill="white" fill-opacity="0.01"/>
<path d="M51.2356 27.2012C51.0144 26.8367 50.7299 26.5043 50.4771 26.129C50.0872 25.55 49.7396 24.9496 49.2971 24.4242C49.2233 23.5665 49.1285 22.7088 49.002 21.8617C49.0969 21.9797 49.2022 22.0976 49.3076 22.2156C50.0767 23.1055 50.6772 24.0597 51.183 25.1104C51.1935 25.4535 51.204 25.8074 51.2146 26.1397C51.2356 26.4828 51.2356 26.8474 51.2356 27.2012Z" fill="white" fill-opacity="0.01"/>
<path d="M51.204 30.407C51.0671 30.214 50.9301 30.021 50.8037 29.8388C50.5403 29.4528 49.866 28.6701 49.4762 27.9196C49.4656 26.901 49.4235 25.8717 49.3392 24.8638C49.6026 25.2284 49.8344 25.6251 50.0662 26.0325C50.4771 26.7294 51.0565 27.3727 51.2356 28.1769C51.2461 28.9096 51.2255 29.6423 51.2046 30.3855L51.204 30.407Z" fill="white" fill-opacity="0.01"/>
<path d="M50.9828 34.1597C50.9196 33.9988 50.8458 33.8487 50.7931 33.7201C50.4033 32.8838 49.9081 32.0903 49.3813 31.3398C49.4446 30.3641 49.4867 29.3884 49.4867 28.4128C49.5183 28.4664 49.5499 28.5307 49.5815 28.5736C49.9819 29.3027 50.751 30.1604 51.1935 31.0289C51.1514 32.0796 51.0776 33.1196 50.9828 34.1597Z" fill="white" fill-opacity="0.01"/>
<path d="M50.4771 37.8265C50.3612 37.5585 50.2347 37.3011 50.1083 37.0331C49.708 36.2075 49.3708 35.3498 49.0547 34.492C49.1812 33.5914 49.2865 32.68 49.3603 31.758C49.6131 32.144 49.8554 32.5299 50.0767 32.9266C50.3296 33.3877 50.8669 34.2454 50.9196 34.9531C50.8985 35.1139 50.8774 35.264 50.8669 35.4248C50.8353 35.5106 50.8037 35.5857 50.751 35.6607C50.6667 35.7679 50.7089 35.8966 50.8037 35.9502C50.6878 36.5721 50.593 37.2046 50.4771 37.8265Z" fill="white" fill-opacity="0.01"/>
<path d="M49.6131 41.3111C49.5394 40.9573 49.3919 40.6035 49.2971 40.3354C49.0126 39.6063 48.6754 38.9094 48.3278 38.2232C48.5806 37.2154 48.7913 36.1861 48.9599 35.1461C49.139 35.6393 49.3181 36.1325 49.5078 36.6149C49.7606 37.269 50.1505 37.9016 50.2558 38.5985C50.1926 38.5663 50.1399 38.5341 50.0767 38.502C49.8765 38.2768 49.571 38.5985 49.7606 38.8236C49.9081 39.0166 50.0451 39.1131 50.2031 39.1667C50.024 39.8958 49.8344 40.6035 49.6131 41.3111Z" fill="white" fill-opacity="0.01"/>
<path d="M48.4858 44.2918C48.3383 43.8736 48.2435 43.4233 48.1065 42.9944C47.8853 42.2653 47.6745 41.547 47.5586 40.7857C47.8326 39.9816 48.0749 39.156 48.2856 38.3197C48.8862 39.4669 49.9397 41.5899 49.1812 42.0509C49.0337 42.1367 49.1285 42.3511 49.2549 42.3618C49.0337 43.0266 48.7703 43.6592 48.4858 44.2918Z" fill="white" fill-opacity="0.01"/>
<path d="M47.1372 46.0823C46.8422 45.2246 46.6104 44.281 46.5683 43.359C46.8422 42.7371 47.1056 42.1045 47.3479 41.4505C47.4533 42.008 47.5902 42.5548 47.7483 43.1016C47.9063 43.6699 47.9906 44.2703 48.2435 44.8064C47.959 45.3961 47.6429 45.9751 47.2952 46.5326C47.2531 46.3825 47.1899 46.2217 47.1372 46.0823Z" fill="white" fill-opacity="0.01"/>
<path d="M45.62 47.444C45.5463 46.8757 45.3461 46.3396 45.2934 45.7714C45.599 45.3211 45.8729 44.8386 46.1363 44.3132C46.2101 44.1631 46.2733 44.013 46.3365 43.8629C46.3892 44.3347 46.4734 44.7957 46.5683 45.2674C46.642 45.6427 46.9792 46.4254 47.0213 46.9937C46.6104 47.637 46.1574 48.2481 45.6622 48.8378C45.6727 48.3768 45.6727 47.905 45.62 47.444Z" fill="white" fill-opacity="0.01"/>
<path d="M43.7868 48.6555C43.85 48.2052 43.9449 47.7764 43.9975 47.3368C44.3874 46.9401 44.7561 46.5219 45.1038 46.0394C45.167 46.4683 45.2829 46.8757 45.3461 47.3153C45.4304 47.9586 45.3777 48.6019 45.3356 49.2452C44.8509 49.8028 44.3241 50.3067 43.7763 50.7785C43.7341 50.0815 43.6815 49.3739 43.7868 48.6555Z" fill="white" fill-opacity="0.01"/>
<path d="M41.6375 52.3653C41.7007 51.9686 41.7745 51.5719 41.8166 51.1752L41.8178 51.1638C41.9122 50.2784 41.9975 49.4777 42.4066 48.677V48.6663C42.8702 48.3446 43.3022 48.0015 43.7131 47.6155C43.6393 48.0551 43.5234 48.4947 43.4602 48.9557C43.3549 49.6634 43.3654 50.3925 43.3865 51.1108C42.8386 51.5611 42.2486 51.9793 41.6375 52.3653Z" fill="white" fill-opacity="0.01"/>
<path d="M39.1405 53.7055C39.4039 53.2445 39.5093 52.7513 39.583 52.2152C39.6778 51.4325 39.7832 50.6927 40.0045 49.9529C40.7525 49.6312 41.4584 49.2774 42.1222 48.8485C41.8377 49.4811 41.6902 50.1244 41.5848 50.8321C41.5005 51.4218 41.3425 52.0115 41.2582 52.6012C40.5734 53.0193 39.8675 53.3839 39.1405 53.7055Z" fill="white" fill-opacity="0.01"/>
<path d="M36.9596 54.5525C37.1493 54.1129 37.223 53.5447 37.2757 53.223C37.4232 52.4189 37.5075 51.604 37.6023 50.7892C38.3187 50.5855 39.0141 50.3603 39.6778 50.0923C39.5514 50.4997 39.4461 50.9071 39.3723 51.336C39.2248 52.1401 39.1827 52.9657 38.6769 53.6412C38.6032 53.7377 38.6348 53.8235 38.698 53.8878C38.1291 54.1344 37.5496 54.3488 36.9596 54.5525Z" fill="white" fill-opacity="0.01"/>
<path d="M31.5126 55.7427C31.6074 55.5604 31.6812 55.346 31.7338 55.1422C31.9867 54.0915 32.0815 52.9979 32.9665 52.2581C33.0297 52.2045 33.0087 52.1187 32.9665 52.0758C34.1465 51.797 35.3371 51.4861 36.496 51.1108C36.7384 51.0465 36.9807 50.9822 37.2125 50.9178C37.2862 50.8964 37.3494 50.875 37.4232 50.8535C37.3284 51.4218 37.2335 52.0007 37.1176 52.569C37.0228 53.03 36.9175 53.4911 36.7594 53.9414C36.7067 54.0808 36.633 54.456 36.496 54.5311C36.3275 54.6383 36.3591 54.5311 36.1589 54.2738C36.0219 54.1129 35.7796 54.3274 35.8744 54.4989L36.0641 54.8206C35.6005 54.96 35.1369 55.0779 34.6733 55.1851C34.9578 54.0915 34.863 52.7298 34.9157 51.8399C34.9262 51.6469 34.6312 51.6469 34.6101 51.8399C34.5364 52.9121 34.6207 54.2309 34.2203 55.2816C33.3247 55.4746 32.4187 55.6247 31.5126 55.7427Z" fill="white" fill-opacity="0.01"/>
<path d="M28.4888 56.0107C28.6679 55.5818 28.7733 55.1208 28.9313 54.7134C29.1947 54.0272 29.5529 53.4053 29.7426 52.7084C30.4169 52.6012 31.1017 52.4832 31.7654 52.3331C32.0815 52.2688 32.3871 52.1937 32.7031 52.1187C32.1658 52.5797 31.8708 53.1801 31.639 53.8556C31.4599 54.3917 31.3756 55.7748 30.6381 55.7748C30.5538 55.7748 30.5011 55.807 30.459 55.8606C29.8163 55.9356 29.1526 55.9785 28.4888 56.0107Z" fill="white" fill-opacity="0.01"/>
<path d="M25.602 56.0429C26.0234 55.6247 26.329 55.1422 26.5818 54.5954C26.8136 54.0915 26.919 53.2552 27.4563 52.9871C28.1201 52.9228 28.7733 52.8478 29.437 52.7513C29.2263 53.416 28.8365 54.0164 28.5626 54.6598C28.3624 55.1315 28.2043 55.6033 27.962 56.0429C27.1613 56.0643 26.3816 56.0643 25.602 56.0429Z" fill="white" fill-opacity="0.01"/>
<path d="M23.3684 55.9571C23.6002 54.9385 24.4852 54.1666 24.7275 53.1373C25.4545 53.1265 26.1815 53.0944 26.9084 53.0408C26.7715 53.2123 26.6766 53.416 26.5818 53.6305C26.2447 54.4453 25.8759 55.2495 25.17 55.7963C25.0752 55.8713 25.0541 55.9571 25.0647 56.0429C24.9382 56.0429 24.8223 56.0429 24.6959 56.0321C24.2534 56 23.8109 55.9785 23.3684 55.9571Z" fill="white" fill-opacity="0.01"/>
<path d="M20.5132 55.7212C21.2402 55.0886 21.8723 54.0593 22.1462 53.0729C22.9154 53.1158 23.6845 53.148 24.4536 53.1373C24.148 54.1666 23.1893 54.8849 22.9259 55.9356C22.1252 55.882 21.3244 55.8177 20.5132 55.7212Z" fill="white" fill-opacity="0.01"/>
<path d="M18.0583 55.3245C18.4692 54.9064 18.8064 54.3917 19.0803 53.8878C19.27 53.5554 19.4596 53.1801 19.586 52.7942C20.3341 52.9014 21.0821 52.9872 21.8407 53.0408C21.5036 54.0057 20.7871 54.8206 20.1023 55.5282C20.0601 55.5711 20.0496 55.614 20.0391 55.6569C19.3753 55.5818 18.7116 55.4639 18.0583 55.3245Z" fill="white" fill-opacity="0.01"/>
<path d="M15.593 54.5633C15.6772 54.3381 15.7299 54.1022 15.8142 53.8663C16.0144 53.2552 16.2989 52.7084 16.6676 52.2152C17.5632 52.4296 18.4692 52.6226 19.3753 52.7513C19.0592 53.6948 18.248 54.6276 17.5737 55.1958L17.5632 55.2066C17.4578 55.1851 17.3524 55.1637 17.2576 55.1422C16.6676 55.0029 16.1198 54.7991 15.593 54.5633Z" fill="white" fill-opacity="0.01"/>
<path d="M13.4015 53.3731C13.7808 52.8049 14.0547 52.0865 14.276 51.5397C14.9608 51.7649 15.6456 51.9686 16.341 52.1509C16.1514 52.4082 15.9723 52.6762 15.8247 52.9657C15.6246 53.341 15.4665 53.9521 15.2031 54.381C14.571 54.0808 13.981 53.7377 13.4015 53.3731Z" fill="white" fill-opacity="0.01"/>
<path d="M11.0415 51.8935C11.1574 51.3896 11.2943 50.8857 11.3997 50.3818C12.2426 50.7677 13.1065 51.1216 13.9704 51.4325C13.8019 51.8292 13.6228 52.2152 13.4015 52.5904C13.3067 52.762 13.1803 52.9657 13.0433 53.1587C12.7061 52.955 12.369 52.7406 12.0213 52.5261C11.6947 52.3331 11.3681 52.1187 11.0415 51.8935Z" fill="white" fill-opacity="0.01"/>
<path d="M9.05022 50.3389C9.19772 50.0279 9.35575 49.7384 9.48218 49.4275C10.03 49.7277 10.5779 50.0065 11.1363 50.2745C11.031 50.757 10.8834 51.2181 10.7359 51.6898C10.167 51.2717 9.59808 50.8214 9.05022 50.3389Z" fill="white" fill-opacity="0.01"/>
<path d="M6.44787 47.3796C6.90091 47.7656 7.36448 48.1302 7.8702 48.4626C8.30217 48.7413 8.74468 48.9986 9.18718 49.256C9.06075 49.5347 8.90271 49.8028 8.74468 50.0601C7.88074 49.256 7.09055 48.3553 6.44787 47.3796Z" fill="white" fill-opacity="0.01"/>
<path d="M2.73926 21.9368C4.08784 14.4208 8.70253 7.20502 15.9406 4.44952C23.0102 1.75834 31.049 0.900596 37.813 4.76045C38.5084 5.15716 39.1405 5.60747 39.7411 6.07923L39.7668 6.10248C39.8514 6.17889 39.9288 6.24887 40.015 6.33655C42.7227 9.00628 44.5243 12.6517 45.62 16.2864C46.5893 19.5029 47.3058 23.0411 47.6008 26.6329C47.8115 31.9938 47.3269 37.6657 45.2197 42.5227C43.5866 45.7714 40.447 48.0337 36.8437 49.4918C36.338 49.6419 35.8112 49.7921 35.2844 49.9422C31.4599 51.0036 26.1604 51.7434 22.2727 50.6391C21.7986 50.5104 21.5352 50.9286 21.5984 51.3038C15.3612 50.5962 8.46021 48.3661 5.07821 42.8658C1.41175 36.883 1.54871 28.6058 2.73926 21.9368Z" fill="white" fill-opacity="0.01"/>
<path fill-rule="evenodd" clip-rule="evenodd" d="M3.94034 44.6134C4.78321 47.9479 7.40663 51.0787 10.2513 52.8692C10.7781 53.2016 11.3154 53.5661 11.8738 53.92C11.7685 54.0593 11.8211 54.3274 12.0424 54.3167C12.1583 54.3059 12.2742 54.2845 12.3795 54.2416C13.3699 54.8742 14.3919 55.4746 15.4139 55.8713C17.5421 56.6969 20.0812 56.8363 22.3464 57.0293C26.0656 57.3402 30.0481 57.2866 33.8305 56.5253C33.841 56.5253 33.8515 56.5253 33.8515 56.5146C38.6875 55.5497 43.2073 53.4589 46.4945 49.5562C52.3735 42.5763 53.0057 31.8116 52.226 23.0519C52.068 21.2506 51.7835 19.192 51.2989 17.1227C51.2989 17.1013 51.2883 17.0691 51.2778 17.0476C49.9397 11.3436 47.1267 5.56458 41.3741 4.81406C39.1194 2.98063 36.4855 1.61896 33.7251 0.729048C29.711 -0.55757 25.5177 0.0428516 21.4614 0.825544C17.3841 1.6404 13.3383 2.8198 10.009 5.46809C3.03426 11.0113 0.410842 19.6209 0.0315529 28.3377C-0.200235 33.7308 0.747989 40.0566 3.94034 44.6134ZM44.3663 7.64462C44.9458 8.13782 45.6095 8.45947 46.2522 8.81329C45.2618 7.65534 44.0924 6.7011 42.7122 6.02562C42.9756 6.27222 43.239 6.52955 43.4813 6.79759C43.555 6.87264 43.6182 6.96914 43.692 7.05492C43.9449 7.25863 44.1766 7.48379 44.3663 7.64462ZM46.642 11.8476C47.3374 12.33 48.2013 12.6088 48.8545 13.1556C48.3172 11.869 47.6745 10.6682 46.8843 9.60671C46.1363 9.07062 45.2408 8.74896 44.5243 8.14854C45.2513 9.19928 45.8308 10.3894 46.326 11.6117C46.4313 11.6975 46.5367 11.7725 46.642 11.8476ZM48.5911 14.8711C49.0231 15.2571 49.4235 15.6753 49.8554 16.0612C49.6237 15.2357 49.3603 14.4208 49.0653 13.6381C49.0126 13.6917 48.9283 13.7132 48.844 13.6596C48.7492 13.5952 48.6438 13.5309 48.549 13.4666C48.4858 13.4344 48.4542 13.3701 48.4542 13.3165C47.8958 12.8554 47.1583 12.5552 46.5788 12.1263C46.5683 12.1156 46.5472 12.1049 46.5367 12.0942C46.7158 12.5874 46.8843 13.0806 47.0529 13.5845C47.5692 14.0134 48.0854 14.4315 48.5911 14.8711ZM49.0969 17.0584C49.5183 17.3907 49.9187 17.7446 50.3506 18.0555C50.2663 17.6373 50.161 17.2192 50.0556 16.801C49.5183 16.3507 49.0547 15.8254 48.5595 15.3322C48.1381 14.9033 47.6745 14.5173 47.2215 14.1206C47.4111 14.7317 47.5797 15.3322 47.7483 15.9326C48.1697 16.34 48.6228 16.6938 49.0969 17.0584ZM50.5508 20.4036C50.6351 20.4572 50.7088 20.5322 50.7931 20.5966C50.7194 20.0605 50.6351 19.5244 50.5297 19.0097C50.3296 18.999 50.2769 18.7739 50.3612 18.6452C49.8554 18.2807 49.4024 17.8411 48.9178 17.4336L48.8703 17.3944C48.5499 17.1296 48.2392 16.8727 47.9379 16.5866C48.096 17.1549 48.2329 17.7446 48.3699 18.3343C49.0758 19.0419 49.7817 19.7603 50.5508 20.4036ZM50.2137 22.7731C50.5508 23.1912 50.8564 23.6416 51.1408 24.1026C51.0776 23.1376 50.9933 22.1405 50.8564 21.1327C50.5719 20.8217 50.2031 20.543 49.9397 20.2964C49.4235 19.8032 48.9388 19.2778 48.4542 18.7524C48.6438 19.6209 48.8019 20.5108 48.9388 21.4114C49.3392 21.8939 49.8554 22.3228 50.2137 22.7731ZM50.4771 26.129C50.7299 26.5043 51.0144 26.8367 51.2356 27.2012C51.2356 26.8474 51.2356 26.4828 51.2146 26.1397C51.204 25.8074 51.1935 25.4535 51.183 25.1104C50.6772 24.0597 50.0767 23.1055 49.3076 22.2156C49.2022 22.0976 49.0969 21.9797 49.002 21.8617C49.1285 22.7088 49.2233 23.5665 49.2971 24.4242C49.7396 24.9496 50.0872 25.55 50.4771 26.129ZM50.8037 29.8388C50.9301 30.021 51.0671 30.214 51.204 30.407L51.2046 30.3855C51.2255 29.6423 51.2461 28.9096 51.2356 28.1769C51.0565 27.3727 50.4771 26.7294 50.0662 26.0325C49.8344 25.6251 49.6026 25.2284 49.3392 24.8638C49.4235 25.8717 49.4656 26.901 49.4762 27.9196C49.866 28.6701 50.5403 29.4528 50.8037 29.8388ZM50.7931 33.7201C50.8458 33.8487 50.9196 33.9988 50.9828 34.1597C51.0776 33.1196 51.1514 32.0796 51.1935 31.0289C50.751 30.1604 49.9819 29.3027 49.5815 28.5736C49.5499 28.5307 49.5183 28.4664 49.4867 28.4128C49.4867 29.3884 49.4446 30.3641 49.3813 31.3398C49.9081 32.0903 50.4033 32.8838 50.7931 33.7201ZM50.1083 37.0331C50.2347 37.3011 50.3612 37.5585 50.4771 37.8265C50.593 37.2046 50.6878 36.5721 50.8037 35.9502C50.7089 35.8966 50.6667 35.7679 50.751 35.6607C50.8037 35.5857 50.8353 35.5106 50.8669 35.4248C50.8774 35.264 50.8985 35.1139 50.9196 34.9531C50.8669 34.2454 50.3296 33.3877 50.0767 32.9266C49.8554 32.5299 49.6131 32.144 49.3603 31.758C49.2865 32.68 49.1812 33.5914 49.0547 34.492C49.3708 35.3498 49.708 36.2075 50.1083 37.0331ZM49.2971 40.3354C49.3919 40.6035 49.5394 40.9573 49.6131 41.3111C49.8344 40.6035 50.024 39.8958 50.2031 39.1667C50.0451 39.1131 49.9081 39.0166 49.7606 38.8236C49.571 38.5985 49.8765 38.2768 50.0767 38.502C50.1399 38.5341 50.1926 38.5663 50.2558 38.5985C50.1505 37.9016 49.7606 37.269 49.5078 36.6149C49.3181 36.1325 49.139 35.6393 48.9599 35.1461C48.7913 36.1861 48.5806 37.2154 48.3278 38.2232C48.6754 38.9094 49.0126 39.6063 49.2971 40.3354ZM48.1065 42.9944C48.2435 43.4233 48.3383 43.8736 48.4858 44.2918C48.7703 43.6592 49.0337 43.0266 49.2549 42.3618C49.1285 42.3511 49.0337 42.1367 49.1812 42.0509C49.9397 41.5899 48.8862 39.4669 48.2856 38.3197C48.0749 39.156 47.8326 39.9816 47.5586 40.7857C47.6745 41.547 47.8853 42.2653 48.1065 42.9944ZM46.5683 43.359C46.6104 44.281 46.8422 45.2246 47.1372 46.0823C47.1899 46.2217 47.2531 46.3825 47.2952 46.5326C47.6429 45.9751 47.959 45.3961 48.2435 44.8064C47.9906 44.2703 47.9063 43.6699 47.7483 43.1016C47.5902 42.5548 47.4533 42.008 47.3479 41.4505C47.1056 42.1045 46.8422 42.7371 46.5683 43.359ZM45.2934 45.7714C45.3461 46.3396 45.5463 46.8757 45.62 47.444C45.6727 47.905 45.6727 48.3768 45.6622 48.8378C46.1574 48.2481 46.6104 47.637 47.0213 46.9937C46.9792 46.4254 46.642 45.6427 46.5683 45.2674C46.4734 44.7957 46.3892 44.3347 46.3365 43.8629C46.2733 44.013 46.2101 44.1631 46.1363 44.3132C45.8729 44.8386 45.599 45.3211 45.2934 45.7714ZM43.9975 47.3368C43.9449 47.7764 43.85 48.2052 43.7868 48.6555C43.6815 49.3739 43.7341 50.0815 43.7763 50.7785C44.3241 50.3067 44.8509 49.8028 45.3356 49.2452C45.3777 48.6019 45.4304 47.9586 45.3461 47.3153C45.2829 46.8757 45.167 46.4683 45.1038 46.0394C44.7561 46.5219 44.3874 46.9401 43.9975 47.3368ZM41.8166 51.1752C41.7745 51.5719 41.7007 51.9686 41.6375 52.3653C42.2486 51.9793 42.8386 51.5611 43.3865 51.1108C43.3654 50.3925 43.3549 49.6634 43.4602 48.9557C43.5234 48.4947 43.6393 48.0551 43.7131 47.6155C43.3022 48.0015 42.8702 48.3446 42.4066 48.6663V48.677C41.9975 49.4777 41.9122 50.2784 41.8178 51.1638L41.8166 51.1752ZM39.583 52.2152C39.5093 52.7513 39.4039 53.2445 39.1405 53.7055C39.8675 53.3839 40.5734 53.0193 41.2582 52.6012C41.3425 52.0115 41.5005 51.4218 41.5848 50.8321C41.6902 50.1244 41.8377 49.4811 42.1222 48.8485C41.4584 49.2774 40.7525 49.6312 40.0045 49.9529C39.7832 50.6927 39.6778 51.4325 39.583 52.2152ZM37.2757 53.223C37.223 53.5447 37.1493 54.1129 36.9596 54.5525C37.5496 54.3488 38.1291 54.1344 38.698 53.8878C38.6348 53.8235 38.6032 53.7377 38.6769 53.6412C39.1827 52.9657 39.2248 52.1401 39.3723 51.336C39.4461 50.9071 39.5514 50.4997 39.6778 50.0923C39.0141 50.3603 38.3187 50.5855 37.6023 50.7892C37.5075 51.604 37.4232 52.4189 37.2757 53.223ZM31.7338 55.1422C31.6812 55.346 31.6074 55.5604 31.5126 55.7427C32.4187 55.6247 33.3247 55.4746 34.2203 55.2816C34.6207 54.2309 34.5364 52.9121 34.6101 51.8399C34.6312 51.6469 34.9262 51.6469 34.9157 51.8399C34.863 52.7298 34.9578 54.0915 34.6733 55.1851C35.1369 55.0779 35.6005 54.96 36.0641 54.8206L35.8744 54.4989C35.7796 54.3274 36.0219 54.1129 36.1589 54.2738C36.3591 54.5311 36.3275 54.6383 36.496 54.5311C36.633 54.456 36.7067 54.0808 36.7594 53.9414C36.9175 53.4911 37.0228 53.03 37.1176 52.569C37.2335 52.0007 37.3284 51.4218 37.4232 50.8535C37.3494 50.875 37.2862 50.8964 37.2125 50.9178C36.9807 50.9822 36.7384 51.0465 36.496 51.1108C35.3371 51.4861 34.1465 51.797 32.9665 52.0758C33.0087 52.1187 33.0297 52.2045 32.9665 52.2581C32.0815 52.9979 31.9867 54.0915 31.7338 55.1422ZM28.9313 54.7134C28.7733 55.1208 28.6679 55.5818 28.4888 56.0107C29.1526 55.9785 29.8163 55.9356 30.459 55.8606C30.5011 55.807 30.5538 55.7748 30.6381 55.7748C31.3756 55.7748 31.4599 54.3917 31.639 53.8556C31.8708 53.1801 32.1658 52.5797 32.7031 52.1187C32.3871 52.1937 32.0815 52.2688 31.7654 52.3331C31.1017 52.4832 30.4169 52.6012 29.7426 52.7084C29.5529 53.4053 29.1947 54.0272 28.9313 54.7134ZM26.5818 54.5954C26.329 55.1422 26.0234 55.6247 25.602 56.0429C26.3816 56.0643 27.1613 56.0643 27.962 56.0429C28.2043 55.6033 28.3624 55.1315 28.5626 54.6598C28.8365 54.0164 29.2263 53.416 29.437 52.7513C28.7733 52.8478 28.1201 52.9228 27.4563 52.9871C26.919 53.2552 26.8136 54.0915 26.5818 54.5954ZM24.7275 53.1373C24.4852 54.1666 23.6002 54.9385 23.3684 55.9571C23.8109 55.9785 24.2534 56 24.6959 56.0321C24.8223 56.0429 24.9382 56.0429 25.0647 56.0429C25.0541 55.9571 25.0752 55.8713 25.17 55.7963C25.8759 55.2495 26.2447 54.4453 26.5818 53.6305C26.6766 53.416 26.7715 53.2123 26.9084 53.0408C26.1815 53.0944 25.4545 53.1265 24.7275 53.1373ZM22.1462 53.0729C21.8723 54.0593 21.2402 55.0886 20.5132 55.7212C21.3244 55.8177 22.1252 55.882 22.9259 55.9356C23.1893 54.8849 24.148 54.1666 24.4536 53.1373C23.6845 53.148 22.9154 53.1158 22.1462 53.0729ZM19.0803 53.8878C18.8064 54.3917 18.4692 54.9064 18.0583 55.3245C18.7116 55.4639 19.3753 55.5818 20.0391 55.6569C20.0496 55.614 20.0601 55.5711 20.1023 55.5282C20.7871 54.8206 21.5036 54.0057 21.8407 53.0408C21.0821 52.9872 20.3341 52.9014 19.586 52.7942C19.4596 53.1801 19.27 53.5554 19.0803 53.8878ZM15.8142 53.8663C15.7299 54.1022 15.6772 54.3381 15.593 54.5633C16.1198 54.7991 16.6676 55.0029 17.2576 55.1422C17.3524 55.1637 17.4578 55.1851 17.5632 55.2066L17.5737 55.1958C18.248 54.6276 19.0592 53.6948 19.3753 52.7513C18.4692 52.6226 17.5632 52.4296 16.6676 52.2152C16.2989 52.7084 16.0144 53.2552 15.8142 53.8663ZM14.276 51.5397C14.0547 52.0865 13.7808 52.8049 13.4015 53.3731C13.981 53.7377 14.571 54.0808 15.2031 54.381C15.4665 53.9521 15.6246 53.341 15.8247 52.9657C15.9723 52.6762 16.1514 52.4082 16.341 52.1509C15.6456 51.9686 14.9608 51.7649 14.276 51.5397ZM11.3997 50.3818C11.2943 50.8857 11.1574 51.3896 11.0415 51.8935C11.3681 52.1187 11.6947 52.3331 12.0213 52.5261C12.369 52.7406 12.7061 52.955 13.0433 53.1587C13.1803 52.9657 13.3067 52.762 13.4015 52.5904C13.6228 52.2152 13.8019 51.8292 13.9704 51.4325C13.1065 51.1216 12.2426 50.7677 11.3997 50.3818ZM9.48218 49.4275C9.35575 49.7384 9.19772 50.0279 9.05022 50.3389C9.59808 50.8214 10.167 51.2717 10.7359 51.6898C10.8834 51.2181 11.031 50.757 11.1363 50.2745C10.5779 50.0065 10.03 49.7277 9.48218 49.4275ZM7.8702 48.4626C7.36448 48.1302 6.90091 47.7656 6.44787 47.3796C7.09055 48.3553 7.88074 49.256 8.74468 50.0601C8.90271 49.8028 9.06075 49.5347 9.18718 49.256C8.74468 48.9986 8.30217 48.7413 7.8702 48.4626ZM15.9406 4.44952C8.70253 7.20502 4.08784 14.4208 2.73926 21.9368C1.54871 28.6058 1.41175 36.883 5.07821 42.8658C8.46021 48.3661 15.3612 50.5962 21.5984 51.3038C21.5352 50.9286 21.7986 50.5104 22.2727 50.6391C26.1604 51.7434 31.4599 51.0036 35.2844 49.9422C35.8112 49.7921 36.338 49.6419 36.8437 49.4918C40.447 48.0337 43.5866 45.7714 45.2197 42.5227C47.3269 37.6657 47.8115 31.9938 47.6008 26.6329C47.3058 23.0411 46.5893 19.5029 45.62 16.2864C44.5243 12.6517 42.7227 9.00628 40.015 6.33655C39.9288 6.24887 39.8514 6.17889 39.7668 6.10248L39.7411 6.07923C39.1405 5.60747 38.5084 5.15716 37.813 4.76045C31.049 0.900596 23.0102 1.75834 15.9406 4.44952Z" fill="#333333"/>
<path d="M27.2072 15.7873C27.3385 15.7873 27.4369 15.8037 27.5025 15.8365C27.5682 15.8365 27.6174 15.9022 27.6502 16.0334C27.7158 16.1318 27.7486 16.3123 27.7486 16.5748C27.7486 17.067 27.5025 18.6092 27.0104 21.2014C26.551 23.7936 26.2721 25.4342 26.1736 26.1233C26.9939 26.1233 28.2572 26.0576 29.9635 25.9264C31.6697 25.7623 33.2119 25.6803 34.59 25.6803C35.1479 25.6803 35.5416 25.7295 35.7713 25.8279C36.001 25.8936 36.1158 26.1233 36.1158 26.517C36.1158 26.8451 35.0986 27.1404 33.0643 27.4029C31.0299 27.6326 28.651 27.7967 25.9275 27.8951C25.7307 29.4045 25.583 30.8811 25.4846 32.3248C25.3861 33.7358 25.3205 34.8022 25.2877 35.524C25.2877 36.2459 25.2549 36.9022 25.1893 37.4928C25.1564 38.0506 25.0744 38.428 24.9432 38.6248C24.8119 38.7889 24.5986 38.8709 24.3033 38.8709C23.6799 38.8709 23.3682 37.9358 23.3682 36.0655C23.3682 35.1139 23.6143 32.3905 24.1064 27.8951H20.6611C16.4611 27.8951 14.3611 27.6654 14.3611 27.2061C14.3611 26.2873 14.8369 25.8279 15.7885 25.8279C16.8057 25.8279 18.1838 25.8772 19.9228 25.9756C21.6619 26.074 23.1057 26.1233 24.2541 26.1233C24.3197 25.6967 24.3854 25.0569 24.451 24.2037C24.5166 23.1537 24.6314 22.0873 24.7955 21.0045C24.9596 19.8889 25.2549 18.7404 25.6814 17.5592C26.108 16.3779 26.6166 15.7873 27.2072 15.7873Z" fill="#333333"/>
<path d="M27.5025 15.8365L27.3558 16.13L27.4251 16.1647H27.5025V15.8365ZM27.6502 16.0334L27.3319 16.113L27.3457 16.1681L27.3772 16.2154L27.6502 16.0334ZM27.0104 21.2014L26.688 21.1402L26.6873 21.1441L27.0104 21.2014ZM26.1736 26.1233L25.8488 26.0769L25.7953 26.4514H26.1736V26.1233ZM29.9635 25.9264L29.9886 26.2536L29.9949 26.253L29.9635 25.9264ZM35.7713 25.8279L35.642 26.1295L35.6612 26.1377L35.6812 26.1434L35.7713 25.8279ZM33.0643 27.4029L33.1011 27.729L33.1063 27.7284L33.0643 27.4029ZM25.9275 27.8951L25.9157 27.5672L25.6381 27.5773L25.6022 27.8527L25.9275 27.8951ZM25.4846 32.3248L25.8119 32.3477L25.8119 32.3471L25.4846 32.3248ZM25.2877 35.524L24.9599 35.5091L24.9596 35.5166V35.524H25.2877ZM25.1893 37.4928L24.8631 37.4566L24.8622 37.465L24.8617 37.4735L25.1893 37.4928ZM24.9432 38.6248L25.1994 38.8298L25.2083 38.8187L25.2162 38.8068L24.9432 38.6248ZM24.1064 27.8951L24.4326 27.9308L24.4725 27.567H24.1064V27.8951ZM24.2541 26.1233V26.4514H24.5356L24.5784 26.1732L24.2541 26.1233ZM24.451 24.2037L24.7782 24.2289L24.7785 24.2242L24.451 24.2037ZM24.7955 21.0045L25.1199 21.0537L25.1201 21.0522L24.7955 21.0045ZM25.6814 17.5592L25.9901 17.6706L25.6814 17.5592ZM27.2072 16.1154C27.2601 16.1154 27.2987 16.1188 27.3255 16.1233C27.3533 16.1279 27.3606 16.1324 27.3558 16.13L27.6493 15.5431C27.5151 15.476 27.3552 15.4592 27.2072 15.4592V16.1154ZM27.5025 16.1647C27.4614 16.1647 27.4207 16.1536 27.3859 16.1337C27.3532 16.1151 27.3345 16.0937 27.3262 16.0826C27.3129 16.065 27.3201 16.0658 27.3319 16.113L27.9685 15.9538C27.9475 15.8698 27.9136 15.7722 27.8512 15.6889C27.7818 15.5964 27.6643 15.5084 27.5025 15.5084V16.1647ZM27.3772 16.2154C27.3753 16.2126 27.3888 16.2334 27.4012 16.3013C27.4129 16.3659 27.4205 16.4556 27.4205 16.5748H28.0768C28.0768 16.4315 28.0679 16.2998 28.0469 16.1839C28.0264 16.0713 27.9907 15.9527 27.9232 15.8514L27.3772 16.2154ZM27.4205 16.5748C27.4205 16.7902 27.364 17.2724 27.24 18.0489C27.1177 18.8154 26.9338 19.8454 26.688 21.1402L27.3327 21.2626C27.5791 19.9652 27.7643 18.928 27.8881 18.1523C28.0103 17.3866 28.0768 16.8516 28.0768 16.5748H27.4205ZM26.6873 21.1441C26.2282 23.7345 25.9482 25.3812 25.8488 26.0769L26.4985 26.1697C26.596 25.4872 26.8737 23.8526 27.3334 21.2586L26.6873 21.1441ZM26.1736 26.4514C27.0072 26.4514 28.281 26.3849 29.9886 26.2535L29.9383 25.5992C28.2335 25.7304 26.9807 25.7951 26.1736 25.7951V26.4514ZM29.9949 26.253C31.6931 26.0897 33.2246 26.0084 34.59 26.0084V25.3522C33.1993 25.3522 31.6464 25.4349 29.9321 25.5998L29.9949 26.253ZM34.59 26.0084C35.1449 26.0084 35.4791 26.0597 35.642 26.1295L35.9005 25.5264C35.6041 25.3993 35.1508 25.3522 34.59 25.3522V26.0084ZM35.6812 26.1434C35.7004 26.1489 35.7165 26.1567 35.7362 26.1962C35.7619 26.2476 35.7877 26.3464 35.7877 26.517H36.444C36.444 26.2939 36.4123 26.081 36.3232 25.9027C36.2281 25.7125 36.0719 25.5726 35.8614 25.5124L35.6812 26.1434ZM35.7877 26.517C35.7877 26.416 35.8619 26.4108 35.7536 26.4772C35.6636 26.5324 35.5058 26.5985 35.2614 26.6695C34.7778 26.8099 34.0352 26.9468 33.0223 27.0775L33.1063 27.7284C34.1277 27.5966 34.9109 27.4546 35.4444 27.2997C35.7087 27.223 35.9323 27.1374 36.0966 27.0367C36.2426 26.9472 36.444 26.782 36.444 26.517H35.7877ZM33.0275 27.0769C31.0036 27.3054 28.6333 27.469 25.9157 27.5672L25.9394 28.223C28.6686 28.1244 31.0562 27.9599 33.1011 27.729L33.0275 27.0769ZM25.6022 27.8527C25.4045 29.3684 25.2561 30.8517 25.1572 32.3025L25.8119 32.3471C25.9099 30.9105 26.0569 29.4406 26.2529 27.9376L25.6022 27.8527ZM25.1572 32.302C25.0588 33.7136 24.9929 34.7832 24.9599 35.5091L25.6155 35.5389C25.6481 34.8212 25.7135 33.7579 25.8119 32.3477L25.1572 32.302ZM24.9596 35.524C24.9596 36.2363 24.9272 36.8802 24.8631 37.4566L25.5154 37.529C25.5826 36.9241 25.6158 36.2556 25.6158 35.524H24.9596ZM24.8617 37.4735C24.8459 37.7423 24.8187 37.9579 24.7825 38.1245C24.7454 38.2952 24.7032 38.3933 24.6701 38.4428L25.2162 38.8068C25.3144 38.6595 25.3788 38.4705 25.4238 38.2639C25.4696 38.0531 25.4998 37.8011 25.5168 37.5121L24.8617 37.4735ZM24.6869 38.4198C24.6404 38.478 24.5415 38.5428 24.3033 38.5428V39.199C24.6558 39.199 24.9834 39.0997 25.1994 38.8298L24.6869 38.4198ZM24.3033 38.5428C24.2096 38.5428 24.0548 38.4905 23.9132 38.0658C23.7745 37.6495 23.6963 36.991 23.6963 36.0655H23.04C23.04 37.0102 23.1177 37.7544 23.2907 38.2733C23.4608 38.7838 23.7736 39.199 24.3033 39.199V38.5428ZM23.6963 36.0655C23.6963 35.1363 23.9395 32.4349 24.4326 27.9308L23.7803 27.8594C23.289 32.346 23.04 35.0915 23.04 36.0655H23.6963ZM24.1064 27.567H20.6611V28.2233H24.1064V27.567ZM20.6611 27.567C18.5638 27.567 17.0034 27.5095 15.9718 27.3967C15.4529 27.3399 15.0865 27.271 14.8572 27.1958C14.7407 27.1576 14.6822 27.1248 14.659 27.107C14.6371 27.0902 14.6893 27.122 14.6893 27.2061H14.033C14.033 27.405 14.1508 27.5444 14.2601 27.6281C14.3681 27.7108 14.5065 27.7714 14.6526 27.8193C14.9482 27.9163 15.3693 27.991 15.9005 28.049C16.9689 28.1659 18.5584 28.2233 20.6611 28.2233V27.567ZM14.6893 27.2061C14.6893 26.8003 14.7937 26.5555 14.9459 26.4085C15.1002 26.2595 15.3604 26.1561 15.7885 26.1561V25.4998C15.2649 25.4998 14.8115 25.626 14.49 25.9364C14.1664 26.2489 14.033 26.6931 14.033 27.2061H14.6893ZM15.7885 26.1561C16.7967 26.1561 18.1677 26.2049 19.9043 26.3032L19.9414 25.648C18.1998 25.5494 16.8147 25.4998 15.7885 25.4998V26.1561ZM19.9043 26.3032C21.6467 26.4018 23.0972 26.4514 24.2541 26.4514V25.7951C23.1141 25.7951 21.6771 25.7462 19.9414 25.648L19.9043 26.3032ZM24.5784 26.1732C24.646 25.7339 24.7124 25.0839 24.7781 24.2289L24.1238 24.1786C24.0583 25.0298 23.9935 25.6595 23.9298 26.0734L24.5784 26.1732ZM24.7785 24.2242C24.8435 23.1842 24.9573 22.1273 25.1199 21.0537L24.4711 20.9554C24.3056 22.0473 24.1897 23.1233 24.1235 24.1833L24.7785 24.2242ZM25.1201 21.0522C25.2807 19.9606 25.5701 18.8335 25.9901 17.6706L25.3728 17.4477C24.9396 18.6473 24.6385 19.8171 24.4709 20.9568L25.1201 21.0522ZM25.9901 17.6706C26.197 17.0975 26.4143 16.6966 26.6315 16.4444C26.8446 16.1969 27.0357 16.1154 27.2072 16.1154V15.4592C26.7881 15.4592 26.4296 15.6731 26.1342 16.0162C25.8428 16.3546 25.5924 16.8397 25.3728 17.4477L25.9901 17.6706Z" fill="#333333"/>
</g>
<defs>
<clipPath id="clip0_509_1162">
<rect width="52.5" height="57.2116" fill="white"/>
</clipPath>
</defs>
</svg>
